<svg width="80" height="69" viewBox="0 0 80 69" fill="none" xmlns="http://www.w3.org/2000/svg">
<rect x="0.5" y="0.5" width="8.7561" height="9.73171" stroke="black"/>
<rect x="47.3293" y="0.5" width="8.7561" height="9.73171" stroke="black"/>
<rect x="47.3293" y="45.3781" width="8.7561" height="9.73171" stroke="black"/>
<rect x="0.5" y="45.3781" width="8.7561" height="9.73171" stroke="black"/>
<rect x="12.2073" y="0.5" width="8.7561" height="9.73171" stroke="black"/>
<rect x="59.0366" y="0.5" width="8.7561" height="9.73171" stroke="black"/>
<rect x="59.0366" y="45.3781" width="8.7561" height="9.73171" stroke="black"/>
<rect x="12.2073" y="45.3781" width="8.7561" height="9.73171" stroke="black"/>
<rect x="23.9146" y="0.5" width="8.7561" height="9.73171" stroke="black"/>
<rect x="70.7439" y="0.5" width="8.7561" height="9.73171" stroke="black"/>
<rect x="70.7439" y="45.3781" width="8.7561" height="9.73171" stroke="black"/>
<rect x="23.9146" y="45.3781" width="8.7561" height="9.73171" stroke="black"/>
<rect x="23.9146" y="13.1829" width="8.7561" height="9.73171" stroke="black"/>
<rect x="70.7439" y="13.1829" width="8.7561" height="9.73171" stroke="black"/>
<rect x="23.9146" y="58.061" width="8.7561" height="9.73171" stroke="black"/>
<rect x="12.2073" y="13.1829" width="8.7561" height="9.73171" stroke="black"/>
<rect x="59.0366" y="13.1829" width="8.7561" height="9.73171" stroke="black"/>
<rect x="0.5" y="13.1829" width="8.7561" height="9.73171" stroke="black"/>
<rect x="47.3293" y="13.1829" width="8.7561" height="9.73171" stroke="black"/>
<rect x="0.5" y="58.061" width="8.7561" height="9.73171" stroke="black"/>
<rect x="23.9146" y="25.8658" width="8.7561" height="9.73171" stroke="black"/>
<rect x="70.7439" y="25.8658" width="8.7561" height="9.73171" stroke="black"/>
</svg>
