<svg xmlns:dc="http://purl.org/dc/elements/1.1/" xmlns:cc="http://creativecommons.org/ns#" xmlns:rdf="http://www.w3.org/1999/02/22-rdf-syntax-ns#" xmlns:svg="http://www.w3.org/2000/svg" xmlns="http://www.w3.org/2000/svg" xmlns:sodipodi="http://sodipodi.sourceforge.net/DTD/sodipodi-0.dtd" xmlns:inkscape="http://www.inkscape.org/namespaces/inkscape" version="1.1" x="0px" y="0px" viewBox="0 0 100 125"><g transform="translate(0,-952.36218)"><path style="text-indent:0;text-transform:none;direction:ltr;block-progression:tb;baseline-shift:baseline;color:#000000;enable-background:accumulate;" d="m 18.000066,971.36217 c -2.8246,0 -5,2.2074 -5,5 l 0,42.00003 c 10e-5,0.5236 0.4764,0.9999 1,1 l 72,0 c 0.5236,-10e-5 1,-0.4764 1,-1 l 0,-42.00003 c 0,-2.7926 -2.1754,-5 -5,-5 l -64,0 z m 0,2 64,0 c 1.8681,0 3,1.1591 3,3 l 0,41.00003 -70,0 0,-41.00003 c 0,-1.8409 1.1319,-3 3,-3 z m 28,6 c -6.6137,0 -12,5.3863 -12,12 0,6.6137 5.3863,12.00003 12,12.00003 2.9493,0 5.6584,-1.0711 7.75,-2.8438 l 10.5625,10.5626 c 0.3871,0.3871 1.0192,0.3872 1.4063,0 0.387,-0.3872 0.387,-1.0193 0,-1.4063 l -10.5626,-10.56253 c 1.7728,-2.0916 2.8438,-4.8006 2.8438,-7.75 0,-6.6137 -5.3864,-12 -12,-12 z m 0,2 c 5.5331,0 10,4.4669 10,10 0,5.5331 -4.4669,10.00003 -10,10.00003 -5.5331,0 -10,-4.46693 -10,-10.00003 0,-5.5331 4.4669,-10 10,-10 z M 7.8125662,1024.3622 c -0.4584,0.088 -0.8207,0.5334 -0.8125,1 l 0,3 c 0,1.6609 0.9934,3.0068 2.3125,3.8125 1.3190998,0.8057 2.9751998,1.1875 4.6874998,1.1875 l 72,0 c 1.7124,0 3.3684,-0.3818 4.687504,-1.1875 1.3191,-0.8057 2.3125,-2.1516 2.3125,-3.8125 l 0,-3 c 0,-0.5236 -0.4764,-0.9999 -1,-1 l -84.1875038,0 z m 1.1875,2 82.0000038,0 0,2 c 0,0.916 -0.4432,1.5435 -1.343804,2.0938 -0.9006,0.55 -2.2478,0.9062 -3.6562,0.9062 l -72,0 c -1.4083,0 -2.7556,-0.3562 -3.6562,-0.9062 -0.9007998,-0.5503 -1.3437998,-1.1778 -1.3437998,-2.0938 l 0,-2 z" fill="#000000" fill-opacity="1" stroke="none" marker="none" visibility="visible" display="inline" overflow="visible"/></g><text x="0" y="115" fill="#000000" font-size="5px" font-weight="bold" font-family="'Helvetica Neue', Helvetica, Arial-Unicode, Arial, Sans-serif">Created by iconsphere</text><text x="0" y="120" fill="#000000" font-size="5px" font-weight="bold" font-family="'Helvetica Neue', Helvetica, Arial-Unicode, Arial, Sans-serif">from the Noun Project</text></svg>