<svg xmlns="http://www.w3.org/2000/svg" xmlns:xlink="http://www.w3.org/1999/xlink" version="1.1" x="0px" y="0px" viewBox="0 0 100 125" style="enable-background:new 0 0 100 100;" xml:space="preserve"><g><path d="M20,75.9c4,0,7.2-3.6,7.2-8s-3.2-8-7.2-8s-7.2,3.6-7.2,8S16,75.9,20,75.9z M20,62.9c2.3,0,4.2,2.2,4.2,5s-1.9,5-4.2,5   s-4.2-2.2-4.2-5S17.7,62.9,20,62.9z"/><path d="M20,77.9c-5.9,0-10.8,4.8-10.8,10.8V95c0,0.8,0.7,1.5,1.5,1.5h18.6c0.8,0,1.5-0.7,1.5-1.5v-6.3   C30.8,82.7,25.9,77.9,20,77.9z M27.8,93.5H12.2v-4.8c0-4.3,3.5-7.8,7.8-7.8s7.8,3.5,7.8,7.8V93.5z"/><path d="M72.8,67.9c0,4.4,3.2,8,7.2,8s7.2-3.6,7.2-8s-3.2-8-7.2-8S72.8,63.5,72.8,67.9z M80,62.9c2.3,0,4.2,2.2,4.2,5s-1.9,5-4.2,5   s-4.2-2.2-4.2-5S77.7,62.9,80,62.9z"/><path d="M80,77.9c-5.9,0-10.8,4.8-10.8,10.8V95c0,0.8,0.7,1.5,1.5,1.5h18.6c0.8,0,1.5-0.7,1.5-1.5v-6.3   C90.8,82.7,85.9,77.9,80,77.9z M87.8,93.5H72.2v-4.8c0-4.3,3.5-7.8,7.8-7.8s7.8,3.5,7.8,7.8V93.5z"/><path d="M42.8,67.9c0,4.4,3.2,8,7.2,8s7.2-3.6,7.2-8s-3.2-8-7.2-8S42.8,63.5,42.8,67.9z M54.2,67.9c0,2.8-1.9,5-4.2,5   s-4.2-2.2-4.2-5s1.9-5,4.2-5S54.2,65.2,54.2,67.9z"/><path d="M50,77.9c-5.9,0-10.8,4.8-10.8,10.8V95c0,0.8,0.7,1.5,1.5,1.5h18.6c0.8,0,1.5-0.7,1.5-1.5v-6.3   C60.8,82.7,55.9,77.9,50,77.9z M57.8,93.5H42.2v-4.8c0-4.3,3.5-7.8,7.8-7.8s7.8,3.5,7.8,7.8V93.5z"/><path d="M22.3,37.7c-0.4,0.4-0.6,1.1-0.3,1.6c0.2,0.6,0.8,0.9,1.4,0.9h16.9c0.5,0,1,0,1.6-0.1c1.9,8.2,9.2,14.3,17.9,14.3h16.9   c0.6,0,1.2-0.4,1.4-0.9c0.2-0.6,0.1-1.2-0.3-1.6L73.8,48c2.8-3.3,4.4-7.5,4.4-11.9c0-10.1-8.3-18.4-18.4-18.4c-0.5,0-1,0-1.6,0.1   C56.3,9.6,49,3.5,40.3,3.5c-10.1,0-18.4,8.3-18.4,18.4c0,4.4,1.5,8.6,4.4,11.9L22.3,37.7z M59.7,20.7c8.5,0,15.4,6.9,15.4,15.4   c0,4.1-1.6,8-4.5,10.9c-0.3,0.3-0.4,0.7-0.4,1.1s0.2,0.8,0.4,1.1l2.4,2.4H59.7c-7.2,0-13.3-5-15-11.8c8-2,13.9-9.2,13.9-17.8   c0-0.4,0-0.8-0.1-1.1C59,20.7,59.4,20.7,59.7,20.7z M44.3,36.1c0-7.1,4.8-13,11.3-14.8c0,0.2,0,0.4,0,0.6c0,7.1-4.8,13-11.3,14.8   C44.4,36.5,44.3,36.3,44.3,36.1z M24.9,21.9c0-8.5,6.9-15.4,15.4-15.4c7.2,0,13.3,5,15,11.8c-8,2-13.9,9.2-13.9,17.8   c0,0.4,0,0.8,0.1,1.1c-0.4,0-0.8,0.1-1.1,0.1H27l2.4-2.4c0.3-0.3,0.4-0.7,0.4-1.1s-0.2-0.8-0.4-1.1C26.5,29.9,24.9,26,24.9,21.9z"/></g><text x="0" y="115" fill="#000000" font-size="5px" font-weight="bold" font-family="'Helvetica Neue', Helvetica, Arial-Unicode, Arial, Sans-serif">Created by Justin Blake</text><text x="0" y="120" fill="#000000" font-size="5px" font-weight="bold" font-family="'Helvetica Neue', Helvetica, Arial-Unicode, Arial, Sans-serif">from the Noun Project</text></svg>