<svg id="Capa_1" enable-background="new 0 0 511.803 511.803" height="512" viewBox="0 0 511.803 511.803" width="512" xmlns="http://www.w3.org/2000/svg"><g><g><path d="m309.749 275.179h155.75c4.143 0 7.5-3.357 7.5-7.5s-3.357-7.5-7.5-7.5h-155.75c-4.143 0-7.5 3.357-7.5 7.5s3.357 7.5 7.5 7.5z"/><path d="m309.749 308.485h155.75c4.143 0 7.5-3.357 7.5-7.5s-3.357-7.5-7.5-7.5h-155.75c-4.143 0-7.5 3.357-7.5 7.5s3.357 7.5 7.5 7.5z"/><g><path d="m496.041 20.961h-214.863c-8.691 0-15.763 7.071-15.763 15.763v395.988c0 10.483 8.529 19.012 19.013 19.012h17.821v24.118h-93.481v-24.118h18.608c10.483 0 19.012-8.528 19.012-19.012v-96.145c0-4.143-3.357-7.5-7.5-7.5s-7.5 3.357-7.5 7.5v96.145c0 2.212-1.8 4.012-4.012 4.012h-18.608v-47.8c0-7.843-6.381-14.224-14.224-14.224h-17.806v-6.322c0-6.785-5.521-12.306-12.306-12.306h-115.846c-6.785 0-12.306 5.521-12.306 12.306v27.646c0 6.785 5.521 12.306 12.306 12.306h115.847c6.785 0 12.306-5.521 12.306-12.306v-6.324h17.029v47.023h-174.755c-2.213 0-4.013-1.8-4.013-4.012v-356.267h216.388v224.541c0 4.143 3.357 7.5 7.5 7.5s7.5-3.357 7.5-7.5v-232.041-32.22c0-8.691-7.07-15.763-15.762-15.763h-214.863c-8.692 0-15.763 7.071-15.763 15.763v395.988c0 10.483 8.529 19.012 19.013 19.012h174.755v24.895c0 7.843 6.381 14.224 14.224 14.224h95.034c7.843 0 14.224-6.381 14.224-14.224v-24.895h175.542c10.483 0 19.012-8.528 19.012-19.012v-395.988c-.001-8.692-7.072-15.763-15.763-15.763zm-334.303 372.368h-110.458v-22.257h110.458zm-100.916-357.368h169.804c.42 0 .762.342.762.763v24.71h-170.566zm-45.822.763c0-.421.342-.763.763-.763h30.06v25.473h-30.823zm481.803 0v24.71h-170.566v-25.473h169.804c.42 0 .762.342.762.763zm-215.625-.763h30.06v25.473h-30.822v-24.71c-.001-.421.341-.763.762-.763zm211.613 400.763h-208.363c-2.213 0-4.013-1.8-4.013-4.012v-356.268h216.388v356.268c0 2.212-1.8 4.012-4.012 4.012z"/><path d="m462.662 105.59c-.08 0-75.426 0-75.426 0-4.143 0-7.5 3.357-7.5 7.5s3.357 7.5 7.5 7.5h57.316l-55.634 43.174-55.634-43.174h18.951c4.143 0 7.5-3.357 7.5-7.5s-3.357-7.5-7.5-7.5h-37.68c-6.786 0-12.308 5.521-12.308 12.309v110.718c0 6.787 5.521 12.309 12.308 12.309h148.106c6.677 0 12.308-5.568 12.308-12.309 0-.001 0-110.718 0-110.718.002-6.913-5.674-12.309-12.307-12.309zm-145.413 21.541 59.437 46.126-59.437 46.126zm16.036 98.794 55.634-43.174 55.634 43.174zm126.686-7.022-58.818-45.646 58.818-45.646z"/></g><path d="m309.749 341.792h155.75c4.143 0 7.5-3.357 7.5-7.5s-3.357-7.5-7.5-7.5h-155.75c-4.143 0-7.5 3.357-7.5 7.5s3.357 7.5 7.5 7.5z"/><path d="m309.749 374.567h155.75c4.143 0 7.5-3.357 7.5-7.5s-3.357-7.5-7.5-7.5h-155.75c-4.143 0-7.5 3.357-7.5 7.5s3.357 7.5 7.5 7.5z"/><path d="m309.749 407.567h155.75c4.143 0 7.5-3.357 7.5-7.5s-3.357-7.5-7.5-7.5h-155.75c-4.143 0-7.5 3.357-7.5 7.5s3.357 7.5 7.5 7.5z"/><path d="m210.108 117.898c0-4.669-3.07-9.361-7.347-11.255-1.519-.672-3.195-1.053-4.961-1.053h-148.105c-6.787 0-12.309 5.521-12.309 12.309v110.718c0 6.787 5.521 12.309 12.309 12.309h148.105c1.772 0 3.454-.384 4.978-1.062 4.422-1.966 7.329-6.36 7.329-11.247.001-.001.001-110.714.001-110.719zm-30.417 2.692-55.634 43.174-55.633-43.174zm-127.304 6.541 59.438 46.126-59.438 46.126zm16.037 98.794 55.634-43.174 55.634 43.174zm126.684-7.022-58.818-45.646 58.818-45.646z"/><path d="m200.637 260.179h-155.75c-4.143 0-7.5 3.357-7.5 7.5s3.357 7.5 7.5 7.5h155.75c4.143 0 7.5-3.357 7.5-7.5s-3.358-7.5-7.5-7.5z"/><path d="m200.637 293.485h-155.75c-4.143 0-7.5 3.357-7.5 7.5s3.357 7.5 7.5 7.5h155.75c4.143 0 7.5-3.357 7.5-7.5s-3.358-7.5-7.5-7.5z"/><path d="m200.637 326.792h-155.75c-4.143 0-7.5 3.357-7.5 7.5s3.357 7.5 7.5 7.5h155.75c4.143 0 7.5-3.357 7.5-7.5s-3.358-7.5-7.5-7.5z"/></g></g></svg>