<!DOCTYPE svg PUBLIC "-//W3C//DTD SVG 1.1//EN" "http://www.w3.org/Graphics/SVG/1.1/DTD/svg11.dtd">
<svg xmlns="http://www.w3.org/2000/svg">
    <symbol id="lexicon-site-bell" viewBox="0 0 32 32">
        <path d="M16 26.1c-1.2 0-2.1 0-3-.1.3 1.2 1.5 2 3 2s2.7-.8 3-2c-.9.1-1.8.1-3 .1zm9-7.6c-.5-.9-1.2-1.9-1.2-2.8 0-5.3-2.3-8.9-6-9.7-.2-2-.9-2-1.8-2s-1.6 0-1.8 2c-3.7.9-6 4.5-6 9.7 0 .9-.6 2-1.2 2.8-.7 1.2-1.5 2.4-.8 3.5.7 1.3 2.6 2 9.8 2s9.1-.7 9.7-1.9c.6-1.2-.1-2.4-.7-3.6zm-.9 2.7c-.2.3-1.1 1-8.2 1s-8-.7-8.2-1c.1-.2.6-1.2.9-1.7.6-1 1.5-2.4 1.5-3.8 0-5.2 2.2-8.1 6-8.1s6 2.9 6 8.1c0 1.5.8 2.7 1.5 3.8.1.5.6 1.5.5 1.7z"/>
    </symbol>
    <symbol id="lexicon-site-doc" viewBox="0 0 32 32">
        <path d="M25.4 12L19 5.6c-.4-.4-.9-.6-1.4-.6H9C7.3 5 6 6.3 6 8v16c0 1.7 1.3 3 3 3h14c1.7 0 3-1.3 3-3V13.4c0-.5-.2-1-.6-1.4zM23 25H9c-.6 0-1-.4-1-1V8c0-.6.4-1 1-1h8l7 7v10c0 .6-.4 1-1 1z"/>
        <path d="M17 22h-6c-.6 0-1-.4-1-1s.4-1 1-1h6c.6 0 1 .4 1 1s-.4 1-1 1zm4-4H11c-.6 0-1-.4-1-1s.4-1 1-1h10c.6 0 1 .4 1 1s-.4 1-1 1zm-2-5c0 .6-.4 1-1 1h-7c-.6 0-1-.4-1-1s.4-1 1-1h7c.6 0 1 .4 1 1z"/>
    </symbol>
    <symbol id="lexicon-site-layers" viewBox="0 0 32 32">
        <path d="M26.1 19l-1.6-1-1.7 1.2 1.1.7-8.4 5.8-8.4-5.8 1.1-.7L6.5 18l-1.6 1c-.5.4-.5 1.3 0 1.7l9.9 7c.4.3.9.3 1.2 0l9.9-7c.7-.4.7-1.2.2-1.7z"/>
        <path d="M14.9 19.8l-10.1-7c-.5-.4-.5-1.2 0-1.6l10-6.9c.4-.3.9-.3 1.2 0l10 6.9c.5.4.5 1.2 0 1.6l-10 6.9c-.3.4-.7.4-1.1.1zM7 12l8.5 5.7L24 12l-8.5-5.7L7 12z"/>
    </symbol>
    <symbol id="lexicon-site-resources" viewBox="0 0 32 32">
        <path d="M22 15c-2.8 0-5-2.2-5-5s2.2-5 5-5 5 2.2 5 5-2.2 5-5 5zm0-8c-1.7 0-3 1.3-3 3s1.3 3 3 3 3-1.3 3-3-1.3-3-3-3zm1 20H6c-.6 0-1-.4-1-1V9c0-.9 1.1-1.3 1.7-.7l17 17c.6.6.2 1.7-.7 1.7zM7 25h13.6L7 11.4V25z"/>
    </symbol>
</svg>