<svg width="1056" height="1056" xmlns="http://www.w3.org/2000/svg" xmlns:xlink="http://www.w3.org/1999/xlink"><defs><circle id="a" cx="156" cy="324" r="60"/><circle id="b" cx="84" cy="444" r="60"/><circle id="c" cx="156" cy="324" r="60"/><circle id="d" cx="84" cy="444" r="60"/></defs><g fill="none" fill-rule="evenodd"><path fill="#F7F7F9" d="M0 0h1056v1056H0z"/><g stroke="#FFF" transform="translate(12 12)"><path stroke-width="24" d="M276 492h216V12H276z"/><path d="M285 300h128m-128 96h128M285 204h128" stroke-width="24" stroke-linecap="square"/><circle stroke-width="22" transform="matrix(1 0 0 -1 0 192)" cx="408" cy="96" r="37"/><path d="M164 431.224C150.695 424.063 135.475 420 119.307 420c-15.61 0-30.335 3.787-43.307 10.492" stroke-width="24" stroke-linejoin="round"/><path d="M120 485.255l108-129.6V115.2C228 58.316 179.754 12 120 12S12 58.316 12 115.2v240.455l108 129.6z" stroke-width="24"/><path d="M84 138v204.8M156 138v204.8" stroke-width="24" stroke-linecap="square"/><path d="M8 120h224.5M11.998 348h218.004" stroke-width="24"/></g><g transform="translate(540 540)" stroke="#FFF"><path stroke-width="24" d="M276 492h216V12H276z"/><path d="M285 300h128m-128 96h128M285 204h128" stroke-width="24" stroke-linecap="square"/><circle stroke-width="22" transform="matrix(1 0 0 -1 0 192)" cx="408" cy="96" r="37"/><path d="M164 431.224C150.695 424.063 135.475 420 119.307 420c-15.61 0-30.335 3.787-43.307 10.492" stroke-width="24" stroke-linejoin="round"/><path d="M120 485.255l108-129.6V115.2C228 58.316 179.754 12 120 12S12 58.316 12 115.2v240.455l108 129.6z" stroke-width="24"/><path d="M84 138v204.8M156 138v204.8" stroke-width="24" stroke-linecap="square"/><path d="M8 120h224.5M11.998 348h218.004" stroke-width="24"/></g><g transform="translate(540 12)"><path d="M0 324h240" stroke="#FFF" stroke-width="24"/><g transform="matrix(1 0 0 -1 0 648)"><use fill="#F7F7F9" xlink:href="#a"/><circle stroke="#FFF" stroke-width="24" cx="156" cy="324" r="48"/></g><path d="M0 445h240" stroke="#FFF" stroke-width="24"/><g transform="matrix(1 0 0 -1 0 888)"><use fill="#F7F7F9" xlink:href="#b"/><circle stroke="#FFF" stroke-width="24" cx="84" cy="444" r="48"/></g><circle stroke="#FFF" stroke-width="24" transform="matrix(1 0 0 -1 0 240)" cx="384" cy="120" r="108"/><circle stroke="#FFF" stroke-width="24" transform="matrix(1 0 0 -1 0 240)" cx="384" cy="120" r="42"/><path d="M228 168H120v48.783L51.186 168H12V12h216v156zM276 492h216V276H276z" stroke="#FFF" stroke-width="24"/><path stroke="#FFF" stroke-width="24" d="M318 382.974L362.71 426 450 342"/></g><g transform="translate(12 540)"><path d="M0 324h240" stroke="#FFF" stroke-width="24"/><g transform="matrix(1 0 0 -1 0 648)"><use fill="#F7F7F9" xlink:href="#c"/><circle stroke="#FFF" stroke-width="24" cx="156" cy="324" r="48"/></g><path d="M0 445h240" stroke="#FFF" stroke-width="24"/><g transform="matrix(1 0 0 -1 0 888)"><use fill="#F7F7F9" xlink:href="#d"/><circle stroke="#FFF" stroke-width="24" cx="84" cy="444" r="48"/></g><circle stroke="#FFF" stroke-width="24" transform="matrix(1 0 0 -1 0 240)" cx="384" cy="120" r="108"/><circle stroke="#FFF" stroke-width="24" transform="matrix(1 0 0 -1 0 240)" cx="384" cy="120" r="42"/><path d="M228 168H120v48.783L51.186 168H12V12h216v156zM276 492h216V276H276z" stroke="#FFF" stroke-width="24"/><path stroke="#FFF" stroke-width="24" d="M318 382.974L362.71 426 450 342"/></g></g></svg>