<svg width="1440" height="928" fill="none" xmlns="http://www.w3.org/2000/svg"><g clip-path="url(#clip0)" stroke="#fff"><path stroke-opacity=".2" stroke-linecap="square" stroke-linejoin="round" d="M32.5.5v927M64.5.5v927M96.5.5v927M128.5.5v927M192.5.5v927M224.5.5v927M256.5.5v927M288.5.5v927M352.5.5v927M384.5.5v927M416.5.5v927M448.5.5v927M512.5.5v927M544.5.5v927M576.5.5v927M608.5.5v927M672.5.5v927M704.5.5v927M736.5.5v927M768.5.5v927M832.5.5v927M864.5.5v927M896.5.5v927M928.5.5v927M992.5.5v927M1024.5.5v927M1056.5.5v927M1088.5.5v927M1152.5.5v927M1184.5.5v927M1216.5.5v927M1248.5.5v927M1312.5.5v927M1344.5.5v927M1376.5.5v927M1408.5.5v927"/><path stroke-opacity=".2" stroke-width="2" stroke-linecap="square" stroke-linejoin="round" d="M160 1v926M320 1v926M480 1v926M640 1v926M800 1v926M960 1v926M1120 1v926M1280 1v926"/><path stroke-opacity=".2" stroke-linecap="square" stroke-linejoin="round" d="M.5 31.5h1439M.5 63.5h1439M.5 95.5h1439M.5 127.5h1439M.5 191.5h1439M.5 223.5h1439M.5 255.5h1439M.5 287.5h1439M.5 351.5h1439M.5 383.5h1439M.5 415.5h1439M.5 447.5h1439M.5 511.5h1439M.5 543.5h1439M.5 575.5h1439M.5 607.5h1439M.5 671.5h1439M.5 703.5h1439M.5 735.5h1439M.5 767.5h1439M.5 831.5h1439M.5 863.5h1439M.5 895.5h1439"/><path stroke-opacity=".2" stroke-width="2" stroke-linecap="square" stroke-linejoin="round" d="M1 160h1438M1 320h1438M1 480h1438M1 640h1438M1 800h1438"/><circle cx="112" cy="112" r="112" transform="translate(1216 448)" stroke-opacity=".6" stroke-width="2" stroke-linecap="round" stroke-dasharray="16 16"/><circle cx="160" cy="160" r="160" transform="translate(-96 480)" stroke-opacity=".6" stroke-width="2" stroke-linecap="round" stroke-dasharray="16 16"/><circle cx="64" cy="64" r="64" transform="translate(0 576)" stroke-opacity=".6" stroke-width="2" stroke-linecap="round" stroke-dasharray="8 8"/><circle cx="64" cy="64" r="64" transform="translate(256 736)" stroke-opacity=".6" stroke-width="2" stroke-linecap="round" stroke-dasharray="8 8"/><rect width="320" height="320" rx="16" transform="translate(160 161)" stroke-opacity=".4" stroke-width="2" stroke-linecap="round" stroke-dasharray="8 8"/><circle cx="16" cy="16" r="16" transform="translate(160 449)" stroke-opacity=".4" stroke-width="2" stroke-linecap="round" stroke-dasharray="8 8"/><circle cx="16" cy="16" r="16" transform="translate(448 449)" stroke-opacity=".4" stroke-width="2" stroke-linecap="round" stroke-dasharray="8 8"/><circle cx="16" cy="16" r="16" transform="translate(160 161)" stroke-opacity=".4" stroke-width="2" stroke-linecap="round" stroke-dasharray="8 8"/><circle cx="16" cy="16" r="16" transform="translate(448 161)" stroke-opacity=".4" stroke-width="2" stroke-linecap="round" stroke-dasharray="8 8"/><path stroke-opacity=".6" stroke-width="2" stroke-linecap="round" stroke-linejoin="round" stroke-dasharray="16 16" d="M-158.586-159L480 479.586"/><rect width="480" height="480" rx="16" transform="translate(960 63)" stroke-opacity=".4" stroke-width="2" stroke-linecap="round" stroke-dasharray="8 8"/><circle cx="16" cy="16" r="16" transform="translate(960 63)" stroke-opacity=".4" stroke-width="2" stroke-linecap="round" stroke-dasharray="8 8"/><circle cx="16" cy="16" r="16" transform="translate(1408 63)" stroke-opacity=".4" stroke-width="2" stroke-linecap="round" stroke-dasharray="8 8"/><circle cx="16" cy="16" r="16" transform="translate(960 511)" stroke-opacity=".4" stroke-width="2" stroke-linecap="round" stroke-dasharray="8 8"/><circle cx="16" cy="16" r="16" transform="translate(1408 511)" stroke-opacity=".4" stroke-width="2" stroke-linecap="round" stroke-dasharray="8 8"/><path stroke-opacity=".6" stroke-width="2" stroke-linecap="round" stroke-linejoin="round" stroke-dasharray="16 16" d="M960 542.586L1439.586 63"/></g><defs><clipPath id="clip0"><path fill="#fff" d="M0 0h1440v928H0z"/></clipPath></defs></svg>