<svg width="108" height="108" fill="none" xmlns="http://www.w3.org/2000/svg"><path d="M14 21a8 8 0 0 1 8-8h64a8 8 0 0 1 8 8v49a8 8 0 0 1-8 8h-5.679a8 8 0 0 0-5.018 1.77L62.755 89.878c-1.309 1.054-3.255.123-3.255-1.557V86a8 8 0 0 0-8-8H22a8 8 0 0 1-8-8V21z" fill="#E8E8E7"/><path fill-rule="evenodd" clip-rule="evenodd" d="M34 54a4 4 0 0 1 4-4h8a4 4 0 0 1 4 4v8a4 4 0 0 1-4 4h-8a4 4 0 0 1-4-4v-8z" fill="#C4CACB"/><path d="M66 42a8 8 0 1 0 0-16 8 8 0 0 0 0 16z" fill="#C4CACB"/><path d="M34 34l8.13-8L50 34m-8 8V28v14zM58 58.5l8.13 8 7.87-8m-8-8v13.995V50.5z" stroke="#0B63CE" stroke-width="4" stroke-linecap="round" stroke-linejoin="round"/></svg>