<svg width="32" height="35" xmlns="http://www.w3.org/2000/svg"><g stroke="#272833" stroke-width=".1" fill="#FFF" fill-rule="evenodd"><path d="M16.156 15.839c-.859 0-1.555.706-1.555 1.576v15.46c0 .87.696 1.576 1.555 1.576s1.554-.706 1.555-1.576v-15.46c0-.87-.697-1.576-1.555-1.576m-3.11 15.233a1.567 1.567 0 0 1-1.556 1.576 1.566 1.566 0 0 1-1.555-1.576v-2.664c0-.871.697-1.576 1.555-1.577.86 0 1.555.706 1.555 1.577v2.664zm13.996-2.735c0 .87-.696 1.575-1.556 1.575a1.564 1.564 0 0 1-1.554-1.575v-2.034c0-.871.696-1.576 1.554-1.576.86 0 1.556.706 1.556 1.576v2.034zm-4.666 2.735c0 .87-.696 1.576-1.555 1.576a1.565 1.565 0 0 1-1.555-1.576V21.96c0-.87.696-1.577 1.555-1.577s1.555.706 1.555 1.577v9.113zm-3.11-14.484v1.009-1.02.011m3.11 1.008v-.607.607"/><path d="M21.03 12.987l-3.527-2.063c-.741-.434-1.953-.434-2.694 0l-3.527 2.063c-.74.433-1.347 1.497-1.347 2.364v8.754c0 .87.696 1.576 1.555 1.576.86 0 1.556-.706 1.556-1.576v-7.723c0-.433.303-.964.673-1.182l1.763-1.03c.37-.218.976-.218 1.347 0l1.763 1.03c.37.218.674.749.674 1.182v1.214c0 .87.696 1.576 1.555 1.576.858 0 1.554-.704 1.555-1.574v-2.247c0-.867-.606-1.93-1.347-2.364m.21-10.795l-.048-.028-1.668-.975c-1.853-1.084-4.882-1.084-6.735 0L3.971 6.347C2.119 7.429.604 10.089.604 12.256v1.843c.023.808.709 1.455 1.555 1.455s1.533-.648 1.555-1.455v-.812c0-1.733 1.212-3.86 2.693-4.727l7.055-4.127c1.482-.867 3.906-.867 5.387 0l.728.426.202.119c.207.102.437.16.68.16a1.57 1.57 0 0 0 1.56-1.579 1.58 1.58 0 0 0-.78-1.367m10.468 10.064c0-2.167-1.515-4.826-3.366-5.909l-3.469-2.03a1.53 1.53 0 0 0-.689-.163c-.86 0-1.557.707-1.557 1.579 0 .572.3 1.071.749 1.348l2.528 1.479c1.481.866 2.694 2.994 2.694 4.727v6.802c0 .87.696 1.576 1.555 1.576s1.556-.705 1.555-1.576v-7.833zM3.714 23.033c0 .87-.696 1.575-1.555 1.575a1.566 1.566 0 0 1-1.555-1.575v-4.621c0-.871.696-1.577 1.555-1.577s1.555.706 1.555 1.576v4.622z"/><path d="M24.348 9.47l-5.499-3.217c-1.481-.867-3.906-.867-5.387 0l-1.259.736c-.43.281-.716.77-.716 1.327 0 .873.697 1.58 1.558 1.58.257 0 .499-.065.712-.176l1.052-.616c.741-.433 1.953-.433 2.694 0l5.082 2.974c.74.432 1.347 1.497 1.347 2.363v7.5c0 .87.695 1.576 1.554 1.577.605 0 1.126-.35 1.385-.861a1.58 1.58 0 0 0 .17-.716v-7.744c0-1.733-1.21-3.86-2.693-4.727M9.326 8.914c-.26 0-.503.065-.719.18l-.644.376c-1.481.867-2.693 2.994-2.693 4.727v14.14a1.564 1.564 0 0 0 1.555 1.576c.858 0 1.554-.706 1.554-1.576V14.442c0-.868.607-1.931 1.348-2.365 0 0 .416-.238.472-.275.414-.284.685-.764.685-1.308a1.57 1.57 0 0 0-1.558-1.58"/></g></svg>