<svg width="40" height="41" xmlns="http://www.w3.org/2000/svg"><path d="M4.169.52A4.184 4.184 0 0 0 0 4.693v31.29a4.183 4.183 0 0 0 4.169 4.168h31.257a4.184 4.184 0 0 0 4.17-4.173V4.693C39.59 2.4 37.714.52 35.421.52H4.17zm6.251 4.173v6.258H4.17V4.693h6.251zm8.334 0v6.258h-6.251V4.693h6.251zm8.334 0v6.258h-6.251V4.693h6.251zM10.42 13.036v6.258H4.17v-6.258h6.251zm8.334 0v6.258h-6.251v-6.258h6.251zm16.668 0v6.258h-6.251v-6.258h6.251zM10.42 21.378v6.258H4.17v-6.258h6.251zm16.668 0v6.258h-6.251v-6.258h6.251zm8.334 0v6.258h-6.251v-6.258h6.251zM18.754 29.72v6.258h-6.251V29.72h6.251zm8.334 0v6.258h-6.251V29.72h6.251zm8.334 0v6.258h-6.251V29.72h6.251z" fill="#FFF"/></svg>