<svg width="24" height="24" xmlns="http://www.w3.org/2000/svg"><g fill="#FFF"><path d="M9.954 10.958l3.178-1.064 1.028 3.07-3.178 1.064z"/><path d="M9.954 10.958l3.178-1.064 1.028 3.07-3.178 1.064z"/><path d="M22.971 8.667c-2.457-8.19-6-10.096-14.19-7.638-8.19 2.457-10.095 6-7.638 14.19 2.457 8.19 6 10.095 14.19 7.638 8.19-2.457 10.096-6 7.638-14.19zm-4.133 5.314l-1.543.514.534 1.6a1.236 1.236 0 0 1-.781 1.562c-.134.038-.286.076-.42.057a1.271 1.271 0 0 1-1.142-.838l-.534-1.6-3.18 1.067.533 1.6a1.236 1.236 0 0 1-.781 1.562c-.134.038-.286.076-.42.057a1.271 1.271 0 0 1-1.142-.838l-.533-1.6-1.543.514c-.134.038-.286.076-.42.057a1.271 1.271 0 0 1-1.142-.838 1.236 1.236 0 0 1 .78-1.562l1.544-.514-1.029-3.067-1.543.515c-.133.038-.286.076-.419.057a1.271 1.271 0 0 1-1.143-.838 1.236 1.236 0 0 1 .781-1.562l1.543-.515-.533-1.6a1.236 1.236 0 0 1 .78-1.561 1.236 1.236 0 0 1 1.563.78l.533 1.6 3.18-1.066-.532-1.6a1.236 1.236 0 0 1 .78-1.562 1.236 1.236 0 0 1 1.562.78l.534 1.6 1.543-.513a1.236 1.236 0 0 1 1.562.78 1.236 1.236 0 0 1-.781 1.562l-1.543.515 1.028 3.066 1.543-.514a1.236 1.236 0 0 1 1.562.781 1.236 1.236 0 0 1-.78 1.562z"/></g></svg>