<svg width="56" height="74" xmlns="http://www.w3.org/2000/svg"><g fill="#B3472D" fill-rule="evenodd"><path d="M55.924 22.166c0-4.395-3.105-9.792-6.9-11.99l-14.086-8.16c-3.796-2.198-10.005-2.198-13.801 0L7.05 10.177C3.254 12.374.15 17.77.15 22.166v32.56a3.991 3.991 0 0 0 3.984 3.998 3.994 3.994 0 0 0 3.985-3.997v-31.94c0-2.2 1.552-4.898 3.45-5.998L24.587 9.25c1.9-1.1 5.003-1.1 6.901 0l13.019 7.54c1.898 1.099 3.45 3.798 3.45 5.996l.001 18.532a3.993 3.993 0 0 0 3.983 4 3.982 3.982 0 0 0 3.547-2.182 3.99 3.99 0 0 0 .44-1.817l-.004-19.153zm.002 33.322a3.993 3.993 0 0 1-3.985 3.997 3.99 3.99 0 0 1-3.983-3.997v-2.922a3.99 3.99 0 0 1 3.983-3.999 3.992 3.992 0 0 1 3.985 3.997v2.924z"/><path d="M28.037 26.332a3.993 3.993 0 0 0-3.984 3.998l.002 25.159a3.99 3.99 0 0 0 3.982 3.997 3.99 3.99 0 0 0 3.984-3.997V30.33a3.993 3.993 0 0 0-3.984-3.998"/><path d="M39.988 36.972a3.991 3.991 0 0 0 3.984-3.992v-7.886c0-2.199-1.552-4.896-3.45-5.996l-9.034-5.233c-1.898-1.1-5.003-1.1-6.901 0l-9.035 5.233c-1.896 1.1-3.45 3.797-3.45 5.996v36.393c0 2.199 1.554 4.895 3.45 5.994l9.035 5.235c1.898 1.1 5.003 1.1 6.901 0l9.034-5.235c1.898-1.099 3.45-3.795 3.45-5.994V44.214a3.991 3.991 0 0 0-3.984-3.992c-2.2 0-3.984 1.79-3.984 3.997V58.87c0 1.097-.776 2.446-1.725 2.997l-4.517 2.616c-.95.55-2.501.55-3.45 0l-4.516-2.616c-.949-.55-1.725-1.9-1.725-2.997V27.71c0-1.1.776-2.447 1.725-2.999l4.516-2.617c.949-.55 2.5-.55 3.45 0l4.517 2.617c.95.552 1.725 1.9 1.725 2.999v5.264a3.991 3.991 0 0 0 3.984 3.997"/></g></svg>