<svg width="168" height="168" xmlns="http://www.w3.org/2000/svg"><g transform="translate(4 4)" stroke="#0B5FFF" stroke-width="8" fill="none" fill-rule="evenodd"><path fill="#E1EBFF" transform="matrix(1 0 0 -1 0 88)" d="M0 16H160V72H0z"/><path fill="#FFF" transform="matrix(1 0 0 -1 0 16)" d="M16 0H64V16H16z"/><path fill="#53E6C1" transform="matrix(1 0 0 -1 0 16)" d="M96 0H144V16H96z"/><path fill="#E1EBFF" transform="matrix(1 0 0 -1 0 264)" d="M0 104H160V160H0z"/><path fill="#53E6C1" transform="matrix(1 0 0 -1 0 192)" d="M16 88H64V104H16z"/><path fill="#FFF" transform="matrix(1 0 0 -1 0 192)" d="M96 88H144V104H96z"/><path d="M40 55H16m24 90H16" fill="#FFF" stroke-linecap="square"/></g></svg>