<svg width="168" height="173" xmlns="http://www.w3.org/2000/svg"><g transform="translate(4 4)" stroke="#0B5FFF" stroke-width="8" fill="none" fill-rule="evenodd"><path d="M0 128V0h160v128h-32l-40 32v-32" fill="#E1EBFF" stroke-linecap="square"/><path d="M88 128H4" fill="#E1EBFF" stroke-linecap="square" stroke-linejoin="round"/><path fill="#FFF" d="M40 72H72V104H40z"/><circle fill="#53E6C1" cx="104" cy="40" r="16"/><g transform="matrix(1 0 0 -1 40 56)" stroke-linecap="square"><path d="M16 0v28"/><path transform="matrix(1 0 0 -1 0 48)" d="M0 32L16.2603819 16 32 32"/></g><g transform="translate(86 73)" stroke-linecap="square"><path d="M18 0v27.99"/><path transform="matrix(1 0 0 -1 0 46)" d="M0 32L18.2929296 14 36 32"/></g></g></svg>