<svg width="1056" height="1056" xmlns="http://www.w3.org/2000/svg"><g fill="none" fill-rule="evenodd"><path fill="#0B5FFF" d="M0 0H1056V1056H0z"/><g opacity=".32" style="mix-blend-mode:multiply" transform="translate(12 12)" stroke="#0B5FFF"><path stroke-width="24" transform="matrix(1 0 0 -1 0 504)" d="M276 12H492V492H276z"/><path d="M285 300h128m-128 96h128M285 204h128" stroke-width="24" stroke-linecap="square"/><circle stroke-width="22" transform="matrix(1 0 0 -1 0 192)" cx="408" cy="96" r="37"/><path d="M164 431.224C150.695 424.063 135.475 420 119.307 420c-15.61 0-30.335 3.787-43.307 10.492" stroke-width="24" stroke-linejoin="round"/><path d="M120 485.255l108-129.6V115.2C228 58.316 179.754 12 120 12S12 58.316 12 115.2v240.455l108 129.6z" stroke-width="24"/><path d="M84 138v204.8M156 138v204.8" stroke-width="24" stroke-linecap="square"/><path d="M8 120h224.5M11.998 348h218.004" stroke-width="24"/><g transform="translate(528 528)"><path stroke-width="24" transform="matrix(1 0 0 -1 0 504)" d="M276 12H492V492H276z"/><path d="M285 300h128m-128 96h128M285 204h128" stroke-width="24" stroke-linecap="square"/><circle stroke-width="22" transform="matrix(1 0 0 -1 0 192)" cx="408" cy="96" r="37"/><path d="M164 431.224C150.695 424.063 135.475 420 119.307 420c-15.61 0-30.335 3.787-43.307 10.492" stroke-width="24" stroke-linejoin="round"/><path d="M120 485.255l108-129.6V115.2C228 58.316 179.754 12 120 12S12 58.316 12 115.2v240.455l108 129.6z" stroke-width="24"/><path d="M84 138v204.8M156 138v204.8" stroke-width="24" stroke-linecap="square"/><path d="M8 120h224.5M11.998 348h218.004" stroke-width="24"/></g><g transform="translate(528)" stroke-width="24"><path d="M0 324h240"/><circle fill="#FFF" transform="matrix(1 0 0 -1 0 648)" cx="156" cy="324" r="48"/><path d="M0 445h240"/><circle fill="#FFF" transform="matrix(1 0 0 -1 0 888)" cx="84" cy="444" r="48"/><circle transform="matrix(1 0 0 -1 0 240)" cx="384" cy="120" r="108"/><circle transform="matrix(1 0 0 -1 0 240)" cx="384" cy="120" r="42"/><path d="M228 168H120v48.783L51.186 168H12V12h216v156z"/><path transform="matrix(1 0 0 -1 0 768)" d="M276 276H492V492H276z"/><path d="M318 382.974472L362.710459 426 450 342"/></g><g transform="translate(0 528)" stroke-width="24"><path d="M0 324h240"/><circle fill="#FFF" transform="matrix(1 0 0 -1 0 648)" cx="156" cy="324" r="48"/><path d="M0 445h240"/><circle fill="#FFF" transform="matrix(1 0 0 -1 0 888)" cx="84" cy="444" r="48"/><circle transform="matrix(1 0 0 -1 0 240)" cx="384" cy="120" r="108"/><circle transform="matrix(1 0 0 -1 0 240)" cx="384" cy="120" r="42"/><path d="M228 168H120v48.783L51.186 168H12V12h216v156z"/><path transform="matrix(1 0 0 -1 0 768)" d="M276 276H492V492H276z"/><path d="M318 382.974472L362.710459 426 450 342"/></g></g></g></svg>