<svg width="168" height="171" xmlns="http://www.w3.org/2000/svg"><g transform="translate(4 4)" fill="none" fill-rule="evenodd"><path fill="#FFF" d="M3 112L19 138 37 134 53 138 71 112z"/><path fill="#53E6C1" d="M23 136L36 155 49 136z"/><path d="M53.044 138.278A35.84 35.84 0 0 0 36.008 134a35.846 35.846 0 0 0-16.508 4" stroke="#0B5FFF" stroke-width="8" stroke-linejoin="round"/><path d="M36 160l36-48V36C72 16.118 55.882 0 36 0S0 16.118 0 36v76l36 48z" stroke="#0B5FFF" stroke-width="8"/><path stroke="#0B5FFF" stroke-width="8" fill="#E1EBFF" transform="matrix(1 0 0 -1 0 160)" d="M88 0H160V160H88z"/><path d="M88 96h40m-40 32h40M88 64h40" stroke="#0B5FFF" stroke-width="8" stroke-linecap="square"/><circle stroke="#0B5FFF" stroke-width="8" fill="#53E6C1" transform="matrix(1 0 0 -1 0 59)" cx="133.5" cy="29.5" r="13.5"/><path d="M24 44v64m24-64v64" stroke="#0B5FFF" stroke-width="8" stroke-linecap="square"/><path d="M0 40h72M0 110h72" stroke="#0B5FFF" stroke-width="8"/></g></svg>