<?xml version="1.0" encoding="UTF-8"?>
<svg width="1056px" height="1056px" viewBox="0 0 1056 1056" version="1.1" xmlns="http://www.w3.org/2000/svg" xmlns:xlink="http://www.w3.org/1999/xlink">
    <!-- Generator: Sketch 46.2 (44496) - http://www.bohemiancoding.com/sketch -->
    <title>Group 6</title>
    <desc>Created with Sketch.</desc>
    <defs>
        <circle id="path-1" cx="156" cy="324" r="60"></circle>
        <circle id="path-2" cx="84" cy="444" r="60"></circle>
        <circle id="path-3" cx="156" cy="324" r="60"></circle>
        <circle id="path-4" cx="84" cy="444" r="60"></circle>
    </defs>
    <g id="Page-1" stroke="none" stroke-width="1" fill="none" fill-rule="evenodd">
        <g id="Artboard-Copy-7">
            <g id="Group-6">
                <rect id="Rectangle-5" fill="#F7F7F9" x="0" y="0" width="1056" height="1056"></rect>
                <g id="Group-5" transform="translate(12.000000, 12.000000)">
                    <g id="Group" stroke="#FFFFFF">
                        <rect id="Rectangle-7-Copy-13" stroke-width="24" transform="translate(384.000000, 252.000000) scale(1, -1) translate(-384.000000, -252.000000) " x="276" y="12" width="216" height="480"></rect>
                        <path d="M285,300 L413,300" id="Line-Copy-2" stroke-width="24" stroke-linecap="square"></path>
                        <path d="M285,396 L413,396" id="Line-Copy-4" stroke-width="24" stroke-linecap="square"></path>
                        <path d="M285,204 L413,204" id="Line-Copy-7" stroke-width="24" stroke-linecap="square"></path>
                        <circle id="Oval-2-Copy-21" stroke-width="22" transform="translate(408.000000, 96.000000) scale(1, -1) translate(-408.000000, -96.000000) " cx="408" cy="96" r="37"></circle>
                        <path d="M164,431.223816 C150.69471,424.063044 135.475128,420 119.306572,420 C103.697019,420 88.9719568,423.786953 76,430.492245" id="Combined-Shape-Copy-2" stroke-width="24" stroke-linejoin="round"></path>
                        <path d="M120,485.255401 L228,355.655401 L228,115.2 C228,58.3162828 179.753872,12 120,12 C60.246128,12 12,58.3162828 12,115.2 L12,355.655401 L120,485.255401 Z" id="Path-47" stroke-width="24"></path>
                        <path d="M84,138 L84,342.8" id="Line" stroke-width="24" stroke-linecap="square"></path>
                        <path d="M156,138 L156,342.8" id="Line-Copy" stroke-width="24" stroke-linecap="square"></path>
                        <path d="M8,120 L232.5,120" id="Line-Copy-3" stroke-width="24"></path>
                        <path d="M11.9977065,348 L230.002174,348" id="Line-Copy-6" stroke-width="24"></path>
                    </g>
                    <g id="Group-3" transform="translate(528.000000, 528.000000)" stroke="#FFFFFF">
                        <rect id="Rectangle-7-Copy-13" stroke-width="24" transform="translate(384.000000, 252.000000) scale(1, -1) translate(-384.000000, -252.000000) " x="276" y="12" width="216" height="480"></rect>
                        <path d="M285,300 L413,300" id="Line-Copy-2" stroke-width="24" stroke-linecap="square"></path>
                        <path d="M285,396 L413,396" id="Line-Copy-4" stroke-width="24" stroke-linecap="square"></path>
                        <path d="M285,204 L413,204" id="Line-Copy-7" stroke-width="24" stroke-linecap="square"></path>
                        <circle id="Oval-2-Copy-21" stroke-width="22" transform="translate(408.000000, 96.000000) scale(1, -1) translate(-408.000000, -96.000000) " cx="408" cy="96" r="37"></circle>
                        <path d="M164,431.223816 C150.69471,424.063044 135.475128,420 119.306572,420 C103.697019,420 88.9719568,423.786953 76,430.492245" id="Combined-Shape-Copy-2" stroke-width="24" stroke-linejoin="round"></path>
                        <path d="M120,485.255401 L228,355.655401 L228,115.2 C228,58.3162828 179.753872,12 120,12 C60.246128,12 12,58.3162828 12,115.2 L12,355.655401 L120,485.255401 Z" id="Path-47" stroke-width="24"></path>
                        <path d="M84,138 L84,342.8" id="Line" stroke-width="24" stroke-linecap="square"></path>
                        <path d="M156,138 L156,342.8" id="Line-Copy" stroke-width="24" stroke-linecap="square"></path>
                        <path d="M8,120 L232.5,120" id="Line-Copy-3" stroke-width="24"></path>
                        <path d="M11.9977065,348 L230.002174,348" id="Line-Copy-6" stroke-width="24"></path>
                    </g>
                    <g id="Group-2" transform="translate(528.000000, 0.000000)">
                        <path d="M0,324 L240,324" id="Line" stroke="#FFFFFF" stroke-width="24"></path>
                        <g id="Oval-2-Copy-19" transform="translate(156.000000, 324.000000) scale(1, -1) translate(-156.000000, -324.000000) ">
                            <use fill="#F7F7F9" fill-rule="evenodd" xlink:href="#path-1"></use>
                            <circle stroke="#FFFFFF" stroke-width="24" cx="156" cy="324" r="48"></circle>
                        </g>
                        <path d="M0,445 L240,445" id="Line-Copy" stroke="#FFFFFF" stroke-width="24"></path>
                        <g id="Oval-2-Copy-20" transform="translate(84.000000, 444.000000) scale(1, -1) translate(-84.000000, -444.000000) ">
                            <use fill="#F7F7F9" fill-rule="evenodd" xlink:href="#path-2"></use>
                            <circle stroke="#FFFFFF" stroke-width="24" cx="84" cy="444" r="48"></circle>
                        </g>
                        <circle id="Oval-2-Copy-20" stroke="#FFFFFF" stroke-width="24" transform="translate(384.000000, 120.000000) scale(1, -1) translate(-384.000000, -120.000000) " cx="384" cy="120" r="108"></circle>
                        <circle id="Oval-2-Copy-20" stroke="#FFFFFF" stroke-width="24" transform="translate(384.000000, 120.000000) scale(1, -1) translate(-384.000000, -120.000000) " cx="384" cy="120" r="42"></circle>
                        <path d="M12,168 L120,168 L120,216.783442 L188.813713,168 L228,168 L228,12 L12,12 L12,168 Z" id="Path" stroke="#FFFFFF" stroke-width="24" transform="translate(120.000000, 120.000000) scale(-1, 1) translate(-120.000000, -120.000000) "></path>
                        <rect id="Rectangle-7-Copy-14" stroke="#FFFFFF" stroke-width="24" transform="translate(384.000000, 384.000000) scale(1, -1) translate(-384.000000, -384.000000) " x="276" y="276" width="216" height="216"></rect>
                        <polyline id="Path-4" stroke="#FFFFFF" stroke-width="24" points="318 382.974472 362.710459 426 450 342"></polyline>
                    </g>
                    <g id="Group-4" transform="translate(0.000000, 528.000000)">
                        <path d="M0,324 L240,324" id="Line" stroke="#FFFFFF" stroke-width="24"></path>
                        <g id="Oval-2-Copy-19" transform="translate(156.000000, 324.000000) scale(1, -1) translate(-156.000000, -324.000000) ">
                            <use fill="#F7F7F9" fill-rule="evenodd" xlink:href="#path-3"></use>
                            <circle stroke="#FFFFFF" stroke-width="24" cx="156" cy="324" r="48"></circle>
                        </g>
                        <path d="M0,445 L240,445" id="Line-Copy" stroke="#FFFFFF" stroke-width="24"></path>
                        <g id="Oval-2-Copy-20" transform="translate(84.000000, 444.000000) scale(1, -1) translate(-84.000000, -444.000000) ">
                            <use fill="#F7F7F9" fill-rule="evenodd" xlink:href="#path-4"></use>
                            <circle stroke="#FFFFFF" stroke-width="24" cx="84" cy="444" r="48"></circle>
                        </g>
                        <circle id="Oval-2-Copy-20" stroke="#FFFFFF" stroke-width="24" transform="translate(384.000000, 120.000000) scale(1, -1) translate(-384.000000, -120.000000) " cx="384" cy="120" r="108"></circle>
                        <circle id="Oval-2-Copy-20" stroke="#FFFFFF" stroke-width="24" transform="translate(384.000000, 120.000000) scale(1, -1) translate(-384.000000, -120.000000) " cx="384" cy="120" r="42"></circle>
                        <path d="M12,168 L120,168 L120,216.783442 L188.813713,168 L228,168 L228,12 L12,12 L12,168 Z" id="Path" stroke="#FFFFFF" stroke-width="24" transform="translate(120.000000, 120.000000) scale(-1, 1) translate(-120.000000, -120.000000) "></path>
                        <rect id="Rectangle-7-Copy-14" stroke="#FFFFFF" stroke-width="24" transform="translate(384.000000, 384.000000) scale(1, -1) translate(-384.000000, -384.000000) " x="276" y="276" width="216" height="216"></rect>
                        <polyline id="Path-4" stroke="#FFFFFF" stroke-width="24" points="318 382.974472 362.710459 426 450 342"></polyline>
                    </g>
                </g>
            </g>
        </g>
    </g>
</svg>