<svg width="64" height="85" xmlns="http://www.w3.org/2000/svg"><g fill="#FFF" fill-rule="evenodd"><path d="M63.913 25.333c0-5.023-3.549-11.191-7.885-13.704L39.929 2.305c-4.338-2.513-11.435-2.513-15.773 0L8.057 11.629C3.72 14.142.17 20.31.17 25.333v37.212c0 2.522 2.04 4.568 4.553 4.568a4.564 4.564 0 0 0 4.555-4.568V26.04c0-2.512 1.773-5.597 3.942-6.853L28.1 10.57c2.171-1.256 5.718-1.256 7.887 0l14.879 8.619c2.17 1.254 3.943 4.339 3.943 6.851l.002 21.18c0 2.523 2.037 4.57 4.55 4.571a4.55 4.55 0 0 0 4.055-2.494 4.56 4.56 0 0 0 .502-2.076l-.004-21.889zm.002 38.082a4.563 4.563 0 0 1-4.554 4.568c-2.514 0-4.551-2.046-4.551-4.568v-3.34c0-2.524 2.037-4.57 4.55-4.57a4.562 4.562 0 0 1 4.555 4.568v3.342z"/><path d="M32.042 30.094a4.563 4.563 0 0 0-4.553 4.57l.002 28.752c0 2.522 2.038 4.568 4.551 4.568a4.56 4.56 0 0 0 4.553-4.568V34.663a4.563 4.563 0 0 0-4.553-4.57"/><path d="M45.7 42.254c2.512 0 4.55-2.042 4.553-4.562v-9.013c0-2.513-1.773-5.596-3.942-6.852l-10.324-5.981c-2.17-1.256-5.719-1.256-7.888 0l-10.325 5.98c-2.168 1.257-3.943 4.34-3.943 6.853V70.27c0 2.513 1.775 5.594 3.943 6.85l10.325 5.983c2.17 1.256 5.719 1.256 7.888 0l10.324-5.983c2.169-1.256 3.942-4.337 3.942-6.85v-19.74c-.003-2.521-2.04-4.563-4.552-4.563-2.514 0-4.553 2.046-4.553 4.568V67.28c0 1.254-.887 2.796-1.972 3.425l-5.162 2.99c-1.085.63-2.859.63-3.943 0l-5.161-2.99c-1.085-.63-1.972-2.17-1.972-3.425V31.669c0-1.256.887-2.796 1.972-3.427l5.16-2.99c1.085-.63 2.859-.63 3.944 0l5.162 2.99c1.085.631 1.972 2.17 1.972 3.427v6.017c0 2.522 2.039 4.568 4.553 4.568"/></g></svg>