<svg width="168" height="168" xmlns="http://www.w3.org/2000/svg"><g transform="translate(4 4)" fill="none" fill-rule="evenodd"><g transform="translate(64)"><path stroke="#0B5FFF" stroke-width="8" fill="#E1EBFF" transform="matrix(1 0 0 -1 0 136)" d="M0 2.84217094e-14L96 2.84217094e-14 96 96 56 136 24.2060547 136 0 136 0 111.742187z"/><path d="M12 88h64M12 64h64m-64 48h40.012" stroke="#0B5FFF" stroke-width="8" stroke-linecap="square"/><path d="M53 2.751v31.987a8 8 0 0 0 8 8h32.148L53 2.751z" fill="#FFF"/><path stroke="#0B5FFF" stroke-width="8" d="M56 0L56 40 96 40"/></g><path stroke="#0B5FFF" stroke-width="8" fill="#FFF" transform="matrix(1 0 0 -1 0 184)" d="M0 24L96 24 96 160 0 160z"/><path d="M20 112h56M60 88h16M60 64h16" stroke="#0B5FFF" stroke-width="8" stroke-linecap="square"/><g transform="translate(19 62)" stroke="#53E6C1" stroke-width="8"><path d="M1 2v24" stroke-linecap="square"/><path d="M1.8.5l22.2 27"/><path d="M25 2v24" stroke-linecap="square"/></g><path d="M20 136h32" stroke="#0B5FFF" stroke-width="8" stroke-linecap="square"/></g></svg>