<svg width="168" height="171" xmlns="http://www.w3.org/2000/svg"><g transform="translate(4 4)" fill="none" fill-rule="evenodd"><path stroke="#B3472D" stroke-width="8" fill="#F7ECEA" transform="matrix(1 0 0 -1 0 160)" d="M88 0H160V160H88z"/><path d="M88 96h40m-40 32h40M88 64h40" stroke="#B3472D" stroke-width="8" stroke-linecap="square"/><circle stroke="#B3472D" stroke-width="8" fill="#FFDF9F" transform="matrix(1 0 0 -1 0 56)" cx="132" cy="28" r="12"/><path fill="#FFF" d="M3 112L19 138 37 134 53 138 71 112z"/><path d="M72 112V36C72 16.118 55.882 0 36 0S0 16.118 0 36v76" stroke="#B3472D" stroke-width="8" fill="#FFF" stroke-linejoin="round"/><path d="M24 51.5v56.535M48 52.5V108M0 48h72M0 112h72" stroke="#B3472D" stroke-width="8" stroke-linecap="round"/><path fill="#FFDF9F" d="M23 136L36 155 49 136z"/><path d="M53.044 138.278A35.84 35.84 0 0 0 36.008 134a35.846 35.846 0 0 0-16.508 4" stroke="#B3472D" stroke-width="8" stroke-linejoin="round"/><path stroke="#B3472D" stroke-width="8" stroke-linecap="round" d="M0 112L36 160 72 112"/></g></svg>