<svg width="168" height="168" xmlns="http://www.w3.org/2000/svg"><g transform="translate(4 4)" stroke="#B3472D" stroke-width="8" fill="none" fill-rule="evenodd"><path d="M24 132.972V96h24v37.389L54.3 136l-6 24h-24l-7-24 6.7-3.028z" fill="#FFDF9F"/><g fill="#FFF"><path d="M64 104l8-68C72 16.118 55.882 0 36 0S0 16.118 0 36l8 68h56z"/><path d="M25 52v32m22-32v32" stroke-linecap="square"/><path d="M1 32h70" stroke-linecap="round"/></g><path fill="#F7ECEA" transform="matrix(1 0 0 -1 0 160)" d="M88 0H160V160H88z"/><path d="M92 76h32m-32 28h32m-32 28h32" stroke-linecap="square"/><circle fill="#FFDF9F" transform="matrix(1 0 0 -1 0 56)" cx="132" cy="28" r="12"/><path d="M71.113 28.02C67.483 11.978 53.14 0 36 0 18.908 0 4.599 11.91.918 27.885" fill="#F7ECEA"/></g></svg>