<svg height="168" viewBox="0 0 168 168" width="168" xmlns="http://www.w3.org/2000/svg"><g fill="none" fill-rule="evenodd" transform="translate(4 4)"><g stroke="#b3472d" stroke-width="8"><path d="m160 0v22h-64l-19-22z" fill="#fff" transform="matrix(1 0 0 -1 0 22)"/><path d="m0 22h160v138h-160z" fill="#f7ecea"/><g stroke-linecap="square" transform="translate(88 52)"><path d="m0 1h48"/><path d="m0 20h32"/></g><g stroke-linecap="square" transform="translate(88 110)"><path d="m0 1h48"/><path d="m0 19h32"/></g><path d="m24 44h36v36h-36z" fill="#fff"/><path d="m24 102h36v36h-36z" fill="#fff"/></g><path d="m35.8799749 58.1836344 3.824005-3.6988527 9.8331558 9.5113356 20.7588844-20.0794862 3.824005 3.6988527-24.5828894 23.7783389z" fill="#ffcd72" stroke="#ffcd72" stroke-width="2.5"/><path d="m35.8799749 116.183634 3.824005-3.698852 9.8331558 9.511335 20.7588844-20.079486 3.824005 3.698853-24.5828894 23.778339z" fill="#ffcd72" stroke="#ffcd72" stroke-width="2.5"/></g></svg>