<?xml version="1.0" encoding="utf-8"?>
<!-- Generator: Adobe Illustrator 21.0.1, SVG Export Plug-In . SVG Version: 6.00 Build 0)  -->
<svg version="1.1" id="Dribbble" xmlns="http://www.w3.org/2000/svg" xmlns:xlink="http://www.w3.org/1999/xlink" x="0px" y="0px"
	 viewBox="0 0 511.9 511.9" style="enable-background:new 0 0 511.9 511.9;" xml:space="preserve">
<path id="ball" d="M256,511.9C114.8,511.9,0,397.1,0,256S114.8,0,256,0s256,114.8,256,256S397.1,511.9,256,511.9z M471.8,291
	c-7.5-2.4-67.7-20.3-136.2-9.3c28.6,78.6,40.2,142.6,42.5,155.9C427.2,404.4,462.1,351.8,471.8,291L471.8,291z M341.4,457.5
	c-3.3-19.2-15.9-86-46.6-165.8c-0.5,0.2-1,0.3-1.4,0.5c-123.3,43-167.6,128.5-171.5,136.5C184.3,477.5,268.4,488.6,341.4,457.5z
	 M93.5,402.5c5-8.5,65-107.8,177.7-144.3c2.8-0.9,5.7-1.8,8.6-2.6c-5.5-12.4-11.5-24.9-17.7-37.1C153,251.2,47,249.8,37.4,249.6
	c-0.1,2.2-0.1,4.4-0.1,6.7C37.3,310.3,57.3,362.4,93.5,402.5z M41.9,211.5c9.8,0.1,99.9,0.5,202.1-26.6
	C207.8,120.5,168.8,66.3,163,58.4C101.8,87.3,56.1,143.7,41.9,211.5z M204.7,43.7c6,8.1,45.8,62.2,81.6,128
	c77.7-29.1,110.7-73.4,114.6-79C347.5,45.3,274.2,27,204.7,43.7z M425.2,118c-4.6,6.2-41.2,53.2-122.1,86.2
	c5.1,10.4,10,21,14.5,31.7c1.6,3.8,3.2,7.5,4.7,11.3c72.7-9.1,145,5.5,152.2,7C474.1,204.5,456.7,156.5,425.2,118z"/>
</svg>
