<svg width="652" height="851" viewBox="0 0 652 851" fill="none" xmlns="http://www.w3.org/2000/svg">
<path d="M76 156C76 95.2487 124.801 46 185 46C245.199 46 294 95.2487 294 156C294 216.75 244.75 266 184 266C111.1 266 52 325.6 52 398" stroke="#006DE7" stroke-width="88"/>
<path d="M294 156C294 216.751 244.751 266 184 266" stroke="white" stroke-width="88"/>
<path d="M295 310C295 334.3 275.301 354 251 354H184" stroke="white" stroke-width="88"/>
<path fill-rule="evenodd" clip-rule="evenodd" d="M453.985 467C434.116 467 418 483.571 418 504C418 523.334 434.116 539 453.985 539C473.855 539 490 523.334 490 504C490 483.571 473.855 467 453.985 467Z" fill="#006DE7"/>
<path d="M589 674C589 748.006 529.006 808 455 808H374C351.36 808 333 826.36 333 849" stroke="white" stroke-width="82"/>
<path d="M333 849C333 826.357 351.356 808 374 808L455 808" stroke="#006DE7" stroke-width="82"/>
<path d="M603.527 491C597.727 417.727 539.273 359.273 466 353.473" stroke="#006DE7" stroke-width="16"/>
<path d="M604 503C604 585.843 536.843 653 454 653C371.157 653 304 585.843 304 503C304 463.117 319.566 426.869 344.954 400" stroke="white" stroke-width="84"/>
<path d="M304 503C304 420.157 371.157 353 454 353" stroke="#006DE7" stroke-width="84"/>
<circle cx="604" cy="503" r="12" stroke="white" stroke-width="8"/>
<path d="M616 503C616 509.627 610.627 515 604 515C597.373 515 592 509.627 592 503" stroke="#006DE7" stroke-width="8"/>
<circle cx="454" cy="353" r="12" stroke="#1F2123" stroke-width="8"/>
<path d="M454 341C460.627 341 466 346.373 466 353C466 359.627 460.627 365 454 365" stroke="white" stroke-width="8"/>
<circle cx="492" cy="156" r="113" stroke="white" stroke-width="82"/>
<path d="M492 178C504.15 178 514 168.15 514 156C514 143.85 504.15 134 492 134V178Z" fill="white"/>
<path d="M605 156C605 218.408 554.408 269 492 269C429.592 269 379 218.408 379 156" stroke="#006DE7" stroke-width="82"/>
<path d="M140 573V849" stroke="#006DE7" stroke-width="88"/>
<path d="M140 398C140 470.902 80.9016 530 7.99995 530" stroke="white" stroke-width="88"/>
<path d="M56.4199 61.64C57.3699 61.64 58.1399 60.8699 58.1399 59.92C58.1399 58.9701 57.3699 58.2 56.4199 58.2C55.47 58.2 54.7 58.9701 54.7 59.92C54.7 60.8699 55.47 61.64 56.4199 61.64Z" fill="#565656"/>
<path d="M39.0699 61.64C40.0198 61.64 40.7899 60.8699 40.7899 59.92C40.7899 58.9701 40.0198 58.2 39.0699 58.2C38.1199 58.2 37.3499 58.9701 37.3499 59.92C37.3499 60.8699 38.1199 61.64 39.0699 61.64Z" fill="#565656"/>
<path d="M21.72 61.64C22.6699 61.64 23.44 60.8699 23.44 59.92C23.44 58.9701 22.6699 58.2 21.72 58.2C20.7701 58.2 20 58.9701 20 59.92C20 60.8699 20.7701 61.64 21.72 61.64Z" fill="#565656"/>
<path d="M4.37991 61.64C5.32984 61.64 6.09991 60.8699 6.09991 59.92C6.09991 58.9701 5.32984 58.2 4.37991 58.2C3.42998 58.2 2.65991 58.9701 2.65991 59.92C2.65991 60.8699 3.42998 61.64 4.37991 61.64Z" fill="#565656"/>
<path d="M73.7598 44.29C74.7097 44.29 75.4798 43.5199 75.4798 42.57C75.4798 41.6201 74.7097 40.85 73.7598 40.85C72.8099 40.85 72.0398 41.6201 72.0398 42.57C72.0398 43.5199 72.8099 44.29 73.7598 44.29Z" fill="#565656"/>
<path d="M56.4199 44.29C57.3699 44.29 58.1399 43.5199 58.1399 42.57C58.1399 41.6201 57.3699 40.85 56.4199 40.85C55.47 40.85 54.7 41.6201 54.7 42.57C54.7 43.5199 55.47 44.29 56.4199 44.29Z" fill="#565656"/>
<path d="M39.0699 44.29C40.0198 44.29 40.7899 43.5199 40.7899 42.57C40.7899 41.6201 40.0198 40.85 39.0699 40.85C38.1199 40.85 37.3499 41.6201 37.3499 42.57C37.3499 43.5199 38.1199 44.29 39.0699 44.29Z" fill="#565656"/>
<path d="M21.72 44.29C22.6699 44.29 23.44 43.5199 23.44 42.57C23.44 41.6201 22.6699 40.85 21.72 40.85C20.7701 40.85 20 41.6201 20 42.57C20 43.5199 20.7701 44.29 21.72 44.29Z" fill="#565656"/>
<path d="M4.37991 44.29C5.32984 44.29 6.09991 43.5199 6.09991 42.57C6.09991 41.6201 5.32984 40.85 4.37991 40.85C3.42998 40.85 2.65991 41.6201 2.65991 42.57C2.65991 43.5199 3.42998 44.29 4.37991 44.29Z" fill="#565656"/>
<path d="M91.1099 26.94C92.0598 26.94 92.8299 26.1699 92.8299 25.22C92.8299 24.2701 92.0598 23.5 91.1099 23.5C90.16 23.5 89.3899 24.2701 89.3899 25.22C89.3899 26.1699 90.16 26.94 91.1099 26.94Z" fill="#565656"/>
<path d="M73.7598 26.94C74.7097 26.94 75.4798 26.1699 75.4798 25.22C75.4798 24.2701 74.7097 23.5 73.7598 23.5C72.8099 23.5 72.0398 24.2701 72.0398 25.22C72.0398 26.1699 72.8099 26.94 73.7598 26.94Z" fill="#565656"/>
<path d="M56.4199 26.94C57.3699 26.94 58.1399 26.1699 58.1399 25.22C58.1399 24.2701 57.3699 23.5 56.4199 23.5C55.47 23.5 54.7 24.2701 54.7 25.22C54.7 26.1699 55.47 26.94 56.4199 26.94Z" fill="#565656"/>
<path d="M39.0699 26.94C40.0198 26.94 40.7899 26.1699 40.7899 25.22C40.7899 24.2701 40.0198 23.5 39.0699 23.5C38.1199 23.5 37.3499 24.2701 37.3499 25.22C37.3499 26.1699 38.1199 26.94 39.0699 26.94Z" fill="#565656"/>
<path d="M21.72 26.94C22.6699 26.94 23.44 26.1699 23.44 25.22C23.44 24.2701 22.6699 23.5 21.72 23.5C20.7701 23.5 20 24.2701 20 25.22C20 26.1699 20.7701 26.94 21.72 26.94Z" fill="#565656"/>
<path d="M4.37991 26.94C5.32984 26.94 6.09991 26.1699 6.09991 25.22C6.09991 24.2701 5.32984 23.5 4.37991 23.5C3.42998 23.5 2.65991 24.2701 2.65991 25.22C2.65991 26.1699 3.42998 26.94 4.37991 26.94Z" fill="#565656"/>
<path d="M177.97 199.92C178.92 199.92 179.69 199.15 179.69 198.2C179.69 197.25 178.92 196.48 177.97 196.48C177.02 196.48 176.25 197.25 176.25 198.2C176.25 199.15 177.02 199.92 177.97 199.92Z" fill="#565656"/>
<path d="M160.62 199.92C161.57 199.92 162.34 199.15 162.34 198.2C162.34 197.25 161.57 196.48 160.62 196.48C159.67 196.48 158.9 197.25 158.9 198.2C158.9 199.15 159.67 199.92 160.62 199.92Z" fill="#565656"/>
<path d="M177.97 182.58C178.92 182.58 179.69 181.81 179.69 180.86C179.69 179.91 178.92 179.14 177.97 179.14C177.02 179.14 176.25 179.91 176.25 180.86C176.25 181.81 177.02 182.58 177.97 182.58Z" fill="#565656"/>
<path d="M160.62 182.58C161.57 182.58 162.34 181.81 162.34 180.86C162.34 179.91 161.57 179.14 160.62 179.14C159.67 179.14 158.9 179.91 158.9 180.86C158.9 181.81 159.67 182.58 160.62 182.58Z" fill="#565656"/>
<path d="M177.97 165.23C178.92 165.23 179.69 164.46 179.69 163.51C179.69 162.56 178.92 161.79 177.97 161.79C177.02 161.79 176.25 162.56 176.25 163.51C176.25 164.46 177.02 165.23 177.97 165.23Z" fill="#565656"/>
<path d="M160.62 165.23C161.57 165.23 162.34 164.46 162.34 163.51C162.34 162.56 161.57 161.79 160.62 161.79C159.67 161.79 158.9 162.56 158.9 163.51C158.9 164.46 159.67 165.23 160.62 165.23Z" fill="#565656"/>
<path d="M143.15 199.92C144.1 199.92 144.87 199.15 144.87 198.2C144.87 197.25 144.1 196.48 143.15 196.48C142.2 196.48 141.43 197.25 141.43 198.2C141.43 199.15 142.2 199.92 143.15 199.92Z" fill="#565656"/>
<path d="M125.8 199.92C126.75 199.92 127.52 199.15 127.52 198.2C127.52 197.25 126.75 196.48 125.8 196.48C124.85 196.48 124.08 197.25 124.08 198.2C124.08 199.15 124.85 199.92 125.8 199.92Z" fill="#565656"/>
<path d="M108.45 199.92C109.4 199.92 110.17 199.15 110.17 198.2C110.17 197.25 109.4 196.48 108.45 196.48C107.5 196.48 106.73 197.25 106.73 198.2C106.73 199.15 107.5 199.92 108.45 199.92Z" fill="#565656"/>
<path d="M91.1099 199.92C92.0598 199.92 92.8299 199.15 92.8299 198.2C92.8299 197.25 92.0598 196.48 91.1099 196.48C90.16 196.48 89.3899 197.25 89.3899 198.2C89.3899 199.15 90.16 199.92 91.1099 199.92Z" fill="#565656"/>
<path d="M73.7598 199.92C74.7097 199.92 75.4798 199.15 75.4798 198.2C75.4798 197.25 74.7097 196.48 73.7598 196.48C72.8099 196.48 72.0398 197.25 72.0398 198.2C72.0398 199.15 72.8099 199.92 73.7598 199.92Z" fill="#565656"/>
<path d="M56.4199 199.92C57.3699 199.92 58.1399 199.15 58.1399 198.2C58.1399 197.25 57.3699 196.48 56.4199 196.48C55.47 196.48 54.7 197.25 54.7 198.2C54.7 199.15 55.47 199.92 56.4199 199.92Z" fill="#565656"/>
<path d="M39.0699 199.92C40.0198 199.92 40.7899 199.15 40.7899 198.2C40.7899 197.25 40.0198 196.48 39.0699 196.48C38.1199 196.48 37.3499 197.25 37.3499 198.2C37.3499 199.15 38.1199 199.92 39.0699 199.92Z" fill="#565656"/>
<path d="M21.72 199.92C22.6699 199.92 23.44 199.15 23.44 198.2C23.44 197.25 22.6699 196.48 21.72 196.48C20.7701 196.48 20 197.25 20 198.2C20 199.15 20.7701 199.92 21.72 199.92Z" fill="#565656"/>
<path d="M4.37991 199.92C5.32984 199.92 6.09991 199.15 6.09991 198.2C6.09991 197.25 5.32984 196.48 4.37991 196.48C3.42998 196.48 2.65991 197.25 2.65991 198.2C2.65991 199.15 3.42998 199.92 4.37991 199.92Z" fill="#565656"/>
<path d="M143.15 182.58C144.1 182.58 144.87 181.81 144.87 180.86C144.87 179.91 144.1 179.14 143.15 179.14C142.2 179.14 141.43 179.91 141.43 180.86C141.43 181.81 142.2 182.58 143.15 182.58Z" fill="#565656"/>
<path d="M125.8 182.58C126.75 182.58 127.52 181.81 127.52 180.86C127.52 179.91 126.75 179.14 125.8 179.14C124.85 179.14 124.08 179.91 124.08 180.86C124.08 181.81 124.85 182.58 125.8 182.58Z" fill="#565656"/>
<path d="M108.45 182.58C109.4 182.58 110.17 181.81 110.17 180.86C110.17 179.91 109.4 179.14 108.45 179.14C107.5 179.14 106.73 179.91 106.73 180.86C106.73 181.81 107.5 182.58 108.45 182.58Z" fill="#565656"/>
<path d="M91.1099 182.58C92.0598 182.58 92.8299 181.81 92.8299 180.86C92.8299 179.91 92.0598 179.14 91.1099 179.14C90.16 179.14 89.3899 179.91 89.3899 180.86C89.3899 181.81 90.16 182.58 91.1099 182.58Z" fill="#565656"/>
<path d="M73.7598 182.58C74.7097 182.58 75.4798 181.81 75.4798 180.86C75.4798 179.91 74.7097 179.14 73.7598 179.14C72.8099 179.14 72.0398 179.91 72.0398 180.86C72.0398 181.81 72.8099 182.58 73.7598 182.58Z" fill="#565656"/>
<path d="M56.4199 182.58C57.3699 182.58 58.1399 181.81 58.1399 180.86C58.1399 179.91 57.3699 179.14 56.4199 179.14C55.47 179.14 54.7 179.91 54.7 180.86C54.7 181.81 55.47 182.58 56.4199 182.58Z" fill="#565656"/>
<path d="M39.0699 182.58C40.0198 182.58 40.7899 181.81 40.7899 180.86C40.7899 179.91 40.0198 179.14 39.0699 179.14C38.1199 179.14 37.3499 179.91 37.3499 180.86C37.3499 181.81 38.1199 182.58 39.0699 182.58Z" fill="#565656"/>
<path d="M21.72 182.58C22.6699 182.58 23.44 181.81 23.44 180.86C23.44 179.91 22.6699 179.14 21.72 179.14C20.7701 179.14 20 179.91 20 180.86C20 181.81 20.7701 182.58 21.72 182.58Z" fill="#565656"/>
<path d="M4.37991 182.58C5.32984 182.58 6.09991 181.81 6.09991 180.86C6.09991 179.91 5.32984 179.14 4.37991 179.14C3.42998 179.14 2.65991 179.91 2.65991 180.86C2.65991 181.81 3.42998 182.58 4.37991 182.58Z" fill="#565656"/>
<path d="M143.15 165.23C144.1 165.23 144.87 164.46 144.87 163.51C144.87 162.56 144.1 161.79 143.15 161.79C142.2 161.79 141.43 162.56 141.43 163.51C141.43 164.46 142.2 165.23 143.15 165.23Z" fill="#565656"/>
<path d="M125.8 165.23C126.75 165.23 127.52 164.46 127.52 163.51C127.52 162.56 126.75 161.79 125.8 161.79C124.85 161.79 124.08 162.56 124.08 163.51C124.08 164.46 124.85 165.23 125.8 165.23Z" fill="#565656"/>
<path d="M108.45 165.23C109.4 165.23 110.17 164.46 110.17 163.51C110.17 162.56 109.4 161.79 108.45 161.79C107.5 161.79 106.73 162.56 106.73 163.51C106.73 164.46 107.5 165.23 108.45 165.23Z" fill="#565656"/>
<path d="M91.1099 165.23C92.0598 165.23 92.8299 164.46 92.8299 163.51C92.8299 162.56 92.0598 161.79 91.1099 161.79C90.16 161.79 89.3899 162.56 89.3899 163.51C89.3899 164.46 90.16 165.23 91.1099 165.23Z" fill="#565656"/>
<path d="M73.7598 165.23C74.7097 165.23 75.4798 164.46 75.4798 163.51C75.4798 162.56 74.7097 161.79 73.7598 161.79C72.8099 161.79 72.0398 162.56 72.0398 163.51C72.0398 164.46 72.8099 165.23 73.7598 165.23Z" fill="#565656"/>
<path d="M56.4199 165.23C57.3699 165.23 58.1399 164.46 58.1399 163.51C58.1399 162.56 57.3699 161.79 56.4199 161.79C55.47 161.79 54.7 162.56 54.7 163.51C54.7 164.46 55.47 165.23 56.4199 165.23Z" fill="#565656"/>
<path d="M39.0699 165.23C40.0198 165.23 40.7899 164.46 40.7899 163.51C40.7899 162.56 40.0198 161.79 39.0699 161.79C38.1199 161.79 37.3499 162.56 37.3499 163.51C37.3499 164.46 38.1199 165.23 39.0699 165.23Z" fill="#565656"/>
<path d="M21.72 165.23C22.6699 165.23 23.44 164.46 23.44 163.51C23.44 162.56 22.6699 161.79 21.72 161.79C20.7701 161.79 20 162.56 20 163.51C20 164.46 20.7701 165.23 21.72 165.23Z" fill="#565656"/>
<path d="M4.37991 165.23C5.32984 165.23 6.09991 164.46 6.09991 163.51C6.09991 162.56 5.32984 161.79 4.37991 161.79C3.42998 161.79 2.65991 162.56 2.65991 163.51C2.65991 164.46 3.42998 165.23 4.37991 165.23Z" fill="#565656"/>
<path d="M21.72 147.89C22.6699 147.89 23.44 147.12 23.44 146.17C23.44 145.22 22.6699 144.45 21.72 144.45C20.7701 144.45 20 145.22 20 146.17C20 147.12 20.7701 147.89 21.72 147.89Z" fill="#565656"/>
<path d="M4.37991 147.89C5.32984 147.89 6.09991 147.12 6.09991 146.17C6.09991 145.22 5.32984 144.45 4.37991 144.45C3.42998 144.45 2.65991 145.22 2.65991 146.17C2.65991 147.12 3.42998 147.89 4.37991 147.89Z" fill="#565656"/>
<path d="M21.72 130.54C22.6699 130.54 23.44 129.77 23.44 128.82C23.44 127.87 22.6699 127.1 21.72 127.1C20.7701 127.1 20 127.87 20 128.82C20 129.77 20.7701 130.54 21.72 130.54Z" fill="#565656"/>
<path d="M4.37991 130.54C5.32984 130.54 6.09991 129.77 6.09991 128.82C6.09991 127.87 5.32984 127.1 4.37991 127.1C3.42998 127.1 2.65991 127.87 2.65991 128.82C2.65991 129.77 3.42998 130.54 4.37991 130.54Z" fill="#565656"/>
<path d="M21.72 113.19C22.6699 113.19 23.44 112.42 23.44 111.47C23.44 110.52 22.6699 109.75 21.72 109.75C20.7701 109.75 20 110.52 20 111.47C20 112.42 20.7701 113.19 21.72 113.19Z" fill="#565656"/>
<path d="M4.37991 113.19C5.32984 113.19 6.09991 112.42 6.09991 111.47C6.09991 110.52 5.32984 109.75 4.37991 109.75C3.42998 109.75 2.65991 110.52 2.65991 111.47C2.65991 112.42 3.42998 113.19 4.37991 113.19Z" fill="#565656"/>
<path d="M39.0699 95.85C40.0198 95.85 40.7899 95.0799 40.7899 94.13C40.7899 93.1801 40.0198 92.41 39.0699 92.41C38.1199 92.41 37.3499 93.1801 37.3499 94.13C37.3499 95.0799 38.1199 95.85 39.0699 95.85Z" fill="#565656"/>
<path d="M21.72 95.85C22.6699 95.85 23.44 95.0799 23.44 94.13C23.44 93.1801 22.6699 92.41 21.72 92.41C20.7701 92.41 20 93.1801 20 94.13C20 95.0799 20.7701 95.85 21.72 95.85Z" fill="#565656"/>
<path d="M4.37991 95.85C5.32984 95.85 6.09991 95.0799 6.09991 94.13C6.09991 93.1801 5.32984 92.41 4.37991 92.41C3.42998 92.41 2.65991 93.1801 2.65991 94.13C2.65991 95.0799 3.42998 95.85 4.37991 95.85Z" fill="#565656"/>
<path d="M39.0699 78.5C40.0198 78.5 40.7899 77.7299 40.7899 76.78C40.7899 75.8301 40.0198 75.06 39.0699 75.06C38.1199 75.06 37.3499 75.8301 37.3499 76.78C37.3499 77.7299 38.1199 78.5 39.0699 78.5Z" fill="#565656"/>
<path d="M21.72 78.5C22.6699 78.5 23.44 77.7299 23.44 76.78C23.44 75.8301 22.6699 75.06 21.72 75.06C20.7701 75.06 20 75.8301 20 76.78C20 77.7299 20.7701 78.5 21.72 78.5Z" fill="#565656"/>
<path d="M4.37991 78.5C5.32984 78.5 6.09991 77.7299 6.09991 76.78C6.09991 75.8301 5.32984 75.06 4.37991 75.06C3.42998 75.06 2.65991 75.8301 2.65991 76.78C2.65991 77.7299 3.42998 78.5 4.37991 78.5Z" fill="#565656"/>
<path d="M258.61 578.59C259.56 578.59 260.33 577.82 260.33 576.87C260.33 575.92 259.56 575.15 258.61 575.15C257.66 575.15 256.89 575.92 256.89 576.87C256.89 577.82 257.66 578.59 258.61 578.59Z" fill="#565656"/>
<path d="M258.61 578.59C259.56 578.59 260.33 577.82 260.33 576.87C260.33 575.92 259.56 575.15 258.61 575.15C257.66 575.15 256.89 575.92 256.89 576.87C256.89 577.82 257.66 578.59 258.61 578.59Z" fill="#565656"/>
<path d="M258.61 595.94C259.56 595.94 260.33 595.17 260.33 594.22C260.33 593.27 259.56 592.5 258.61 592.5C257.66 592.5 256.89 593.27 256.89 594.22C256.89 595.17 257.66 595.94 258.61 595.94Z" fill="#565656"/>
<path d="M258.61 595.94C259.56 595.94 260.33 595.17 260.33 594.22C260.33 593.27 259.56 592.5 258.61 592.5C257.66 592.5 256.89 593.27 256.89 594.22C256.89 595.17 257.66 595.94 258.61 595.94Z" fill="#565656"/>
<path d="M275.96 595.94C276.91 595.94 277.68 595.17 277.68 594.22C277.68 593.27 276.91 592.5 275.96 592.5C275.01 592.5 274.24 593.27 274.24 594.22C274.24 595.17 275.01 595.94 275.96 595.94Z" fill="#565656"/>
<path d="M241.26 526.55C242.21 526.55 242.98 525.78 242.98 524.83C242.98 523.88 242.21 523.11 241.26 523.11C240.31 523.11 239.54 523.88 239.54 524.83C239.54 525.78 240.31 526.55 241.26 526.55Z" fill="#565656"/>
<path d="M241.26 526.55C242.21 526.55 242.98 525.78 242.98 524.83C242.98 523.88 242.21 523.11 241.26 523.11C240.31 523.11 239.54 523.88 239.54 524.83C239.54 525.78 240.31 526.55 241.26 526.55Z" fill="#565656"/>
<path d="M258.61 526.55C259.56 526.55 260.33 525.78 260.33 524.83C260.33 523.88 259.56 523.11 258.61 523.11C257.66 523.11 256.89 523.88 256.89 524.83C256.89 525.78 257.66 526.55 258.61 526.55Z" fill="#565656"/>
<path d="M241.26 543.9C242.21 543.9 242.98 543.13 242.98 542.18C242.98 541.23 242.21 540.46 241.26 540.46C240.31 540.46 239.54 541.23 239.54 542.18C239.54 543.13 240.31 543.9 241.26 543.9Z" fill="#565656"/>
<path d="M241.26 543.9C242.21 543.9 242.98 543.13 242.98 542.18C242.98 541.23 242.21 540.46 241.26 540.46C240.31 540.46 239.54 541.23 239.54 542.18C239.54 543.13 240.31 543.9 241.26 543.9Z" fill="#565656"/>
<path d="M241.26 561.25C242.21 561.25 242.98 560.48 242.98 559.53C242.98 558.58 242.21 557.81 241.26 557.81C240.31 557.81 239.54 558.58 239.54 559.53C239.54 560.48 240.31 561.25 241.26 561.25Z" fill="#565656"/>
<path d="M241.26 561.25C242.21 561.25 242.98 560.48 242.98 559.53C242.98 558.58 242.21 557.81 241.26 557.81C240.31 557.81 239.54 558.58 239.54 559.53C239.54 560.48 240.31 561.25 241.26 561.25Z" fill="#565656"/>
<path d="M258.61 561.25C259.56 561.25 260.33 560.48 260.33 559.53C260.33 558.58 259.56 557.81 258.61 557.81C257.66 557.81 256.89 558.58 256.89 559.53C256.89 560.48 257.66 561.25 258.61 561.25Z" fill="#565656"/>
<path d="M258.61 543.9C259.56 543.9 260.33 543.13 260.33 542.18C260.33 541.23 259.56 540.46 258.61 540.46C257.66 540.46 256.89 541.23 256.89 542.18C256.89 543.13 257.66 543.9 258.61 543.9Z" fill="#565656"/>
<path d="M241.26 578.59C242.21 578.59 242.98 577.82 242.98 576.87C242.98 575.92 242.21 575.15 241.26 575.15C240.31 575.15 239.54 575.92 239.54 576.87C239.54 577.82 240.31 578.59 241.26 578.59Z" fill="#565656"/>
<path d="M241.26 578.59C242.21 578.59 242.98 577.82 242.98 576.87C242.98 575.92 242.21 575.15 241.26 575.15C240.31 575.15 239.54 575.92 239.54 576.87C239.54 577.82 240.31 578.59 241.26 578.59Z" fill="#565656"/>
<path d="M241.26 595.94C242.21 595.94 242.98 595.17 242.98 594.22C242.98 593.27 242.21 592.5 241.26 592.5C240.31 592.5 239.54 593.27 239.54 594.22C239.54 595.17 240.31 595.94 241.26 595.94Z" fill="#565656"/>
<path d="M241.26 595.94C242.21 595.94 242.98 595.17 242.98 594.22C242.98 593.27 242.21 592.5 241.26 592.5C240.31 592.5 239.54 593.27 239.54 594.22C239.54 595.17 240.31 595.94 241.26 595.94Z" fill="#565656"/>
<path d="M223.92 526.55C224.87 526.55 225.64 525.78 225.64 524.83C225.64 523.88 224.87 523.11 223.92 523.11C222.97 523.11 222.2 523.88 222.2 524.83C222.2 525.78 222.97 526.55 223.92 526.55Z" fill="#565656"/>
<path d="M223.92 526.55C224.87 526.55 225.64 525.78 225.64 524.83C225.64 523.88 224.87 523.11 223.92 523.11C222.97 523.11 222.2 523.88 222.2 524.83C222.2 525.78 222.97 526.55 223.92 526.55Z" fill="#565656"/>
<path d="M223.92 543.9C224.87 543.9 225.64 543.13 225.64 542.18C225.64 541.23 224.87 540.46 223.92 540.46C222.97 540.46 222.2 541.23 222.2 542.18C222.2 543.13 222.97 543.9 223.92 543.9Z" fill="#565656"/>
<path d="M223.92 543.9C224.87 543.9 225.64 543.13 225.64 542.18C225.64 541.23 224.87 540.46 223.92 540.46C222.97 540.46 222.2 541.23 222.2 542.18C222.2 543.13 222.97 543.9 223.92 543.9Z" fill="#565656"/>
<path d="M223.92 561.25C224.87 561.25 225.64 560.48 225.64 559.53C225.64 558.58 224.87 557.81 223.92 557.81C222.97 557.81 222.2 558.58 222.2 559.53C222.2 560.48 222.97 561.25 223.92 561.25Z" fill="#565656"/>
<path d="M223.92 561.25C224.87 561.25 225.64 560.48 225.64 559.53C225.64 558.58 224.87 557.81 223.92 557.81C222.97 557.81 222.2 558.58 222.2 559.53C222.2 560.48 222.97 561.25 223.92 561.25Z" fill="#565656"/>
<path d="M223.92 578.59C224.87 578.59 225.64 577.82 225.64 576.87C225.64 575.92 224.87 575.15 223.92 575.15C222.97 575.15 222.2 575.92 222.2 576.87C222.2 577.82 222.97 578.59 223.92 578.59Z" fill="#565656"/>
<path d="M223.92 578.59C224.87 578.59 225.64 577.82 225.64 576.87C225.64 575.92 224.87 575.15 223.92 575.15C222.97 575.15 222.2 575.92 222.2 576.87C222.2 577.82 222.97 578.59 223.92 578.59Z" fill="#565656"/>
<path d="M223.92 595.94C224.87 595.94 225.64 595.17 225.64 594.22C225.64 593.27 224.87 592.5 223.92 592.5C222.97 592.5 222.2 593.27 222.2 594.22C222.2 595.17 222.97 595.94 223.92 595.94Z" fill="#565656"/>
<path d="M223.92 595.94C224.87 595.94 225.64 595.17 225.64 594.22C225.64 593.27 224.87 592.5 223.92 592.5C222.97 592.5 222.2 593.27 222.2 594.22C222.2 595.17 222.97 595.94 223.92 595.94Z" fill="#565656"/>
<path d="M206.57 526.55C207.52 526.55 208.29 525.78 208.29 524.83C208.29 523.88 207.52 523.11 206.57 523.11C205.62 523.11 204.85 523.88 204.85 524.83C204.85 525.78 205.62 526.55 206.57 526.55Z" fill="#565656"/>
<path d="M206.57 526.55C207.52 526.55 208.29 525.78 208.29 524.83C208.29 523.88 207.52 523.11 206.57 523.11C205.62 523.11 204.85 523.88 204.85 524.83C204.85 525.78 205.62 526.55 206.57 526.55Z" fill="#565656"/>
<path d="M206.57 543.9C207.52 543.9 208.29 543.13 208.29 542.18C208.29 541.23 207.52 540.46 206.57 540.46C205.62 540.46 204.85 541.23 204.85 542.18C204.85 543.13 205.62 543.9 206.57 543.9Z" fill="#565656"/>
<path d="M206.57 543.9C207.52 543.9 208.29 543.13 208.29 542.18C208.29 541.23 207.52 540.46 206.57 540.46C205.62 540.46 204.85 541.23 204.85 542.18C204.85 543.13 205.62 543.9 206.57 543.9Z" fill="#565656"/>
<path d="M206.57 561.25C207.52 561.25 208.29 560.48 208.29 559.53C208.29 558.58 207.52 557.81 206.57 557.81C205.62 557.81 204.85 558.58 204.85 559.53C204.85 560.48 205.62 561.25 206.57 561.25Z" fill="#565656"/>
<path d="M206.57 561.25C207.52 561.25 208.29 560.48 208.29 559.53C208.29 558.58 207.52 557.81 206.57 557.81C205.62 557.81 204.85 558.58 204.85 559.53C204.85 560.48 205.62 561.25 206.57 561.25Z" fill="#565656"/>
<path d="M206.57 578.59C207.52 578.59 208.29 577.82 208.29 576.87C208.29 575.92 207.52 575.15 206.57 575.15C205.62 575.15 204.85 575.92 204.85 576.87C204.85 577.82 205.62 578.59 206.57 578.59Z" fill="#565656"/>
<path d="M206.57 578.59C207.52 578.59 208.29 577.82 208.29 576.87C208.29 575.92 207.52 575.15 206.57 575.15C205.62 575.15 204.85 575.92 204.85 576.87C204.85 577.82 205.62 578.59 206.57 578.59Z" fill="#565656"/>
<path d="M206.57 595.94C207.52 595.94 208.29 595.17 208.29 594.22C208.29 593.27 207.52 592.5 206.57 592.5C205.62 592.5 204.85 593.27 204.85 594.22C204.85 595.17 205.62 595.94 206.57 595.94Z" fill="#565656"/>
<path d="M206.57 595.94C207.52 595.94 208.29 595.17 208.29 594.22C208.29 593.27 207.52 592.5 206.57 592.5C205.62 592.5 204.85 593.27 204.85 594.22C204.85 595.17 205.62 595.94 206.57 595.94Z" fill="#565656"/>
<path d="M189.22 526.55C190.17 526.55 190.94 525.78 190.94 524.83C190.94 523.88 190.17 523.11 189.22 523.11C188.27 523.11 187.5 523.88 187.5 524.83C187.5 525.78 188.27 526.55 189.22 526.55Z" fill="#565656"/>
<path d="M189.22 526.55C190.17 526.55 190.94 525.78 190.94 524.83C190.94 523.88 190.17 523.11 189.22 523.11C188.27 523.11 187.5 523.88 187.5 524.83C187.5 525.78 188.27 526.55 189.22 526.55Z" fill="#565656"/>
<path d="M189.22 543.9C190.17 543.9 190.94 543.13 190.94 542.18C190.94 541.23 190.17 540.46 189.22 540.46C188.27 540.46 187.5 541.23 187.5 542.18C187.5 543.13 188.27 543.9 189.22 543.9Z" fill="#565656"/>
<path d="M189.22 543.9C190.17 543.9 190.94 543.13 190.94 542.18C190.94 541.23 190.17 540.46 189.22 540.46C188.27 540.46 187.5 541.23 187.5 542.18C187.5 543.13 188.27 543.9 189.22 543.9Z" fill="#565656"/>
<path d="M189.22 561.25C190.17 561.25 190.94 560.48 190.94 559.53C190.94 558.58 190.17 557.81 189.22 557.81C188.27 557.81 187.5 558.58 187.5 559.53C187.5 560.48 188.27 561.25 189.22 561.25Z" fill="#565656"/>
<path d="M189.22 561.25C190.17 561.25 190.94 560.48 190.94 559.53C190.94 558.58 190.17 557.81 189.22 557.81C188.27 557.81 187.5 558.58 187.5 559.53C187.5 560.48 188.27 561.25 189.22 561.25Z" fill="#565656"/>
<path d="M189.22 578.59C190.17 578.59 190.94 577.82 190.94 576.87C190.94 575.92 190.17 575.15 189.22 575.15C188.27 575.15 187.5 575.92 187.5 576.87C187.5 577.82 188.27 578.59 189.22 578.59Z" fill="#565656"/>
<path d="M189.22 578.59C190.17 578.59 190.94 577.82 190.94 576.87C190.94 575.92 190.17 575.15 189.22 575.15C188.27 575.15 187.5 575.92 187.5 576.87C187.5 577.82 188.27 578.59 189.22 578.59Z" fill="#565656"/>
<path d="M189.22 595.94C190.17 595.94 190.94 595.17 190.94 594.22C190.94 593.27 190.17 592.5 189.22 592.5C188.27 592.5 187.5 593.27 187.5 594.22C187.5 595.17 188.27 595.94 189.22 595.94Z" fill="#565656"/>
<path d="M189.22 595.94C190.17 595.94 190.94 595.17 190.94 594.22C190.94 593.27 190.17 592.5 189.22 592.5C188.27 592.5 187.5 593.27 187.5 594.22C187.5 595.17 188.27 595.94 189.22 595.94Z" fill="#565656"/>
<path d="M310.65 648.1C311.6 648.1 312.37 647.33 312.37 646.38C312.37 645.43 311.6 644.66 310.65 644.66C309.7 644.66 308.93 645.43 308.93 646.38C308.93 647.33 309.7 648.1 310.65 648.1Z" fill="#565656"/>
<path d="M310.65 648.1C311.6 648.1 312.37 647.33 312.37 646.38C312.37 645.43 311.6 644.66 310.65 644.66C309.7 644.66 308.93 645.43 308.93 646.38C308.93 647.33 309.7 648.1 310.65 648.1Z" fill="#565656"/>
<path d="M310.65 665.45C311.6 665.45 312.37 664.68 312.37 663.73C312.37 662.78 311.6 662.01 310.65 662.01C309.7 662.01 308.93 662.78 308.93 663.73C308.93 664.68 309.7 665.45 310.65 665.45Z" fill="#565656"/>
<path d="M310.65 665.45C311.6 665.45 312.37 664.68 312.37 663.73C312.37 662.78 311.6 662.01 310.65 662.01C309.7 662.01 308.93 662.78 308.93 663.73C308.93 664.68 309.7 665.45 310.65 665.45Z" fill="#565656"/>
<path d="M310.65 682.8C311.6 682.8 312.37 682.03 312.37 681.08C312.37 680.13 311.6 679.36 310.65 679.36C309.7 679.36 308.93 680.13 308.93 681.08C308.93 682.03 309.7 682.8 310.65 682.8Z" fill="#565656"/>
<path d="M310.65 682.8C311.6 682.8 312.37 682.03 312.37 681.08C312.37 680.13 311.6 679.36 310.65 679.36C309.7 679.36 308.93 680.13 308.93 681.08C308.93 682.03 309.7 682.8 310.65 682.8Z" fill="#565656"/>
<path d="M310.65 700.14C311.6 700.14 312.37 699.37 312.37 698.42C312.37 697.47 311.6 696.7 310.65 696.7C309.7 696.7 308.93 697.47 308.93 698.42C308.93 699.37 309.7 700.14 310.65 700.14Z" fill="#565656"/>
<path d="M310.65 700.14C311.6 700.14 312.37 699.37 312.37 698.42C312.37 697.47 311.6 696.7 310.65 696.7C309.7 696.7 308.93 697.47 308.93 698.42C308.93 699.37 309.7 700.14 310.65 700.14Z" fill="#565656"/>
<path d="M310.65 717.49C311.6 717.49 312.37 716.72 312.37 715.77C312.37 714.82 311.6 714.05 310.65 714.05C309.7 714.05 308.93 714.82 308.93 715.77C308.93 716.72 309.7 717.49 310.65 717.49Z" fill="#565656"/>
<path d="M310.65 717.49C311.6 717.49 312.37 716.72 312.37 715.77C312.37 714.82 311.6 714.05 310.65 714.05C309.7 714.05 308.93 714.82 308.93 715.77C308.93 716.72 309.7 717.49 310.65 717.49Z" fill="#565656"/>
<path d="M310.65 734.83C311.6 734.83 312.37 734.06 312.37 733.11C312.37 732.16 311.6 731.39 310.65 731.39C309.7 731.39 308.93 732.16 308.93 733.11C308.93 734.06 309.7 734.83 310.65 734.83Z" fill="#565656"/>
<path d="M310.65 734.83C311.6 734.83 312.37 734.06 312.37 733.11C312.37 732.16 311.6 731.39 310.65 731.39C309.7 731.39 308.93 732.16 308.93 733.11C308.93 734.06 309.7 734.83 310.65 734.83Z" fill="#565656"/>
<path d="M310.65 752.18C311.6 752.18 312.37 751.41 312.37 750.46C312.37 749.51 311.6 748.74 310.65 748.74C309.7 748.74 308.93 749.51 308.93 750.46C308.93 751.41 309.7 752.18 310.65 752.18Z" fill="#565656"/>
<path d="M310.65 752.18C311.6 752.18 312.37 751.41 312.37 750.46C312.37 749.51 311.6 748.74 310.65 748.74C309.7 748.74 308.93 749.51 308.93 750.46C308.93 751.41 309.7 752.18 310.65 752.18Z" fill="#565656"/>
<path d="M293.3 630.76C294.25 630.76 295.02 629.99 295.02 629.04C295.02 628.09 294.25 627.32 293.3 627.32C292.35 627.32 291.58 628.09 291.58 629.04C291.58 629.99 292.35 630.76 293.3 630.76Z" fill="#565656"/>
<path d="M293.3 630.76C294.25 630.76 295.02 629.99 295.02 629.04C295.02 628.09 294.25 627.32 293.3 627.32C292.35 627.32 291.58 628.09 291.58 629.04C291.58 629.99 292.35 630.76 293.3 630.76Z" fill="#565656"/>
<path d="M293.3 648.1C294.25 648.1 295.02 647.33 295.02 646.38C295.02 645.43 294.25 644.66 293.3 644.66C292.35 644.66 291.58 645.43 291.58 646.38C291.58 647.33 292.35 648.1 293.3 648.1Z" fill="#565656"/>
<path d="M293.3 648.1C294.25 648.1 295.02 647.33 295.02 646.38C295.02 645.43 294.25 644.66 293.3 644.66C292.35 644.66 291.58 645.43 291.58 646.38C291.58 647.33 292.35 648.1 293.3 648.1Z" fill="#565656"/>
<path d="M293.3 665.45C294.25 665.45 295.02 664.68 295.02 663.73C295.02 662.78 294.25 662.01 293.3 662.01C292.35 662.01 291.58 662.78 291.58 663.73C291.58 664.68 292.35 665.45 293.3 665.45Z" fill="#565656"/>
<path d="M293.3 665.45C294.25 665.45 295.02 664.68 295.02 663.73C295.02 662.78 294.25 662.01 293.3 662.01C292.35 662.01 291.58 662.78 291.58 663.73C291.58 664.68 292.35 665.45 293.3 665.45Z" fill="#565656"/>
<path d="M293.3 682.8C294.25 682.8 295.02 682.03 295.02 681.08C295.02 680.13 294.25 679.36 293.3 679.36C292.35 679.36 291.58 680.13 291.58 681.08C291.58 682.03 292.35 682.8 293.3 682.8Z" fill="#565656"/>
<path d="M293.3 682.8C294.25 682.8 295.02 682.03 295.02 681.08C295.02 680.13 294.25 679.36 293.3 679.36C292.35 679.36 291.58 680.13 291.58 681.08C291.58 682.03 292.35 682.8 293.3 682.8Z" fill="#565656"/>
<path d="M293.3 700.14C294.25 700.14 295.02 699.37 295.02 698.42C295.02 697.47 294.25 696.7 293.3 696.7C292.35 696.7 291.58 697.47 291.58 698.42C291.58 699.37 292.35 700.14 293.3 700.14Z" fill="#565656"/>
<path d="M293.3 700.14C294.25 700.14 295.02 699.37 295.02 698.42C295.02 697.47 294.25 696.7 293.3 696.7C292.35 696.7 291.58 697.47 291.58 698.42C291.58 699.37 292.35 700.14 293.3 700.14Z" fill="#565656"/>
<path d="M293.3 717.49C294.25 717.49 295.02 716.72 295.02 715.77C295.02 714.82 294.25 714.05 293.3 714.05C292.35 714.05 291.58 714.82 291.58 715.77C291.58 716.72 292.35 717.49 293.3 717.49Z" fill="#565656"/>
<path d="M293.3 717.49C294.25 717.49 295.02 716.72 295.02 715.77C295.02 714.82 294.25 714.05 293.3 714.05C292.35 714.05 291.58 714.82 291.58 715.77C291.58 716.72 292.35 717.49 293.3 717.49Z" fill="#565656"/>
<path d="M293.3 734.83C294.25 734.83 295.02 734.06 295.02 733.11C295.02 732.16 294.25 731.39 293.3 731.39C292.35 731.39 291.58 732.16 291.58 733.11C291.58 734.06 292.35 734.83 293.3 734.83Z" fill="#565656"/>
<path d="M293.3 734.83C294.25 734.83 295.02 734.06 295.02 733.11C295.02 732.16 294.25 731.39 293.3 731.39C292.35 731.39 291.58 732.16 291.58 733.11C291.58 734.06 292.35 734.83 293.3 734.83Z" fill="#565656"/>
<path d="M293.3 752.18C294.25 752.18 295.02 751.41 295.02 750.46C295.02 749.51 294.25 748.74 293.3 748.74C292.35 748.74 291.58 749.51 291.58 750.46C291.58 751.41 292.35 752.18 293.3 752.18Z" fill="#565656"/>
<path d="M293.3 752.18C294.25 752.18 295.02 751.41 295.02 750.46C295.02 749.51 294.25 748.74 293.3 748.74C292.35 748.74 291.58 749.51 291.58 750.46C291.58 751.41 292.35 752.18 293.3 752.18Z" fill="#565656"/>
<path d="M275.96 613.41C276.91 613.41 277.68 612.64 277.68 611.69C277.68 610.74 276.91 609.97 275.96 609.97C275.01 609.97 274.24 610.74 274.24 611.69C274.24 612.64 275.01 613.41 275.96 613.41Z" fill="#565656"/>
<path d="M275.96 613.41C276.91 613.41 277.68 612.64 277.68 611.69C277.68 610.74 276.91 609.97 275.96 609.97C275.01 609.97 274.24 610.74 274.24 611.69C274.24 612.64 275.01 613.41 275.96 613.41Z" fill="#565656"/>
<path d="M275.96 630.76C276.91 630.76 277.68 629.99 277.68 629.04C277.68 628.09 276.91 627.32 275.96 627.32C275.01 627.32 274.24 628.09 274.24 629.04C274.24 629.99 275.01 630.76 275.96 630.76Z" fill="#565656"/>
<path d="M275.96 630.76C276.91 630.76 277.68 629.99 277.68 629.04C277.68 628.09 276.91 627.32 275.96 627.32C275.01 627.32 274.24 628.09 274.24 629.04C274.24 629.99 275.01 630.76 275.96 630.76Z" fill="#565656"/>
<path d="M275.96 648.1C276.91 648.1 277.68 647.33 277.68 646.38C277.68 645.43 276.91 644.66 275.96 644.66C275.01 644.66 274.24 645.43 274.24 646.38C274.24 647.33 275.01 648.1 275.96 648.1Z" fill="#565656"/>
<path d="M275.96 648.1C276.91 648.1 277.68 647.33 277.68 646.38C277.68 645.43 276.91 644.66 275.96 644.66C275.01 644.66 274.24 645.43 274.24 646.38C274.24 647.33 275.01 648.1 275.96 648.1Z" fill="#565656"/>
<path d="M275.96 665.45C276.91 665.45 277.68 664.68 277.68 663.73C277.68 662.78 276.91 662.01 275.96 662.01C275.01 662.01 274.24 662.78 274.24 663.73C274.24 664.68 275.01 665.45 275.96 665.45Z" fill="#565656"/>
<path d="M275.96 665.45C276.91 665.45 277.68 664.68 277.68 663.73C277.68 662.78 276.91 662.01 275.96 662.01C275.01 662.01 274.24 662.78 274.24 663.73C274.24 664.68 275.01 665.45 275.96 665.45Z" fill="#565656"/>
<path d="M275.96 682.8C276.91 682.8 277.68 682.03 277.68 681.08C277.68 680.13 276.91 679.36 275.96 679.36C275.01 679.36 274.24 680.13 274.24 681.08C274.24 682.03 275.01 682.8 275.96 682.8Z" fill="#565656"/>
<path d="M275.96 682.8C276.91 682.8 277.68 682.03 277.68 681.08C277.68 680.13 276.91 679.36 275.96 679.36C275.01 679.36 274.24 680.13 274.24 681.08C274.24 682.03 275.01 682.8 275.96 682.8Z" fill="#565656"/>
<path d="M275.96 700.14C276.91 700.14 277.68 699.37 277.68 698.42C277.68 697.47 276.91 696.7 275.96 696.7C275.01 696.7 274.24 697.47 274.24 698.42C274.24 699.37 275.01 700.14 275.96 700.14Z" fill="#565656"/>
<path d="M275.96 700.14C276.91 700.14 277.68 699.37 277.68 698.42C277.68 697.47 276.91 696.7 275.96 696.7C275.01 696.7 274.24 697.47 274.24 698.42C274.24 699.37 275.01 700.14 275.96 700.14Z" fill="#565656"/>
<path d="M275.96 717.49C276.91 717.49 277.68 716.72 277.68 715.77C277.68 714.82 276.91 714.05 275.96 714.05C275.01 714.05 274.24 714.82 274.24 715.77C274.24 716.72 275.01 717.49 275.96 717.49Z" fill="#565656"/>
<path d="M275.96 717.49C276.91 717.49 277.68 716.72 277.68 715.77C277.68 714.82 276.91 714.05 275.96 714.05C275.01 714.05 274.24 714.82 274.24 715.77C274.24 716.72 275.01 717.49 275.96 717.49Z" fill="#565656"/>
<path d="M275.96 734.83C276.91 734.83 277.68 734.06 277.68 733.11C277.68 732.16 276.91 731.39 275.96 731.39C275.01 731.39 274.24 732.16 274.24 733.11C274.24 734.06 275.01 734.83 275.96 734.83Z" fill="#565656"/>
<path d="M275.96 734.83C276.91 734.83 277.68 734.06 277.68 733.11C277.68 732.16 276.91 731.39 275.96 731.39C275.01 731.39 274.24 732.16 274.24 733.11C274.24 734.06 275.01 734.83 275.96 734.83Z" fill="#565656"/>
<path d="M275.96 752.18C276.91 752.18 277.68 751.41 277.68 750.46C277.68 749.51 276.91 748.74 275.96 748.74C275.01 748.74 274.24 749.51 274.24 750.46C274.24 751.41 275.01 752.18 275.96 752.18Z" fill="#565656"/>
<path d="M275.96 752.18C276.91 752.18 277.68 751.41 277.68 750.46C277.68 749.51 276.91 748.74 275.96 748.74C275.01 748.74 274.24 749.51 274.24 750.46C274.24 751.41 275.01 752.18 275.96 752.18Z" fill="#565656"/>
<path d="M258.61 613.41C259.56 613.41 260.33 612.64 260.33 611.69C260.33 610.74 259.56 609.97 258.61 609.97C257.66 609.97 256.89 610.74 256.89 611.69C256.89 612.64 257.66 613.41 258.61 613.41Z" fill="#565656"/>
<path d="M258.61 613.41C259.56 613.41 260.33 612.64 260.33 611.69C260.33 610.74 259.56 609.97 258.61 609.97C257.66 609.97 256.89 610.74 256.89 611.69C256.89 612.64 257.66 613.41 258.61 613.41Z" fill="#565656"/>
<path d="M258.61 630.76C259.56 630.76 260.33 629.99 260.33 629.04C260.33 628.09 259.56 627.32 258.61 627.32C257.66 627.32 256.89 628.09 256.89 629.04C256.89 629.99 257.66 630.76 258.61 630.76Z" fill="#565656"/>
<path d="M258.61 630.76C259.56 630.76 260.33 629.99 260.33 629.04C260.33 628.09 259.56 627.32 258.61 627.32C257.66 627.32 256.89 628.09 256.89 629.04C256.89 629.99 257.66 630.76 258.61 630.76Z" fill="#565656"/>
<path d="M258.61 648.1C259.56 648.1 260.33 647.33 260.33 646.38C260.33 645.43 259.56 644.66 258.61 644.66C257.66 644.66 256.89 645.43 256.89 646.38C256.89 647.33 257.66 648.1 258.61 648.1Z" fill="#565656"/>
<path d="M258.61 648.1C259.56 648.1 260.33 647.33 260.33 646.38C260.33 645.43 259.56 644.66 258.61 644.66C257.66 644.66 256.89 645.43 256.89 646.38C256.89 647.33 257.66 648.1 258.61 648.1Z" fill="#565656"/>
<path d="M258.61 665.45C259.56 665.45 260.33 664.68 260.33 663.73C260.33 662.78 259.56 662.01 258.61 662.01C257.66 662.01 256.89 662.78 256.89 663.73C256.89 664.68 257.66 665.45 258.61 665.45Z" fill="#565656"/>
<path d="M258.61 665.45C259.56 665.45 260.33 664.68 260.33 663.73C260.33 662.78 259.56 662.01 258.61 662.01C257.66 662.01 256.89 662.78 256.89 663.73C256.89 664.68 257.66 665.45 258.61 665.45Z" fill="#565656"/>
<path d="M258.61 682.8C259.56 682.8 260.33 682.03 260.33 681.08C260.33 680.13 259.56 679.36 258.61 679.36C257.66 679.36 256.89 680.13 256.89 681.08C256.89 682.03 257.66 682.8 258.61 682.8Z" fill="#565656"/>
<path d="M258.61 682.8C259.56 682.8 260.33 682.03 260.33 681.08C260.33 680.13 259.56 679.36 258.61 679.36C257.66 679.36 256.89 680.13 256.89 681.08C256.89 682.03 257.66 682.8 258.61 682.8Z" fill="#565656"/>
<path d="M258.61 700.14C259.56 700.14 260.33 699.37 260.33 698.42C260.33 697.47 259.56 696.7 258.61 696.7C257.66 696.7 256.89 697.47 256.89 698.42C256.89 699.37 257.66 700.14 258.61 700.14Z" fill="#565656"/>
<path d="M258.61 700.14C259.56 700.14 260.33 699.37 260.33 698.42C260.33 697.47 259.56 696.7 258.61 696.7C257.66 696.7 256.89 697.47 256.89 698.42C256.89 699.37 257.66 700.14 258.61 700.14Z" fill="#565656"/>
<path d="M258.61 717.49C259.56 717.49 260.33 716.72 260.33 715.77C260.33 714.82 259.56 714.05 258.61 714.05C257.66 714.05 256.89 714.82 256.89 715.77C256.89 716.72 257.66 717.49 258.61 717.49Z" fill="#565656"/>
<path d="M258.61 717.49C259.56 717.49 260.33 716.72 260.33 715.77C260.33 714.82 259.56 714.05 258.61 714.05C257.66 714.05 256.89 714.82 256.89 715.77C256.89 716.72 257.66 717.49 258.61 717.49Z" fill="#565656"/>
<path d="M258.61 734.83C259.56 734.83 260.33 734.06 260.33 733.11C260.33 732.16 259.56 731.39 258.61 731.39C257.66 731.39 256.89 732.16 256.89 733.11C256.89 734.06 257.66 734.83 258.61 734.83Z" fill="#565656"/>
<path d="M258.61 734.83C259.56 734.83 260.33 734.06 260.33 733.11C260.33 732.16 259.56 731.39 258.61 731.39C257.66 731.39 256.89 732.16 256.89 733.11C256.89 734.06 257.66 734.83 258.61 734.83Z" fill="#565656"/>
<path d="M258.61 752.18C259.56 752.18 260.33 751.41 260.33 750.46C260.33 749.51 259.56 748.74 258.61 748.74C257.66 748.74 256.89 749.51 256.89 750.46C256.89 751.41 257.66 752.18 258.61 752.18Z" fill="#565656"/>
<path d="M258.61 752.18C259.56 752.18 260.33 751.41 260.33 750.46C260.33 749.51 259.56 748.74 258.61 748.74C257.66 748.74 256.89 749.51 256.89 750.46C256.89 751.41 257.66 752.18 258.61 752.18Z" fill="#565656"/>
<path d="M241.26 613.41C242.21 613.41 242.98 612.64 242.98 611.69C242.98 610.74 242.21 609.97 241.26 609.97C240.31 609.97 239.54 610.74 239.54 611.69C239.54 612.64 240.31 613.41 241.26 613.41Z" fill="#565656"/>
<path d="M241.26 613.41C242.21 613.41 242.98 612.64 242.98 611.69C242.98 610.74 242.21 609.97 241.26 609.97C240.31 609.97 239.54 610.74 239.54 611.69C239.54 612.64 240.31 613.41 241.26 613.41Z" fill="#565656"/>
<path d="M241.26 630.76C242.21 630.76 242.98 629.99 242.98 629.04C242.98 628.09 242.21 627.32 241.26 627.32C240.31 627.32 239.54 628.09 239.54 629.04C239.54 629.99 240.31 630.76 241.26 630.76Z" fill="#565656"/>
<path d="M241.26 630.76C242.21 630.76 242.98 629.99 242.98 629.04C242.98 628.09 242.21 627.32 241.26 627.32C240.31 627.32 239.54 628.09 239.54 629.04C239.54 629.99 240.31 630.76 241.26 630.76Z" fill="#565656"/>
<path d="M241.26 648.1C242.21 648.1 242.98 647.33 242.98 646.38C242.98 645.43 242.21 644.66 241.26 644.66C240.31 644.66 239.54 645.43 239.54 646.38C239.54 647.33 240.31 648.1 241.26 648.1Z" fill="#565656"/>
<path d="M241.26 648.1C242.21 648.1 242.98 647.33 242.98 646.38C242.98 645.43 242.21 644.66 241.26 644.66C240.31 644.66 239.54 645.43 239.54 646.38C239.54 647.33 240.31 648.1 241.26 648.1Z" fill="#565656"/>
<path d="M241.26 665.45C242.21 665.45 242.98 664.68 242.98 663.73C242.98 662.78 242.21 662.01 241.26 662.01C240.31 662.01 239.54 662.78 239.54 663.73C239.54 664.68 240.31 665.45 241.26 665.45Z" fill="#565656"/>
<path d="M241.26 665.45C242.21 665.45 242.98 664.68 242.98 663.73C242.98 662.78 242.21 662.01 241.26 662.01C240.31 662.01 239.54 662.78 239.54 663.73C239.54 664.68 240.31 665.45 241.26 665.45Z" fill="#565656"/>
<path d="M241.26 682.8C242.21 682.8 242.98 682.03 242.98 681.08C242.98 680.13 242.21 679.36 241.26 679.36C240.31 679.36 239.54 680.13 239.54 681.08C239.54 682.03 240.31 682.8 241.26 682.8Z" fill="#565656"/>
<path d="M241.26 682.8C242.21 682.8 242.98 682.03 242.98 681.08C242.98 680.13 242.21 679.36 241.26 679.36C240.31 679.36 239.54 680.13 239.54 681.08C239.54 682.03 240.31 682.8 241.26 682.8Z" fill="#565656"/>
<path d="M241.26 700.14C242.21 700.14 242.98 699.37 242.98 698.42C242.98 697.47 242.21 696.7 241.26 696.7C240.31 696.7 239.54 697.47 239.54 698.42C239.54 699.37 240.31 700.14 241.26 700.14Z" fill="#565656"/>
<path d="M241.26 700.14C242.21 700.14 242.98 699.37 242.98 698.42C242.98 697.47 242.21 696.7 241.26 696.7C240.31 696.7 239.54 697.47 239.54 698.42C239.54 699.37 240.31 700.14 241.26 700.14Z" fill="#565656"/>
<path d="M241.26 717.49C242.21 717.49 242.98 716.72 242.98 715.77C242.98 714.82 242.21 714.05 241.26 714.05C240.31 714.05 239.54 714.82 239.54 715.77C239.54 716.72 240.31 717.49 241.26 717.49Z" fill="#565656"/>
<path d="M241.26 717.49C242.21 717.49 242.98 716.72 242.98 715.77C242.98 714.82 242.21 714.05 241.26 714.05C240.31 714.05 239.54 714.82 239.54 715.77C239.54 716.72 240.31 717.49 241.26 717.49Z" fill="#565656"/>
<path d="M241.26 734.83C242.21 734.83 242.98 734.06 242.98 733.11C242.98 732.16 242.21 731.39 241.26 731.39C240.31 731.39 239.54 732.16 239.54 733.11C239.54 734.06 240.31 734.83 241.26 734.83Z" fill="#565656"/>
<path d="M241.26 734.83C242.21 734.83 242.98 734.06 242.98 733.11C242.98 732.16 242.21 731.39 241.26 731.39C240.31 731.39 239.54 732.16 239.54 733.11C239.54 734.06 240.31 734.83 241.26 734.83Z" fill="#565656"/>
<path d="M241.26 752.18C242.21 752.18 242.98 751.41 242.98 750.46C242.98 749.51 242.21 748.74 241.26 748.74C240.31 748.74 239.54 749.51 239.54 750.46C239.54 751.41 240.31 752.18 241.26 752.18Z" fill="#565656"/>
<path d="M241.26 752.18C242.21 752.18 242.98 751.41 242.98 750.46C242.98 749.51 242.21 748.74 241.26 748.74C240.31 748.74 239.54 749.51 239.54 750.46C239.54 751.41 240.31 752.18 241.26 752.18Z" fill="#565656"/>
<path d="M223.92 613.41C224.87 613.41 225.64 612.64 225.64 611.69C225.64 610.74 224.87 609.97 223.92 609.97C222.97 609.97 222.2 610.74 222.2 611.69C222.2 612.64 222.97 613.41 223.92 613.41Z" fill="#565656"/>
<path d="M223.92 613.41C224.87 613.41 225.64 612.64 225.64 611.69C225.64 610.74 224.87 609.97 223.92 609.97C222.97 609.97 222.2 610.74 222.2 611.69C222.2 612.64 222.97 613.41 223.92 613.41Z" fill="#565656"/>
<path d="M223.92 630.76C224.87 630.76 225.64 629.99 225.64 629.04C225.64 628.09 224.87 627.32 223.92 627.32C222.97 627.32 222.2 628.09 222.2 629.04C222.2 629.99 222.97 630.76 223.92 630.76Z" fill="#565656"/>
<path d="M223.92 630.76C224.87 630.76 225.64 629.99 225.64 629.04C225.64 628.09 224.87 627.32 223.92 627.32C222.97 627.32 222.2 628.09 222.2 629.04C222.2 629.99 222.97 630.76 223.92 630.76Z" fill="#565656"/>
<path d="M223.92 648.1C224.87 648.1 225.64 647.33 225.64 646.38C225.64 645.43 224.87 644.66 223.92 644.66C222.97 644.66 222.2 645.43 222.2 646.38C222.2 647.33 222.97 648.1 223.92 648.1Z" fill="#565656"/>
<path d="M223.92 648.1C224.87 648.1 225.64 647.33 225.64 646.38C225.64 645.43 224.87 644.66 223.92 644.66C222.97 644.66 222.2 645.43 222.2 646.38C222.2 647.33 222.97 648.1 223.92 648.1Z" fill="#565656"/>
<path d="M223.92 665.45C224.87 665.45 225.64 664.68 225.64 663.73C225.64 662.78 224.87 662.01 223.92 662.01C222.97 662.01 222.2 662.78 222.2 663.73C222.2 664.68 222.97 665.45 223.92 665.45Z" fill="#565656"/>
<path d="M223.92 665.45C224.87 665.45 225.64 664.68 225.64 663.73C225.64 662.78 224.87 662.01 223.92 662.01C222.97 662.01 222.2 662.78 222.2 663.73C222.2 664.68 222.97 665.45 223.92 665.45Z" fill="#565656"/>
<path d="M223.92 682.8C224.87 682.8 225.64 682.03 225.64 681.08C225.64 680.13 224.87 679.36 223.92 679.36C222.97 679.36 222.2 680.13 222.2 681.08C222.2 682.03 222.97 682.8 223.92 682.8Z" fill="#565656"/>
<path d="M223.92 682.8C224.87 682.8 225.64 682.03 225.64 681.08C225.64 680.13 224.87 679.36 223.92 679.36C222.97 679.36 222.2 680.13 222.2 681.08C222.2 682.03 222.97 682.8 223.92 682.8Z" fill="#565656"/>
<path d="M223.92 700.14C224.87 700.14 225.64 699.37 225.64 698.42C225.64 697.47 224.87 696.7 223.92 696.7C222.97 696.7 222.2 697.47 222.2 698.42C222.2 699.37 222.97 700.14 223.92 700.14Z" fill="#565656"/>
<path d="M223.92 700.14C224.87 700.14 225.64 699.37 225.64 698.42C225.64 697.47 224.87 696.7 223.92 696.7C222.97 696.7 222.2 697.47 222.2 698.42C222.2 699.37 222.97 700.14 223.92 700.14Z" fill="#565656"/>
<path d="M223.92 717.49C224.87 717.49 225.64 716.72 225.64 715.77C225.64 714.82 224.87 714.05 223.92 714.05C222.97 714.05 222.2 714.82 222.2 715.77C222.2 716.72 222.97 717.49 223.92 717.49Z" fill="#565656"/>
<path d="M223.92 717.49C224.87 717.49 225.64 716.72 225.64 715.77C225.64 714.82 224.87 714.05 223.92 714.05C222.97 714.05 222.2 714.82 222.2 715.77C222.2 716.72 222.97 717.49 223.92 717.49Z" fill="#565656"/>
<path d="M223.92 734.83C224.87 734.83 225.64 734.06 225.64 733.11C225.64 732.16 224.87 731.39 223.92 731.39C222.97 731.39 222.2 732.16 222.2 733.11C222.2 734.06 222.97 734.83 223.92 734.83Z" fill="#565656"/>
<path d="M223.92 734.83C224.87 734.83 225.64 734.06 225.64 733.11C225.64 732.16 224.87 731.39 223.92 731.39C222.97 731.39 222.2 732.16 222.2 733.11C222.2 734.06 222.97 734.83 223.92 734.83Z" fill="#565656"/>
<path d="M223.92 752.18C224.87 752.18 225.64 751.41 225.64 750.46C225.64 749.51 224.87 748.74 223.92 748.74C222.97 748.74 222.2 749.51 222.2 750.46C222.2 751.41 222.97 752.18 223.92 752.18Z" fill="#565656"/>
<path d="M223.92 752.18C224.87 752.18 225.64 751.41 225.64 750.46C225.64 749.51 224.87 748.74 223.92 748.74C222.97 748.74 222.2 749.51 222.2 750.46C222.2 751.41 222.97 752.18 223.92 752.18Z" fill="#565656"/>
<path d="M206.57 613.41C207.52 613.41 208.29 612.64 208.29 611.69C208.29 610.74 207.52 609.97 206.57 609.97C205.62 609.97 204.85 610.74 204.85 611.69C204.85 612.64 205.62 613.41 206.57 613.41Z" fill="#565656"/>
<path d="M206.57 613.41C207.52 613.41 208.29 612.64 208.29 611.69C208.29 610.74 207.52 609.97 206.57 609.97C205.62 609.97 204.85 610.74 204.85 611.69C204.85 612.64 205.62 613.41 206.57 613.41Z" fill="#565656"/>
<path d="M206.57 630.76C207.52 630.76 208.29 629.99 208.29 629.04C208.29 628.09 207.52 627.32 206.57 627.32C205.62 627.32 204.85 628.09 204.85 629.04C204.85 629.99 205.62 630.76 206.57 630.76Z" fill="#565656"/>
<path d="M206.57 630.76C207.52 630.76 208.29 629.99 208.29 629.04C208.29 628.09 207.52 627.32 206.57 627.32C205.62 627.32 204.85 628.09 204.85 629.04C204.85 629.99 205.62 630.76 206.57 630.76Z" fill="#565656"/>
<path d="M206.57 648.1C207.52 648.1 208.29 647.33 208.29 646.38C208.29 645.43 207.52 644.66 206.57 644.66C205.62 644.66 204.85 645.43 204.85 646.38C204.85 647.33 205.62 648.1 206.57 648.1Z" fill="#565656"/>
<path d="M206.57 648.1C207.52 648.1 208.29 647.33 208.29 646.38C208.29 645.43 207.52 644.66 206.57 644.66C205.62 644.66 204.85 645.43 204.85 646.38C204.85 647.33 205.62 648.1 206.57 648.1Z" fill="#565656"/>
<path d="M206.57 665.45C207.52 665.45 208.29 664.68 208.29 663.73C208.29 662.78 207.52 662.01 206.57 662.01C205.62 662.01 204.85 662.78 204.85 663.73C204.85 664.68 205.62 665.45 206.57 665.45Z" fill="#565656"/>
<path d="M206.57 665.45C207.52 665.45 208.29 664.68 208.29 663.73C208.29 662.78 207.52 662.01 206.57 662.01C205.62 662.01 204.85 662.78 204.85 663.73C204.85 664.68 205.62 665.45 206.57 665.45Z" fill="#565656"/>
<path d="M206.57 682.8C207.52 682.8 208.29 682.03 208.29 681.08C208.29 680.13 207.52 679.36 206.57 679.36C205.62 679.36 204.85 680.13 204.85 681.08C204.85 682.03 205.62 682.8 206.57 682.8Z" fill="#565656"/>
<path d="M206.57 682.8C207.52 682.8 208.29 682.03 208.29 681.08C208.29 680.13 207.52 679.36 206.57 679.36C205.62 679.36 204.85 680.13 204.85 681.08C204.85 682.03 205.62 682.8 206.57 682.8Z" fill="#565656"/>
<path d="M206.57 700.14C207.52 700.14 208.29 699.37 208.29 698.42C208.29 697.47 207.52 696.7 206.57 696.7C205.62 696.7 204.85 697.47 204.85 698.42C204.85 699.37 205.62 700.14 206.57 700.14Z" fill="#565656"/>
<path d="M206.57 700.14C207.52 700.14 208.29 699.37 208.29 698.42C208.29 697.47 207.52 696.7 206.57 696.7C205.62 696.7 204.85 697.47 204.85 698.42C204.85 699.37 205.62 700.14 206.57 700.14Z" fill="#565656"/>
<path d="M206.57 717.49C207.52 717.49 208.29 716.72 208.29 715.77C208.29 714.82 207.52 714.05 206.57 714.05C205.62 714.05 204.85 714.82 204.85 715.77C204.85 716.72 205.62 717.49 206.57 717.49Z" fill="#565656"/>
<path d="M206.57 717.49C207.52 717.49 208.29 716.72 208.29 715.77C208.29 714.82 207.52 714.05 206.57 714.05C205.62 714.05 204.85 714.82 204.85 715.77C204.85 716.72 205.62 717.49 206.57 717.49Z" fill="#565656"/>
<path d="M206.57 734.83C207.52 734.83 208.29 734.06 208.29 733.11C208.29 732.16 207.52 731.39 206.57 731.39C205.62 731.39 204.85 732.16 204.85 733.11C204.85 734.06 205.62 734.83 206.57 734.83Z" fill="#565656"/>
<path d="M206.57 734.83C207.52 734.83 208.29 734.06 208.29 733.11C208.29 732.16 207.52 731.39 206.57 731.39C205.62 731.39 204.85 732.16 204.85 733.11C204.85 734.06 205.62 734.83 206.57 734.83Z" fill="#565656"/>
<path d="M206.57 752.18C207.52 752.18 208.29 751.41 208.29 750.46C208.29 749.51 207.52 748.74 206.57 748.74C205.62 748.74 204.85 749.51 204.85 750.46C204.85 751.41 205.62 752.18 206.57 752.18Z" fill="#565656"/>
<path d="M206.57 752.18C207.52 752.18 208.29 751.41 208.29 750.46C208.29 749.51 207.52 748.74 206.57 748.74C205.62 748.74 204.85 749.51 204.85 750.46C204.85 751.41 205.62 752.18 206.57 752.18Z" fill="#565656"/>
<path d="M189.22 613.41C190.17 613.41 190.94 612.64 190.94 611.69C190.94 610.74 190.17 609.97 189.22 609.97C188.27 609.97 187.5 610.74 187.5 611.69C187.5 612.64 188.27 613.41 189.22 613.41Z" fill="#565656"/>
<path d="M189.22 613.41C190.17 613.41 190.94 612.64 190.94 611.69C190.94 610.74 190.17 609.97 189.22 609.97C188.27 609.97 187.5 610.74 187.5 611.69C187.5 612.64 188.27 613.41 189.22 613.41Z" fill="#565656"/>
<path d="M189.22 630.76C190.17 630.76 190.94 629.99 190.94 629.04C190.94 628.09 190.17 627.32 189.22 627.32C188.27 627.32 187.5 628.09 187.5 629.04C187.5 629.99 188.27 630.76 189.22 630.76Z" fill="#565656"/>
<path d="M189.22 630.76C190.17 630.76 190.94 629.99 190.94 629.04C190.94 628.09 190.17 627.32 189.22 627.32C188.27 627.32 187.5 628.09 187.5 629.04C187.5 629.99 188.27 630.76 189.22 630.76Z" fill="#565656"/>
<path d="M189.22 648.1C190.17 648.1 190.94 647.33 190.94 646.38C190.94 645.43 190.17 644.66 189.22 644.66C188.27 644.66 187.5 645.43 187.5 646.38C187.5 647.33 188.27 648.1 189.22 648.1Z" fill="#565656"/>
<path d="M189.22 648.1C190.17 648.1 190.94 647.33 190.94 646.38C190.94 645.43 190.17 644.66 189.22 644.66C188.27 644.66 187.5 645.43 187.5 646.38C187.5 647.33 188.27 648.1 189.22 648.1Z" fill="#565656"/>
<path d="M189.22 665.45C190.17 665.45 190.94 664.68 190.94 663.73C190.94 662.78 190.17 662.01 189.22 662.01C188.27 662.01 187.5 662.78 187.5 663.73C187.5 664.68 188.27 665.45 189.22 665.45Z" fill="#565656"/>
<path d="M189.22 665.45C190.17 665.45 190.94 664.68 190.94 663.73C190.94 662.78 190.17 662.01 189.22 662.01C188.27 662.01 187.5 662.78 187.5 663.73C187.5 664.68 188.27 665.45 189.22 665.45Z" fill="#565656"/>
<path d="M189.22 682.8C190.17 682.8 190.94 682.03 190.94 681.08C190.94 680.13 190.17 679.36 189.22 679.36C188.27 679.36 187.5 680.13 187.5 681.08C187.5 682.03 188.27 682.8 189.22 682.8Z" fill="#565656"/>
<path d="M189.22 682.8C190.17 682.8 190.94 682.03 190.94 681.08C190.94 680.13 190.17 679.36 189.22 679.36C188.27 679.36 187.5 680.13 187.5 681.08C187.5 682.03 188.27 682.8 189.22 682.8Z" fill="#565656"/>
<path d="M189.22 700.14C190.17 700.14 190.94 699.37 190.94 698.42C190.94 697.47 190.17 696.7 189.22 696.7C188.27 696.7 187.5 697.47 187.5 698.42C187.5 699.37 188.27 700.14 189.22 700.14Z" fill="#565656"/>
<path d="M189.22 700.14C190.17 700.14 190.94 699.37 190.94 698.42C190.94 697.47 190.17 696.7 189.22 696.7C188.27 696.7 187.5 697.47 187.5 698.42C187.5 699.37 188.27 700.14 189.22 700.14Z" fill="#565656"/>
<path d="M189.22 717.49C190.17 717.49 190.94 716.72 190.94 715.77C190.94 714.82 190.17 714.05 189.22 714.05C188.27 714.05 187.5 714.82 187.5 715.77C187.5 716.72 188.27 717.49 189.22 717.49Z" fill="#565656"/>
<path d="M189.22 717.49C190.17 717.49 190.94 716.72 190.94 715.77C190.94 714.82 190.17 714.05 189.22 714.05C188.27 714.05 187.5 714.82 187.5 715.77C187.5 716.72 188.27 717.49 189.22 717.49Z" fill="#565656"/>
<path d="M189.22 734.83C190.17 734.83 190.94 734.06 190.94 733.11C190.94 732.16 190.17 731.39 189.22 731.39C188.27 731.39 187.5 732.16 187.5 733.11C187.5 734.06 188.27 734.83 189.22 734.83Z" fill="#565656"/>
<path d="M189.22 734.83C190.17 734.83 190.94 734.06 190.94 733.11C190.94 732.16 190.17 731.39 189.22 731.39C188.27 731.39 187.5 732.16 187.5 733.11C187.5 734.06 188.27 734.83 189.22 734.83Z" fill="#565656"/>
<path d="M189.22 752.18C190.17 752.18 190.94 751.41 190.94 750.46C190.94 749.51 190.17 748.74 189.22 748.74C188.27 748.74 187.5 749.51 187.5 750.46C187.5 751.41 188.27 752.18 189.22 752.18Z" fill="#565656"/>
<path d="M189.22 752.18C190.17 752.18 190.94 751.41 190.94 750.46C190.94 749.51 190.17 748.74 189.22 748.74C188.27 748.74 187.5 749.51 187.5 750.46C187.5 751.41 188.27 752.18 189.22 752.18Z" fill="#565656"/>
<path d="M507.86 510.25C508.81 510.25 509.58 509.48 509.58 508.53C509.58 507.58 508.81 506.81 507.86 506.81C506.91 506.81 506.14 507.58 506.14 508.53C506.14 509.48 506.91 510.25 507.86 510.25Z" fill="#565656"/>
<path d="M507.86 527.6C508.81 527.6 509.58 526.83 509.58 525.88C509.58 524.93 508.81 524.16 507.86 524.16C506.91 524.16 506.14 524.93 506.14 525.88C506.14 526.83 506.91 527.6 507.86 527.6Z" fill="#565656"/>
<path d="M507.86 544.94C508.81 544.94 509.58 544.17 509.58 543.22C509.58 542.27 508.81 541.5 507.86 541.5C506.91 541.5 506.14 542.27 506.14 543.22C506.14 544.17 506.91 544.94 507.86 544.94Z" fill="#565656"/>
<path d="M490.52 527.6C491.47 527.6 492.24 526.83 492.24 525.88C492.24 524.93 491.47 524.16 490.52 524.16C489.57 524.16 488.8 524.93 488.8 525.88C488.8 526.83 489.57 527.6 490.52 527.6Z" fill="#565656"/>
<path d="M490.52 544.94C491.47 544.94 492.24 544.17 492.24 543.22C492.24 542.27 491.47 541.5 490.52 541.5C489.57 541.5 488.8 542.27 488.8 543.22C488.8 544.17 489.57 544.94 490.52 544.94Z" fill="#565656"/>
<path d="M473.17 544.94C474.12 544.94 474.89 544.17 474.89 543.22C474.89 542.27 474.12 541.5 473.17 541.5C472.22 541.5 471.45 542.27 471.45 543.22C471.45 544.17 472.22 544.94 473.17 544.94Z" fill="#565656"/>
<path d="M628.81 319.32C629.76 319.32 630.53 318.55 630.53 317.6C630.53 316.65 629.76 315.88 628.81 315.88C627.86 315.88 627.09 316.65 627.09 317.6C627.09 318.55 627.86 319.32 628.81 319.32Z" fill="#565656"/>
<path d="M628.81 336.66C629.76 336.66 630.53 335.89 630.53 334.94C630.53 333.99 629.76 333.22 628.81 333.22C627.86 333.22 627.09 333.99 627.09 334.94C627.09 335.89 627.86 336.66 628.81 336.66Z" fill="#565656"/>
<path d="M628.81 354.01C629.76 354.01 630.53 353.24 630.53 352.29C630.53 351.34 629.76 350.57 628.81 350.57C627.86 350.57 627.09 351.34 627.09 352.29C627.09 353.24 627.86 354.01 628.81 354.01Z" fill="#565656"/>
<path d="M628.81 371.36C629.76 371.36 630.53 370.59 630.53 369.64C630.53 368.69 629.76 367.92 628.81 367.92C627.86 367.92 627.09 368.69 627.09 369.64C627.09 370.59 627.86 371.36 628.81 371.36Z" fill="#565656"/>
<path d="M628.81 388.7C629.76 388.7 630.53 387.93 630.53 386.98C630.53 386.03 629.76 385.26 628.81 385.26C627.86 385.26 627.09 386.03 627.09 386.98C627.09 387.93 627.86 388.7 628.81 388.7Z" fill="#565656"/>
<path d="M611.46 319.32C612.41 319.32 613.18 318.55 613.18 317.6C613.18 316.65 612.41 315.88 611.46 315.88C610.51 315.88 609.74 316.65 609.74 317.6C609.74 318.55 610.51 319.32 611.46 319.32Z" fill="#565656"/>
<path d="M611.46 336.66C612.41 336.66 613.18 335.89 613.18 334.94C613.18 333.99 612.41 333.22 611.46 333.22C610.51 333.22 609.74 333.99 609.74 334.94C609.74 335.89 610.51 336.66 611.46 336.66Z" fill="#565656"/>
<path d="M611.46 354.01C612.41 354.01 613.18 353.24 613.18 352.29C613.18 351.34 612.41 350.57 611.46 350.57C610.51 350.57 609.74 351.34 609.74 352.29C609.74 353.24 610.51 354.01 611.46 354.01Z" fill="#565656"/>
<path d="M594.11 371.36C595.06 371.36 595.83 370.59 595.83 369.64C595.83 368.69 595.06 367.92 594.11 367.92C593.16 367.92 592.39 368.69 592.39 369.64C592.39 370.59 593.16 371.36 594.11 371.36Z" fill="#565656"/>
<path d="M611.46 371.36C612.41 371.36 613.18 370.59 613.18 369.64C613.18 368.69 612.41 367.92 611.46 367.92C610.51 367.92 609.74 368.69 609.74 369.64C609.74 370.59 610.51 371.36 611.46 371.36Z" fill="#565656"/>
<path d="M611.46 388.7C612.41 388.7 613.18 387.93 613.18 386.98C613.18 386.03 612.41 385.26 611.46 385.26C610.51 385.26 609.74 386.03 609.74 386.98C609.74 387.93 610.51 388.7 611.46 388.7Z" fill="#565656"/>
<path d="M594.11 319.32C595.06 319.32 595.83 318.55 595.83 317.6C595.83 316.65 595.06 315.88 594.11 315.88C593.16 315.88 592.39 316.65 592.39 317.6C592.39 318.55 593.16 319.32 594.11 319.32Z" fill="#565656"/>
<path d="M594.11 336.66C595.06 336.66 595.83 335.89 595.83 334.94C595.83 333.99 595.06 333.22 594.11 333.22C593.16 333.22 592.39 333.99 592.39 334.94C592.39 335.89 593.16 336.66 594.11 336.66Z" fill="#565656"/>
<path d="M594.11 354.01C595.06 354.01 595.83 353.24 595.83 352.29C595.83 351.34 595.06 350.57 594.11 350.57C593.16 350.57 592.39 351.34 592.39 352.29C592.39 353.24 593.16 354.01 594.11 354.01Z" fill="#565656"/>
<path d="M576.77 319.32C577.72 319.32 578.49 318.55 578.49 317.6C578.49 316.65 577.72 315.88 576.77 315.88C575.82 315.88 575.05 316.65 575.05 317.6C575.05 318.55 575.82 319.32 576.77 319.32Z" fill="#565656"/>
<path d="M576.77 336.66C577.72 336.66 578.49 335.89 578.49 334.94C578.49 333.99 577.72 333.22 576.77 333.22C575.82 333.22 575.05 333.99 575.05 334.94C575.05 335.89 575.82 336.66 576.77 336.66Z" fill="#565656"/>
<path d="M576.77 354.01C577.72 354.01 578.49 353.24 578.49 352.29C578.49 351.34 577.72 350.57 576.77 350.57C575.82 350.57 575.05 351.34 575.05 352.29C575.05 353.24 575.82 354.01 576.77 354.01Z" fill="#565656"/>
<path d="M559.42 319.32C560.37 319.32 561.14 318.55 561.14 317.6C561.14 316.65 560.37 315.88 559.42 315.88C558.47 315.88 557.7 316.65 557.7 317.6C557.7 318.55 558.47 319.32 559.42 319.32Z" fill="#565656"/>
<path d="M559.42 336.66C560.37 336.66 561.14 335.89 561.14 334.94C561.14 333.99 560.37 333.22 559.42 333.22C558.47 333.22 557.7 333.99 557.7 334.94C557.7 335.89 558.47 336.66 559.42 336.66Z" fill="#565656"/>
<path d="M542.08 319.32C543.03 319.32 543.8 318.55 543.8 317.6C543.8 316.65 543.03 315.88 542.08 315.88C541.13 315.88 540.36 316.65 540.36 317.6C540.36 318.55 541.13 319.32 542.08 319.32Z" fill="#565656"/>
<path d="M524.73 319.32C525.68 319.32 526.45 318.55 526.45 317.6C526.45 316.65 525.68 315.88 524.73 315.88C523.78 315.88 523.01 316.65 523.01 317.6C523.01 318.55 523.78 319.32 524.73 319.32Z" fill="#565656"/>
<path d="M628.81 406.18C629.76 406.18 630.53 405.41 630.53 404.46C630.53 403.51 629.76 402.74 628.81 402.74C627.86 402.74 627.09 403.51 627.09 404.46C627.09 405.41 627.86 406.18 628.81 406.18Z" fill="#565656"/>
<path d="M646.2 319.32C647.15 319.32 647.92 318.55 647.92 317.6C647.92 316.65 647.15 315.88 646.2 315.88C645.25 315.88 644.48 316.65 644.48 317.6C644.48 318.55 645.25 319.32 646.2 319.32Z" fill="#565656"/>
<path d="M646.2 336.66C647.15 336.66 647.92 335.89 647.92 334.94C647.92 333.99 647.15 333.22 646.2 333.22C645.25 333.22 644.48 333.99 644.48 334.94C644.48 335.89 645.25 336.66 646.2 336.66Z" fill="#565656"/>
<path d="M646.2 354.01C647.15 354.01 647.92 353.24 647.92 352.29C647.92 351.34 647.15 350.57 646.2 350.57C645.25 350.57 644.48 351.34 644.48 352.29C644.48 353.24 645.25 354.01 646.2 354.01Z" fill="#565656"/>
<path d="M646.2 371.36C647.15 371.36 647.92 370.59 647.92 369.64C647.92 368.69 647.15 367.92 646.2 367.92C645.25 367.92 644.48 368.69 644.48 369.64C644.48 370.59 645.25 371.36 646.2 371.36Z" fill="#565656"/>
<path d="M646.2 388.7C647.15 388.7 647.92 387.93 647.92 386.98C647.92 386.03 647.15 385.26 646.2 385.26C645.25 385.26 644.48 386.03 644.48 386.98C644.48 387.93 645.25 388.7 646.2 388.7Z" fill="#565656"/>
<path d="M646.2 406.18C647.15 406.18 647.92 405.41 647.92 404.46C647.92 403.51 647.15 402.74 646.2 402.74C645.25 402.74 644.48 403.51 644.48 404.46C644.48 405.41 645.25 406.18 646.2 406.18Z" fill="#565656"/>
<path d="M646.2 423.52C647.15 423.52 647.92 422.75 647.92 421.8C647.92 420.85 647.15 420.08 646.2 420.08C645.25 420.08 644.48 420.85 644.48 421.8C644.48 422.75 645.25 423.52 646.2 423.52Z" fill="#565656"/>
<path d="M646.2 440.87C647.15 440.87 647.92 440.1 647.92 439.15C647.92 438.2 647.15 437.43 646.2 437.43C645.25 437.43 644.48 438.2 644.48 439.15C644.48 440.1 645.25 440.87 646.2 440.87Z" fill="#565656"/>
<path d="M646.2 458.21C647.15 458.21 647.92 457.44 647.92 456.49C647.92 455.54 647.15 454.77 646.2 454.77C645.25 454.77 644.48 455.54 644.48 456.49C644.48 457.44 645.25 458.21 646.2 458.21Z" fill="#565656"/>
<path d="M646.2 475.56C647.15 475.56 647.92 474.79 647.92 473.84C647.92 472.89 647.15 472.12 646.2 472.12C645.25 472.12 644.48 472.89 644.48 473.84C644.48 474.79 645.25 475.56 646.2 475.56Z" fill="#565656"/>
<path d="M628.81 510.25C629.76 510.25 630.53 509.48 630.53 508.53C630.53 507.58 629.76 506.81 628.81 506.81C627.86 506.81 627.09 507.58 627.09 508.53C627.09 509.48 627.86 510.25 628.81 510.25Z" fill="#565656"/>
<path d="M628.81 527.6C629.76 527.6 630.53 526.83 630.53 525.88C630.53 524.93 629.76 524.16 628.81 524.16C627.86 524.16 627.09 524.93 627.09 525.88C627.09 526.83 627.86 527.6 628.81 527.6Z" fill="#565656"/>
<path d="M628.81 544.94C629.76 544.94 630.53 544.17 630.53 543.22C630.53 542.27 629.76 541.5 628.81 541.5C627.86 541.5 627.09 542.27 627.09 543.22C627.09 544.17 627.86 544.94 628.81 544.94Z" fill="#565656"/>
<path d="M611.46 527.6C612.41 527.6 613.18 526.83 613.18 525.88C613.18 524.93 612.41 524.16 611.46 524.16C610.51 524.16 609.74 524.93 609.74 525.88C609.74 526.83 610.51 527.6 611.46 527.6Z" fill="#565656"/>
<path d="M611.46 544.94C612.41 544.94 613.18 544.17 613.18 543.22C613.18 542.27 612.41 541.5 611.46 541.5C610.51 541.5 609.74 542.27 609.74 543.22C609.74 544.17 610.51 544.94 611.46 544.94Z" fill="#565656"/>
<path d="M594.11 527.6C595.06 527.6 595.83 526.83 595.83 525.88C595.83 524.93 595.06 524.16 594.11 524.16C593.16 524.16 592.39 524.93 592.39 525.88C592.39 526.83 593.16 527.6 594.11 527.6Z" fill="#565656"/>
<path d="M594.11 544.94C595.06 544.94 595.83 544.17 595.83 543.22C595.83 542.27 595.06 541.5 594.11 541.5C593.16 541.5 592.39 542.27 592.39 543.22C592.39 544.17 593.16 544.94 594.11 544.94Z" fill="#565656"/>
<path d="M576.77 510.25C577.72 510.25 578.49 509.48 578.49 508.53C578.49 507.58 577.72 506.81 576.77 506.81C575.82 506.81 575.05 507.58 575.05 508.53C575.05 509.48 575.82 510.25 576.77 510.25Z" fill="#565656"/>
<path d="M576.77 527.6C577.72 527.6 578.49 526.83 578.49 525.88C578.49 524.93 577.72 524.16 576.77 524.16C575.82 524.16 575.05 524.93 575.05 525.88C575.05 526.83 575.82 527.6 576.77 527.6Z" fill="#565656"/>
<path d="M576.77 544.94C577.72 544.94 578.49 544.17 578.49 543.22C578.49 542.27 577.72 541.5 576.77 541.5C575.82 541.5 575.05 542.27 575.05 543.22C575.05 544.17 575.82 544.94 576.77 544.94Z" fill="#565656"/>
<path d="M559.42 510.25C560.37 510.25 561.14 509.48 561.14 508.53C561.14 507.58 560.37 506.81 559.42 506.81C558.47 506.81 557.7 507.58 557.7 508.53C557.7 509.48 558.47 510.25 559.42 510.25Z" fill="#565656"/>
<path d="M559.42 527.6C560.37 527.6 561.14 526.83 561.14 525.88C561.14 524.93 560.37 524.16 559.42 524.16C558.47 524.16 557.7 524.93 557.7 525.88C557.7 526.83 558.47 527.6 559.42 527.6Z" fill="#565656"/>
<path d="M559.42 544.94C560.37 544.94 561.14 544.17 561.14 543.22C561.14 542.27 560.37 541.5 559.42 541.5C558.47 541.5 557.7 542.27 557.7 543.22C557.7 544.17 558.47 544.94 559.42 544.94Z" fill="#565656"/>
<path d="M542.08 510.25C543.03 510.25 543.8 509.48 543.8 508.53C543.8 507.58 543.03 506.81 542.08 506.81C541.13 506.81 540.36 507.58 540.36 508.53C540.36 509.48 541.13 510.25 542.08 510.25Z" fill="#565656"/>
<path d="M542.08 527.6C543.03 527.6 543.8 526.83 543.8 525.88C543.8 524.93 543.03 524.16 542.08 524.16C541.13 524.16 540.36 524.93 540.36 525.88C540.36 526.83 541.13 527.6 542.08 527.6Z" fill="#565656"/>
<path d="M542.08 544.94C543.03 544.94 543.8 544.17 543.8 543.22C543.8 542.27 543.03 541.5 542.08 541.5C541.13 541.5 540.36 542.27 540.36 543.22C540.36 544.17 541.13 544.94 542.08 544.94Z" fill="#565656"/>
<path d="M524.73 510.25C525.68 510.25 526.45 509.48 526.45 508.53C526.45 507.58 525.68 506.81 524.73 506.81C523.78 506.81 523.01 507.58 523.01 508.53C523.01 509.48 523.78 510.25 524.73 510.25Z" fill="#565656"/>
<path d="M524.73 527.6C525.68 527.6 526.45 526.83 526.45 525.88C526.45 524.93 525.68 524.16 524.73 524.16C523.78 524.16 523.01 524.93 523.01 525.88C523.01 526.83 523.78 527.6 524.73 527.6Z" fill="#565656"/>
<path d="M524.73 544.94C525.68 544.94 526.45 544.17 526.45 543.22C526.45 542.27 525.68 541.5 524.73 541.5C523.78 541.5 523.01 542.27 523.01 543.22C523.01 544.17 523.78 544.94 524.73 544.94Z" fill="#565656"/>
<path d="M507.86 319.32C508.81 319.32 509.58 318.55 509.58 317.6C509.58 316.65 508.81 315.88 507.86 315.88C506.91 315.88 506.14 316.65 506.14 317.6C506.14 318.55 506.91 319.32 507.86 319.32Z" fill="#565656"/>
<circle cx="138" cy="577" r="2" fill="white"/>
<circle cx="155" cy="577" r="2" fill="white"/>
<circle cx="172" cy="577" r="2" fill="white"/>
<circle cx="138" cy="594" r="2" fill="white"/>
<circle cx="155" cy="594" r="2" fill="white"/>
<circle cx="172" cy="594" r="2" fill="white"/>
<circle cx="138" cy="611" r="2" fill="white"/>
<circle cx="155" cy="611" r="2" fill="white"/>
<circle cx="138" cy="713" r="2" fill="white"/>
<circle cx="155" cy="713" r="2" fill="white"/>
<circle cx="172" cy="713" r="2" fill="white"/>
<circle cx="138" cy="730" r="2" fill="white"/>
<circle cx="155" cy="730" r="2" fill="white"/>
<circle cx="172" cy="730" r="2" fill="white"/>
<circle cx="138" cy="747" r="2" fill="white"/>
<circle cx="155" cy="747" r="2" fill="white"/>
<circle cx="172" cy="747" r="2" fill="white"/>
<circle cx="172" cy="611" r="2" fill="white"/>
<circle cx="138" cy="628" r="2" fill="white"/>
<circle cx="155" cy="628" r="2" fill="white"/>
<circle cx="172" cy="628" r="2" fill="white"/>
<circle cx="138" cy="645" r="2" fill="white"/>
<circle cx="155" cy="645" r="2" fill="white"/>
<circle cx="172" cy="645" r="2" fill="white"/>
<circle cx="138" cy="662" r="2" fill="white"/>
<circle cx="155" cy="662" r="2" fill="white"/>
<circle cx="172" cy="662" r="2" fill="white"/>
<circle cx="138" cy="679" r="2" fill="white"/>
<circle cx="155" cy="679" r="2" fill="white"/>
<circle cx="172" cy="679" r="2" fill="white"/>
<circle cx="138" cy="696" r="2" fill="white"/>
<circle cx="155" cy="696" r="2" fill="white"/>
<circle cx="172" cy="696" r="2" fill="white"/>
<path d="M339.6 78.5C339.94 78.5 340.273 78.3991 340.555 78.2101C340.838 78.0211 341.059 77.7525 341.189 77.4382C341.319 77.1239 341.353 76.7781 341.287 76.4444C341.22 76.1108 341.057 75.8043 340.816 75.5638C340.576 75.3232 340.269 75.1594 339.935 75.093C339.602 75.0267 339.256 75.0607 338.942 75.1909C338.627 75.3211 338.359 75.5416 338.17 75.8244C337.981 76.1073 337.88 76.4398 337.88 76.78C337.88 77.2362 338.061 77.6737 338.384 77.9962C338.706 78.3188 339.144 78.5 339.6 78.5Z" fill="white"/>
<path d="M357 61.64C357.34 61.64 357.673 61.5391 357.955 61.3501C358.238 61.1611 358.459 60.8925 358.589 60.5782C358.719 60.2639 358.753 59.9181 358.687 59.5845C358.62 59.2508 358.457 58.9443 358.216 58.7038C357.975 58.4632 357.669 58.2994 357.335 58.2331C357.002 58.1667 356.656 58.2008 356.342 58.3309C356.027 58.4611 355.759 58.6816 355.57 58.9644C355.381 59.2473 355.28 59.5798 355.28 59.92C355.28 60.1459 355.324 60.3696 355.411 60.5782C355.497 60.7869 355.624 60.9765 355.784 61.1362C355.943 61.296 356.133 61.4226 356.342 61.5091C356.55 61.5955 356.774 61.64 357 61.64Z" fill="white"/>
<path d="M339.6 61.64C339.94 61.64 340.273 61.5391 340.555 61.3501C340.838 61.1611 341.059 60.8925 341.189 60.5782C341.319 60.2639 341.353 59.9181 341.287 59.5845C341.22 59.2508 341.057 58.9443 340.816 58.7038C340.576 58.4632 340.269 58.2994 339.935 58.2331C339.602 58.1667 339.256 58.2008 338.942 58.3309C338.627 58.4611 338.359 58.6816 338.17 58.9644C337.981 59.2473 337.88 59.5798 337.88 59.92C337.88 60.3762 338.061 60.8137 338.384 61.1362C338.706 61.4588 339.144 61.64 339.6 61.64Z" fill="white"/>
<path d="M356.95 44.29C357.9 44.29 358.67 43.5199 358.67 42.57C358.67 41.6201 357.9 40.85 356.95 40.85C356 40.85 355.23 41.6201 355.23 42.57C355.23 43.5199 356 44.29 356.95 44.29Z" fill="white"/>
<path d="M374.34 44.29C374.68 44.29 375.013 44.1891 375.295 44.0001C375.578 43.8111 375.799 43.5425 375.929 43.2282C376.059 42.9139 376.093 42.5681 376.027 42.2345C375.96 41.9008 375.797 41.5943 375.556 41.3538C375.316 41.1132 375.009 40.9494 374.675 40.8831C374.342 40.8167 373.996 40.8508 373.682 40.9809C373.367 41.1111 373.099 41.3316 372.91 41.6144C372.721 41.8973 372.62 42.2298 372.62 42.57C372.62 42.7959 372.664 43.0195 372.751 43.2282C372.837 43.4369 372.964 43.6265 373.124 43.7862C373.283 43.9459 373.473 44.0726 373.682 44.1591C373.89 44.2455 374.114 44.29 374.34 44.29Z" fill="white"/>
<path d="M339.6 44.29C339.94 44.29 340.273 44.1891 340.555 44.0001C340.838 43.8111 341.059 43.5425 341.189 43.2282C341.319 42.9139 341.353 42.5681 341.287 42.2345C341.22 41.9008 341.057 41.5943 340.816 41.3538C340.576 41.1132 340.269 40.9494 339.935 40.8831C339.602 40.8167 339.256 40.8508 338.942 40.9809C338.627 41.1111 338.359 41.3316 338.17 41.6144C337.981 41.8973 337.88 42.2298 337.88 42.57C337.88 43.0262 338.061 43.4637 338.384 43.7862C338.706 44.1088 339.144 44.29 339.6 44.29Z" fill="white"/>
<path d="M339.6 95.85C339.94 95.85 340.273 95.7491 340.555 95.5601C340.838 95.3711 341.059 95.1025 341.189 94.7882C341.319 94.4739 341.353 94.1281 341.287 93.7944C341.22 93.4608 341.057 93.1543 340.816 92.9138C340.576 92.6732 340.269 92.5094 339.935 92.4431C339.602 92.3767 339.256 92.4107 338.942 92.5409C338.627 92.6711 338.359 92.8916 338.17 93.1744C337.981 93.4573 337.88 93.7898 337.88 94.13C337.88 94.5862 338.061 95.0237 338.384 95.3462C338.706 95.6688 339.144 95.85 339.6 95.85Z" fill="white"/>
</svg>
