<svg viewBox="0 0 396 305" fill="none" xmlns="http://www.w3.org/2000/svg"><g clip-path="url(#clip0)" fill="#555"><circle cx="242.7" cy="62.905" r="2.971" transform="rotate(-180 242.7 62.905)"/><circle cx="212.732" cy="62.905" r="2.971" transform="rotate(-180 212.732 62.905)"/><circle cx="182.766" cy="62.905" r="2.971" transform="rotate(-180 182.766 62.905)"/><circle cx="152.799" cy="62.905" r="2.971" transform="rotate(-180 152.799 62.905)"/><circle cx="122.834" cy="62.905" r="2.971" transform="rotate(-180 122.834 62.905)"/><circle cx="92.869" cy="62.905" r="2.971" transform="rotate(-180 92.87 62.905)"/><circle cx="62.902" cy="62.905" r="2.971" transform="rotate(-180 62.902 62.905)"/><circle cx="32.934" cy="62.905" r="2.971" transform="rotate(-180 32.934 62.905)"/><circle cx="2.971" cy="62.905" r="2.971" transform="rotate(-180 2.97 62.905)"/><circle cx="242.7" cy="32.935" r="2.971" transform="rotate(-180 242.7 32.935)"/><circle cx="212.732" cy="32.935" r="2.971" transform="rotate(-180 212.732 32.935)"/><circle cx="182.766" cy="32.935" r="2.971" transform="rotate(-180 182.766 32.935)"/><circle cx="152.799" cy="32.935" r="2.971" transform="rotate(-180 152.799 32.935)"/><circle cx="122.834" cy="32.935" r="2.971" transform="rotate(-180 122.834 32.935)"/><circle cx="92.869" cy="32.935" r="2.971" transform="rotate(-180 92.87 32.935)"/><circle cx="62.902" cy="32.935" r="2.971" transform="rotate(-180 62.902 32.935)"/><circle cx="32.934" cy="32.935" r="2.971" transform="rotate(-180 32.934 32.935)"/><circle cx="2.971" cy="32.935" r="2.971" transform="rotate(-180 2.97 32.935)"/><circle cx="242.7" cy="2.971" r="2.971" transform="rotate(-180 242.7 2.97)"/><circle cx="212.732" cy="2.971" r="2.971" transform="rotate(-180 212.732 2.971)"/><circle cx="182.766" cy="2.971" r="2.971" transform="rotate(-180 182.766 2.971)"/><circle cx="152.799" cy="2.971" r="2.971" transform="rotate(-180 152.799 2.971)"/><circle cx="122.833" cy="2.971" r="2.971" transform="rotate(-180 122.833 2.97)"/><circle cx="92.869" cy="2.971" r="2.971" transform="rotate(-180 92.87 2.97)"/><circle cx="62.902" cy="2.971" r="2.971" transform="rotate(-180 62.902 2.97)"/><circle cx="32.934" cy="2.971" r="2.971" transform="rotate(-180 32.934 2.97)"/><circle cx="2.971" cy="2.971" r="2.971" transform="rotate(-180 2.97 2.97)"/><circle cx="392.751" cy="301.803" r="2.971" transform="rotate(-180 392.751 301.803)"/><circle cx="362.784" cy="301.805" r="2.971" transform="rotate(-180 362.784 301.805)"/><circle cx="332.819" cy="301.805" r="2.971" transform="rotate(-180 332.819 301.805)"/><circle cx="302.852" cy="301.805" r="2.971" transform="rotate(-180 302.852 301.805)"/><circle cx="272.885" cy="301.805" r="2.971" transform="rotate(-180 272.885 301.805)"/><circle cx="392.751" cy="271.84" r="2.971" transform="rotate(-180 392.751 271.84)"/><circle cx="362.784" cy="271.84" r="2.971" transform="rotate(-180 362.784 271.84)"/><circle cx="332.819" cy="271.84" r="2.971" transform="rotate(-180 332.819 271.84)"/><circle cx="302.852" cy="271.84" r="2.971" transform="rotate(-180 302.852 271.84)"/><circle cx="272.885" cy="271.84" r="2.971" transform="rotate(-180 272.885 271.84)"/><circle cx="392.751" cy="241.87" r="2.971" transform="rotate(-180 392.751 241.87)"/><circle cx="362.784" cy="241.87" r="2.971" transform="rotate(-180 362.784 241.87)"/><circle cx="332.819" cy="241.87" r="2.971" transform="rotate(-180 332.819 241.87)"/><circle cx="302.852" cy="241.87" r="2.971" transform="rotate(-180 302.852 241.87)"/><circle cx="272.885" cy="241.87" r="2.971" transform="rotate(-180 272.885 241.87)"/><circle cx="392.751" cy="211.906" r="2.971" transform="rotate(-180 392.751 211.906)"/><circle cx="362.784" cy="211.906" r="2.971" transform="rotate(-180 362.784 211.906)"/><circle cx="332.819" cy="211.906" r="2.971" transform="rotate(-180 332.819 211.906)"/><circle cx="302.852" cy="211.906" r="2.971" transform="rotate(-180 302.852 211.906)"/><circle cx="272.885" cy="211.906" r="2.971" transform="rotate(-180 272.885 211.906)"/><circle cx="392.751" cy="181.941" r="2.971" transform="rotate(-180 392.751 181.941)"/><circle cx="362.784" cy="181.941" r="2.971" transform="rotate(-180 362.784 181.941)"/><circle cx="332.819" cy="181.941" r="2.971" transform="rotate(-180 332.819 181.941)"/><circle cx="302.852" cy="181.941" r="2.971" transform="rotate(-180 302.852 181.941)"/><circle cx="272.885" cy="181.941" r="2.971" transform="rotate(-180 272.885 181.941)"/><circle cx="392.751" cy="151.971" r="2.971" transform="rotate(-180 392.751 151.971)"/><circle cx="362.784" cy="151.971" r="2.971" transform="rotate(-180 362.784 151.971)"/><circle cx="332.819" cy="151.971" r="2.971" transform="rotate(-180 332.819 151.971)"/><circle cx="302.852" cy="151.971" r="2.971" transform="rotate(-180 302.852 151.971)"/><circle cx="272.885" cy="151.971" r="2.971" transform="rotate(-180 272.885 151.971)"/><circle cx="392.751" cy="122.007" r="2.971" transform="rotate(-180 392.751 122.007)"/><circle cx="362.784" cy="122.007" r="2.971" transform="rotate(-180 362.784 122.007)"/><circle cx="332.819" cy="122.007" r="2.971" transform="rotate(-180 332.819 122.007)"/><circle cx="302.852" cy="122.007" r="2.971" transform="rotate(-180 302.852 122.007)"/><circle cx="272.885" cy="122.007" r="2.971" transform="rotate(-180 272.885 122.007)"/><circle cx="392.751" cy="92.042" r="2.971" transform="rotate(-180 392.751 92.042)"/><circle cx="362.784" cy="92.042" r="2.971" transform="rotate(-180 362.784 92.042)"/><circle cx="332.819" cy="92.042" r="2.971" transform="rotate(-180 332.819 92.042)"/><circle cx="302.852" cy="92.042" r="2.971" transform="rotate(-180 302.852 92.042)"/><circle cx="272.885" cy="92.042" r="2.971" transform="rotate(-180 272.885 92.042)"/><circle cx="242.7" cy="301.805" r="2.971" transform="rotate(-180 242.7 301.805)"/><circle cx="212.732" cy="301.805" r="2.971" transform="rotate(-180 212.732 301.805)"/><circle cx="182.766" cy="301.805" r="2.971" transform="rotate(-180 182.766 301.805)"/><circle cx="152.799" cy="301.805" r="2.971" transform="rotate(-180 152.799 301.805)"/><circle cx="122.834" cy="301.805" r="2.971" transform="rotate(-180 122.834 301.805)"/><circle cx="92.869" cy="301.805" r="2.971" transform="rotate(-180 92.87 301.805)"/><circle cx="62.902" cy="301.805" r="2.971" transform="rotate(-180 62.902 301.805)"/><circle cx="32.934" cy="301.805" r="2.971" transform="rotate(-180 32.934 301.805)"/><circle cx="2.971" cy="301.805" r="2.971" transform="rotate(-180 2.97 301.805)"/><circle cx="242.7" cy="271.84" r="2.971" transform="rotate(-180 242.7 271.84)"/><circle cx="212.732" cy="271.84" r="2.971" transform="rotate(-180 212.732 271.84)"/><circle cx="182.766" cy="271.84" r="2.971" transform="rotate(-180 182.766 271.84)"/><circle cx="152.799" cy="271.84" r="2.971" transform="rotate(-180 152.799 271.84)"/><circle cx="122.834" cy="271.84" r="2.971" transform="rotate(-180 122.834 271.84)"/><circle cx="92.869" cy="271.84" r="2.971" transform="rotate(-180 92.87 271.84)"/><circle cx="62.902" cy="271.84" r="2.971" transform="rotate(-180 62.902 271.84)"/><circle cx="32.934" cy="271.84" r="2.971" transform="rotate(-180 32.934 271.84)"/><circle cx="2.971" cy="271.84" r="2.971" transform="rotate(-180 2.97 271.84)"/><circle cx="242.7" cy="241.87" r="2.971" transform="rotate(-180 242.7 241.87)"/><circle cx="212.732" cy="241.87" r="2.971" transform="rotate(-180 212.732 241.87)"/><circle cx="182.766" cy="241.87" r="2.971" transform="rotate(-180 182.766 241.87)"/><circle cx="152.799" cy="241.87" r="2.971" transform="rotate(-180 152.799 241.87)"/><circle cx="122.834" cy="241.87" r="2.971" transform="rotate(-180 122.834 241.87)"/><circle cx="92.869" cy="241.87" r="2.971" transform="rotate(-180 92.87 241.87)"/><circle cx="62.902" cy="241.87" r="2.971" transform="rotate(-180 62.902 241.87)"/><circle cx="32.934" cy="241.87" r="2.971" transform="rotate(-180 32.934 241.87)"/><circle cx="2.971" cy="241.87" r="2.971" transform="rotate(-180 2.97 241.87)"/><circle cx="242.7" cy="211.906" r="2.971" transform="rotate(-180 242.7 211.906)"/><circle cx="212.732" cy="211.906" r="2.971" transform="rotate(-180 212.732 211.906)"/><circle cx="182.766" cy="211.906" r="2.971" transform="rotate(-180 182.766 211.906)"/><circle cx="152.799" cy="211.906" r="2.971" transform="rotate(-180 152.799 211.906)"/><circle cx="122.834" cy="211.906" r="2.971" transform="rotate(-180 122.834 211.906)"/><circle cx="92.869" cy="211.906" r="2.971" transform="rotate(-180 92.87 211.906)"/><circle cx="62.902" cy="211.906" r="2.971" transform="rotate(-180 62.902 211.906)"/><circle cx="32.934" cy="211.906" r="2.971" transform="rotate(-180 32.934 211.906)"/><circle cx="2.971" cy="211.906" r="2.971" transform="rotate(-180 2.97 211.906)"/><circle cx="242.7" cy="181.941" r="2.971" transform="rotate(-180 242.7 181.941)"/><circle cx="212.732" cy="181.941" r="2.971" transform="rotate(-180 212.732 181.941)"/><circle cx="182.766" cy="181.941" r="2.971" transform="rotate(-180 182.766 181.941)"/><circle cx="152.799" cy="181.941" r="2.971" transform="rotate(-180 152.799 181.941)"/><circle cx="122.834" cy="181.941" r="2.971" transform="rotate(-180 122.834 181.941)"/><circle cx="92.869" cy="181.941" r="2.971" transform="rotate(-180 92.87 181.941)"/><circle cx="62.902" cy="181.941" r="2.971" transform="rotate(-180 62.902 181.941)"/><circle cx="32.934" cy="181.941" r="2.971" transform="rotate(-180 32.934 181.941)"/><circle cx="2.971" cy="181.941" r="2.971" transform="rotate(-180 2.97 181.941)"/><circle cx="242.7" cy="151.971" r="2.971" transform="rotate(-180 242.7 151.971)"/><circle cx="212.732" cy="151.971" r="2.971" transform="rotate(-180 212.732 151.971)"/><circle cx="182.766" cy="151.971" r="2.971" transform="rotate(-180 182.766 151.971)"/><circle cx="152.799" cy="151.971" r="2.971" transform="rotate(-180 152.799 151.971)"/><circle cx="122.834" cy="151.971" r="2.971" transform="rotate(-180 122.834 151.971)"/><circle cx="92.869" cy="151.971" r="2.971" transform="rotate(-180 92.87 151.971)"/><circle cx="62.902" cy="151.971" r="2.971" transform="rotate(-180 62.902 151.971)"/><circle cx="32.934" cy="151.971" r="2.971" transform="rotate(-180 32.934 151.971)"/><circle cx="2.971" cy="151.971" r="2.971" transform="rotate(-180 2.97 151.971)"/><circle cx="242.7" cy="122.007" r="2.971" transform="rotate(-180 242.7 122.007)"/><circle cx="212.732" cy="122.007" r="2.971" transform="rotate(-180 212.732 122.007)"/><circle cx="182.766" cy="122.007" r="2.971" transform="rotate(-180 182.766 122.007)"/><circle cx="152.799" cy="122.007" r="2.971" transform="rotate(-180 152.799 122.007)"/><circle cx="122.834" cy="122.007" r="2.971" transform="rotate(-180 122.834 122.007)"/><circle cx="92.869" cy="122.007" r="2.971" transform="rotate(-180 92.87 122.007)"/><circle cx="62.902" cy="122.007" r="2.971" transform="rotate(-180 62.902 122.007)"/><circle cx="32.934" cy="122.007" r="2.971" transform="rotate(-180 32.934 122.007)"/><circle cx="2.971" cy="122.007" r="2.971" transform="rotate(-180 2.97 122.007)"/><circle cx="242.7" cy="92.042" r="2.971" transform="rotate(-180 242.7 92.042)"/><circle cx="212.732" cy="92.042" r="2.971" transform="rotate(-180 212.732 92.042)"/><circle cx="182.766" cy="92.042" r="2.971" transform="rotate(-180 182.766 92.042)"/><circle cx="152.799" cy="92.042" r="2.971" transform="rotate(-180 152.799 92.042)"/><circle cx="122.834" cy="92.042" r="2.971" transform="rotate(-180 122.834 92.042)"/><circle cx="92.869" cy="92.042" r="2.971" transform="rotate(-180 92.87 92.042)"/><circle cx="62.902" cy="92.042" r="2.971" transform="rotate(-180 62.902 92.042)"/><circle cx="32.934" cy="92.042" r="2.971" transform="rotate(-180 32.934 92.042)"/><circle cx="2.971" cy="92.042" r="2.971" transform="rotate(-180 2.97 92.042)"/><circle cx="392.751" cy="62.905" r="2.971" transform="rotate(-180 392.751 62.905)"/><circle cx="362.784" cy="62.905" r="2.971" transform="rotate(-180 362.784 62.905)"/><circle cx="332.819" cy="62.905" r="2.971" transform="rotate(-180 332.819 62.905)"/><circle cx="302.852" cy="62.905" r="2.971" transform="rotate(-180 302.852 62.905)"/><circle cx="272.885" cy="62.905" r="2.971" transform="rotate(-180 272.885 62.905)"/><circle cx="392.751" cy="32.935" r="2.971" transform="rotate(-180 392.751 32.935)"/><circle cx="362.784" cy="32.935" r="2.971" transform="rotate(-180 362.784 32.935)"/><circle cx="332.819" cy="32.935" r="2.971" transform="rotate(-180 332.819 32.935)"/><circle cx="302.852" cy="32.935" r="2.971" transform="rotate(-180 302.852 32.935)"/><circle cx="272.885" cy="32.935" r="2.971" transform="rotate(-180 272.885 32.935)"/><circle cx="392.751" cy="2.971" r="2.971" transform="rotate(-180 392.751 2.97)"/><circle cx="362.784" cy="2.971" r="2.971" transform="rotate(-180 362.784 2.97)"/><circle cx="332.819" cy="2.971" r="2.971" transform="rotate(-180 332.819 2.97)"/><circle cx="302.852" cy="2.971" r="2.971" transform="rotate(-180 302.852 2.97)"/><circle cx="272.885" cy="2.971" r="2.971" transform="rotate(-180 272.885 2.97)"/></g><defs><clipPath id="clip0"><path fill="#fff" transform="rotate(-180 197.861 152.387)" d="M0 0h395.722v304.775H0z"/></clipPath></defs></svg>