<svg width="396" height="305" viewBox="0 0 396 305" fill="none" xmlns="http://www.w3.org/2000/svg">
<g clip-path="url(#clip0)">
<circle cx="392.751" cy="301.803" r="2.97079" transform="rotate(-180 392.751 301.803)" fill="#555555"/>
<circle cx="362.784" cy="301.805" r="2.97079" transform="rotate(-180 362.784 301.805)" fill="#555555"/>
<circle cx="332.819" cy="301.805" r="2.97079" transform="rotate(-180 332.819 301.805)" fill="#555555"/>
<circle cx="302.852" cy="301.805" r="2.97079" transform="rotate(-180 302.852 301.805)" fill="#555555"/>
<circle cx="272.885" cy="301.805" r="2.97079" transform="rotate(-180 272.885 301.805)" fill="#555555"/>
<circle cx="392.751" cy="271.84" r="2.97079" transform="rotate(-180 392.751 271.84)" fill="#555555"/>
<circle cx="362.784" cy="271.84" r="2.97079" transform="rotate(-180 362.784 271.84)" fill="#555555"/>
<circle cx="332.819" cy="271.84" r="2.97079" transform="rotate(-180 332.819 271.84)" fill="#555555"/>
<circle cx="302.852" cy="271.84" r="2.97079" transform="rotate(-180 302.852 271.84)" fill="#555555"/>
<circle cx="272.885" cy="271.84" r="2.97079" transform="rotate(-180 272.885 271.84)" fill="#555555"/>
<circle cx="392.751" cy="241.87" r="2.97079" transform="rotate(-180 392.751 241.87)" fill="#555555"/>
<circle cx="362.784" cy="241.87" r="2.97079" transform="rotate(-180 362.784 241.87)" fill="#555555"/>
<circle cx="392.751" cy="211.906" r="2.97079" transform="rotate(-180 392.751 211.906)" fill="#555555"/>
<circle cx="362.784" cy="211.906" r="2.97079" transform="rotate(-180 362.784 211.906)" fill="#555555"/>
<circle cx="392.751" cy="181.941" r="2.97079" transform="rotate(-180 392.751 181.941)" fill="#555555"/>
<circle cx="362.784" cy="181.941" r="2.97079" transform="rotate(-180 362.784 181.941)" fill="#555555"/>
<circle cx="392.751" cy="151.971" r="2.97079" transform="rotate(-180 392.751 151.971)" fill="#555555"/>
<circle cx="362.784" cy="151.971" r="2.97079" transform="rotate(-180 362.784 151.971)" fill="#555555"/>
<circle cx="392.751" cy="122.007" r="2.97079" transform="rotate(-180 392.751 122.007)" fill="#555555"/>
<circle cx="362.784" cy="122.007" r="2.97079" transform="rotate(-180 362.784 122.007)" fill="#555555"/>
<circle cx="392.751" cy="92.0424" r="2.97079" transform="rotate(-180 392.751 92.0424)" fill="#555555"/>
<circle cx="362.784" cy="92.0424" r="2.97079" transform="rotate(-180 362.784 92.0424)" fill="#555555"/>
<circle cx="242.7" cy="301.805" r="2.97079" transform="rotate(-180 242.7 301.805)" fill="#555555"/>
<circle cx="212.732" cy="301.805" r="2.97079" transform="rotate(-180 212.732 301.805)" fill="#555555"/>
<circle cx="182.766" cy="301.805" r="2.97079" transform="rotate(-180 182.766 301.805)" fill="#555555"/>
<circle cx="152.799" cy="301.805" r="2.97079" transform="rotate(-180 152.799 301.805)" fill="#555555"/>
<circle cx="122.834" cy="301.805" r="2.97079" transform="rotate(-180 122.834 301.805)" fill="#555555"/>
<circle cx="92.8691" cy="301.805" r="2.97079" transform="rotate(-180 92.8691 301.805)" fill="#555555"/>
<circle cx="62.9023" cy="301.805" r="2.97079" transform="rotate(-180 62.9023 301.805)" fill="#555555"/>
<circle cx="32.9345" cy="301.805" r="2.97079" transform="rotate(-180 32.9345 301.805)" fill="#555555"/>
<circle cx="2.97062" cy="301.805" r="2.97079" transform="rotate(-180 2.97062 301.805)" fill="#555555"/>
<circle cx="242.7" cy="271.84" r="2.97079" transform="rotate(-180 242.7 271.84)" fill="#555555"/>
<circle cx="212.732" cy="271.84" r="2.97079" transform="rotate(-180 212.732 271.84)" fill="#555555"/>
<circle cx="182.766" cy="271.84" r="2.97079" transform="rotate(-180 182.766 271.84)" fill="#555555"/>
<circle cx="152.799" cy="271.84" r="2.97079" transform="rotate(-180 152.799 271.84)" fill="#555555"/>
<circle cx="122.834" cy="271.84" r="2.97079" transform="rotate(-180 122.834 271.84)" fill="#555555"/>
<circle cx="92.8691" cy="271.84" r="2.97079" transform="rotate(-180 92.8691 271.84)" fill="#555555"/>
<circle cx="62.9023" cy="271.84" r="2.97079" transform="rotate(-180 62.9023 271.84)" fill="#555555"/>
<circle cx="32.9345" cy="271.84" r="2.97079" transform="rotate(-180 32.9345 271.84)" fill="#555555"/>
<circle cx="2.97062" cy="271.84" r="2.97079" transform="rotate(-180 2.97062 271.84)" fill="#555555"/>
<circle cx="392.751" cy="62.9052" r="2.97079" transform="rotate(-180 392.751 62.9052)" fill="#555555"/>
<circle cx="362.784" cy="62.9052" r="2.97079" transform="rotate(-180 362.784 62.9052)" fill="#555555"/>
<circle cx="392.751" cy="32.935" r="2.97079" transform="rotate(-180 392.751 32.935)" fill="#555555"/>
<circle cx="362.784" cy="32.935" r="2.97079" transform="rotate(-180 362.784 32.935)" fill="#555555"/>
<circle cx="392.751" cy="2.97086" r="2.97079" transform="rotate(-180 392.751 2.97086)" fill="#555555"/>
<circle cx="362.784" cy="2.97086" r="2.97079" transform="rotate(-180 362.784 2.97086)" fill="#555555"/>
</g>
<defs>
<clipPath id="clip0">
<rect width="395.722" height="304.775" fill="white" transform="translate(395.722 304.775) rotate(-180)"/>
</clipPath>
</defs>
</svg>
