<svg fill="none" height="69" viewBox="0 0 80 69" width="80" xmlns="http://www.w3.org/2000/svg"><g stroke="#000"><path d="m.5.5h8.7561v9.73171h-8.7561z"/><path d="m47.3293.5h8.7561v9.73171h-8.7561z"/><path d="m47.3293 45.3781h8.7561v9.73171h-8.7561z"/><path d="m.5 45.3781h8.7561v9.73171h-8.7561z"/><path d="m12.2073.5h8.7561v9.73171h-8.7561z"/><path d="m59.0366.5h8.7561v9.73171h-8.7561z"/><path d="m59.0366 45.3781h8.7561v9.73171h-8.7561z"/><path d="m12.2073 45.3781h8.7561v9.73171h-8.7561z"/><path d="m23.9146.5h8.7561v9.73171h-8.7561z"/><path d="m70.7439.5h8.7561v9.73171h-8.7561z"/><path d="m70.7439 45.3781h8.7561v9.73171h-8.7561z"/><path d="m23.9146 45.3781h8.7561v9.73171h-8.7561z"/><path d="m23.9146 13.1829h8.7561v9.73171h-8.7561z"/><path d="m70.7439 13.1829h8.7561v9.73171h-8.7561z"/><path d="m23.9146 58.061h8.7561v9.73171h-8.7561z"/><path d="m12.2073 13.1829h8.7561v9.73171h-8.7561z"/><path d="m59.0366 13.1829h8.7561v9.73171h-8.7561z"/><path d="m.5 13.1829h8.7561v9.73171h-8.7561z"/><path d="m47.3293 13.1829h8.7561v9.73171h-8.7561z"/><path d="m.5 58.061h8.7561v9.73171h-8.7561z"/><path d="m23.9146 25.8658h8.7561v9.73171h-8.7561z"/><path d="m70.7439 25.8658h8.7561v9.73171h-8.7561z"/></g></svg>