<svg xmlns="http://www.w3.org/2000/svg" fill="currentColor" viewBox="0 0 80 69">
	<path d="M.5.5h8.756v9.732H.5zM47.33.5h8.755v9.732H47.33zM47.33 45.378h8.755v9.732H47.33zM.5 45.378h8.756v9.732H.5zM12.207.5h8.756v9.732h-8.756zM59.037.5h8.756v9.732h-8.756zM59.037 45.378h8.756v9.732h-8.756zM12.207 45.378h8.756v9.732h-8.756zM23.915.5h8.756v9.732h-8.756zM70.744.5H79.5v9.732h-8.756zM70.744 45.378H79.5v9.732h-8.756zM23.915 45.378h8.756v9.732h-8.756zM23.915 13.183h8.756v9.732h-8.756zM70.744 13.183H79.5v9.732h-8.756zM23.915 58.061h8.756v9.732h-8.756zM12.207 13.183h8.756v9.732h-8.756zM59.037 13.183h8.756v9.732h-8.756zM.5 13.183h8.756v9.732H.5zM47.33 13.183h8.755v9.732H47.33zM.5 58.061h8.756v9.732H.5zM23.915 25.866h8.756v9.732h-8.756zM70.744 25.866H79.5v9.732h-8.756z"/>
</svg>