<svg fill="none" height="80" viewBox="0 0 58 80" width="58" xmlns="http://www.w3.org/2000/svg"><path d="m1.22762.440087c-.21304.04065-.404876.155254-.541644.323583-.136768.16833-.209674.37956-.205853.59642v77.28001c.000025.244.096961.478.26949.6505.172528.1725.406517.2695.650507.2695h13.79998c.1219.0017.243-.0208.3561-.0663.1131-.0454.2161-.1129.3029-.1985s.1558-.1876.2028-.3001c.0471-.1125.0713-.2332.0713-.3551s-.0242-.2426-.0713-.3551c-.047-.1125-.116-.2145-.2028-.3001s-.1898-.1531-.3029-.1985c-.1131-.0455-.2342-.068-.3561-.0663h-12.87998v-75.44001h53.35998v75.44001h-34.96c-.1219-.0017-.2429.0208-.3561.0663-.1131.0454-.2161.1129-.3029.1985s-.1557.1876-.2028.3001c-.047.1125-.0713.2332-.0713.3551s.0243.2426.0713.3551c.0471.1125.116.2145.2028.3001s.1898.1531.3029.1985c.1132.0455.2342.068.3561.0663h35.88c.244 0 .478-.097.6505-.2695.1726-.1725.2695-.4065.2695-.6505v-77.28001c0-.24399-.0969-.477986-.2695-.650515-.1725-.172528-.4065-.269464-.6505-.269488h-55.19998c-.05737-.005402-.11512-.005402-.1725 0zm19.49248 10.120013c-3.5458 0-6.44 2.8942-6.44 6.44 0 1.3575.4274 2.6106 1.15 3.6512-3.4437 1.9662-5.74998 5.7932-5.74998 10.1488.00003.244.09696.478.26949.6505.17249.1725.40649.2695.65049.2695h20.24c.244 0 .478-.097.6505-.2695.1726-.1725.2695-.4065.2695-.6505 0-4.3556-2.3062-8.1826-5.75-10.1488.7226-1.0406 1.15-2.2937 1.15-3.6512 0-3.5458-2.8942-6.44-6.44-6.44zm0 1.84c2.5514 0 4.6 2.0486 4.6 4.6s-2.0486 4.6-4.6 4.6-4.6-2.0486-4.6-4.6 2.0486-4.6 4.6-4.6zm-3.9675 9.66c1.0969.8656 2.468 1.38 3.9675 1.38s2.8707-.5144 3.9675-1.38c2.8157 1.4288 4.7709 4.3613 5.0888 7.82h-18.1125c.3178-3.4587 2.2731-6.3912 5.0887-7.82zm-6.325 17.02c-.244.0229-.46889.1417-.62525.3304s-.23135.4318-.20848.6758c.02288.244.14174.469.33045.6253.18868.1564.43178.2314.67578.2085h36.8c.1219.0017.243-.0208.3561-.0663.1131-.0454.2161-.1129.3029-.1985s.1558-.1876.2028-.3001c.0471-.1125.0713-.2332.0713-.3551s-.0242-.2426-.0713-.3551c-.047-.1125-.116-.2145-.2028-.3001s-.1898-.1531-.3029-.1986c-.1131-.0454-.2342-.0679-.3561-.0662h-36.8c-.0573-.0054-.1151-.0054-.1725 0zm0 6.44c-.244.0229-.46889.1417-.62525.3304-.07742.0935-.13568.2013-.17145.3172-.03577.116-.04835.2378-.03703.3586.01133.1209.04634.2383.10304.3455.0567.1073.13397.2024.22741.2798.18868.1564.43178.2314.67578.2085h36.8c.1219.0017.243-.0208.3561-.0663.1131-.0454.2161-.1129.3029-.1985s.1558-.1876.2028-.3001c.0471-.1125.0713-.2332.0713-.3551s-.0242-.2426-.0713-.3551c-.047-.1125-.116-.2145-.2028-.3001s-.1898-.1531-.3029-.1986c-.1131-.0454-.2342-.0679-.3561-.0662h-36.8c-.0573-.0054-.1151-.0054-.1725 0zm0 6.44c-.244.0229-.46889.1417-.62525.3304s-.23135.4318-.20848.6758c.02288.244.14174.469.33045.6253.18868.1564.43178.2314.67578.2085h36.8c.1219.0017.243-.0208.3561-.0663.1131-.0454.2161-.1129.3029-.1985s.1558-.1876.2028-.3001c.0471-.1125.0713-.2332.0713-.3551s-.0242-.2426-.0713-.3551c-.047-.1125-.116-.2145-.2028-.3001s-.1898-.1531-.3029-.1986c-.1131-.0454-.2342-.0679-.3561-.0662h-36.8c-.0573-.0054-.1151-.0054-.1725 0zm0 6.44c-.244.0229-.46889.1417-.62525.3304s-.23135.4318-.20848.6758c.02288.244.14174.469.33045.6253.18868.1564.43178.2314.67578.2085h18.4c.1219.0017.243-.0208.3561-.0663.1131-.0454.2161-.1129.3029-.1985s.1558-.1876.2028-.3001c.0471-.1125.0713-.2332.0713-.3551s-.0242-.2426-.0713-.3551c-.047-.1125-.116-.2145-.2028-.3001s-.1898-.1531-.3029-.1986c-.1131-.0454-.2342-.0679-.3561-.0662h-18.4c-.0573-.0054-.1151-.0054-.1725 0zm22.08 9.2c-.244.0229-.4689.1417-.6253.3304-.1563.1887-.2313.4318-.2084.6758.0228.244.1417.469.3304.6253.1887.1564.4318.2314.6758.2085h14.72c.1219.0017.243-.0208.3561-.0663.1131-.0454.2161-.1129.3029-.1985s.1558-.1876.2028-.3001c.0471-.1125.0713-.2332.0713-.3551s-.0242-.2426-.0713-.3551c-.047-.1125-.116-.2145-.2028-.3001s-.1898-.1531-.3029-.1985c-.1131-.0455-.2342-.068-.3561-.0663h-14.72c-.0573-.0054-.1151-.0054-.1725 0z" fill="currentColor"/></svg>