<svg xmlns="http://www.w3.org/2000/svg" fill="currentColor" viewBox="0 0 58 80">
	<path d="M1.228.44a.92.92 0 00-.748.92v77.28a.92.92 0 00.92.92h13.8a.92.92 0 100-1.84H2.32V2.28h53.36v75.44H20.72a.92.92 0 100 1.84H56.6a.92.92 0 00.92-.92V1.36a.92.92 0 00-.92-.92H1.4a.92.92 0 00-.172 0zM20.72 10.56c-3.546 0-6.44 2.894-6.44 6.44 0 1.358.428 2.61 1.15 3.651-3.444 1.966-5.75 5.793-5.75 10.15a.92.92 0 00.92.92h20.24a.92.92 0 00.92-.92c0-4.356-2.306-8.183-5.75-10.15a6.372 6.372 0 001.15-3.65c0-3.547-2.894-6.44-6.44-6.44zm0 1.84c2.552 0 4.6 2.049 4.6 4.6s-2.048 4.6-4.6 4.6-4.6-2.049-4.6-4.6 2.049-4.6 4.6-4.6zm-3.967 9.66c1.097.866 2.468 1.38 3.967 1.38s2.87-.514 3.968-1.38c2.815 1.429 4.77 4.361 5.088 7.82H11.664c.318-3.459 2.273-6.391 5.089-7.82zm-6.325 17.02a.924.924 0 10.172 1.84h36.8a.92.92 0 100-1.84H10.6a.92.92 0 00-.172 0zm0 6.44a.924.924 0 10.172 1.84h36.8a.92.92 0 100-1.84H10.6a.92.92 0 00-.172 0zm0 6.44a.924.924 0 10.172 1.84h36.8a.92.92 0 100-1.84H10.6a.92.92 0 00-.172 0zm0 6.44a.924.924 0 10.172 1.84H29a.92.92 0 100-1.84H10.6a.92.92 0 00-.172 0zm22.08 9.2a.924.924 0 00.172 1.84H47.4a.92.92 0 100-1.84H32.68a.92.92 0 00-.172 0z"/>
</svg>