<svg viewBox="0 0 16 16" fill="currentColor" xmlns="http://www.w3.org/2000/svg"><path d="M5.192 3c.416 0 .8.032 1.152.128.352.064.64.192.896.352.256.16.448.384.576.672.128.288.192.64.192 1.024 0 .448-.096.832-.32 1.12-.192.288-.512.544-.896.736.544.16.96.448 1.216.832.256.384.416.864.416 1.408 0 .448-.096.832-.256 1.152a2.13 2.13 0 0 1-.704.8c-.288.192-.64.352-1.024.448a4.76 4.76 0 0 1-1.152.16H1V3h4.192Zm-.256 3.584c.352 0 .64-.096.864-.256.224-.16.32-.448.32-.8 0-.192-.032-.384-.096-.512a.908.908 0 0 0-.288-.32c-.128-.064-.256-.128-.416-.16-.16-.032-.32-.032-.512-.032H2.952v2.08h1.984Zm.096 3.776c.192 0 .384-.032.544-.064a1.122 1.122 0 0 0 .768-.544c.064-.16.128-.352.128-.576 0-.448-.128-.768-.384-.992-.256-.192-.608-.288-1.024-.288H2.952v2.464h2.08Zm6.176-.032c.256.256.64.384 1.152.384.352 0 .672-.096.928-.256.256-.192.416-.384.48-.576h1.568c-.256.768-.64 1.312-1.152 1.664-.512.32-1.12.512-1.856.512-.512 0-.96-.096-1.376-.256a2.557 2.557 0 0 1-1.024-.704 2.539 2.539 0 0 1-.64-1.056c-.16-.416-.224-.864-.224-1.376 0-.48.064-.928.224-1.344a3.45 3.45 0 0 1 .672-1.088 3.25 3.25 0 0 1 1.024-.704c.416-.16.832-.256 1.344-.256.544 0 1.024.096 1.44.32.416.224.736.48.992.864.256.352.48.704.576 1.216.096.512.096.896.064 1.408h-4.64c0 .512.192.992.448 1.248Zm2.016-3.36c-.224-.224-.576-.352-.992-.352-.288 0-.512.064-.704.16-.192.096-.32.224-.448.352a.853.853 0 0 0-.224.448c-.032.16-.064.288-.064.416h2.88c-.064-.48-.224-.8-.448-1.024Zm-2.816-3.36h3.584v.864h-3.584v-.864Z" /></svg>