<svg viewBox="0 0 100 125" xmlns="http://www.w3.org/2000/svg"><path d="m18.000066 971.36217c-2.8246 0-5 2.2074-5 5v42.00003c.0001.5236.4764.9999 1 1h72c.5236-.0001 1-.4764 1-1v-42.00003c0-2.7926-2.1754-5-5-5zm0 2h64c1.8681 0 3 1.1591 3 3v41.00003h-70v-41.00003c0-1.8409 1.1319-3 3-3zm28 6c-6.6137 0-12 5.3863-12 12s5.3863 12.00003 12 12.00003c2.9493 0 5.6584-1.0711 7.75-2.8438l10.5625 10.5626c.3871.3871 1.0192.3872 1.4063 0 .387-.3872.387-1.0193 0-1.4063l-10.5626-10.56253c1.7728-2.0916 2.8438-4.8006 2.8438-7.75 0-6.6137-5.3864-12-12-12zm0 2c5.5331 0 10 4.4669 10 10s-4.4669 10.00003-10 10.00003-10-4.46693-10-10.00003 4.4669-10 10-10zm-38.1874998 43.00003c-.4584.088-.8207.5334-.8125 1v3c0 1.6609.9934 3.0068 2.3125 3.8125 1.3190998.8057 2.9751998 1.1875 4.6874998 1.1875h72c1.7124 0 3.3684-.3818 4.687504-1.1875 1.3191-.8057 2.3125-2.1516 2.3125-3.8125v-3c0-.5236-.4764-.9999-1-1h-84.1875038zm1.1875 2h82.0000038v2c0 .916-.4432 1.5435-1.343804 2.0938-.9006.55-2.2478.9062-3.6562.9062h-72c-1.4083 0-2.7556-.3562-3.6562-.9062-.9007998-.5503-1.3437998-1.1778-1.3437998-2.0938v-2z" transform="translate(0 -952.36218)"/><g font-family="'Helvetica Neue', Helvetica, Arial-Unicode, Arial, Sans-serif" font-size="5" font-weight="bold"><text y="115">Created by iconsphere</text><text y="120">from the Noun Project</text></g></svg>