<svg
	fill="none"
	height="80"
	viewBox="0 0 112 80"
	width="112"
	xmlns="http://www.w3.org/2000/svg"
>
	<path
		d="m15.0401.319946c-3.6155 0-6.39996 2.825474-6.39996 6.400004v53.75995c.00012.6702.60979 1.2799 1.28 1.28h92.15986c.67-.0001 1.28-.6098 1.28-1.28v-53.75995c0-3.57453-2.784-6.400004-6.3999-6.400004zm0 2.560004h81.92c2.3912 0 3.8399 1.48364 3.8399 3.84v52.47995h-89.5999v-52.47995c0-2.35636 1.4489-3.84 3.84-3.84zm35.84 7.67995c-8.4655 0-15.36 6.8945-15.36 15.36 0 8.4656 6.8945 15.36 15.36 15.36 3.7751 0 7.2428-1.371 9.92-3.64l13.52 13.5201c.4955.4955 1.3046.4956 1.8001 0 .4954-.4956.4954-1.3047 0-1.8001l-13.5201-13.52c2.2692-2.6772 3.64-6.1447 3.64-9.92 0-8.4655-6.8946-15.36-15.36-15.36zm0 2.56c7.0824 0 12.8 5.7177 12.8 12.8 0 7.0824-5.7176 12.8-12.8 12.8-7.0823 0-12.8-5.7176-12.8-12.8 0-7.0823 5.7177-12.8 12.8-12.8zm-48.87996 55.04c-.58676.1127-1.0505.6828-1.040004 1.28v3.84c0 2.126 1.271554 3.8487 2.960004 4.88 1.68844 1.0313 3.80825 1.52 6 1.52h92.15986c2.192 0 4.312-.4887 6-1.52 1.689-1.0313 2.96-2.754 2.96-4.88v-3.84c0-.6702-.61-1.2798-1.28-1.28zm1.52 2.56h104.95986v2.56c0 1.1725-.567 1.9758-1.72 2.6802-1.153.704-2.877 1.1598-4.68 1.1598h-92.15986c-1.80263 0-3.52717-.4558-4.67994-1.1598-1.15302-.7044-1.72006-1.5077-1.72006-2.6802z"
		fill="currentColor"
	/>
</svg>
