<svg xmlns="http://www.w3.org/2000/svg" fill="currentColor" viewBox="0 0 112 80">
	<path d="M15.04.32c-3.615 0-6.4 2.825-6.4 6.4v53.76c0 .67.61 1.28 1.28 1.28h92.16c.67 0 1.28-.61 1.28-1.28V6.72c0-3.575-2.784-6.4-6.4-6.4zm0 2.56h81.92c2.391 0 3.84 1.484 3.84 3.84V59.2H11.2V6.72c0-2.356 1.449-3.84 3.84-3.84zm35.84 7.68c-8.465 0-15.36 6.894-15.36 15.36 0 8.465 6.895 15.36 15.36 15.36 3.775 0 7.243-1.371 9.92-3.64l13.52 13.52a1.276 1.276 0 001.8 0 1.276 1.276 0 000-1.8L62.6 35.84a15.303 15.303 0 003.64-9.92c0-8.466-6.894-15.36-15.36-15.36zm0 2.56c7.083 0 12.8 5.718 12.8 12.8 0 7.082-5.717 12.8-12.8 12.8-7.082 0-12.8-5.718-12.8-12.8 0-7.082 5.718-12.8 12.8-12.8zM2 68.16c-.587.113-1.05.683-1.04 1.28v3.84c0 2.126 1.272 3.849 2.96 4.88 1.689 1.031 3.808 1.52 6 1.52h92.16c2.192 0 4.312-.489 6-1.52 1.689-1.031 2.96-2.754 2.96-4.88v-3.84c0-.67-.61-1.28-1.28-1.28zm1.52 2.56h104.96v2.56c0 1.172-.567 1.976-1.72 2.68-1.153.704-2.877 1.16-4.68 1.16H9.92c-1.802 0-3.527-.456-4.68-1.16-1.153-.704-1.72-1.508-1.72-2.68z"/>
</svg>