<svg xmlns="http://www.w3.org/2000/svg" viewBox="0 0 512 512"><path d="M192 0H32C14.336 0 0 14.336 0 32v160c0 17.664 14.336 32 32 32h160c17.664 0 32-14.336 32-32V32c0-17.664-14.336-32-32-32zm0 288H32c-17.664 0-32 14.336-32 32v160c0 17.664 14.336 32 32 32h160c17.664 0 32-14.336 32-32V320c0-17.664-14.336-32-32-32zM480 0H320c-17.664 0-32 14.336-32 32v160c0 17.664 14.336 32 32 32h160c17.664 0 32-14.336 32-32V32c0-17.664-14.336-32-32-32zm0 288H320c-17.664 0-32 14.336-32 32v160c0 17.664 14.336 32 32 32h160c17.664 0 32-14.336 32-32V320c0-17.664-14.336-32-32-32z"/></svg>