<svg xmlns="http://www.w3.org/2000/svg" fill="currentColor" viewBox="0 0 80 80">
	<path d="M78.683 38.961H40.86V1.314a.86.86 0 00-1.72 0v37.647H1.317c-.473 0-.86.385-.86.856s.387.856.86.856H39.14V78.32a.86.86 0 001.72 0V40.673h37.823c.473 0 .86-.385.86-.856s-.387-.856-.86-.856zM76.06 3.89H60.675v15.315H76.06zm-1.72 13.603H62.395V5.603H74.34z"/>
	<path d="M58.8 3.89H43.406v15.315H58.79V3.89zm-1.72 13.603H45.126V5.603H57.07v11.89zM76.06 21.07H60.675v15.315H76.06zm-1.72 13.611H62.395V22.783H74.34zM58.8 21.07H43.406v15.315H58.79V21.07zm-1.72 13.611H45.126V22.783H57.07V34.68zM36.56 21.07H21.166v15.315H36.56zm-1.72 13.611H22.886V22.783H34.84zM19.291 21.07H3.906v15.315h15.385zm-1.72 13.611H5.626V22.783h11.945zM60.675 58.53H76.06V43.206H60.675zm1.72-13.611H74.34v11.89H62.395zM43.406 58.53H58.79V43.206H43.406zm1.72-13.611H57.07v11.89H45.126zM21.166 58.53H36.56V43.206H21.166zm1.72-13.611H34.84v11.89H22.886zM3.906 58.53h15.385V43.206H3.906zm1.72-13.611h11.945v11.89H5.626zM21.166 75.71H36.56V60.394H21.166zm1.72-13.603H34.84v11.89H22.886z"/>
</svg>