<svg
	fill="none"
	height="80"
	viewBox="0 0 80 80"
	width="80"
	xmlns="http://www.w3.org/2000/svg"
>
	<g fill="currentColor">
		<path
			d="m78.6829 38.9611h-37.8228v-37.64686c0-.470803-.387-.856003-.86-.856003s-.86.3852-.86.856003v37.64686h-37.82282c-.473005 0-.860005.3852-.860005.856s.387.856.860005.856h37.82282v37.6469c0 .4708.387.856.86.856s.86-.3852.86-.856v-37.6469h37.8228c.473 0 .86-.3852.86-.856s-.387-.856-.86-.856z"
		/>
		<path
			d="m76.06 3.89079h-15.3854v15.31381h15.3854zm-1.72 13.60181h-11.9454v-11.88981h11.9454z"
		/>
		<path
			d="m58.7998 3.89079h-15.394v15.31381h15.3854v-15.31381zm-1.72 13.60181h-11.954v-11.88981h11.9454v11.88981z"
		/>
		<path
			d="m76.06 21.0707h-15.3854v15.3139h15.3854zm-1.72 13.6104h-11.9454v-11.8984h11.9454z"
		/>
		<path
			d="m58.7998 21.0707h-15.394v15.3139h15.3854v-15.3139zm-1.72 13.6104h-11.954v-11.8984h11.9454v11.8984z"
		/>
		<path
			d="m36.56 21.0707h-15.394v15.3139h15.394zm-1.72 13.6104h-11.954v-11.8984h11.954z"
		/>
		<path
			d="m19.2914 21.0707h-15.38539v15.3139h15.38539zm-1.72 13.6104h-11.94539v-11.8984h11.94539z"
		/>
		<path
			d="m60.6746 58.5293h15.3854v-15.3224h-15.3854zm1.72-13.6104h11.9454v11.8898h-11.9454z"
		/>
		<path
			d="m43.4058 58.5293h15.3854v-15.3224h-15.3854zm1.72-13.6104h11.9454v11.8898h-11.9454z"
		/>
		<path
			d="m21.166 58.5293h15.394v-15.3224h-15.394zm1.72-13.6104h11.954v11.8898h-11.954z"
		/>
		<path
			d="m3.90601 58.5293h15.38539v-15.3224h-15.38539zm1.72-13.6104h11.94539v11.8898h-11.94539z"
		/>
		<path
			d="m21.166 75.7092h15.394v-15.3138h-15.394zm1.72-13.6018h11.954v11.8898h-11.954z"
		/>
	</g>
</svg>
