<svg xmlns="http://www.w3.org/2000/svg" width="101" height="79" fill="none">
    <path fill="currentColor" d="M50.276.264a1.19 1.19 0 00-.855.67L46.15 7.492l-7.735 1.117a1.189 1.189 0 00-.983.812 1.193 1.193 0 00.313 1.237l5.541 5.55-1.115 7.71a1.194 1.194 0 001.073 1.392c.22.018.44-.025.637-.125l6.62-3.315 6.619 3.315a1.189 1.189 0 001.71-1.266l-1.115-7.71 5.54-5.551a1.191 1.191 0 00-.668-2.049L54.85 7.491 51.578.935a1.191 1.191 0 00-1.19-.67 1.189 1.189 0 00-.112 0zm.223 3.874l2.492 4.992a1.191 1.191 0 00.893.67l5.95.857-4.24 4.246a1.193 1.193 0 00-.334 1.043l.855 6.072-5.095-2.57a1.19 1.19 0 00-1.041 0l-5.095 2.57.855-6.072a1.194 1.194 0 00-.334-1.043l-4.24-4.246 5.95-.857a1.19 1.19 0 00.893-.67l2.491-4.992zm33.097 8.046a1.189 1.189 0 00-.855.67l-3.272 6.557-7.735 1.117a1.19 1.19 0 00-1.005 1.476c.055.219.171.418.335.573l5.541 5.55-1.115 7.71a1.194 1.194 0 001.073 1.392c.22.018.44-.025.637-.125l6.62-3.315 6.619 3.315a1.189 1.189 0 001.71-1.266l-1.115-7.71 5.54-5.551a1.192 1.192 0 00-.668-2.049l-7.736-1.117-3.272-6.556a1.191 1.191 0 00-1.19-.67 1.154 1.154 0 00-.112 0zm.224 3.874l2.491 4.992a1.191 1.191 0 00.893.67l5.95.857-4.24 4.246a1.192 1.192 0 00-.335 1.043l.856 6.072-5.095-2.57a1.19 1.19 0 00-1.041 0l-5.095 2.57.856-6.072a1.194 1.194 0 00-.335-1.043l-4.24-4.246 5.95-.857a1.189 1.189 0 00.893-.67l2.492-4.992zm-66.864 8.046a1.189 1.189 0 00-.855.67l-3.272 6.557-7.735 1.117a1.19 1.19 0 00-1.005 1.476c.055.219.171.418.335.573l5.541 5.55-1.115 7.71a1.194 1.194 0 001.073 1.392c.22.018.44-.025.637-.125l6.62-3.315 6.619 3.315a1.189 1.189 0 001.71-1.266l-1.115-7.71 5.54-5.551a1.191 1.191 0 00-.669-2.049l-7.735-1.117-3.272-6.556a1.191 1.191 0 00-1.19-.67 1.154 1.154 0 00-.112 0zm.224 3.874l2.491 4.992a1.191 1.191 0 00.893.67l5.95.857-4.24 4.246a1.192 1.192 0 00-.335 1.043l.856 6.072-5.095-2.57a1.19 1.19 0 00-1.041 0l-5.095 2.57.855-6.072a1.194 1.194 0 00-.334-1.043l-4.24-4.246 5.95-.857a1.189 1.189 0 00.893-.67l2.492-4.992zm21.196 4.47a1.19 1.19 0 00-.966 1.192v42.912h-7.14V57.48a1.193 1.193 0 00-1.19-1.192H5.28a1.19 1.19 0 00-1.19 1.192v19.072H.52v2.384h99.96v-2.384h-3.57V45.56a1.193 1.193 0 00-1.19-1.192h-23.8a1.19 1.19 0 00-1.19 1.192v30.992h-7.14V33.64a1.193 1.193 0 00-1.19-1.192H38.6a1.152 1.152 0 00-.112 0 1.154 1.154 0 00-.112 0zm1.413 2.384h21.42v41.124H39.79V34.832zm33.32 11.92h21.42v29.204H73.11V46.752zM6.47 58.672h21.42v17.284H6.47V58.672z"/>
</svg>