<svg xmlns="http://www.w3.org/2000/svg" fill="currentColor" viewBox="0 0 102 80">
	<path d="M50.775.4a1.2 1.2 0 00-.862.675l-3.3 6.6-7.8 1.125a1.2 1.2 0 00-.675 2.062l5.587 5.588-1.125 7.763a1.2 1.2 0 001.725 1.274L51 22.15l6.675 3.337a1.2 1.2 0 001.725-1.274l-1.125-7.763 5.588-5.588a1.2 1.2 0 00-.675-2.062l-7.8-1.125-3.3-6.6a1.2 1.2 0 00-1.2-.675 1.2 1.2 0 00-.113 0zM51 4.3l2.513 5.025a1.2 1.2 0 00.9.675l6 .863-4.275 4.275a1.2 1.2 0 00-.338 1.05l.863 6.112-5.138-2.587a1.2 1.2 0 00-1.05 0L45.338 22.3l.862-6.112a1.2 1.2 0 00-.337-1.05l-4.275-4.276 6-.862a1.2 1.2 0 00.9-.675zm33.375 8.1a1.2 1.2 0 00-.862.675l-3.3 6.6-7.8 1.125a1.201 1.201 0 00-.675 2.062l5.587 5.588-1.125 7.762a1.2 1.2 0 001.725 1.275L84.6 34.15l6.675 3.337A1.2 1.2 0 0093 36.212l-1.125-7.762 5.588-5.588a1.2 1.2 0 00-.675-2.062l-7.8-1.125-3.3-6.6a1.2 1.2 0 00-1.2-.675 1.173 1.173 0 00-.113 0zm.225 3.9l2.513 5.025a1.2 1.2 0 00.9.675l6 .862-4.275 4.275a1.2 1.2 0 00-.338 1.05l.863 6.113-5.138-2.588a1.2 1.2 0 00-1.05 0L78.938 34.3l.862-6.113a1.2 1.2 0 00-.337-1.05l-4.275-4.275 6-.862a1.2 1.2 0 00.9-.675zm-67.425 8.1a1.2 1.2 0 00-.862.675l-3.3 6.6-7.8 1.125a1.2 1.2 0 00-.675 2.063l5.587 5.587L9 48.212a1.2 1.2 0 001.725 1.275L17.4 46.15l6.675 3.337a1.2 1.2 0 001.725-1.275l-1.125-7.762 5.588-5.588a1.2 1.2 0 00-.675-2.062l-7.8-1.125-3.3-6.6a1.2 1.2 0 00-1.2-.675 1.173 1.173 0 00-.113 0zm.225 3.9l2.513 5.025a1.2 1.2 0 00.9.675l6 .862-4.275 4.275a1.2 1.2 0 00-.338 1.05l.863 6.113-5.138-2.588a1.2 1.2 0 00-1.05 0L11.738 46.3l.862-6.113a1.2 1.2 0 00-.337-1.05l-4.275-4.275 6-.862a1.201 1.201 0 00.9-.675zm21.375 4.5A1.2 1.2 0 0037.8 34v43.2h-7.2V58a1.2 1.2 0 00-1.2-1.2h-24A1.2 1.2 0 004.2 58v19.2H.6v2.4h100.8v-2.4h-3.6V46a1.2 1.2 0 00-1.2-1.2h-24a1.2 1.2 0 00-1.2 1.2v31.2h-7.2V34a1.2 1.2 0 00-1.2-1.2H39a1.173 1.173 0 00-.112 0 1.173 1.173 0 00-.113 0zm1.425 2.4h21.6v41.4H40.2zm33.6 12h21.6v29.4H73.8zm-67.2 12h21.6v17.4H6.6z"/>
</svg>