<svg
	fill="none"
	height="80"
	viewBox="0 0 102 80"
	width="102"
	xmlns="http://www.w3.org/2000/svg"
>
	<path
		d="m50.7751.399986c-.187.036007-.3628.116003-.5127.233375-.15.117372-.2699.26875-.3498.441629l-3.3 6.6-7.8 1.125c-.2256.02838-.4385.12029-.614.26501-.1754.14473-.306.33631-.3768.55243-.0707.21613-.0786.44787-.0227.66837.0559.2204.1733.4204.3385.5767l5.5875 5.5875-1.125 7.7625c-.0379.2193-.0141.4448.0688.6513.0828.2065.2215.386.4004.5182.179.1323.3912.2122.613.2309.2217.0186.4443-.0248.6428-.1254l6.675-3.3375 6.675 3.3375c.1985.1006.4211.144.6428.1254.2218-.0187.434-.0986.613-.2309.1789-.1322.3176-.3117.4004-.5182.0829-.2065.1067-.432.0688-.6513l-1.125-7.7625 5.5875-5.5875c.1652-.1563.2826-.3563.3385-.5767.0559-.2205.048-.45224-.0227-.66837-.0708-.21612-.2014-.4077-.3768-.55243-.1755-.14472-.3884-.23663-.614-.26501l-7.8-1.125-3.3-6.6c-.1066-.222059-.2789-.405944-.4936-.5267-.2147-.120755-.4613-.172532-.7064-.148304-.0375-.001758-.075-.001758-.1125 0zm.225 3.900004 2.5125 5.025c.0834.17748.2091.33181.366.44949.1569.11767.3402.1951.534.22551l6 .86251-4.275 4.275c-.1361.1353-.2378.3012-.2965.4839s-.0728.3768-.041.5661l.8625 6.1125-5.1375-2.5875c-.1636-.0796-.3431-.1209-.525-.1209s-.3614.0413-.525.1209l-5.1375 2.5875.8625-6.1125c.0318-.1893.0177-.3834-.041-.5661s-.1604-.3486-.2965-.4839l-4.275-4.275 6-.86251c.1937-.03041.3771-.10784.534-.22551.1569-.11768.2826-.27201.366-.44949zm33.375 8.10001c-.187.036-.3628.116-.5127.2334-.15.1173-.2699.2687-.3498.4416l-3.3 6.6-7.8 1.125c-.2256.0284-.4385.1203-.614.265-.1754.1447-.3061.3363-.3768.5524-.0707.2162-.0786.4479-.0227.6684.0559.2204.1733.4204.3385.5767l5.5875 5.5875-1.125 7.7625c-.0379.2193-.0141.4448.0688.6513.0828.2065.2215.386.4004.5182.179.1323.3912.2122.613.2309.2217.0186.4443-.0248.6428-.1254l6.675-3.3375 6.675 3.3375c.1985.1006.4211.144.6428.1254.2218-.0187.434-.0986.613-.2309.1789-.1322.3176-.3117.4004-.5182.0829-.2065.1067-.432.0688-.6513l-1.125-7.7625 5.5875-5.5875c.1652-.1563.2826-.3563.3385-.5767.0559-.2205.048-.4522-.0227-.6684-.0707-.2161-.2014-.4077-.3768-.5524-.1755-.1447-.3884-.2366-.614-.265l-7.8-1.125-3.3-6.6c-.1066-.2221-.2789-.406-.4936-.5267-.2147-.1208-.4613-.1725-.7064-.1483-.0375-.0018-.075-.0018-.1125 0zm.225 3.9 2.5125 5.025c.0834.1775.2091.3318.366.4495.1569.1176.3403.1951.534.2255l6 .8625-4.275 4.275c-.1361.1353-.2378.3012-.2965.4839s-.0728.3768-.041.5661l.8625 6.1125-5.1375-2.5875c-.1636-.0796-.3431-.1209-.525-.1209s-.3614.0413-.525.1209l-5.1375 2.5875.8625-6.1125c.0318-.1893.0177-.3834-.041-.5661s-.1604-.3486-.2965-.4839l-4.275-4.275 6-.8625c.1938-.0304.3771-.1079.534-.2255.1569-.1177.2826-.272.366-.4495zm-67.425 8.1c-.187.036-.3628.116-.5127.2334-.15.1173-.2699.2687-.3498.4416l-3.3 6.6-7.8 1.125c-.22563.0284-.43855.1203-.61396.265s-.30609.3363-.37682.5524c-.07074.2162-.07861.4479-.0227.6684.05591.2204.17329.4204.33848.5767l5.5875 5.5875-1.125 7.7625c-.03791.2193-.01411.4448.06875.6513.08287.2065.22152.386.40048.5182.17896.1323.39118.2122.61297.2309.2217.0186.4443-.0248.6428-.1254l6.675-3.3375 6.675 3.3375c.1985.1006.4211.144.6428.1254.2218-.0187.434-.0986.613-.2309.1789-.1322.3176-.3117.4004-.5182.0829-.2065.1067-.432.0688-.6513l-1.125-7.7625 5.5875-5.5875c.1652-.1563.2826-.3563.3385-.5767.0559-.2205.048-.4522-.0227-.6684-.0708-.2161-.2014-.4077-.3768-.5524-.1755-.1447-.3884-.2366-.614-.265l-7.8-1.125-3.3-6.6c-.1066-.2221-.2789-.406-.4936-.5267-.2147-.1208-.4613-.1725-.7064-.1483-.0375-.0018-.075-.0018-.1125 0zm.225 3.9 2.5125 5.025c.0834.1775.2091.3318.366.4495.1569.1176.3402.1951.534.2255l6 .8625-4.275 4.275c-.1361.1353-.2378.3012-.2965.4839s-.0728.3768-.041.5661l.8625 6.1125-5.1375-2.5875c-.1636-.0796-.3431-.1209-.525-.1209s-.3614.0413-.525.1209l-5.1375 2.5875.8625-6.1125c.0318-.1893.0177-.3834-.041-.5661s-.1604-.3486-.2965-.4839l-4.275-4.275 6-.8625c.1937-.0304.3771-.1079.534-.2255.1569-.1177.2826-.272.366-.4495zm21.375 4.5c-.2779.053-.5281.2025-.7065.4221-.1784.2195-.2735.495-.2685.7779v43.2h-7.2v-19.2c0-.3183-.1265-.6235-.3515-.8485s-.5303-.3515-.8485-.3515h-24c-.31825 0-.62346.1265-.84849.3515-.22504.225-.35148.5302-.35151.8485v19.2h-3.600002v2.4h100.799902v-2.4h-3.5999v-31.2c0-.3183-.1265-.6235-.3515-.8485s-.5302-.3515-.8485-.3515h-24c-.3182 0-.6235.1265-.8485.3515s-.3515.5302-.3515.8485v31.2h-7.2v-43.2c0-.3183-.1265-.6235-.3515-.8485s-.5302-.3515-.8485-.3515h-24c-.0375-.0018-.075-.0018-.1125 0-.0375-.0018-.075-.0018-.1125 0zm1.425 2.4h21.6v41.4h-21.6zm33.6 12h21.6v29.4h-21.6zm-67.2 12h21.6v17.4h-21.6z"
		fill="currentColor"
	/>
</svg>
