<svg fill="none" height="81" viewBox="0 0 76 81" width="76" xmlns="http://www.w3.org/2000/svg"><g fill="currentColor"><path d="m6.4875.637512h44.4937c1.6112 0 3.0844.591838 4.1658 1.547458 1.1366.99907 1.8374 2.38906 1.8374 3.9311v14.28003l-3.5313 3.4153v-17.69533c0-.51582-.2483-.99907-.6511-1.352-.4524-.40179-1.0979-.65156-1.8208-.65156h-44.4937c-.7228 0-1.36284.24977-1.8208.65156-.40278.35293-.65108.83618-.65108 1.352v68.97333c0 .5158.2483.999.65108 1.352.45244.4018 1.098.6515 1.8208.6515h44.4937c.7229 0 1.3629-.2497 1.8208-.6515.4028-.353.6511-.8362.6511-1.352v-27.9032l3.5313-3.4153v31.3239c0 1.5366-.7063 2.932-1.8374 3.9311-1.0814.9556-2.5546 1.5475-4.1658 1.5475h-44.4937c-1.61113 0-3.08433-.5919-4.16577-1.5475-1.13662-.9991-1.837355-2.3891-1.837355-3.9311v-68.97873c0-1.53661.706245-2.93203 1.837355-3.9311 1.08144-.95562 2.55464-1.547458 4.16577-1.547458z"/><path d="m22.8249 55.8683 36.8133-35.6079.1269-.1249 1.247-1.2271 4.3368-4.2677c.7283-.7167 1.6883-1.0751 2.6429-1.0751.96 0 1.9146.3584 2.6429 1.0751l4.1878 4.1211c.7284.7167 1.0925 1.6615 1.0925 2.6008 0 .9448-.3641 1.8841-1.0925 2.6009l-4.3368 4.2677-1.2469 1.2271-.0111.0109-36.9291 35.7273-.9877.4833-8.1715 1.1728-2.345.3366.3421-2.3022 1.1918-8.0468zm40.6866-34.5057 4.4858 4.4144 4.3368-4.2677c.0386-.0381.0607-.0924.0607-.1467 0-.0542-.0221-.1085-.0607-.1466l-4.1878-4.1211c-.0386-.038-.0938-.0597-.149-.0597s-.1103.0217-.149.0597zm-2.4939 2.4597-35.2794 34.0984-.767 5.1745 5.2473-.7547 35.2849-34.1093z"/></g></svg>