<svg xmlns="http://www.w3.org/2000/svg" fill="currentColor" viewBox="0 0 76 81">
	<path d="M6.487.638h44.494c1.611 0 3.085.591 4.166 1.547 1.137.999 1.837 2.389 1.837 3.931v14.28l-3.53 3.415V6.116c0-.516-.25-.999-.652-1.352-.452-.402-1.098-.651-1.82-.651H6.486c-.722 0-1.362.25-1.82.651-.403.353-.651.836-.651 1.352V75.09c0 .516.248 1 .65 1.352.453.402 1.099.652 1.821.652h44.494c.723 0 1.363-.25 1.821-.652.403-.353.651-.836.651-1.352V47.186l3.531-3.415v31.324c0 1.536-.706 2.932-1.837 3.93-1.081.957-2.555 1.548-4.166 1.548H6.487c-1.61 0-3.084-.591-4.165-1.547-1.137-1-1.838-2.39-1.838-3.931V6.116c0-1.537.707-2.932 1.838-3.931C3.403 1.229 4.876.638 6.487.638z"/>
	<path d="M22.825 55.868L59.638 20.26l.127-.125 1.247-1.227 4.337-4.267a3.762 3.762 0 012.643-1.075c.96 0 1.914.358 2.643 1.075l4.187 4.12a3.641 3.641 0 010 5.202l-4.336 4.268-1.247 1.227-.011.011-36.93 35.727-.987.484-8.172 1.173-2.345.336.343-2.302 1.191-8.047zM63.51 21.363l4.486 4.414 4.337-4.268a.209.209 0 000-.293l-4.188-4.121a.215.215 0 00-.298 0zm-2.493 2.46L25.738 57.92l-.767 5.174 5.247-.755 35.285-34.109z"/>
</svg>