<svg fill="#fff" viewBox="0 0 200 200" xmlns="http://www.w3.org/2000/svg"><path d="m54.41 150.56a30.09 30.09 0 0 0 -5.69-.32s.82-1.71.53-1.63c-1.23.34-2.47.82-3.69 1.14 0 0 1.68-2 1.68-2 .21 0-3.45 1-3.46 1.27 0-1.79 3.31-3.68 4.67-4.62 3.86-2.69 7.61-.95 10.51-5.17 3.09-4.48 7.67-8.29 9.46-13.49.94-2.75 3-7.43 3.22-10.18.13-1.91-.86-2.39-2.93-2-1.56.26-3.36 1-4.53 1.26a14.54 14.54 0 0 0 -2.18 1s-2.42.86-2.55 1.72c-.28-.46 0-.73-.35-.73-.61 0-.05 1.26-.55 1.26-.06-.23-.63-.37-.59-.6-.82-.19-.81.83-.82 1.2 0-.38-1.13-1-.79-.81 0 .4 0 1.31-.21 1.38s-.07-.95-.55-.79a4.11 4.11 0 0 1 -.08.86c-.18 0-.7-.6-.79-.66s.38 1.53.21 1.52c-.4 0-.27-.81-.5-1-.35-.42-.11 1.34-.2 1.34-.31 0-.84-1-.73-.7 0 0 .3 1 .35 1.06a1.37 1.37 0 0 1 -.2.29 1.72 1.72 0 0 0 -.46-.51c-.11 0 .25.84-.11 1.17s-.32-.71-.66-.6c-.55.18.25 1-.09 1.33a1.05 1.05 0 0 0 -.86-.75c.1.37.21 1.59-.31 1.87-.19.11-.28-.41-.37-.49-.37-.15-.12 1.3-.77 1.29-.43-.48-.09-1.09-.53.16a2.55 2.55 0 0 1 -.18-.53 1.9 1.9 0 0 1 -.43.72c.15-.63-.46-1.8-1.3-1.81a13.25 13.25 0 0 0 -2.51-1.01c-1.67 0-3 .79-4.6 1.51s-3.3 1.45-5.15.69c-1.09-.44-2.38-3.74-2.38-3.74.8.42 1.2 1.23 1.19-.56.42.58 1.52 1.37 1.43.85-.15-.88-.79-.72-.31-1.83.24-.57 2.2-1.77 1.53-2.6-.54-.31-3.25 1.62-3.78 1.94-1.46.89-.85 1-.51 1.44-.34-.45-7.78-2.05-6.93-3.29a.65.65 0 0 1 .26.23c-.51.06.47-.7.4-.47s-2-.36-2.11-.75c-.4-1.64.67-1 1.59-2.21 1.73-2.19 4-4.06 5.53-6.39a6.7 6.7 0 0 0 1.22-3.67c0-.55-1-.68-.9-1.44.11-1.2 1.62-3 2.22-4.07s1.55-2.11 2.18-3.11c1.17-1.85.68-1.55 1.24-3.35 1-3.21 1.12-4.82 4.45-3.66s3 .9 5.08-1.53c3.17-3.66 3.47.08 6.05-.23 1.33-.16 2.67-6.21 3.93-7a64.46 64.46 0 0 1 5.85-2.84c2.4-1.13 4.83-2 7.4-3.49 5.62-3.19 11.48-7.33 18.29-7.59s11.56 2.25 16.91 4.93c10 5 23.24 1.73 33.85 1.93 8.47.17 18.83 3.59 25.39 8.55 4 3 7.13 7 10.28 10.93a27.22 27.22 0 0 1 3.49 4.82c1.37 2.78.23 3.63.25 6.06s1.79 5 2.35 7.27a49 49 0 0 1 1.34 8.85c.29 4.26.57 8.66 2.23 12.64s5 6.7 4.64 11.37c-.24 2.69-1.17 2.67-3.5 4.19-.79.52-4.31 3.28-4.55 2.58 0 0-11.7-.37-11.71-.24s1.23-.81 1-1.17c-.1-.17-1.94.67-1.95.7a3.86 3.86 0 0 1 1.11-1.87c-.84-.07-1.28.43-1.83 1.18a2.92 2.92 0 0 1 1.77-2.76c.53-.25.81-.39 1.14-.52 2.11-.84 10.06-1.51 6.44-4.68-1.35-1.18-3.41-.66-5-.92-2.05-.35-3.61-1.6-5-2.11s-2.87-.63-4.25-1.82c-1.54-1.32-1.63-3.72-3-4.73-2.78-2-9.95 5.72-11.78 8.16-.83 1.12-9.07 9.4-7.9 9.76 0 .29-10 1.17-10.74 1.23s-9.12-.66-9.12-.63a.7.7 0 0 0 .39-.65c-.45-.34-.75-.36-1.56.44-.4-.81.6-.86 0-1.21-.4 0-.86.32-1.62.79 0-.81.42-.89.82-1.2 0-.41 0-.41-.81-.42-.81.4-.91.92-1.22 1.2-1.18-2.43 3.15-3.6 3.45-3.76 2.32-1.23 3.64-1.34 6.32-1.49.07 0 5.93-1.09 4-2.23-.93-.53-.92-7.24-1-8.77 0-1.72-.14-2.85 0-4.37.06-.88.66-2.46.67-3.65 0-.84-2.33 0-2.09.63a4.19 4.19 0 0 0 .09-1c-.05 0-.85.88-.89.85.3.85-.17-1.84-.5-.84-.06.21 0 1-.29 1.11s.1-.82-.12-.87a2.31 2.31 0 0 0 -.7.82 1 1 0 0 1 0-.89c-3.08.18-6.87-1-10.78-1.06-.42 0 3.08 9.18 3.34 9.84 1.59 3.91.35 5.16-1.27 8.54s-2.86 5-6.22 5.3c-2.7.21-10.45-1.09-11.75 1-.4-.51-.25-.84 0-1.35-.21-.31-1.6.93-1.63.83-.39-1.22 1.42-2 1.32-1.94 0-.38-1.56.74-1.66.61a10.29 10.29 0 0 1 5.08-4.62c1.76-.68 5.1.25 4.46-2.26-.59-2.35-5.77-5.67-7.56-7.5-.83-.85-2.49-1.54-3.22-2.36-.52-.57-1.06-3.14-2.28-3.08-.9 0-2.34 2.92-2.87 3.63s-2.55 2.53-2.82 3.05c-1.3 2.46-4.35 4.45-7 6.52-1.47 1.14-8.28 6.57-8.38 6.23a15.18 15.18 0 0 1 -.76 1.49c-1.16-.39-1.47.73-2.36 1.31a41.93 41.93 0 0 1 -4.04 1.79c-3.1 1.27-6.86.79-10.23 1.56z"/><path d="m.4 57.8h8.6l2.67-8.22a.2.2 0 0 1 .38 0l2.67 8.22h8.68a.2.2 0 0 1 .12.36l-7 5.09 2.67 8.22a.2.2 0 0 1 -.31.22l-7-5.08-7 5.08a.2.2 0 0 1 -.31-.22l2.67-8.22-7-5.09a.2.2 0 0 1 .16-.36z"/></svg>