<svg fill="white" xmlns="http://www.w3.org/2000/svg" viewBox="0 0 200 200">
				<title>madrid</title>
				<polygon points="13.73 67.77 17.97 76.37 27.46 77.75 20.59 84.44 22.21 93.88 13.73 89.42 5.24 93.88 6.86 84.44 0 77.75 9.49 76.37 13.73 67.77" />
				<polygon points="71.24 67.77 75.48 76.37 84.97 77.75 78.11 84.44 79.73 93.88 71.24 89.42 62.76 93.88 64.38 84.44 57.52 77.75 67 76.37 71.24 67.77" />
				<polygon points="128.76 67.77 133 76.37 142.49 77.75 135.62 84.44 137.24 93.88 128.76 89.42 120.27 93.88 121.89 84.44 115.03 77.75 124.52 76.37 128.76 67.77" />
				<polygon points="186.27 67.77 190.51 76.37 200 77.75 193.14 84.44 194.76 93.88 186.27 89.42 177.79 93.88 179.41 84.44 172.54 77.75 182.03 76.37 186.27 67.77" />
				<polygon points="42.48 106.12 46.73 114.71 56.21 116.09 49.35 122.78 50.97 132.23 42.48 127.77 34 132.23 35.62 122.78 28.76 116.09 38.24 114.71 42.48 106.12" />
				<polygon points="100 106.12 104.24 114.71 113.73 116.09 106.86 122.78 108.48 132.23 100 127.77 91.52 132.23 93.14 122.78 86.27 116.09 95.76 114.71 100 106.12" />
				<polygon points="157.51 106.12 161.76 114.71 171.24 116.09 164.38 122.78 166 132.23 157.51 127.77 149.03 132.23 150.65 122.78 143.79 116.09 153.27 114.71 157.51 106.12" /></svg>
