<svg fill="#fff" viewBox="0 0 200 200" xmlns="http://www.w3.org/2000/svg"><path d="m176 58.47v-9h-27.16l-.04-35.47h-9.06l.07 35.46-25.66.05v9h25.65v6.92c-1.18-.25-2.05-.35-2.05-.35-5.5-1.09-8.8 4.42-8.8 4.42l-12.09 11-5.51-3.29-1.11-4.41 1.09-4.4-4.33 1.16-1.11-3.31 5.51-1.11 2.19-5.51-3.31-2.19-5.51-5.5-2.21-3.3c4.4-4.41-1.12-9.91-1.12-9.91a101.1 101.1 0 0 0 -11-4.38c-1.1-3.3-3.31-2.2-3.31-2.2-3.3 1.11 0 3.31 0 3.31l-3.34 5.54c-6.6 7.72 1.12 14.31 1.12 14.31-4.4 1.08-6.57 18.69-6.57 18.69-3.29 5.51 1.13 17.62 0 18.72s1.12 7.71 1.12 7.71l1.1 3.3 4.42 6.6c1.12 7.7-8.78 14.33-8.78 14.33-8.81 2.21-12.11 5.52-12.11 5.52-3.31-4.4 0-15.41 0-15.41 5.5-4.41 9.91-16.53 9.91-16.53 6.56-23.13-5.55-26.41-5.55-26.41-7.72-4.39-12.11 3.32-12.11 3.32 0 5.51-5.49 9.92-5.49 9.92 9.93 12.1 17.61-7.74 17.61-7.74 11 16.5-3.26 29.74-3.26 29.74-14.28 16.54-3.25 27.53-3.25 27.53-2.2 3.31-2.17 17.62-2.17 17.62-5.5 4.42-3.29 11-3.29 11l1.1 7.78a7.9 7.9 0 0 0 0 7.7h15.42c0-4.41-7.72-6.6-7.72-6.6-2.21-3.3 0-13.21 0-13.21a41.52 41.52 0 0 0 16.49-11l4.42 4.4v6.6l8.83 11 1.11 8.81h16.52l-1.11-4.41-6.61-3.29-6.63-10c-2.21-5.5 1.08-13.21 1.08-13.21 3.3-3.31 1.08-11 1.08-11l-3.32-8.81c8.81-2.22 13.2-12.13 13.2-12.13l2.19-5.51 4.4 1.09 5.5-6.62 15.41-4.43h6.6a5.28 5.28 0 0 0 4.45-1.82c-.72 3.23-9 2.3-9 2.3l.12 77.71h9.06l-.08-80.14a7 7 0 0 0 1-4.73 4.07 4.07 0 0 0 -1-1.82l-.06-33.36zm-55.78 37.53-1.11-6.61 16.49-14.39 6.61 1.09a3.94 3.94 0 0 0 3.69-2.87c-.57 4.71-6.07 2.88-6.07 2.88v13.62z"/></svg>