<svg xmlns="http://www.w3.org/2000/svg" fill="currentColor" viewBox="0 0 200 200">
	<path d="M13.73 67.77l4.24 8.6 9.49 1.38-6.87 6.69 1.62 9.44-8.48-4.46-8.49 4.46 1.62-9.44L0 77.75l9.49-1.38 4.24-8.6zM71.24 67.77l4.24 8.6 9.49 1.38-6.86 6.69 1.62 9.44-8.49-4.46-8.48 4.46 1.62-9.44-6.86-6.69L67 76.37l4.24-8.6zM128.76 67.77l4.24 8.6 9.49 1.38-6.87 6.69 1.62 9.44-8.48-4.46-8.49 4.46 1.62-9.44-6.86-6.69 9.49-1.38 4.24-8.6zM186.27 67.77l4.24 8.6 9.49 1.38-6.86 6.69 1.62 9.44-8.49-4.46-8.48 4.46 1.62-9.44-6.87-6.69 9.49-1.38 4.24-8.6zM42.48 106.12l4.25 8.59 9.48 1.38-6.86 6.69 1.62 9.45-8.49-4.46-8.48 4.46 1.62-9.45-6.86-6.69 9.48-1.38 4.24-8.59zM100 106.12l4.24 8.59 9.49 1.38-6.87 6.69 1.62 9.45-8.48-4.46-8.48 4.46 1.62-9.45-6.87-6.69 9.49-1.38 4.24-8.59zM157.51 106.12l4.25 8.59 9.48 1.38-6.86 6.69 1.62 9.45-8.49-4.46-8.48 4.46 1.62-9.45-6.86-6.69 9.48-1.38 4.24-8.59z"/>
</svg>