<svg xmlns="http://www.w3.org/2000/svg" fill="currentColor" viewBox="0 0 92 80">
	<path d="M1.183 74.217h11.69c.562 0 1.015-.453 1.015-1.01V35.45c0-.559-.455-1.01-1.014-1.01H1.184c-.562 0-1.016.453-1.016 1.01v37.755c0 .558.455 1.011 1.015 1.011zM2.2 36.462h9.661v35.732H2.2zM32.36 44.258H20.67c-.562 0-1.016.453-1.016 1.01v27.937c0 .56.455 1.011 1.015 1.011h11.69c.562 0 1.015-.453 1.015-1.01V45.268a1.012 1.012 0 00-1.014-1.011zm-1.015 27.936h-9.661V46.28h9.661zM40.154 24.227c-.56 0-1.015.453-1.015 1.01v47.97c0 .558.455 1.01 1.015 1.01h11.69c.562 0 1.015-.453 1.015-1.01v-47.97c0-.558-.454-1.01-1.014-1.01zM50.83 72.194H41.17V26.25h9.661zM71.33 30.456H59.64c-.561 0-1.015.454-1.015 1.011v41.738c0 .56.455 1.011 1.015 1.011H71.33c.56 0 1.014-.453 1.014-1.01V31.466a1.012 1.012 0 00-1.014-1.01zm-1.014 41.738h-9.661V32.48h9.661zM90.817 16.529H79.126c-.56 0-1.015.453-1.015 1.011v55.665c0 .56.455 1.011 1.015 1.011h11.69c.561 0 1.015-.453 1.015-1.01V17.54c0-.558-.454-1.011-1.014-1.011zM89.8 72.194h-9.662V18.552h9.662zM90.817 77.405H1.184c-.56 0-1.014.453-1.014 1.011s.455 1.011 1.014 1.011h89.633c.56 0 1.014-.453 1.014-1.011s-.453-1.011-1.014-1.011z"/>
	<path d="M6.93 30.79c2.249 0 4.244-1.102 5.474-2.79l7.704 3.957a6.7 6.7 0 00-.356 2.153c0 3.716 3.034 6.737 6.761 6.737 3.73 0 6.762-3.023 6.762-6.737a6.692 6.692 0 00-1.339-4.02L42.02 19.941a6.77 6.77 0 0010.033-2.444l6.758 2.164a6.79 6.79 0 00-.087 1.072c0 3.715 3.033 6.738 6.762 6.738 3.728 0 6.762-3.023 6.762-6.738a6.688 6.688 0 00-.729-3.037l8.6-6.104a6.75 6.75 0 004.852 2.054c3.73 0 6.762-3.023 6.762-6.738 0-3.714-3.034-6.737-6.762-6.737S78.21 3.195 78.21 6.909c0 1.093.264 2.125.73 3.038l-8.6 6.104a6.75 6.75 0 00-4.854-2.054 6.771 6.771 0 00-6.053 3.74l-6.757-2.165c.056-.35.087-.707.087-1.073 0-3.715-3.034-6.738-6.761-6.738-3.73 0-6.762 3.023-6.762 6.738 0 1.505.498 2.897 1.339 4.02L30.495 28.665a6.762 6.762 0 00-9.453 1.494l-7.704-3.96c.23-.675.356-1.399.356-2.15 0-3.715-3.033-6.738-6.761-6.738-3.73 0-6.762 3.023-6.762 6.737-.003 3.718 3.03 6.74 6.758 6.74zM84.97 2.195c2.61 0 4.732 2.115 4.732 4.716s-2.122 4.715-4.732 4.715c-2.61 0-4.732-2.115-4.732-4.715s2.123-4.716 4.732-4.716zM60.98 19.3l.001-.003a4.737 4.737 0 014.505-3.274c2.61 0 4.732 2.116 4.732 4.716s-2.122 4.715-4.732 4.715c-2.61 0-4.732-2.115-4.732-4.715 0-.503.08-.985.226-1.44zm-14.98-9.513c2.61 0 4.732 2.115 4.732 4.715S48.61 19.217 46 19.217c-2.61 0-4.732-2.115-4.732-4.716S43.39 9.786 46 9.786zm-19.485 19.61c2.61 0 4.733 2.115 4.733 4.715s-2.123 4.715-4.732 4.715-4.733-2.115-4.733-4.715 2.123-4.716 4.733-4.716zM6.93 19.335c2.61 0 4.732 2.115 4.732 4.716S9.54 28.767 6.93 28.767s-4.732-2.115-4.732-4.715 2.124-4.716 4.732-4.716z"/>
</svg>