<svg
	fill="none"
	height="80"
	viewBox="0 0 92 80"
	width="92"
	xmlns="http://www.w3.org/2000/svg"
>
	<g fill="currentColor">
		<path
			d="m1.18306 74.2173h11.69074c.5608 0 1.0146-.4532 1.0146-1.011v-37.755c0-.5589-.4549-1.011-1.0146-1.011h-11.69074c-.560884 0-1.014603.4533-1.014603 1.011v37.755c0 .5578.454859 1.011 1.014603 1.011zm1.01574-37.7549h9.6615v35.7317h-9.6615z"
		/>
		<path
			d="m32.3598 44.2576h-11.6907c-.5608 0-1.0146.4533-1.0146 1.0111v27.9365c0 .5589.4549 1.011 1.0146 1.011h11.6907c.5609 0 1.0146-.4533 1.0146-1.011v-27.9365c.0012-.5578-.4537-1.0111-1.0146-1.0111zm-1.0146 27.9365h-9.6615v-25.9144h9.6615z"
		/>
		<path
			d="m40.154 24.2266c-.5609 0-1.0146.4532-1.0146 1.011v47.9687c0 .559.4549 1.0111 1.0146 1.0111h11.6907c.5609 0 1.0146-.4533 1.0146-1.0111v-47.9687c0-.5589-.4548-1.011-1.0146-1.011zm10.6761 47.9675h-9.6615v-45.9455h9.6615z"
		/>
		<path
			d="m71.3307 30.4564h-11.6919c-.5608 0-1.0145.4532-1.0145 1.011v41.7378c0 .5589.4548 1.011 1.0145 1.011h11.6919c.5609 0 1.0146-.4532 1.0146-1.011v-41.7378c.0011-.5578-.4537-1.011-1.0146-1.011zm-1.0146 41.7377h-9.6615v-39.7145h9.6615z"
		/>
		<path
			d="m90.8166 16.529h-11.6907c-.5608 0-1.0146.4533-1.0146 1.011v55.6652c0 .5589.4549 1.011 1.0146 1.011h11.6907c.5609 0 1.0146-.4532 1.0146-1.011v-55.6652c0-.5577-.4537-1.011-1.0146-1.011zm-1.0157 55.6651h-9.6615v-53.6419h9.6615z"
		/>
		<path
			d="m90.8168 77.405h-89.63252c-.560883 0-1.014602.4532-1.014602 1.011s.454859 1.011 1.014602 1.011h89.63252c.5608 0 1.0146-.4532 1.0146-1.011s-.4538-1.011-1.0146-1.011z"
		/>
		<path
			d="m6.9293 30.7892c2.24922 0 4.2442-1.1008 5.4743-2.79l7.7041 3.9578c-.2291.6771-.3557 1.3996-.3557 2.1528 0 3.7158 3.0336 6.7376 6.7614 6.7376 3.7289 0 6.7613-3.0229 6.7613-6.7376 0-1.5052-.4982-2.8968-1.3384-4.0204l10.0822-10.1478c1.1172.8133 2.4932 1.2961 3.9809 1.2961 2.6482 0 4.943-1.5256 6.0522-3.7397l6.758 2.1641c-.0559.3499-.0867.7077-.0867 1.0724 0 3.7147 3.0335 6.7376 6.7625 6.7376 3.7278 0 6.7613-3.0229 6.7613-6.7376 0-1.0928-.2644-2.1243-.7284-3.0377l8.599-6.1037c1.2301 1.2655 2.9503 2.0539 4.853 2.0539 3.7289 0 6.7613-3.0229 6.7613-6.73763 0-3.71472-3.0335-6.737617-6.7613-6.737617s-6.7614 3.022897-6.7614 6.737617c0 1.09283.2645 2.12431.7296 3.03766l-8.599 6.10377c-1.23-1.2655-2.9503-2.0539-4.8541-2.0539-2.6482 0-4.9442 1.5256-6.0534 3.7397l-6.7568-2.1641c.0559-.3499.0867-.7077.0867-1.0735 0-3.7147-3.0336-6.73763-6.7614-6.73763-3.7289 0-6.7613 3.02293-6.7613 6.73763 0 1.5052.4982 2.8968 1.3383 4.0192l-10.0821 10.1479c-1.1172-.8134-2.4932-1.2951-3.9798-1.2951-2.2492 0-4.243 1.1008-5.4731 2.7889l-7.7041-3.959c.2291-.6759.3557-1.3995.3557-2.1516 0-3.7147-3.0336-6.7376-6.76137-6.7376-3.72894 0-6.76134 3.0229-6.76134 6.7376-.00342 3.7182 3.03011 6.7399 6.75791 6.7399zm78.041-28.5931c2.6094 0 4.7321 2.11524 4.7321 4.71554s-2.1227 4.71556-4.7321 4.71556c-2.6095 0-4.7322-2.11526-4.7322-4.71556s2.1227-4.71554 4.7322-4.71554zm-23.9913 17.1025c0-.0011.0011-.0023.0011-.0023 0-.0011 0-.0011 0-.0011.6133-1.8971 2.3997-3.2728 4.5053-3.2728 2.6094 0 4.7321 2.1152 4.7321 4.7155s-2.1227 4.7155-4.7321 4.7155c-2.6095 0-4.7322-2.1152-4.7322-4.7155 0-.5032.0799-.9849.2258-1.4393zm-14.9796-9.51288c2.6094 0 4.7321 2.11528 4.7321 4.71558s-2.1227 4.7155-4.7321 4.7155c-2.6095 0-4.7322-2.1152-4.7322-4.7155s2.1227-4.71558 4.7322-4.71558zm-19.4849 19.60968c2.6095 0 4.7321 2.1152 4.7321 4.7155s-2.1226 4.7155-4.7321 4.7155-4.7321-2.1152-4.7321-4.7155 2.1226-4.7155 4.7321-4.7155zm-19.5852-10.0593c2.60946 0 4.7321 2.1152 4.7321 4.7155s-2.12264 4.7155-4.7321 4.7155-4.73214-2.1152-4.73214-4.7155 2.12382-4.7155 4.73214-4.7155z"
		/>
	</g>
</svg>
