<svg fill="none" height="82" viewBox="0 0 80 82" width="80" xmlns="http://www.w3.org/2000/svg"><g fill="currentColor"><path d="m78.3332 50.5833h-7.6666v-6.7083c0-4.2934-3.1625-7.8392-7.2642-8.4909 2.07-1.5716 3.4308-4.0441 3.4308-6.8425 0-4.7533-3.8716-8.625-8.625-8.625-4.7533 0-8.625 3.8717-8.625 8.625 0 2.7984 1.3609 5.2709 3.4309 6.8425-4.1017.6517-7.2642 4.1975-7.2642 8.4909v6.7083h-11.5v-6.7083c0-4.2934-3.1625-7.8392-7.2642-8.4909 2.07-1.5716 3.4309-4.0441 3.4309-6.8425 0-4.7533-3.8717-8.625-8.625-8.625-4.7534 0-8.625 3.8717-8.625 8.625 0 2.7984 1.3608 5.2709 3.4308 6.8425-4.1016.6517-7.26415 4.1975-7.26415 8.4909v6.7083h-7.66666c-.53667 0-.958338.4217-.958338.9583v3.8334c0 .5366.421668.9583.958338.9583h2.87499v23.9583c0 .5367.42167.9583.95834.9583h68.99998c.5367 0 .9583-.4216.9583-.9583v-23.9583h2.875c.5367 0 .9584-.4217.9584-.9583v-3.8334c0-.5366-.4217-.9583-.9584-.9583zm-26.8333-22.0417c0-3.6991 3.0092-6.7083 6.7083-6.7083 3.6992 0 6.7084 3.0092 6.7084 6.7083 0 3.6992-3.0092 6.7084-6.7084 6.7084-3.6991 0-6.7083-3.0092-6.7083-6.7084zm-3.8333 15.3334c0-3.6992 3.0091-6.7084 6.7083-6.7084h7.6667c3.6991 0 6.7083 3.0092 6.7083 6.7084v6.7083h-21.0833zm-32.5833-15.3334c0-3.6991 3.0091-6.7083 6.7083-6.7083 3.6991 0 6.7083 3.0092 6.7083 6.7083 0 3.6992-3.0092 6.7084-6.7083 6.7084-3.6992 0-6.7083-3.0092-6.7083-6.7084zm-3.8334 15.3334c0-3.6992 3.0092-6.7084 6.7084-6.7084h7.6666c3.6992 0 6.7084 3.0092 6.7084 6.7084v6.7083h-21.0834zm62.2917 35.4583h-67.08335v-23h67.08335zm3.8333-24.9167h-2.875-68.99998-2.875v-1.9166h7.66668 23 13.4166 23 7.6667z"/><path d="m69.7082 7.45834c0-3.75667-5.4625-6.70834-12.4584-6.70834-6.9958 0-12.4583 2.95167-12.4583 6.70834 0 3.75666 5.4625 6.70836 12.4583 6.70836 1.2842 0 2.5684-.115 3.8142-.3259l5.405 2.1659c.115.0575.2492.0766.3642.0766.2875 0 .5558-.1341.7475-.345.2683-.3258.2875-.7858.0575-1.1308l-1.5717-2.3575c2.3192-1.2458 3.6417-2.95166 3.6417-4.79166zm-5.4242 3.50746c-.2683.115-.46.3259-.5558.6134-.0767.2683-.0384.575.115.805l.46.7091-2.7984-1.1116c-.115-.0384-.23-.0767-.3641-.0767-.0575 0-.115 0-.1725.0192-1.1884.2108-2.4534.3258-3.7184.3258-6.21 0-10.5416-2.53-10.5416-4.79166 0-2.26167 4.3316-4.79167 10.5416-4.79167s10.5417 2.53 10.5417 4.79167c0 1.28416-1.3033 2.58746-3.5075 3.50746z"/><path d="m61.0832 6.5h-7.6666c-.5367 0-.9583.42167-.9583.95833 0 .53667.4216.95834.9583.95834h7.6666c.5367 0 .9584-.42167.9584-.95834 0-.53666-.4217-.95833-.9584-.95833z"/><path d="m16.2525 15.7383c.1917.2109.46.345.7475.345.115 0 .2492-.0191.3642-.0766l5.405-2.1659c1.2458.2109 2.53.3259 3.8141.3259 6.9959 0 12.4584-2.9517 12.4584-6.70836 0-3.75667-5.4625-6.70834-12.4584-6.70834-6.9958 0-12.4583 2.95167-12.4583 6.70834 0 1.84 1.3225 3.54586 3.6417 4.79166l-1.5717 2.3383c-.23.3642-.2108.805.0575 1.15zm-.2108-8.27996c0-2.26167 4.3316-4.79167 10.5416-4.79167s10.5417 2.53 10.5417 4.79167c0 2.26166-4.3317 4.79166-10.5417 4.79166-1.265 0-2.53-.115-3.7375-.3258-.1725-.0192-.3641-.0192-.5175.0575l-2.7983 1.1116.46-.7091c.1533-.23.2108-.5367.115-.805-.0767-.2684-.2875-.4984-.5558-.6134-2.2042-.92-3.5075-2.2233-3.5075-3.50746z"/><path d="m22.7498 8.41667h7.6667c.5367 0 .9583-.42167.9583-.95834 0-.53666-.4216-.95833-.9583-.95833h-7.6667c-.5366 0-.9583.42167-.9583.95833 0 .53667.4217.95834.9583.95834z"/></g></svg>