<svg xmlns="http://www.w3.org/2000/svg" fill="currentColor" viewBox="0 0 80 82">
	<path d="M78.333 50.583h-7.666v-6.708c0-4.293-3.163-7.84-7.265-8.49 2.07-1.572 3.431-4.045 3.431-6.843 0-4.754-3.871-8.625-8.625-8.625-4.753 0-8.625 3.871-8.625 8.625 0 2.798 1.361 5.27 3.431 6.842-4.102.652-7.264 4.198-7.264 8.491v6.708h-11.5v-6.708c0-4.293-3.163-7.84-7.264-8.49 2.07-1.572 3.43-4.045 3.43-6.843 0-4.754-3.871-8.625-8.624-8.625-4.754 0-8.625 3.871-8.625 8.625 0 2.798 1.36 5.27 3.43 6.842-4.101.652-7.264 4.198-7.264 8.491v6.708H1.667a.949.949 0 00-.959.959v3.833c0 .537.422.958.959.958h2.875v23.959c0 .536.421.958.958.958h69a.949.949 0 00.958-.958V56.333h2.875a.95.95 0 00.959-.958v-3.833a.95.95 0 00-.959-.959zM51.5 28.542c0-3.7 3.01-6.709 6.708-6.709 3.7 0 6.709 3.01 6.709 6.709s-3.01 6.708-6.709 6.708-6.708-3.01-6.708-6.708zm-3.833 15.333c0-3.7 3.009-6.708 6.708-6.708h7.667c3.699 0 6.708 3.009 6.708 6.708v6.708H47.667zM15.083 28.542c0-3.7 3.01-6.709 6.709-6.709s6.708 3.01 6.708 6.709-3.01 6.708-6.708 6.708c-3.7 0-6.709-3.01-6.709-6.708zM11.25 43.875c0-3.7 3.01-6.708 6.708-6.708h7.667c3.7 0 6.708 3.009 6.708 6.708v6.708H11.25zm62.292 35.458H6.458v-23h67.084zm3.833-24.916H2.625V52.5h74.75zM69.708 7.458C69.708 3.702 64.246.75 57.25.75S44.792 3.702 44.792 7.458c0 3.757 5.462 6.709 12.458 6.709a22.93 22.93 0 003.814-.326l5.405 2.166a.83.83 0 00.364.076c.288 0 .556-.134.748-.345a.95.95 0 00.057-1.13l-1.571-2.358c2.319-1.246 3.641-2.952 3.641-4.792zm-5.424 3.508a.983.983 0 00-.556.613.989.989 0 00.115.805l.46.71-2.798-1.112a1.119 1.119 0 00-.364-.077c-.058 0-.115 0-.173.02-1.188.21-2.453.325-3.718.325-6.21 0-10.542-2.53-10.542-4.792 0-2.261 4.332-4.791 10.542-4.791s10.542 2.53 10.542 4.791c0 1.284-1.304 2.588-3.508 3.508z"/>
	<path d="M61.083 6.5h-7.666a.949.949 0 00-.959.958c0 .537.422.959.959.959h7.666a.95.95 0 00.959-.959.95.95 0 00-.959-.958zM16.253 15.738c.191.211.46.345.747.345a.83.83 0 00.364-.076l5.405-2.166c1.246.21 2.53.326 3.814.326 6.996 0 12.459-2.952 12.459-6.709 0-3.756-5.463-6.708-12.459-6.708-6.995 0-12.458 2.952-12.458 6.708 0 1.84 1.323 3.546 3.642 4.792l-1.572 2.338a.98.98 0 00.058 1.15zm-.211-8.28c0-2.261 4.331-4.791 10.541-4.791s10.542 2.53 10.542 4.791c0 2.262-4.332 4.792-10.542 4.792-1.265 0-2.53-.115-3.737-.326-.173-.019-.364-.019-.518.058l-2.798 1.111.46-.709a.922.922 0 00.115-.805.978.978 0 00-.556-.613c-2.204-.92-3.507-2.223-3.507-3.508z"/>
	<path d="M22.75 8.417h7.667a.949.949 0 00.958-.959.949.949 0 00-.958-.958H22.75a.949.949 0 00-.958.958c0 .537.421.959.958.959z"/>
</svg>