<svg viewBox="0 0 16 16" fill="currentColor" xmlns="http://www.w3.org/2000/svg">
<path fill-rule="evenodd" clip-rule="evenodd" d="M8 3.48621C6.17803 3.49643 4.7275 3.96962 3.5 4.8C3.5 4.8 4.03209 3.94891 6.20317 3.35L6.09082 3C6.09082 3 4.48125 3 2.72192 4.23535C2.72192 4.23535 1 7.34227 1 11.2353C1 11.2353 2.01066 12.9626 4.63101 13L5.49191 12.0963C3.91975 11.6096 3.39565 10.6364 3.39565 10.6364C4.40666 11.5738 6.20295 12.0329 8 12.0402C9.79704 12.0329 11.5933 11.5738 12.6043 10.6364C12.6043 10.6364 12.0803 11.6096 10.5081 12.0963L11.369 13C13.9893 12.9626 15 11.2353 15 11.2353C15 7.34227 13.2781 4.23535 13.2781 4.23535C11.5188 3 9.90918 3 9.90918 3L9.79683 3.35C11.9679 3.94891 12.5 4.8 12.5 4.8C11.2725 3.96962 9.82197 3.49643 8 3.48621ZM7 8.81C7 9.53349 6.44483 10.12 5.76 10.12C5.07517 10.12 4.52 9.53349 4.52 8.81C4.52 8.08651 5.07517 7.5 5.76 7.5C6.44483 7.5 7 8.08651 7 8.81ZM9 8.81C9 9.53349 9.55517 10.12 10.24 10.12C10.9248 10.12 11.48 9.53349 11.48 8.81C11.48 8.08651 10.9248 7.5 10.24 7.5C9.55517 7.5 9 8.08651 9 8.81Z"/>
</svg>
