<svg xmlns="http://www.w3.org/2000/svg" height="24" width="24" viewBox="12 12 24 24"><path d="M24 12c-6.6 0-12 5.4-12 12s5.4 12 12 12 12-5.4 12-12-5.4-12-12-12zm7.6 5.6c1.4 1.6 2.2 3.7 2.3 5.8-2.6-.4-4.9-.4-7.1-.1-.2-.6-.5-1.1-.8-1.7 2.3-.9 4.2-2.3 5.6-4zM24 14.1c2.3 0 4.4.8 6 2.1-1.2 1.6-2.9 2.8-5 3.7-1-1.9-2.2-3.7-3.5-5.4.9-.3 1.7-.4 2.5-.4zm-9.6 7.6c.7-2.8 2.6-5.2 5.1-6.5 1.3 1.7 2.5 3.5 3.5 5.4-2.4.7-5.3 1-8.6 1.1zm-.3 2.3v-.3c3.8 0 7.2-.4 10-1.3.2.5.5 1 .7 1.4-3.4 1.1-6.2 3.2-8.3 6.5-1.6-1.7-2.4-4-2.4-6.3zm3.8 7.8c2-3.1 4.5-5.1 7.6-6 .9 2.4 1.6 4.9 2 7.5-3.3 1.2-6.9.6-9.6-1.5zm11.6.4c-.4-2.4-1.1-4.7-1.9-6.9 1.9-.3 3.9-.2 6.2.2-.4 2.8-2 5.2-4.3 6.7z"/></svg>