<svg height='300px' width='300px'  fill="currentColor" xmlns="http://www.w3.org/2000/svg" xmlns:xlink="http://www.w3.org/1999/xlink" version="1.1" x="0px" y="0px" viewBox="-14.5 0 100 100" enable-background="new -14.5 0 100 100" xml:space="preserve"><g><path fill="currentColor" d="M46.57,90.568v-7.227c7.839-0.01,11.521-0.028,11.57-0.028l3.564-0.018l0.051-3.563   c0-0.09,0.03-2.418,0.03-21.809c0-5.07,0.021-29.937,0.021-29.937l0.002-1.771l-0.031-0.023c-0.042-4.855-1.454-9.388-3.865-13.234   V4.894h-8.055c-3.915-2.462-8.539-3.893-13.495-3.893c-4.957,0-9.582,1.431-13.496,3.893h-8.068v8.087   c-2.297,3.671-3.681,7.966-3.838,12.569l-0.026,0.019l0.004,32.355c0,10.442,6.331,19.432,15.354,23.339v9.306H7.042L-3.041,80.487   l-5.135,5.137l4.944,4.944h-11.035v7.264h99.563v-7.264H46.57z M18.203,57.924L18.201,44.19c3.684,3.765,8.523,6.391,13.94,7.3   c0,0.138,0,0.268,0,0.375c0,11.312,7.428,20.918,17.661,24.207c-0.985,0.002-2.062,0.004-3.231,0.005v-0.036H35.174   C25.713,75.425,18.203,67.538,18.203,57.924z M54.518,69.765c-8.566-1.453-15.114-8.924-15.114-17.898c0-0.06,0-0.138,0-0.208   c5.896-0.706,11.177-3.435,15.127-7.474c-0.005,5.87-0.009,11.587-0.009,13.74C54.521,62.928,54.521,66.784,54.518,69.765z    M20.215,24.771c0-3.598,2.927-6.525,6.524-6.525c3.598,0,6.525,2.927,6.525,6.525c0,3.597-2.927,6.524-6.525,6.524   C23.142,31.294,20.215,28.368,20.215,24.771z M52.548,24.771c0,3.597-2.927,6.524-6.525,6.524c-3.596,0-6.522-2.927-6.522-6.524   c0-3.598,2.927-6.525,6.522-6.525C49.621,18.246,52.548,21.172,52.548,24.771z M26.739,37.348c1.745,0,3.407-0.359,4.92-1.004   l0.466,0.514l4.294,4.741l4.297-4.741l0.445-0.49c1.495,0.63,3.139,0.98,4.861,0.98c2.1,0,4.075-0.523,5.817-1.436   c-3.199,5.198-8.938,8.672-15.477,8.672c-6.55,0-12.299-3.486-15.494-8.699C22.623,36.815,24.619,37.348,26.739,37.348z    M47.8,12.333c-0.581-0.083-1.171-0.141-1.777-0.141c-3.867,0-7.332,1.759-9.642,4.517c-2.309-2.758-5.772-4.517-9.642-4.517   c-0.621,0-1.226,0.06-1.824,0.147c3.126-2.546,7.111-4.075,11.448-4.075C40.694,8.265,44.677,9.792,47.8,12.333z M33.556,83.303   h1.369c0.477,0.028,0.954,0.044,1.438,0.044c1.019,0,1.999,0,2.944,0v7.222h-5.751V83.303z"></path></g></svg>