<svg xmlns="http://www.w3.org/2000/svg" viewBox="0 0 300 300" fill="none" ><path d="m166.888 92.3775c21.653 22.1115 53.495 41.9335 21.653 71.6225-18.074 16.852-21.061 58.822-21.555 84.537m-.098-156.1595c-3.984-15.5904-3.844-24.7715 3.741-44.2873m-3.741 44.2873c-13.364 14.4295-16.676 35.5635-21.193 56.6575m-35.998 61.528c-7.582-30.298-10.5703-54.928-10.693-76.43m10.693 76.43c24.285-14.012 30.906-37.744 35.998-61.528m-35.998 61.528c2.522 10.077 5.551 20.781 9.153 32.206m-5.546-198.0436c2.526-9.8197 5.083-19.9153 7.392-30.6999 20.53 0 64.958-2.3073 64.958 0-6.711 14.4506-11.619 25.2999-15.025 34.0647m-57.325-3.3648c13.193 6.1528 43.713 4.8069 57.325 3.3648m-57.325-3.3648c-7.385 28.7165-14.496 55.0741-14.3 89.4076m71.625-86.0428c-16.336 16.0229-53.53 55.6638-71.625 86.0428m0 0c7.253 5.769 26.745 16.824 46.691 14.902m-26.845 93.734c4.268 13.538 9.339 28.089 15.319 43.806 13.088.769 18.926.321 20.209 0 4.17-1.281 12.51-8.075 12.51-24.995 0-3.496 0-7.951.098-13.043m-48.136-5.768c15.319 10.094 29.468 18.746 48.136 5.768" stroke="#fff" stroke-width="24"/></svg>