<svg xmlns="http://www.w3.org/2000/svg" fill="none" viewBox="0 0 80 80">
	<path stroke="currentColor" stroke-width="2" d="M41 0v80M0 41h80"/>
	<g fill="currentColor">
		<path d="M63.2 20a3.2 3.2 0 11-6.4 0 3.2 3.2 0 016.4 0zm-5.12 0a1.92 1.92 0 103.84 0 1.92 1.92 0 00-3.84 0zM32 8a3.2 3.2 0 11-6.4 0A3.2 3.2 0 0132 8zm-5.12 0a1.92 1.92 0 103.84 0 1.92 1.92 0 00-3.84 0zM20.8 34.4a3.2 3.2 0 11-6.4 0 3.2 3.2 0 016.4 0zm-5.12 0a1.92 1.92 0 103.84 0 1.92 1.92 0 00-3.84 0zM14.4 57.6a3.2 3.2 0 11-6.4 0 3.2 3.2 0 016.4 0zm-5.12 0a1.92 1.92 0 103.84 0 1.92 1.92 0 00-3.84 0zM36.8 47.2a3.2 3.2 0 11-6.4 0 3.2 3.2 0 016.4 0zm-5.12 0a1.92 1.92 0 103.84 0 1.92 1.92 0 00-3.84 0zM71.2 47.2a3.2 3.2 0 11-6.4 0 3.2 3.2 0 016.4 0zm-5.12 0a1.92 1.92 0 103.84 0 1.92 1.92 0 00-3.84 0zM56.8 8a3.2 3.2 0 11-6.4 0 3.2 3.2 0 016.4 0zm-5.12 0a1.92 1.92 0 103.84 0 1.92 1.92 0 00-3.84 0zM52.8 28a3.2 3.2 0 11-6.4 0 3.2 3.2 0 016.4 0zm-5.12 0a1.92 1.92 0 103.84 0 1.92 1.92 0 00-3.84 0z"/>
	</g>
</svg>