<svg
	fill="none"
	height="80"
	viewBox="0 0 80 80"
	width="80"
	xmlns="http://www.w3.org/2000/svg"
>
	<path d="m41 0v80" stroke="currentColor" stroke-width="2" />
	<path
		d="m0-1h80"
		stroke="currentColor"
		stroke-width="2"
		transform="matrix(1 0 0 -1 0 40)"
	/>
	<g fill="currentColor">
		<path
			d="m63.1996 20c0 1.7674-1.4327 3.2-3.2 3.2-1.7674 0-3.2-1.4326-3.2-3.2 0-1.7673 1.4326-3.2 3.2-3.2 1.7673 0 3.2 1.4327 3.2 3.2zm-5.12 0c0 1.0604.8596 1.92 1.92 1.92 1.0603 0 1.92-.8596 1.92-1.92 0-1.0603-.8597-1.92-1.92-1.92-1.0604 0-1.92.8597-1.92 1.92z"
		/>
		<path
			d="m31.9996 8.00005c0 1.76731-1.4327 3.19995-3.2 3.19995s-3.2-1.43264-3.2-3.19995 1.4327-3.2 3.2-3.2 3.2 1.43269 3.2 3.2zm-5.12 0c0 1.06039.8596 1.92 1.92 1.92s1.92-.85961 1.92-1.92-.8596-1.92-1.92-1.92-1.92.85961-1.92 1.92z"
		/>
		<path
			d="m20.8004 34.4c0 1.7673-1.4327 3.2-3.2 3.2s-3.2-1.4327-3.2-3.2c0-1.7674 1.4327-3.2 3.2-3.2s3.2 1.4326 3.2 3.2zm-5.12 0c0 1.0603.8596 1.92 1.92 1.92s1.92-.8597 1.92-1.92c0-1.0604-.8596-1.92-1.92-1.92s-1.92.8596-1.92 1.92z"
		/>
		<path
			d="m14.3998 57.5999c0 1.7673-1.4327 3.2-3.2 3.2-1.76736 0-3.20004-1.4327-3.20004-3.2s1.43268-3.2 3.20004-3.2c1.7673 0 3.2 1.4327 3.2 3.2zm-5.12004 0c0 1.0604.85964 1.92 1.92004 1.92 1.0603 0 1.92-.8596 1.92-1.92s-.8597-1.92-1.92-1.92c-1.0604 0-1.92004.8596-1.92004 1.92z"
		/>
		<path
			d="m36.7997 47.2c0 1.7673-1.4327 3.2-3.2 3.2-1.7674 0-3.2-1.4327-3.2-3.2s1.4326-3.2 3.2-3.2c1.7673 0 3.2 1.4327 3.2 3.2zm-5.12 0c0 1.0604.8596 1.92 1.92 1.92 1.0603 0 1.92-.8596 1.92-1.92s-.8597-1.92-1.92-1.92c-1.0604 0-1.92.8596-1.92 1.92z"
		/>
		<path
			d="m71.2 47.2c0 1.7673-1.4326 3.2-3.2 3.2-1.7673 0-3.2-1.4327-3.2-3.2s1.4327-3.2 3.2-3.2c1.7674 0 3.2 1.4327 3.2 3.2zm-5.12 0c0 1.0604.8597 1.92 1.92 1.92 1.0604 0 1.92-.8596 1.92-1.92s-.8596-1.92-1.92-1.92c-1.0603 0-1.92.8596-1.92 1.92z"
		/>
		<path
			d="m56.7997 8.00005c0 1.76731-1.4327 3.19995-3.2 3.19995-1.7674 0-3.2-1.43264-3.2-3.19995s1.4326-3.2 3.2-3.2c1.7673 0 3.2 1.43269 3.2 3.2zm-5.12 0c0 1.06039.8596 1.92 1.92 1.92 1.0603 0 1.92-.85961 1.92-1.92s-.8597-1.92-1.92-1.92c-1.0604 0-1.92.85961-1.92 1.92z"
		/>
		<path
			d="m52.7999 28c0 1.7674-1.4327 3.2-3.2 3.2s-3.2-1.4326-3.2-3.2c0-1.7673 1.4327-3.2 3.2-3.2s3.2 1.4327 3.2 3.2zm-5.12 0c0 1.0604.8596 1.92 1.92 1.92s1.92-.8596 1.92-1.92c0-1.0603-.8596-1.92-1.92-1.92s-1.92.8597-1.92 1.92z"
		/>
	</g>
</svg>
