<svg fill="none" height="12" viewBox="0 0 16 12" width="16" xmlns="http://www.w3.org/2000/svg"><path d="m16 0h-16v12h16z" fill="#c0cfd8"/><path d="m15.5.5h-15v1h15z" fill="#e03232"/><path d="m15.5 1.5h-15v1h15z" fill="#fff"/><path d="m15.5 2.5h-15v1h15z" fill="#e03232"/><path d="m15.5 3.5h-15v1h15z" fill="#fff"/><path d="m15.5 4.5h-15v1h15z" fill="#e03232"/><path d="m15.5 5.5h-15v1h15z" fill="#fff"/><path d="m15.5 6.5h-15v1h15z" fill="#e03232"/><path d="m15.5 7.5h-15v1h15z" fill="#fff"/><path d="m15.5 8.5h-15v1h15z" fill="#e03232"/><path d="m15.5 9.5h-15v1h15z" fill="#fff"/><path d="m15.5 10.5h-15v1h15z" fill="#e03232"/><path d="m8.5.5h-8v6h8z" fill="#66a1cc"/><path d="m8.5.5h-8v6h8z" fill="#0035a0"/></svg>