<svg enable-background="new 0 0 100 100" viewBox="0 0 100 125" xmlns="http://www.w3.org/2000/svg"><path d="m20 75.9c4 0 7.2-3.6 7.2-8s-3.2-8-7.2-8-7.2 3.6-7.2 8 3.2 8 7.2 8zm0-13c2.3 0 4.2 2.2 4.2 5s-1.9 5-4.2 5-4.2-2.2-4.2-5 1.9-5 4.2-5z"/><path d="m20 77.9c-5.9 0-10.8 4.8-10.8 10.8v6.3c0 .8.7 1.5 1.5 1.5h18.6c.8 0 1.5-.7 1.5-1.5v-6.3c0-6-4.9-10.8-10.8-10.8zm7.8 15.6h-15.6v-4.8c0-4.3 3.5-7.8 7.8-7.8s7.8 3.5 7.8 7.8z"/><path d="m72.8 67.9c0 4.4 3.2 8 7.2 8s7.2-3.6 7.2-8-3.2-8-7.2-8-7.2 3.6-7.2 8zm7.2-5c2.3 0 4.2 2.2 4.2 5s-1.9 5-4.2 5-4.2-2.2-4.2-5 1.9-5 4.2-5z"/><path d="m80 77.9c-5.9 0-10.8 4.8-10.8 10.8v6.3c0 .8.7 1.5 1.5 1.5h18.6c.8 0 1.5-.7 1.5-1.5v-6.3c0-6-4.9-10.8-10.8-10.8zm7.8 15.6h-15.6v-4.8c0-4.3 3.5-7.8 7.8-7.8s7.8 3.5 7.8 7.8z"/><path d="m42.8 67.9c0 4.4 3.2 8 7.2 8s7.2-3.6 7.2-8-3.2-8-7.2-8-7.2 3.6-7.2 8zm11.4 0c0 2.8-1.9 5-4.2 5s-4.2-2.2-4.2-5 1.9-5 4.2-5 4.2 2.3 4.2 5z"/><path d="m50 77.9c-5.9 0-10.8 4.8-10.8 10.8v6.3c0 .8.7 1.5 1.5 1.5h18.6c.8 0 1.5-.7 1.5-1.5v-6.3c0-6-4.9-10.8-10.8-10.8zm7.8 15.6h-15.6v-4.8c0-4.3 3.5-7.8 7.8-7.8s7.8 3.5 7.8 7.8z"/><path d="m22.3 37.7c-.4.4-.6 1.1-.3 1.6.2.6.8.9 1.4.9h16.9c.5 0 1 0 1.6-.1 1.9 8.2 9.2 14.3 17.9 14.3h16.9c.6 0 1.2-.4 1.4-.9.2-.6.1-1.2-.3-1.6l-4-3.9c2.8-3.3 4.4-7.5 4.4-11.9 0-10.1-8.3-18.4-18.4-18.4-.5 0-1 0-1.6.1-1.9-8.2-9.2-14.3-17.9-14.3-10.1 0-18.4 8.3-18.4 18.4 0 4.4 1.5 8.6 4.4 11.9zm37.4-17c8.5 0 15.4 6.9 15.4 15.4 0 4.1-1.6 8-4.5 10.9-.3.3-.4.7-.4 1.1s.2.8.4 1.1l2.4 2.4h-13.3c-7.2 0-13.3-5-15-11.8 8-2 13.9-9.2 13.9-17.8 0-.4 0-.8-.1-1.1.5-.2.9-.2 1.2-.2zm-15.4 15.4c0-7.1 4.8-13 11.3-14.8v.6c0 7.1-4.8 13-11.3 14.8.1-.2 0-.4 0-.6zm-19.4-14.2c0-8.5 6.9-15.4 15.4-15.4 7.2 0 13.3 5 15 11.8-8 2-13.9 9.2-13.9 17.8 0 .4 0 .8.1 1.1-.4 0-.8.1-1.1.1h-13.4l2.4-2.4c.3-.3.4-.7.4-1.1s-.2-.8-.4-1.1c-2.9-2.8-4.5-6.7-4.5-10.8z"/><g font-family="'Helvetica Neue', Helvetica, Arial-Unicode, Arial, Sans-serif" font-size="5" font-weight="bold"><text y="115">Created by Justin Blake</text><text y="120">from the Noun Project</text></g></svg>