<svg fill="none" height="80" viewBox="0 0 70 80" width="70" xmlns="http://www.w3.org/2000/svg"><g fill="currentColor"><path d="m9.79995 61.7559c3.36005 0 6.04805-3.024 6.04805-6.72s-2.688-6.72-6.04805-6.72c-3.36 0-6.048 3.024-6.048 6.72s2.688 6.72 6.048 6.72zm0-10.92c1.93205 0 3.52805 1.848 3.52805 4.2s-1.596 4.2-3.52805 4.2c-1.932 0-3.528-1.848-3.528-4.2s1.596-4.2 3.528-4.2z"/><path d="m9.80003 63.4359c-4.956 0-9.072003 4.032-9.072003 9.072v5.292c0 .672.588003 1.26 1.260003 1.26h15.62397c.672 0 1.26-.588 1.26-1.26v-5.292c0-5.04-4.116-9.072-9.07197-9.072zm6.55197 13.104h-13.10397v-4.032c0-3.612 2.94-6.552 6.552-6.552 3.61197 0 6.55197 2.94 6.55197 6.552z"/><path d="m54.1523 55.0359c0 3.696 2.688 6.72 6.048 6.72s6.048-3.024 6.048-6.72-2.688-6.72-6.048-6.72-6.048 3.024-6.048 6.72zm6.048-4.2c1.932 0 3.528 1.848 3.528 4.2s-1.596 4.2-3.528 4.2-3.528-1.848-3.528-4.2 1.596-4.2 3.528-4.2z"/><path d="m60.1999 63.4359c-4.956 0-9.072 4.032-9.072 9.072v5.292c0 .672.588 1.26 1.26 1.26h15.624c.672 0 1.26-.588 1.26-1.26v-5.292c0-5.04-4.116-9.072-9.072-9.072zm6.552 13.104h-13.104v-4.032c0-3.612 2.94-6.552 6.552-6.552s6.552 2.94 6.552 6.552z"/><path d="m28.9521 55.0359c0 3.696 2.688 6.72 6.0481 6.72 3.36 0 6.048-3.024 6.048-6.72s-2.688-6.72-6.048-6.72c-3.3601 0-6.0481 3.024-6.0481 6.72zm9.5761 0c0 2.352-1.596 4.2-3.528 4.2s-3.5281-1.848-3.5281-4.2 1.5961-4.2 3.5281-4.2 3.528 1.932 3.528 4.2z"/><path d="m35.0002 63.4359c-4.956 0-9.072 4.032-9.072 9.072v5.292c0 .672.588 1.26 1.26 1.26h15.624c.672 0 1.26-.588 1.26-1.26v-5.292c0-5.04-4.116-9.072-9.072-9.072zm6.552 13.104h-13.104v-4.032c0-3.612 2.94-6.552 6.552-6.552s6.552 2.94 6.552 6.552z"/><path d="m11.7322 29.6679c-.336.336-.504.924-.252 1.344.168.504.672.756 1.176.756h14.196c.42 0 .84 0 1.344-.084 1.596 6.888 7.728 12.0121 15.036 12.0121h14.196c.504 0 1.008-.3361 1.176-.7561.168-.504.084-1.0079-.252-1.3439l-3.36-3.2761c2.352-2.772 3.696-6.3 3.696-9.996 0-8.484-6.972-15.456-15.456-15.456-.42 0-.84 0-1.344.084-1.596-6.88796-7.728-12.011959-15.036-12.011959-8.484 0-15.456 6.971999-15.456 15.455959 0 3.696 1.26 7.224 3.696 9.996zm31.416-14.28c7.14 0 12.936 5.796 12.936 12.936 0 3.444-1.344 6.72-3.78 9.156-.252.252-.336.588-.336.924s.168.672.336.924l2.016 2.016h-11.172c-6.048 0-11.172-4.2-12.6-9.912 6.72-1.68 11.676-7.728 11.676-14.952 0-.336 0-.672-.084-.924.42-.168.756-.168 1.008-.168zm-12.936 12.936c0-5.964 4.032-10.92 9.492-12.432v.504c0 5.964-4.032 10.92-9.492 12.432.084-.168 0-.336 0-.504zm-16.296-11.928c0-7.13996 5.796-12.93596 12.936-12.93596 6.048 0 11.172 4.2 12.6 9.91196-6.72 1.68-11.676 7.728-11.676 14.952 0 .336 0 .672.084.924-.336 0-.672.084-.924.084h-11.256l2.016-2.016c.252-.252.336-.588.336-.924s-.168-.672-.336-.924c-2.436-2.352-3.78-5.628-3.78-9.072z"/></g></svg>