<svg xmlns="http://www.w3.org/2000/svg" fill="currentColor" viewBox="0 0 70 80">
	<path d="M9.8 61.756c3.36 0 6.048-3.024 6.048-6.72s-2.688-6.72-6.048-6.72-6.048 3.024-6.048 6.72 2.688 6.72 6.048 6.72zm0-10.92c1.932 0 3.528 1.848 3.528 4.2s-1.596 4.2-3.528 4.2-3.528-1.848-3.528-4.2 1.596-4.2 3.528-4.2zM9.8 63.436c-4.956 0-9.072 4.032-9.072 9.072V77.8c0 .672.588 1.26 1.26 1.26h15.624c.672 0 1.26-.588 1.26-1.26v-5.292c0-5.04-4.116-9.072-9.072-9.072zm6.552 13.104H3.248v-4.032A6.56 6.56 0 019.8 65.956a6.56 6.56 0 016.552 6.552zM54.152 55.036c0 3.696 2.688 6.72 6.048 6.72s6.048-3.024 6.048-6.72-2.688-6.72-6.048-6.72-6.048 3.024-6.048 6.72zm6.048-4.2c1.932 0 3.528 1.848 3.528 4.2s-1.596 4.2-3.528 4.2-3.528-1.848-3.528-4.2 1.596-4.2 3.528-4.2zM60.2 63.436c-4.956 0-9.072 4.032-9.072 9.072V77.8c0 .672.588 1.26 1.26 1.26h15.624c.672 0 1.26-.588 1.26-1.26v-5.292c0-5.04-4.116-9.072-9.072-9.072zm6.552 13.104H53.648v-4.032c0-3.612 2.94-6.552 6.552-6.552s6.552 2.94 6.552 6.552zM28.952 55.036c0 3.696 2.688 6.72 6.048 6.72s6.048-3.024 6.048-6.72-2.688-6.72-6.048-6.72-6.048 3.024-6.048 6.72zm9.576 0c0 2.352-1.596 4.2-3.528 4.2s-3.528-1.848-3.528-4.2 1.596-4.2 3.528-4.2 3.528 1.932 3.528 4.2zM35 63.436c-4.956 0-9.072 4.032-9.072 9.072V77.8c0 .672.588 1.26 1.26 1.26h15.624c.672 0 1.26-.588 1.26-1.26v-5.292c0-5.04-4.116-9.072-9.072-9.072zm6.552 13.104H28.448v-4.032c0-3.612 2.94-6.552 6.552-6.552s6.552 2.94 6.552 6.552zM11.732 29.668c-.336.336-.504.924-.252 1.344.168.504.672.756 1.176.756h14.196c.42 0 .84 0 1.344-.084 1.596 6.888 7.728 12.012 15.036 12.012h14.196c.504 0 1.008-.336 1.176-.756.168-.504.084-1.008-.252-1.344l-3.36-3.276c2.352-2.772 3.696-6.3 3.696-9.996 0-8.484-6.972-15.456-15.456-15.456-.42 0-.84 0-1.344.084C40.292 6.064 34.16.94 26.852.94c-8.484 0-15.456 6.972-15.456 15.456 0 3.696 1.26 7.224 3.696 9.996zm31.416-14.28c7.14 0 12.936 5.796 12.936 12.936a12.9 12.9 0 01-3.78 9.156c-.252.252-.336.588-.336.924s.168.672.336.924l2.016 2.016H43.148c-6.048 0-11.172-4.2-12.6-9.912 6.72-1.68 11.676-7.728 11.676-14.952 0-.336 0-.672-.084-.924.42-.168.756-.168 1.008-.168zM30.212 28.324c0-5.964 4.032-10.92 9.492-12.432v.504c0 5.964-4.032 10.92-9.492 12.432.084-.168 0-.336 0-.504zM13.916 16.396c0-7.14 5.796-12.936 12.936-12.936 6.048 0 11.172 4.2 12.6 9.912-6.72 1.68-11.676 7.728-11.676 14.952 0 .336 0 .672.084.924-.336 0-.672.084-.924.084H15.68l2.016-2.016c.252-.252.336-.588.336-.924s-.168-.672-.336-.924c-2.436-2.352-3.78-5.628-3.78-9.072z"/>
</svg>