<svg xmlns="http://www.w3.org/2000/svg" fill="none" viewBox="0 0 30 31">
    <path fill="currentColor" fill-rule="evenodd" d="M15 .5C6.75.5 0 7.25 0 15.5s6.75 15 15 15 15-6.75 15-15-6.75-15-15-15zM18.75 23c.75.56 1.5 4.5 1.5 4.5a12.24 12.24 0 01-7.13.94s-1.87-.94-1.87-3.57c0-.57.04-1.08.08-1.54.15-1.67.25-2.76-1.96-4.08-1.73-1.04-3.25-1.3-4.3-1.47-.64-.11-1.1-.19-1.32-.4-.56-.57-.94-2.25 0-3.75h1.88V9.87h3.75c1.12-.74 3.74-7.3 3.74-7.3 1.13-.38 3.1-.41 3.76 0-3.7 4.45-1.65 3.78.2 3.17 1.21-.4 2.34-.76 1.67.38-.62 1.14-2.27 2.5-3.62 3.63l-.01.01c-1.1.9-2 1.65-2 1.99 0 .75 1.32 1.88 1.88 1.88.26 0 .92-.81 1.64-1.68l.01-.01c.82-1 1.7-2.06 2.1-2.06.75 0 2.44 3.18 1.88 3.74-.25.25-1.54.46-2.99.69-1.9.3-4.09.66-4.52 1.19-.75.94-.93 4.69 0 5.63.55.54 2.08.89 3.43 1.2 1 .23 1.88.43 2.2.67zm7.5-5.63c.19 1.7-1.31 6.75-1.31 6.75 4.74-5.52 3-12.18 2.62-12.37-1.12-.38-4.68-.38-5.06 0v1.88c.2.2.58.12.97.04.32-.06.65-.13.9-.04.57.18 1.7 2.06 1.88 3.74z" clip-rule="evenodd"/>
</svg>