<svg xmlns="http://www.w3.org/2000/svg" viewBox="0 0 512 512"><path d="M495.965.018h-95.993c-8.813 0-15.981 7.168-15.981 16.017v95.993c0 8.85 7.168 16.017 16.017 16.017h95.993c8.849 0 16.017-7.168 16.017-16.017V16.035c-.037-8.85-7.204-16.017-16.054-16.017zM112.028 192.005H16.035c-8.85 0-16.017 7.167-16.017 16.017v95.993c0 8.849 7.168 16.017 16.017 16.017h95.993c8.85 0 15.981-7.168 15.981-16.017v-95.993c0-8.85-7.168-16.017-15.981-16.017zm191.95 0h-95.993c-8.85 0-16.017 7.167-16.017 16.017v95.993c0 8.849 7.167 16.017 16.017 16.017h95.993c8.849 0 16.017-7.168 16.017-16.017v-95.993c0-8.85-7.168-16.017-16.017-16.017zm191.987 0h-95.993c-8.849 0-16.017 7.167-16.017 16.017v95.993c0 8.849 7.168 16.017 16.017 16.017h95.993c8.849 0 16.017-7.168 16.017-16.017v-95.993c0-8.85-7.168-16.017-16.017-16.017zM112.028 383.991H16.035c-8.85 0-16.017 7.168-16.017 16.017v95.993c0 8.813 7.168 15.981 16.017 15.981h95.993c8.85 0 15.981-7.168 15.981-16.017v-95.993c0-8.813-7.168-15.981-15.981-15.981zm191.95 0h-95.993c-8.85 0-16.017 7.168-16.017 16.017v95.993c0 8.849 7.167 16.017 16.017 16.017h95.993c8.849 0 16.017-7.168 16.017-16.017v-95.993c0-8.849-7.168-16.017-16.017-16.017zm191.987 0h-95.993c-8.849 0-16.017 7.168-16.017 16.017v95.993c0 8.849 7.168 16.017 16.017 16.017h95.993c8.849-.037 16.017-7.204 16.017-16.054v-95.993c0-8.813-7.168-15.981-16.017-15.981zM112.028.018H16.035C7.185.018.018 7.186.018 16.035v95.993c0 8.814 7.168 15.981 16.017 15.981h95.993c8.85 0 15.981-7.168 15.981-16.017V16.036c0-8.85-7.168-16.017-15.981-16.017zm191.95 0h-95.993c-8.85 0-16.017 7.168-16.017 16.017v95.993c0 8.85 7.167 16.017 16.017 16.017h95.993c8.849 0 16.017-7.168 16.017-16.017V16.035c0-8.85-7.168-16.017-16.017-16.017z"/></svg>