<svg xmlns="http://www.w3.org/2000/svg" fill="none" viewBox="0 0 176 176">
	<path fill="#7D8B94" fill-rule="evenodd" d="M102.605 111a8 8 0 008 8h28.789a8 8 0 008-8v-4a8 8 0 00-8-8h-28.789a8 8 0 00-8 8v4zm-74 0a8 8 0 008 8h28.789a8 8 0 008-8v-4a8 8 0 00-8-8H36.605a8 8 0 00-8 8v4z" clip-rule="evenodd"/>
	<path fill="#A2AEB3" fill-rule="evenodd" d="M14 154.211a8 8 0 008 8h132a8 8 0 008-8v-35.605a8 8 0 00-8-8H22a8 8 0 00-8 8v35.605z" clip-rule="evenodd"/>
	<path fill="#F7F8F9" d="M51 150.132a3.5 3.5 0 100-7v7zm-22.395-7a3.5 3.5 0 100 7v-7zm22.395 0H28.605v7H51v-7z"/>
	<path fill="#A2AEB3" fill-rule="evenodd" d="M28.605 29a8 8 0 008 8h28.789a8 8 0 008-8v-4a8 8 0 00-8-8H36.605a8 8 0 00-8 8v4zm74 0a8 8 0 008 8h28.789a8 8 0 008-8v-4a8 8 0 00-8-8h-28.789a8 8 0 00-8 8v4z" clip-rule="evenodd"/>
	<path fill="#C4CACB" fill-rule="evenodd" d="M14 72.21a8 8 0 008 8h132a8 8 0 008-8V36.605a8 8 0 00-8-8H22a8 8 0 00-8 8V72.21z" clip-rule="evenodd"/>
	<path fill="#fff" fill-rule="evenodd" d="M51 66.578H28.605z" clip-rule="evenodd"/>
	<path stroke="#0B63CE" stroke-linecap="round" stroke-width="7" d="M51 66.578H28.605"/>
</svg>