<svg width="176" height="176" fill="none" xmlns="http://www.w3.org/2000/svg"><path fill-rule="evenodd" clip-rule="evenodd" d="M102.605 111a8 8 0 0 0 8 8h28.789a8 8 0 0 0 8-8v-4a8 8 0 0 0-8-8h-28.789a8 8 0 0 0-8 8v4zM28.605 111a8 8 0 0 0 8 8h28.789a8 8 0 0 0 8-8v-4a8 8 0 0 0-8-8H36.605a8 8 0 0 0-8 8v4z" fill="#7D8B94"/><path fill-rule="evenodd" clip-rule="evenodd" d="M14 154.211a8 8 0 0 0 8 8h132a8 8 0 0 0 8-8v-35.605a8 8 0 0 0-8-8H22a8 8 0 0 0-8 8v35.605z" fill="#A2AEB3"/><path d="M51 150.132a3.5 3.5 0 1 0 0-7v7zm-22.395-7a3.5 3.5 0 1 0 0 7v-7zm22.395 0H28.605v7H51v-7z" fill="#F7F8F9"/><path fill-rule="evenodd" clip-rule="evenodd" d="M28.605 29a8 8 0 0 0 8 8h28.789a8 8 0 0 0 8-8v-4a8 8 0 0 0-8-8H36.605a8 8 0 0 0-8 8v4zM102.605 29a8 8 0 0 0 8 8h28.789a8 8 0 0 0 8-8v-4a8 8 0 0 0-8-8h-28.789a8 8 0 0 0-8 8v4z" fill="#A2AEB3"/><path fill-rule="evenodd" clip-rule="evenodd" d="M14 72.21a8 8 0 0 0 8 8h132a8 8 0 0 0 8-8V36.605a8 8 0 0 0-8-8H22a8 8 0 0 0-8 8V72.21z" fill="#C4CACB"/><path fill-rule="evenodd" clip-rule="evenodd" d="M51 66.578H28.605z" fill="#fff"/><path d="M51 66.578H28.605" stroke="#0B63CE" stroke-width="7" stroke-linecap="round"/></svg>