<svg fill="none" height="79" viewBox="0 0 96 79" width="96" xmlns="http://www.w3.org/2000/svg"><g fill="currentColor"><path d="m16.0714 31.9392c.861 0 1.476-.7344 1.476-1.5912 0-.2448 0-.612 0-.8568 2.46-.7344 4.305-2.9376 4.305-5.508 0-3.1824-2.583-5.8752-5.904-5.8752-3.198 0-5.904 2.5704-5.904 5.8752 0 2.6928 1.845 4.896 4.305 5.6304 0 .3672 0 .612.123.9792 0 .7344.615 1.3464 1.599 1.3464-.123 0-.123 0 0 0zm-.246-10.8936c1.476 0 2.706 1.224 2.706 2.6928s-1.23 2.6928-2.706 2.6928-2.706-1.224-2.706-2.6928 1.107-2.6928 2.706-2.6928z"/><path d="m18.9006 39.6505c-.369-.9792-.615-2.2032-.738-3.4272-.123-.8568-.984-1.3464-1.722-1.224-.861.1224-1.353.9792-1.23 1.7136.246 1.3464.492 2.6928.861 3.7944.246.612.861 1.1016 1.476 1.1016.123 0 .246 0 .492-.1224.738-.2448 1.107-1.1016.861-1.836z"/><path d="m23.9434 45.7705c-.861-.2448-1.722-.7344-2.46-1.4688-.615-.612-1.599-.612-2.214 0s-.615 1.5912 0 2.2032c1.107 1.1016 2.46 1.836 3.813 2.2032h.369c.738 0 1.353-.4896 1.476-1.1016.246-.7344-.246-1.5912-.984-1.836z"/><path d="m47.3133 29.4912c-.615-.612-1.599-.4896-2.214.1224-.738.7344-1.476 1.7136-2.46 2.8152-.492.612-.492 1.5912.246 2.2032.246.2448.615.3672.984.3672.492 0 .861-.2448 1.23-.4896.984-1.1016 1.722-1.9584 2.337-2.6928.492-.7344.492-1.7136-.123-2.3256z"/><path d="m38.7035 37.0801c-.861 1.1016-1.722 1.9584-2.46 2.6928-.615.612-.615 1.5912 0 2.2032.246.2448.738.3672 1.107.3672s.861-.1224 1.107-.4896c.738-.8568 1.599-1.7136 2.583-2.8152.492-.612.492-1.5912-.123-2.2032-.738-.4896-1.599-.3672-2.214.2448z"/><path d="m60.8435 23.616c-.738-.3672-1.722-.1224-2.091.7344-.369.7344-.123 1.7136.738 2.0808.738.3672 1.476 1.1016 2.091 1.9584.246.4896.738.7344 1.23.7344.246 0 .615-.1224.861-.2448.738-.4896.861-1.3464.492-2.0808-.984-1.5912-2.091-2.5704-3.321-3.1824z"/><path d="m74.2503 53.7265c0-.8568-.738-1.4688-1.476-1.4688h-1.107v-3.06c0-.8568-.738-1.4688-1.476-1.4688s-1.476.7344-1.476 1.4688v4.5288c0 .8568.738 1.5912 1.476 1.5912h2.583c.738-.1224 1.476-.7344 1.476-1.5912z"/><path d="m82.7374 32.6737v-31.08961c0-.4896-.246-.979205-.738-1.224005-.369-.2448-.984-.36720031-1.476-.1224l-25.584 10.771215-25.584-10.771215s-.123 0-.246 0h-.123c-.123 0-.123 0-.246 0s-.123 0-.246 0h-.123c-.123 0-.123 0-.246 0l-26.19902 11.016015c-.615.2448-.983997.7344-.983997 1.4688v54.1008c0 .4896.245997.9792.737997 1.224.246.1224.492.2448.861.2448.246 0 .369 0 .615-.1224l25.58402-10.7712 20.787 8.6904c4.182 7.5888 12.3 12.852 21.648 12.852 13.653 0 24.723-11.016 24.723-24.6024 0-9.3024-5.289-17.5032-13.161-21.6648zm-26.199-18.972 23.124-9.66961v27.41761c-2.583-.9792-5.535-1.4688-8.487-1.4688-5.535 0-10.578 1.836-14.76 4.896v-21.1752zm11.808 47.3688c-.615-.2448-1.23-.612-1.722-.9792s-.984-.7344-1.23-.9792c.123-.9792 0-2.2032-.492-3.5496-.861-2.448-1.23-4.1616-1.107-6.3648.369-3.3048 3.567-6.2424 7.134-6.2424h.123c3.567 0 6.888 2.8152 7.134 6.2424.246 2.2032-.246 3.9168-1.107 6.3648-.246.612-.369 1.224-.492 1.836s-.123 1.1016 0 1.7136c-1.845 1.7136-3.813 2.448-5.781 2.448-.123 0-.123 0-.246 0-.492.1224-1.353-.1224-2.214-.4896zm-13.653 7.0992-.123-.1224c0-.1224.123-.2448.123-.2448.369-.612.861-1.1016 1.476-1.5912.123-.1224.246-.1224.246-.2448 1.23-.8568 2.706-1.5912 4.182-2.2032.738-.3672 1.476-.7344 2.214-1.1016.369-.2448.738-.4896.984-.7344.246.2448.615.4896.861.612.492.3672.984.612 1.599.9792 1.23.612 2.829 1.1016 4.551 1.224h.246c2.46 0 4.92-.9792 7.134-2.8152.246.2448.615.4896.984.7344.738.3672 1.476.7344 2.214 1.1016 2.337 1.1016 4.674 2.2032 5.904 4.0392.123.1224.123.2448.246.3672-3.936 4.6512-9.963 7.7112-16.605 7.7112-6.273 0-12.3-2.9376-16.236-7.7112 0 0 0 .1224 0 0zm34.932-2.6928c-1.722-2.2032-4.305-3.4272-6.765-4.5288-.738-.3672-1.476-.612-2.091-.9792s-1.107-.7344-.984-2.0808c0-.3672.123-.7344.369-1.224.123-.2448.123-.3672.246-.612.369-.9792.615-1.836.738-2.6928.246-1.4688.369-2.8152.246-4.4064 0-.4896-.123-.8568-.246-1.3464-.246-1.224-.861-2.2032-1.476-3.1824-1.845-2.5704-5.043-4.4064-8.487-4.4064h-.123c-2.091 0-4.059.612-5.781 1.836-.984.7344-1.968 1.5912-2.706 2.5704-.984 1.3464-1.599 2.9376-1.845 4.6512-.369 3.06.369 5.3856 1.23 7.7112s.123 2.9376-.615 3.3048c-.615.3672-1.353.612-2.091.9792-.861.4896-1.845.8568-2.829 1.3464-.492.2448-.984.612-1.476.9792s-1.107.7344-1.476 1.224c-.246.2448-.492.4896-.738.8568-.369-.4896-.615-1.1016-.861-1.5912-1.353-2.8152-2.214-5.9976-2.214-9.3024 0-4.5288 1.353-8.6904 3.813-12.1176.492-.7344.984-1.3464 1.476-1.9584s.984-1.1016 1.476-1.5912c1.968-1.836 4.305-3.3048 6.888-4.284.984-.3672 1.968-.7344 2.952-.9792 1.599-.3672 3.198-.612 4.92-.612 2.952 0 5.904.612 8.487 1.7136.492.2448.984.4896 1.476.7344s.984.612 1.476.8568c6.027 3.7944 10.086 10.5264 10.086 18.1152.123 4.0392-.984 7.8336-3.075 11.016zm-59.409-10.7712v-6.732c1.107-.4896 2.214-1.1016 3.444-1.836.738-.4896.861-1.4688.369-2.0808-.492-.7344-1.476-.8568-2.091-.3672-.615.3672-1.107.7344-1.599.9792v-40.75921l23.124 9.66961v9.792c-1.107.3672-2.337.9792-3.444 1.836-.738.4896-.861 1.4688-.369 2.0808.246.4896.738.612 1.23.612.246 0 .615-.1224.861-.2448.615-.3672 1.107-.7344 1.722-.9792v10.6488c-4.305 4.4064-6.888 10.404-6.888 17.0136 0 2.6928.492 5.2632 1.23 7.7112zm-26.19902-41.004 23.12402-9.66961v50.79601l-23.12402 9.6696z"/></g></svg>