<svg width="100" height="125" viewBox="0 0 100 125" fill="none" xmlns="http://www.w3.org/2000/svg">
<path d="M27.6998 45.8C28.3998 45.8 28.8998 45.2 28.8998 44.5C28.8998 44.3 28.8998 44 28.8998 43.8C30.8998 43.2 32.3998 41.4 32.3998 39.3C32.3998 36.7 30.2998 34.5 27.5998 34.5C24.9998 34.5 22.7998 36.6 22.7998 39.3C22.7998 41.5 24.2998 43.3 26.2998 43.9C26.2998 44.2 26.2998 44.4 26.3998 44.7C26.3998 45.3 26.8998 45.8 27.6998 45.8C27.5998 45.8 27.5998 45.8 27.6998 45.8ZM27.4998 36.9C28.6998 36.9 29.6998 37.9 29.6998 39.1C29.6998 40.3 28.6998 41.3 27.4998 41.3C26.2998 41.3 25.2998 40.3 25.2998 39.1C25.2998 37.9 26.1998 36.9 27.4998 36.9Z" fill="currentColor"/>
<path d="M29.9998 52.1001C29.6998 51.3001 29.4998 50.3001 29.3998 49.3001C29.2998 48.6001 28.5998 48.2001 27.9998 48.3001C27.2998 48.4001 26.8998 49.1001 26.9998 49.7001C27.1998 50.8001 27.3998 51.9001 27.6998 52.8001C27.8998 53.3001 28.3998 53.7001 28.8998 53.7001C28.9998 53.7001 29.0998 53.7001 29.2998 53.6001C29.8998 53.4001 30.1998 52.7001 29.9998 52.1001Z" fill="currentColor"/>
<path d="M34.0998 57.1001C33.3998 56.9001 32.6998 56.5001 32.0998 55.9001C31.5998 55.4001 30.7998 55.4001 30.2998 55.9001C29.7998 56.4001 29.7998 57.2001 30.2998 57.7001C31.1998 58.6001 32.2998 59.2001 33.3998 59.5001C33.4998 59.5001 33.5998 59.5001 33.6998 59.5001C34.2998 59.5001 34.7998 59.1001 34.8998 58.6001C35.0998 58.0001 34.6998 57.3001 34.0998 57.1001Z" fill="currentColor"/>
<path d="M53.1 43.7999C52.6 43.2999 51.8 43.3999 51.3 43.8999C50.7 44.4999 50.1 45.2999 49.3 46.1999C48.9 46.6999 48.9 47.4999 49.5 47.9999C49.7 48.1999 50 48.2999 50.3 48.2999C50.7 48.2999 51 48.0999 51.3 47.8999C52.1 46.9999 52.7 46.2999 53.2 45.6999C53.6 45.0999 53.6 44.2999 53.1 43.7999Z" fill="currentColor"/>
<path d="M46.0999 50C45.3999 50.9 44.6999 51.6 44.0999 52.2C43.5999 52.7 43.5999 53.5 44.0999 54C44.2999 54.2 44.6999 54.3 44.9999 54.3C45.2999 54.3 45.6999 54.2 45.8999 53.9C46.4999 53.2 47.1999 52.5 47.9999 51.6C48.3999 51.1 48.3999 50.3 47.8999 49.8C47.2999 49.4 46.5999 49.5 46.0999 50Z" fill="currentColor"/>
<path d="M64.0999 39C63.4999 38.7 62.6999 38.9 62.3999 39.6C62.0999 40.2 62.2999 41 62.9999 41.3C63.5999 41.6 64.1999 42.2 64.6999 42.9C64.8999 43.3 65.2999 43.5 65.6999 43.5C65.8999 43.5 66.1999 43.4 66.3999 43.3C66.9999 42.9 67.0999 42.2 66.7999 41.6C65.9999 40.3 65.0999 39.5 64.0999 39Z" fill="currentColor"/>
<path d="M75 63.5999C75 62.8999 74.4 62.4 73.8 62.4H72.9V59.9C72.9 59.2 72.3 58.7 71.7 58.7C71.1 58.7 70.5 59.3 70.5 59.9V63.5999C70.5 64.2999 71.1 64.9 71.7 64.9H73.8C74.4 64.8 75 64.2999 75 63.5999Z" fill="currentColor"/>
<path d="M81.8999 46.4V21C81.8999 20.6 81.6999 20.2 81.2999 20C80.9999 19.8 80.4999 19.7 80.0999 19.9L59.2999 28.7L38.4999 19.9C38.4999 19.9 38.3999 19.9 38.2999 19.9H38.1999C38.0999 19.9 38.0999 19.9 37.9999 19.9C37.8999 19.9 37.8999 19.9 37.7999 19.9H37.6999C37.5999 19.9 37.5999 19.9 37.4999 19.9L16.1999 28.9C15.6999 29.1 15.3999 29.5 15.3999 30.1V74.3C15.3999 74.7 15.5999 75.1 15.9999 75.3C16.1999 75.4 16.3999 75.5 16.6999 75.5C16.8999 75.5 16.9999 75.5 17.1999 75.4L37.9999 66.6L54.8999 73.7C58.2999 79.9 64.8999 84.2 72.4999 84.2C83.5999 84.2 92.5999 75.2 92.5999 64.1C92.5999 56.5 88.2999 49.8 81.8999 46.4ZM60.5999 30.9L79.3999 23V45.4C77.2999 44.6 74.8999 44.2 72.4999 44.2C67.9999 44.2 63.8999 45.7 60.4999 48.2V30.9H60.5999ZM70.1999 69.6C69.6999 69.4 69.1999 69.1 68.7999 68.8C68.3999 68.5 67.9999 68.2 67.7999 68C67.8999 67.2 67.7999 66.2 67.3999 65.1C66.6999 63.1 66.3999 61.7 66.4999 59.9C66.7999 57.2 69.3999 54.8 72.2999 54.8H72.3999C75.2999 54.8 77.9999 57.1 78.1999 59.9C78.3999 61.7 77.9999 63.1 77.2999 65.1C77.0999 65.6 76.9999 66.1 76.8999 66.6C76.7999 67.1 76.7999 67.5 76.8999 68C75.3999 69.4 73.7999 70 72.1999 70C72.0999 70 72.0999 70 71.9999 70C71.5999 70.1 70.8999 69.9 70.1999 69.6ZM59.0999 75.4L58.9999 75.3C58.9999 75.2 59.0999 75.1 59.0999 75.1C59.3999 74.6 59.7999 74.2 60.2999 73.8C60.3999 73.7 60.4999 73.7 60.4999 73.6C61.4999 72.9 62.6999 72.3 63.8999 71.8C64.4999 71.5 65.0999 71.2 65.6999 70.9C65.9999 70.7 66.2999 70.5 66.4999 70.3C66.6999 70.5 66.9999 70.7 67.1999 70.8C67.5999 71.1 67.9999 71.3 68.4999 71.6C69.4999 72.1 70.7999 72.5 72.1999 72.6C72.2999 72.6 72.2999 72.6 72.3999 72.6C74.3999 72.6 76.3999 71.8 78.1999 70.3C78.3999 70.5 78.6999 70.7 78.9999 70.9C79.5999 71.2 80.1999 71.5 80.7999 71.8C82.6999 72.7 84.5999 73.6 85.5999 75.1C85.6999 75.2 85.6999 75.3 85.7999 75.4C82.5999 79.2 77.6999 81.7 72.2999 81.7C67.1999 81.7 62.2999 79.3 59.0999 75.4C59.0999 75.4 59.0999 75.5 59.0999 75.4ZM87.4999 73.2C86.0999 71.4 83.9999 70.4 81.9999 69.5C81.3999 69.2 80.7999 69 80.2999 68.7C79.7999 68.4 79.3999 68.1 79.4999 67C79.4999 66.7 79.5999 66.4 79.7999 66C79.8999 65.8 79.8999 65.7 79.9999 65.5C80.2999 64.7 80.4999 64 80.5999 63.3C80.7999 62.1 80.8999 61 80.7999 59.7C80.7999 59.3 80.6999 59 80.5999 58.6C80.3999 57.6 79.8999 56.8 79.3999 56C77.8999 53.9 75.2999 52.4 72.4999 52.4H72.3999C70.6999 52.4 69.0999 52.9 67.6999 53.9C66.8999 54.5 66.0999 55.2 65.4999 56C64.6999 57.1 64.1999 58.4 63.9999 59.8C63.6999 62.3 64.2999 64.2 64.9999 66.1C65.6999 68 65.0999 68.5 64.4999 68.8C63.9999 69.1 63.3999 69.3 62.7999 69.6C62.0999 70 61.2999 70.3 60.4999 70.7C60.0999 70.9 59.6999 71.2 59.2999 71.5C58.8999 71.8 58.3999 72.1 58.0999 72.5C57.8999 72.7 57.6999 72.9 57.4999 73.2C57.1999 72.8 56.9999 72.3 56.7999 71.9C55.6999 69.6 54.9999 67 54.9999 64.3C54.9999 60.6 56.0999 57.2 58.0999 54.4C58.4999 53.8 58.8999 53.3 59.2999 52.8C59.6999 52.3 60.0999 51.9 60.4999 51.5C62.0999 50 63.9999 48.8 66.0999 48C66.8999 47.7 67.6999 47.4 68.4999 47.2C69.7999 46.9 71.0999 46.7 72.4999 46.7C74.8999 46.7 77.2999 47.2 79.3999 48.1C79.7999 48.3 80.1999 48.5 80.5999 48.7C80.9999 48.9 81.3999 49.2 81.7999 49.4C86.6999 52.5 89.9999 58 89.9999 64.2C90.0999 67.5 89.1999 70.6 87.4999 73.2ZM39.1999 64.4V58.9C40.0999 58.5 40.9999 58 41.9999 57.4C42.5999 57 42.6999 56.2 42.2999 55.7C41.8999 55.1 41.0999 55 40.5999 55.4C40.0999 55.7 39.6999 56 39.2999 56.2V22.9L58.0999 30.8V38.8C57.1999 39.1 56.1999 39.6 55.2999 40.3C54.6999 40.7 54.5999 41.5 54.9999 42C55.1999 42.4 55.5999 42.5 55.9999 42.5C56.1999 42.5 56.4999 42.4 56.6999 42.3C57.1999 42 57.5999 41.7 58.0999 41.5V50.2C54.5999 53.8 52.4999 58.7 52.4999 64.1C52.4999 66.3 52.8999 68.4 53.4999 70.4L39.1999 64.4ZM17.8999 30.9L36.6999 23V64.5L17.8999 72.4V30.9V30.9Z" fill="currentColor"/>
<path d="M2.9 112.505H3.375C3.34833 112.315 3.29167 112.148 3.205 112.005C3.11833 111.858 3.01 111.737 2.88 111.64C2.75 111.543 2.60167 111.47 2.435 111.42C2.26833 111.37 2.09167 111.345 1.905 111.345C1.63167 111.345 1.38833 111.395 1.175 111.495C0.965 111.592 0.788333 111.725 0.645 111.895C0.505 112.065 0.398333 112.265 0.325 112.495C0.251667 112.722 0.215 112.965 0.215 113.225C0.215 113.485 0.248333 113.728 0.315 113.955C0.385 114.182 0.488333 114.378 0.625 114.545C0.761667 114.712 0.933333 114.843 1.14 114.94C1.34667 115.033 1.58833 115.08 1.865 115.08C2.32167 115.08 2.68167 114.955 2.945 114.705C3.20833 114.455 3.36333 114.105 3.41 113.655H2.935C2.925 113.802 2.895 113.938 2.845 114.065C2.795 114.192 2.725 114.302 2.635 114.395C2.54833 114.485 2.44333 114.557 2.32 114.61C2.2 114.66 2.06167 114.685 1.905 114.685C1.69167 114.685 1.50833 114.645 1.355 114.565C1.20167 114.485 1.075 114.378 0.975 114.245C0.878333 114.108 0.806667 113.95 0.76 113.77C0.713333 113.587 0.69 113.393 0.69 113.19C0.69 113.003 0.713333 112.823 0.76 112.65C0.806667 112.477 0.878333 112.323 0.975 112.19C1.075 112.053 1.2 111.945 1.35 111.865C1.50333 111.785 1.68667 111.745 1.9 111.745C2.15 111.745 2.365 111.808 2.545 111.935C2.72833 112.062 2.84667 112.252 2.9 112.505ZM3.9134 112.415V115H4.3384V113.85C4.3384 113.683 4.35507 113.537 4.3884 113.41C4.42173 113.28 4.47507 113.17 4.5484 113.08C4.62173 112.99 4.7184 112.922 4.8384 112.875C4.9584 112.828 5.1034 112.805 5.2734 112.805V112.355C5.0434 112.348 4.8534 112.395 4.7034 112.495C4.5534 112.595 4.42673 112.75 4.3234 112.96H4.3134V112.415H3.9134ZM7.30055 113.46H5.81555C5.82221 113.36 5.84388 113.267 5.88055 113.18C5.91721 113.09 5.96721 113.012 6.03055 112.945C6.09388 112.878 6.16888 112.827 6.25555 112.79C6.34555 112.75 6.44555 112.73 6.55555 112.73C6.66221 112.73 6.75888 112.75 6.84555 112.79C6.93555 112.827 7.01221 112.878 7.07555 112.945C7.14221 113.008 7.19388 113.085 7.23055 113.175C7.27055 113.265 7.29388 113.36 7.30055 113.46ZM7.71055 114.18H7.29055C7.25388 114.35 7.17721 114.477 7.06055 114.56C6.94721 114.643 6.80055 114.685 6.62055 114.685C6.48055 114.685 6.35888 114.662 6.25555 114.615C6.15221 114.568 6.06721 114.507 6.00055 114.43C5.93388 114.35 5.88555 114.26 5.85555 114.16C5.82555 114.057 5.81221 113.948 5.81555 113.835H7.75055C7.75721 113.678 7.74221 113.513 7.70555 113.34C7.67221 113.167 7.60888 113.007 7.51555 112.86C7.42555 112.713 7.30388 112.593 7.15055 112.5C7.00055 112.403 6.81055 112.355 6.58055 112.355C6.40388 112.355 6.24055 112.388 6.09055 112.455C5.94388 112.522 5.81555 112.615 5.70555 112.735C5.59888 112.855 5.51555 112.997 5.45555 113.16C5.39555 113.323 5.36555 113.503 5.36555 113.7C5.37221 113.897 5.40055 114.078 5.45055 114.245C5.50388 114.412 5.58221 114.555 5.68555 114.675C5.78888 114.795 5.91555 114.888 6.06555 114.955C6.21888 115.022 6.39888 115.055 6.60555 115.055C6.89888 115.055 7.14221 114.982 7.33555 114.835C7.52888 114.688 7.65388 114.47 7.71055 114.18ZM10.4811 114.99C10.4078 115.033 10.3061 115.055 10.1761 115.055C10.0661 115.055 9.97776 115.025 9.91109 114.965C9.84776 114.902 9.81609 114.8 9.81609 114.66C9.69943 114.8 9.56276 114.902 9.40609 114.965C9.25276 115.025 9.08609 115.055 8.90609 115.055C8.78943 115.055 8.67776 115.042 8.57109 115.015C8.46776 114.988 8.37776 114.947 8.30109 114.89C8.22443 114.833 8.16276 114.76 8.11609 114.67C8.07276 114.577 8.05109 114.465 8.05109 114.335C8.05109 114.188 8.07609 114.068 8.12609 113.975C8.17609 113.882 8.24109 113.807 8.32109 113.75C8.40443 113.69 8.49776 113.645 8.60109 113.615C8.70776 113.585 8.81609 113.56 8.92609 113.54C9.04276 113.517 9.15276 113.5 9.25609 113.49C9.36276 113.477 9.45609 113.46 9.53609 113.44C9.61609 113.417 9.67943 113.385 9.72609 113.345C9.77276 113.302 9.79609 113.24 9.79609 113.16C9.79609 113.067 9.77776 112.992 9.74109 112.935C9.70776 112.878 9.66276 112.835 9.60609 112.805C9.55276 112.775 9.49109 112.755 9.42109 112.745C9.35443 112.735 9.28776 112.73 9.22109 112.73C9.04109 112.73 8.89109 112.765 8.77109 112.835C8.65109 112.902 8.58609 113.03 8.57609 113.22H8.15109C8.15776 113.06 8.19109 112.925 8.25109 112.815C8.31109 112.705 8.39109 112.617 8.49109 112.55C8.59109 112.48 8.70443 112.43 8.83109 112.4C8.96109 112.37 9.09943 112.355 9.24609 112.355C9.36276 112.355 9.47776 112.363 9.59109 112.38C9.70776 112.397 9.81276 112.432 9.90609 112.485C9.99943 112.535 10.0744 112.607 10.1311 112.7C10.1878 112.793 10.2161 112.915 10.2161 113.065V114.395C10.2161 114.495 10.2211 114.568 10.2311 114.615C10.2444 114.662 10.2844 114.685 10.3511 114.685C10.3878 114.685 10.4311 114.677 10.4811 114.66V114.99ZM9.79109 113.665C9.73776 113.705 9.66776 113.735 9.58109 113.755C9.49443 113.772 9.40276 113.787 9.30609 113.8C9.21276 113.81 9.11776 113.823 9.02109 113.84C8.92443 113.853 8.83776 113.877 8.76109 113.91C8.68443 113.943 8.62109 113.992 8.57109 114.055C8.52443 114.115 8.50109 114.198 8.50109 114.305C8.50109 114.375 8.51443 114.435 8.54109 114.485C8.57109 114.532 8.60776 114.57 8.65109 114.6C8.69776 114.63 8.75109 114.652 8.81109 114.665C8.87109 114.678 8.93443 114.685 9.00109 114.685C9.14109 114.685 9.26109 114.667 9.36109 114.63C9.46109 114.59 9.54276 114.542 9.60609 114.485C9.66943 114.425 9.71609 114.362 9.74609 114.295C9.77609 114.225 9.79109 114.16 9.79109 114.1V113.665ZM11.4666 112.415V111.64H11.0416V112.415H10.6016V112.79H11.0416V114.435C11.0416 114.555 11.0533 114.652 11.0766 114.725C11.1 114.798 11.135 114.855 11.1816 114.895C11.2316 114.935 11.295 114.963 11.3716 114.98C11.4516 114.993 11.5466 115 11.6566 115H11.9816V114.625H11.7866C11.72 114.625 11.665 114.623 11.6216 114.62C11.5816 114.613 11.55 114.602 11.5266 114.585C11.5033 114.568 11.4866 114.545 11.4766 114.515C11.47 114.485 11.4666 114.445 11.4666 114.395V112.79H11.9816V112.415H11.4666ZM14.2488 113.46H12.7638C12.7705 113.36 12.7921 113.267 12.8288 113.18C12.8655 113.09 12.9155 113.012 12.9788 112.945C13.0421 112.878 13.1171 112.827 13.2038 112.79C13.2938 112.75 13.3938 112.73 13.5038 112.73C13.6105 112.73 13.7071 112.75 13.7938 112.79C13.8838 112.827 13.9605 112.878 14.0238 112.945C14.0905 113.008 14.1421 113.085 14.1788 113.175C14.2188 113.265 14.2421 113.36 14.2488 113.46ZM14.6588 114.18H14.2388C14.2021 114.35 14.1255 114.477 14.0088 114.56C13.8955 114.643 13.7488 114.685 13.5688 114.685C13.4288 114.685 13.3071 114.662 13.2038 114.615C13.1005 114.568 13.0155 114.507 12.9488 114.43C12.8821 114.35 12.8338 114.26 12.8038 114.16C12.7738 114.057 12.7605 113.948 12.7638 113.835H14.6988C14.7055 113.678 14.6905 113.513 14.6538 113.34C14.6205 113.167 14.5571 113.007 14.4638 112.86C14.3738 112.713 14.2521 112.593 14.0988 112.5C13.9488 112.403 13.7588 112.355 13.5288 112.355C13.3521 112.355 13.1888 112.388 13.0388 112.455C12.8921 112.522 12.7638 112.615 12.6538 112.735C12.5471 112.855 12.4638 112.997 12.4038 113.16C12.3438 113.323 12.3138 113.503 12.3138 113.7C12.3205 113.897 12.3488 114.078 12.3988 114.245C12.4521 114.412 12.5305 114.555 12.6338 114.675C12.7371 114.795 12.8638 114.888 13.0138 114.955C13.1671 115.022 13.3471 115.055 13.5538 115.055C13.8471 115.055 14.0905 114.982 14.2838 114.835C14.4771 114.688 14.6021 114.47 14.6588 114.18ZM15.4493 113.73C15.4493 113.603 15.4627 113.48 15.4893 113.36C15.516 113.24 15.5593 113.133 15.6193 113.04C15.6793 112.947 15.7593 112.872 15.8593 112.815C15.9593 112.758 16.081 112.73 16.2243 112.73C16.371 112.73 16.496 112.758 16.5993 112.815C16.7027 112.868 16.786 112.94 16.8493 113.03C16.916 113.12 16.9643 113.225 16.9943 113.345C17.0243 113.462 17.0393 113.583 17.0393 113.71C17.0393 113.83 17.0243 113.948 16.9943 114.065C16.9677 114.182 16.9227 114.287 16.8593 114.38C16.796 114.47 16.7143 114.543 16.6143 114.6C16.5143 114.657 16.3927 114.685 16.2493 114.685C16.1127 114.685 15.9927 114.658 15.8893 114.605C15.7893 114.552 15.706 114.48 15.6393 114.39C15.576 114.3 15.5277 114.198 15.4943 114.085C15.4643 113.968 15.4493 113.85 15.4493 113.73ZM17.4493 115V111.43H17.0243V112.76H17.0143C16.9677 112.683 16.9093 112.62 16.8393 112.57C16.7727 112.517 16.701 112.475 16.6243 112.445C16.5477 112.412 16.471 112.388 16.3943 112.375C16.3177 112.362 16.246 112.355 16.1793 112.355C15.9827 112.355 15.8093 112.392 15.6593 112.465C15.5127 112.535 15.3893 112.632 15.2893 112.755C15.1927 112.875 15.1193 113.017 15.0693 113.18C15.0227 113.343 14.9993 113.517 14.9993 113.7C14.9993 113.883 15.0243 114.057 15.0743 114.22C15.1243 114.383 15.1977 114.527 15.2943 114.65C15.3943 114.773 15.5177 114.872 15.6643 114.945C15.8143 115.018 15.9893 115.055 16.1893 115.055C16.3693 115.055 16.5343 115.023 16.6843 114.96C16.8343 114.897 16.9443 114.793 17.0143 114.65H17.0243V115H17.4493ZM19.5098 111.43V115H19.9348V114.655H19.9448C19.9915 114.732 20.0481 114.797 20.1148 114.85C20.1848 114.9 20.2581 114.94 20.3348 114.97C20.4115 115 20.4881 115.022 20.5648 115.035C20.6448 115.048 20.7165 115.055 20.7798 115.055C20.9765 115.055 21.1481 115.02 21.2948 114.95C21.4448 114.88 21.5681 114.785 21.6648 114.665C21.7648 114.542 21.8381 114.398 21.8848 114.235C21.9348 114.072 21.9598 113.898 21.9598 113.715C21.9598 113.532 21.9348 113.358 21.8848 113.195C21.8348 113.032 21.7598 112.888 21.6598 112.765C21.5631 112.638 21.4398 112.538 21.2898 112.465C21.1431 112.392 20.9698 112.355 20.7698 112.355C20.5898 112.355 20.4248 112.388 20.2748 112.455C20.1248 112.518 20.0148 112.622 19.9448 112.765H19.9348V111.43H19.5098ZM21.5098 113.685C21.5098 113.812 21.4965 113.935 21.4698 114.055C21.4431 114.175 21.3998 114.282 21.3398 114.375C21.2798 114.468 21.1998 114.543 21.0998 114.6C21.0031 114.657 20.8815 114.685 20.7348 114.685C20.5881 114.685 20.4631 114.658 20.3598 114.605C20.2565 114.548 20.1715 114.475 20.1048 114.385C20.0415 114.295 19.9948 114.192 19.9648 114.075C19.9348 113.955 19.9198 113.832 19.9198 113.705C19.9198 113.585 19.9331 113.467 19.9598 113.35C19.9898 113.233 20.0365 113.13 20.0998 113.04C20.1631 112.947 20.2448 112.872 20.3448 112.815C20.4448 112.758 20.5665 112.73 20.7098 112.73C20.8465 112.73 20.9648 112.757 21.0648 112.81C21.1681 112.863 21.2515 112.935 21.3148 113.025C21.3815 113.115 21.4298 113.218 21.4598 113.335C21.4931 113.448 21.5098 113.565 21.5098 113.685ZM23.4737 115.345C23.4237 115.472 23.3737 115.578 23.3237 115.665C23.277 115.752 23.2237 115.822 23.1637 115.875C23.107 115.932 23.042 115.972 22.9687 115.995C22.8987 116.022 22.817 116.035 22.7237 116.035C22.6737 116.035 22.6237 116.032 22.5737 116.025C22.5237 116.018 22.4753 116.007 22.4287 115.99V115.6C22.4653 115.617 22.507 115.63 22.5537 115.64C22.6037 115.653 22.6453 115.66 22.6787 115.66C22.7653 115.66 22.837 115.638 22.8937 115.595C22.9537 115.555 22.9987 115.497 23.0287 115.42L23.2037 114.985L22.1787 112.415H22.6587L23.4137 114.53H23.4237L24.1487 112.415H24.5987L23.4737 115.345ZM27.8953 113.54L29.2603 111.43H28.7203L27.6753 113.13L26.6053 111.43H26.0403L27.4203 113.54V115H27.8953V113.54ZM31.3614 115V112.415H30.9364V113.875C30.9364 113.992 30.9197 114.1 30.8864 114.2C30.8564 114.297 30.8097 114.382 30.7464 114.455C30.683 114.528 30.603 114.585 30.5064 114.625C30.413 114.665 30.3014 114.685 30.1714 114.685C30.008 114.685 29.8797 114.638 29.7864 114.545C29.693 114.452 29.6464 114.325 29.6464 114.165V112.415H29.2214V114.115C29.2214 114.255 29.2347 114.383 29.2614 114.5C29.2914 114.613 29.3414 114.712 29.4114 114.795C29.4814 114.878 29.573 114.943 29.6864 114.99C29.7997 115.033 29.9414 115.055 30.1114 115.055C30.3014 115.055 30.4664 115.018 30.6064 114.945C30.7464 114.868 30.8614 114.75 30.9514 114.59H30.9614V115H31.3614ZM33.4613 111.43V115H35.8263V114.6H33.9363V111.43H33.4613ZM38.3096 115V112.415H37.8846V113.875C37.8846 113.992 37.8679 114.1 37.8346 114.2C37.8046 114.297 37.7579 114.382 37.6946 114.455C37.6313 114.528 37.5513 114.585 37.4546 114.625C37.3613 114.665 37.2496 114.685 37.1196 114.685C36.9563 114.685 36.8279 114.638 36.7346 114.545C36.6413 114.452 36.5946 114.325 36.5946 114.165V112.415H36.1696V114.115C36.1696 114.255 36.1829 114.383 36.2096 114.5C36.2396 114.613 36.2896 114.712 36.3596 114.795C36.4296 114.878 36.5213 114.943 36.6346 114.99C36.7479 115.033 36.8896 115.055 37.0596 115.055C37.2496 115.055 37.4146 115.018 37.5546 114.945C37.6946 114.868 37.8096 114.75 37.8996 114.59H37.9096V115H38.3096ZM40.7029 113.245H41.1429C41.1263 113.092 41.0863 112.96 41.0229 112.85C40.9596 112.737 40.8779 112.643 40.7779 112.57C40.6813 112.497 40.5679 112.443 40.4379 112.41C40.3113 112.373 40.1746 112.355 40.0279 112.355C39.8246 112.355 39.6463 112.392 39.4929 112.465C39.3396 112.535 39.2113 112.633 39.1079 112.76C39.0079 112.883 38.9329 113.03 38.8829 113.2C38.8329 113.367 38.8079 113.547 38.8079 113.74C38.8079 113.933 38.8329 114.112 38.8829 114.275C38.9363 114.435 39.0129 114.573 39.1129 114.69C39.2163 114.807 39.3429 114.897 39.4929 114.96C39.6463 115.023 39.8213 115.055 40.0179 115.055C40.3479 115.055 40.6079 114.968 40.7979 114.795C40.9913 114.622 41.1113 114.375 41.1579 114.055H40.7229C40.6963 114.255 40.6229 114.41 40.5029 114.52C40.3863 114.63 40.2229 114.685 40.0129 114.685C39.8796 114.685 39.7646 114.658 39.6679 114.605C39.5713 114.552 39.4929 114.482 39.4329 114.395C39.3729 114.305 39.3279 114.203 39.2979 114.09C39.2713 113.977 39.2579 113.86 39.2579 113.74C39.2579 113.61 39.2713 113.485 39.2979 113.365C39.3246 113.242 39.3679 113.133 39.4279 113.04C39.4913 112.947 39.5746 112.872 39.6779 112.815C39.7813 112.758 39.9096 112.73 40.0629 112.73C40.2429 112.73 40.3863 112.775 40.4929 112.865C40.5996 112.955 40.6696 113.082 40.7029 113.245ZM41.6585 111.43V115H42.0835V114.02L42.4835 113.65L43.3685 115H43.9085L42.8085 113.355L43.8335 112.415H43.2635L42.0835 113.545V111.43H41.6585Z" fill="currentColor"/>
<path d="M0.495 117.79V120H0.92V117.79H1.42V117.415H0.92V117.055C0.92 116.942 0.948333 116.865 1.005 116.825C1.06167 116.785 1.14167 116.765 1.245 116.765C1.28167 116.765 1.32167 116.768 1.365 116.775C1.40833 116.778 1.44833 116.787 1.485 116.8V116.43C1.445 116.417 1.39833 116.407 1.345 116.4C1.295 116.393 1.25 116.39 1.21 116.39C0.976667 116.39 0.798333 116.445 0.675 116.555C0.555 116.662 0.495 116.82 0.495 117.03V117.415H0.06V117.79H0.495ZM1.78449 117.415V120H2.20949V118.85C2.20949 118.683 2.22616 118.537 2.25949 118.41C2.29283 118.28 2.34616 118.17 2.41949 118.08C2.49283 117.99 2.58949 117.922 2.70949 117.875C2.82949 117.828 2.97449 117.805 3.14449 117.805V117.355C2.91449 117.348 2.72449 117.395 2.57449 117.495C2.42449 117.595 2.29783 117.75 2.19449 117.96H2.18449V117.415H1.78449ZM3.68664 118.71C3.68664 118.553 3.70664 118.415 3.74664 118.295C3.78997 118.172 3.84831 118.068 3.92164 117.985C3.99497 117.902 4.07997 117.838 4.17664 117.795C4.27664 117.752 4.38164 117.73 4.49164 117.73C4.60164 117.73 4.70497 117.752 4.80164 117.795C4.90164 117.838 4.98831 117.902 5.06164 117.985C5.13497 118.068 5.19164 118.172 5.23164 118.295C5.27497 118.415 5.29664 118.553 5.29664 118.71C5.29664 118.867 5.27497 119.007 5.23164 119.13C5.19164 119.25 5.13497 119.352 5.06164 119.435C4.98831 119.515 4.90164 119.577 4.80164 119.62C4.70497 119.663 4.60164 119.685 4.49164 119.685C4.38164 119.685 4.27664 119.663 4.17664 119.62C4.07997 119.577 3.99497 119.515 3.92164 119.435C3.84831 119.352 3.78997 119.25 3.74664 119.13C3.70664 119.007 3.68664 118.867 3.68664 118.71ZM3.23664 118.71C3.23664 118.9 3.26331 119.077 3.31664 119.24C3.36997 119.403 3.44997 119.547 3.55664 119.67C3.66331 119.79 3.79497 119.885 3.95164 119.955C4.10831 120.022 4.28831 120.055 4.49164 120.055C4.69831 120.055 4.87831 120.022 5.03164 119.955C5.18831 119.885 5.31997 119.79 5.42664 119.67C5.53331 119.547 5.61331 119.403 5.66664 119.24C5.71997 119.077 5.74664 118.9 5.74664 118.71C5.74664 118.52 5.71997 118.343 5.66664 118.18C5.61331 118.013 5.53331 117.87 5.42664 117.75C5.31997 117.627 5.18831 117.53 5.03164 117.46C4.87831 117.39 4.69831 117.355 4.49164 117.355C4.28831 117.355 4.10831 117.39 3.95164 117.46C3.79497 117.53 3.66331 117.627 3.55664 117.75C3.44997 117.87 3.36997 118.013 3.31664 118.18C3.26331 118.343 3.23664 118.52 3.23664 118.71ZM6.24773 117.415V120H6.67273V118.39C6.67273 118.34 6.6844 118.278 6.70773 118.205C6.7344 118.128 6.7744 118.055 6.82773 117.985C6.8844 117.915 6.95607 117.855 7.04273 117.805C7.13273 117.755 7.2394 117.73 7.36273 117.73C7.4594 117.73 7.53773 117.745 7.59773 117.775C7.66107 117.802 7.71107 117.842 7.74773 117.895C7.7844 117.945 7.8094 118.005 7.82273 118.075C7.8394 118.145 7.84773 118.222 7.84773 118.305V120H8.27273V118.39C8.27273 118.19 8.33273 118.03 8.45273 117.91C8.57273 117.79 8.73773 117.73 8.94773 117.73C9.05107 117.73 9.1344 117.745 9.19773 117.775C9.2644 117.805 9.31607 117.847 9.35273 117.9C9.3894 117.95 9.4144 118.01 9.42773 118.08C9.44107 118.15 9.44773 118.225 9.44773 118.305V120H9.87273V118.105C9.87273 117.972 9.85107 117.858 9.80773 117.765C9.76773 117.668 9.7094 117.59 9.63273 117.53C9.5594 117.47 9.4694 117.427 9.36273 117.4C9.2594 117.37 9.14273 117.355 9.01273 117.355C8.84273 117.355 8.68607 117.393 8.54273 117.47C8.40273 117.547 8.2894 117.655 8.20273 117.795C8.1494 117.635 8.05773 117.522 7.92773 117.455C7.79773 117.388 7.65273 117.355 7.49273 117.355C7.1294 117.355 6.85107 117.502 6.65773 117.795H6.64773V117.415H6.24773ZM12.492 117.415V116.64H12.067V117.415H11.627V117.79H12.067V119.435C12.067 119.555 12.0787 119.652 12.102 119.725C12.1254 119.798 12.1604 119.855 12.207 119.895C12.257 119.935 12.3204 119.963 12.397 119.98C12.477 119.993 12.572 120 12.682 120H13.007V119.625H12.812C12.7454 119.625 12.6904 119.623 12.647 119.62C12.607 119.613 12.5754 119.602 12.552 119.585C12.5287 119.568 12.512 119.545 12.502 119.515C12.4954 119.485 12.492 119.445 12.492 119.395V117.79H13.007V117.415H12.492ZM13.4792 116.43V120H13.9042V118.54C13.9042 118.423 13.9192 118.317 13.9492 118.22C13.9825 118.12 14.0308 118.033 14.0942 117.96C14.1575 117.887 14.2358 117.83 14.3292 117.79C14.4258 117.75 14.5392 117.73 14.6692 117.73C14.8325 117.73 14.9608 117.777 15.0542 117.87C15.1475 117.963 15.1942 118.09 15.1942 118.25V120H15.6192V118.3C15.6192 118.16 15.6042 118.033 15.5742 117.92C15.5475 117.803 15.4992 117.703 15.4292 117.62C15.3592 117.537 15.2675 117.472 15.1542 117.425C15.0408 117.378 14.8992 117.355 14.7292 117.355C14.6525 117.355 14.5725 117.363 14.4892 117.38C14.4092 117.397 14.3308 117.423 14.2542 117.46C14.1808 117.493 14.1142 117.538 14.0542 117.595C13.9942 117.648 13.9475 117.715 13.9142 117.795H13.9042V116.43H13.4792ZM18.0525 118.46H16.5675C16.5742 118.36 16.5958 118.267 16.6325 118.18C16.6692 118.09 16.7192 118.012 16.7825 117.945C16.8458 117.878 16.9208 117.827 17.0075 117.79C17.0975 117.75 17.1975 117.73 17.3075 117.73C17.4142 117.73 17.5108 117.75 17.5975 117.79C17.6875 117.827 17.7642 117.878 17.8275 117.945C17.8942 118.008 17.9458 118.085 17.9825 118.175C18.0225 118.265 18.0458 118.36 18.0525 118.46ZM18.4625 119.18H18.0425C18.0058 119.35 17.9292 119.477 17.8125 119.56C17.6992 119.643 17.5525 119.685 17.3725 119.685C17.2325 119.685 17.1108 119.662 17.0075 119.615C16.9042 119.568 16.8192 119.507 16.7525 119.43C16.6858 119.35 16.6375 119.26 16.6075 119.16C16.5775 119.057 16.5642 118.948 16.5675 118.835H18.5025C18.5092 118.678 18.4942 118.513 18.4575 118.34C18.4242 118.167 18.3608 118.007 18.2675 117.86C18.1775 117.713 18.0558 117.593 17.9025 117.5C17.7525 117.403 17.5625 117.355 17.3325 117.355C17.1558 117.355 16.9925 117.388 16.8425 117.455C16.6958 117.522 16.5675 117.615 16.4575 117.735C16.3508 117.855 16.2675 117.997 16.2075 118.16C16.1475 118.323 16.1175 118.503 16.1175 118.7C16.1242 118.897 16.1525 119.078 16.2025 119.245C16.2558 119.412 16.3342 119.555 16.4375 119.675C16.5408 119.795 16.6675 119.888 16.8175 119.955C16.9708 120.022 17.1508 120.055 17.3575 120.055C17.6508 120.055 17.8942 119.982 18.0875 119.835C18.2808 119.688 18.4058 119.47 18.4625 119.18ZM20.3996 116.43V120H20.8496V117.135H20.8596L22.7246 120H23.2446V116.43H22.7946V119.325H22.7846L20.9046 116.43H20.3996ZM24.253 118.71C24.253 118.553 24.273 118.415 24.313 118.295C24.3564 118.172 24.4147 118.068 24.488 117.985C24.5614 117.902 24.6464 117.838 24.743 117.795C24.843 117.752 24.948 117.73 25.058 117.73C25.168 117.73 25.2714 117.752 25.368 117.795C25.468 117.838 25.5547 117.902 25.628 117.985C25.7014 118.068 25.758 118.172 25.798 118.295C25.8414 118.415 25.863 118.553 25.863 118.71C25.863 118.867 25.8414 119.007 25.798 119.13C25.758 119.25 25.7014 119.352 25.628 119.435C25.5547 119.515 25.468 119.577 25.368 119.62C25.2714 119.663 25.168 119.685 25.058 119.685C24.948 119.685 24.843 119.663 24.743 119.62C24.6464 119.577 24.5614 119.515 24.488 119.435C24.4147 119.352 24.3564 119.25 24.313 119.13C24.273 119.007 24.253 118.867 24.253 118.71ZM23.803 118.71C23.803 118.9 23.8297 119.077 23.883 119.24C23.9364 119.403 24.0164 119.547 24.123 119.67C24.2297 119.79 24.3614 119.885 24.518 119.955C24.6747 120.022 24.8547 120.055 25.058 120.055C25.2647 120.055 25.4447 120.022 25.598 119.955C25.7547 119.885 25.8864 119.79 25.993 119.67C26.0997 119.547 26.1797 119.403 26.233 119.24C26.2864 119.077 26.313 118.9 26.313 118.71C26.313 118.52 26.2864 118.343 26.233 118.18C26.1797 118.013 26.0997 117.87 25.993 117.75C25.8864 117.627 25.7547 117.53 25.598 117.46C25.4447 117.39 25.2647 117.355 25.058 117.355C24.8547 117.355 24.6747 117.39 24.518 117.46C24.3614 117.53 24.2297 117.627 24.123 117.75C24.0164 117.87 23.9364 118.013 23.883 118.18C23.8297 118.343 23.803 118.52 23.803 118.71ZM28.9541 120V117.415H28.5291V118.875C28.5291 118.992 28.5125 119.1 28.4791 119.2C28.4491 119.297 28.4025 119.382 28.3391 119.455C28.2758 119.528 28.1958 119.585 28.0991 119.625C28.0058 119.665 27.8941 119.685 27.7641 119.685C27.6008 119.685 27.4725 119.638 27.3791 119.545C27.2858 119.452 27.2391 119.325 27.2391 119.165V117.415H26.8141V119.115C26.8141 119.255 26.8275 119.383 26.8541 119.5C26.8841 119.613 26.9341 119.712 27.0041 119.795C27.0741 119.878 27.1658 119.943 27.2791 119.99C27.3925 120.033 27.5341 120.055 27.7041 120.055C27.8941 120.055 28.0591 120.018 28.1991 119.945C28.3391 119.868 28.4541 119.75 28.5441 119.59H28.5541V120H28.9541ZM29.5925 117.415V120H30.0175V118.54C30.0175 118.423 30.0325 118.317 30.0625 118.22C30.0958 118.12 30.1441 118.033 30.2075 117.96C30.2708 117.887 30.3491 117.83 30.4425 117.79C30.5391 117.75 30.6525 117.73 30.7825 117.73C30.9458 117.73 31.0741 117.777 31.1675 117.87C31.2608 117.963 31.3075 118.09 31.3075 118.25V120H31.7325V118.3C31.7325 118.16 31.7175 118.033 31.6875 117.92C31.6608 117.803 31.6125 117.703 31.5425 117.62C31.4725 117.537 31.3808 117.472 31.2675 117.425C31.1541 117.378 31.0125 117.355 30.8425 117.355C30.4591 117.355 30.1791 117.512 30.0025 117.825H29.9925V117.415H29.5925ZM34.3074 118.14V116.83H35.2374C35.5074 116.83 35.704 116.887 35.8274 117C35.954 117.11 36.0174 117.272 36.0174 117.485C36.0174 117.698 35.954 117.862 35.8274 117.975C35.704 118.088 35.5074 118.143 35.2374 118.14H34.3074ZM33.8324 116.43V120H34.3074V118.54H35.3974C35.7574 118.543 36.029 118.452 36.2124 118.265C36.399 118.078 36.4924 117.818 36.4924 117.485C36.4924 117.152 36.399 116.893 36.2124 116.71C36.029 116.523 35.7574 116.43 35.3974 116.43H33.8324ZM36.9896 117.415V120H37.4146V118.85C37.4146 118.683 37.4312 118.537 37.4646 118.41C37.4979 118.28 37.5512 118.17 37.6246 118.08C37.6979 117.99 37.7946 117.922 37.9146 117.875C38.0346 117.828 38.1796 117.805 38.3496 117.805V117.355C38.1196 117.348 37.9296 117.395 37.7796 117.495C37.6296 117.595 37.5029 117.75 37.3996 117.96H37.3896V117.415H36.9896ZM38.8917 118.71C38.8917 118.553 38.9117 118.415 38.9517 118.295C38.9951 118.172 39.0534 118.068 39.1267 117.985C39.2001 117.902 39.2851 117.838 39.3817 117.795C39.4817 117.752 39.5867 117.73 39.6967 117.73C39.8067 117.73 39.9101 117.752 40.0067 117.795C40.1067 117.838 40.1934 117.902 40.2667 117.985C40.3401 118.068 40.3967 118.172 40.4367 118.295C40.4801 118.415 40.5017 118.553 40.5017 118.71C40.5017 118.867 40.4801 119.007 40.4367 119.13C40.3967 119.25 40.3401 119.352 40.2667 119.435C40.1934 119.515 40.1067 119.577 40.0067 119.62C39.9101 119.663 39.8067 119.685 39.6967 119.685C39.5867 119.685 39.4817 119.663 39.3817 119.62C39.2851 119.577 39.2001 119.515 39.1267 119.435C39.0534 119.352 38.9951 119.25 38.9517 119.13C38.9117 119.007 38.8917 118.867 38.8917 118.71ZM38.4417 118.71C38.4417 118.9 38.4684 119.077 38.5217 119.24C38.5751 119.403 38.6551 119.547 38.7617 119.67C38.8684 119.79 39.0001 119.885 39.1567 119.955C39.3134 120.022 39.4934 120.055 39.6967 120.055C39.9034 120.055 40.0834 120.022 40.2367 119.955C40.3934 119.885 40.5251 119.79 40.6317 119.67C40.7384 119.547 40.8184 119.403 40.8717 119.24C40.9251 119.077 40.9517 118.9 40.9517 118.71C40.9517 118.52 40.9251 118.343 40.8717 118.18C40.8184 118.013 40.7384 117.87 40.6317 117.75C40.5251 117.627 40.3934 117.53 40.2367 117.46C40.0834 117.39 39.9034 117.355 39.6967 117.355C39.4934 117.355 39.3134 117.39 39.1567 117.46C39.0001 117.53 38.8684 117.627 38.7617 117.75C38.6551 117.87 38.5751 118.013 38.5217 118.18C38.4684 118.343 38.4417 118.52 38.4417 118.71ZM41.9028 116.95V116.43H41.4778V116.95H41.9028ZM41.9028 120.325V117.415H41.4778V120.255C41.4778 120.388 41.4611 120.48 41.4278 120.53C41.3945 120.583 41.3311 120.61 41.2378 120.61H41.1478C41.1345 120.61 41.1228 120.608 41.1128 120.605C41.0995 120.605 41.0845 120.603 41.0678 120.6V120.965C41.1345 120.978 41.2061 120.985 41.2828 120.985C41.4728 120.985 41.6228 120.932 41.7328 120.825C41.8461 120.722 41.9028 120.555 41.9028 120.325ZM44.3562 118.46H42.8712C42.8779 118.36 42.8995 118.267 42.9362 118.18C42.9729 118.09 43.0229 118.012 43.0862 117.945C43.1495 117.878 43.2245 117.827 43.3112 117.79C43.4012 117.75 43.5012 117.73 43.6112 117.73C43.7179 117.73 43.8145 117.75 43.9012 117.79C43.9912 117.827 44.0679 117.878 44.1312 117.945C44.1979 118.008 44.2495 118.085 44.2862 118.175C44.3262 118.265 44.3495 118.36 44.3562 118.46ZM44.7662 119.18H44.3462C44.3095 119.35 44.2329 119.477 44.1162 119.56C44.0029 119.643 43.8562 119.685 43.6762 119.685C43.5362 119.685 43.4145 119.662 43.3112 119.615C43.2079 119.568 43.1229 119.507 43.0562 119.43C42.9895 119.35 42.9412 119.26 42.9112 119.16C42.8812 119.057 42.8679 118.948 42.8712 118.835H44.8062C44.8129 118.678 44.7979 118.513 44.7612 118.34C44.7279 118.167 44.6645 118.007 44.5712 117.86C44.4812 117.713 44.3595 117.593 44.2062 117.5C44.0562 117.403 43.8662 117.355 43.6362 117.355C43.4595 117.355 43.2962 117.388 43.1462 117.455C42.9995 117.522 42.8712 117.615 42.7612 117.735C42.6545 117.855 42.5712 117.997 42.5112 118.16C42.4512 118.323 42.4212 118.503 42.4212 118.7C42.4279 118.897 42.4562 119.078 42.5062 119.245C42.5595 119.412 42.6379 119.555 42.7412 119.675C42.8445 119.795 42.9712 119.888 43.1212 119.955C43.2745 120.022 43.4545 120.055 43.6612 120.055C43.9545 120.055 44.1979 119.982 44.3912 119.835C44.5845 119.688 44.7095 119.47 44.7662 119.18ZM47.0018 118.245H47.4418C47.4251 118.092 47.3851 117.96 47.3218 117.85C47.2584 117.737 47.1768 117.643 47.0768 117.57C46.9801 117.497 46.8668 117.443 46.7368 117.41C46.6101 117.373 46.4734 117.355 46.3268 117.355C46.1234 117.355 45.9451 117.392 45.7918 117.465C45.6384 117.535 45.5101 117.633 45.4068 117.76C45.3068 117.883 45.2318 118.03 45.1818 118.2C45.1318 118.367 45.1068 118.547 45.1068 118.74C45.1068 118.933 45.1318 119.112 45.1818 119.275C45.2351 119.435 45.3118 119.573 45.4118 119.69C45.5151 119.807 45.6418 119.897 45.7918 119.96C45.9451 120.023 46.1201 120.055 46.3168 120.055C46.6468 120.055 46.9068 119.968 47.0968 119.795C47.2901 119.622 47.4101 119.375 47.4568 119.055H47.0218C46.9951 119.255 46.9218 119.41 46.8018 119.52C46.6851 119.63 46.5218 119.685 46.3118 119.685C46.1784 119.685 46.0634 119.658 45.9668 119.605C45.8701 119.552 45.7918 119.482 45.7318 119.395C45.6718 119.305 45.6268 119.203 45.5968 119.09C45.5701 118.977 45.5568 118.86 45.5568 118.74C45.5568 118.61 45.5701 118.485 45.5968 118.365C45.6234 118.242 45.6668 118.133 45.7268 118.04C45.7901 117.947 45.8734 117.872 45.9768 117.815C46.0801 117.758 46.2084 117.73 46.3618 117.73C46.5418 117.73 46.6851 117.775 46.7918 117.865C46.8984 117.955 46.9684 118.082 47.0018 118.245ZM48.5223 117.415V116.64H48.0973V117.415H47.6573V117.79H48.0973V119.435C48.0973 119.555 48.109 119.652 48.1323 119.725C48.1556 119.798 48.1906 119.855 48.2373 119.895C48.2873 119.935 48.3506 119.963 48.4273 119.98C48.5073 119.993 48.6023 120 48.7123 120H49.0373V119.625H48.8423C48.7756 119.625 48.7206 119.623 48.6773 119.62C48.6373 119.613 48.6056 119.602 48.5823 119.585C48.559 119.568 48.5423 119.545 48.5323 119.515C48.5256 119.485 48.5223 119.445 48.5223 119.395V117.79H49.0373V117.415H48.5223Z" fill="currentColor"/>
</svg>
