<svg xmlns="http://www.w3.org/2000/svg" fill="currentColor" viewBox="0 0 96 79">
	<path d="M16.071 31.94c.861 0 1.476-.735 1.476-1.592v-.857c2.46-.734 4.305-2.937 4.305-5.508a5.89 5.89 0 00-5.904-5.875c-3.198 0-5.904 2.57-5.904 5.875 0 2.693 1.845 4.896 4.305 5.63 0 .368 0 .613.123.98 0 .734.615 1.346 1.6 1.346-.124 0-.124 0 0 0zm-.246-10.894c1.476 0 2.706 1.224 2.706 2.692s-1.23 2.693-2.706 2.693-2.706-1.224-2.706-2.693 1.107-2.692 2.706-2.692zM18.9 39.65c-.368-.979-.614-2.203-.737-3.427-.123-.856-.984-1.346-1.722-1.224-.861.123-1.353.98-1.23 1.714.246 1.346.492 2.693.86 3.794.247.612.862 1.102 1.477 1.102.123 0 .246 0 .492-.122.738-.245 1.107-1.102.86-1.836zM23.943 45.77a5.743 5.743 0 01-2.46-1.468c-.615-.612-1.599-.612-2.214 0s-.615 1.59 0 2.203a8.654 8.654 0 003.813 2.203h.37c.737 0 1.352-.49 1.475-1.101.246-.735-.246-1.592-.984-1.836zM47.313 29.491c-.615-.612-1.599-.49-2.214.123-.738.734-1.476 1.713-2.46 2.815a1.567 1.567 0 00.246 2.203c.246.245.615.367.984.367.492 0 .861-.245 1.23-.49a110.186 110.186 0 002.337-2.692c.492-.735.492-1.714-.123-2.326zM38.703 37.08c-.86 1.102-1.722 1.959-2.46 2.693a1.546 1.546 0 000 2.203c.246.245.738.367 1.107.367s.861-.122 1.107-.49c.738-.856 1.6-1.713 2.583-2.815.492-.611.492-1.59-.123-2.203-.738-.49-1.599-.367-2.214.245zM60.843 23.616c-.738-.367-1.722-.122-2.09.734-.37.735-.124 1.714.737 2.081.738.367 1.476 1.102 2.091 1.959.246.49.738.734 1.23.734.246 0 .615-.122.861-.245.738-.49.861-1.346.492-2.08-.984-1.592-2.09-2.571-3.32-3.183zM74.25 53.727c0-.857-.738-1.47-1.476-1.47h-1.107v-3.06c0-.856-.738-1.468-1.476-1.468s-1.476.734-1.476 1.469v4.528c0 .857.738 1.592 1.476 1.592h2.583c.738-.123 1.476-.735 1.476-1.591z"/>
	<path d="M82.737 32.674V1.584c0-.49-.246-.98-.738-1.224-.369-.245-.984-.367-1.476-.122L54.94 11.008 29.355.239h-1.23L1.926 11.254c-.615.244-.984.734-.984 1.468v54.101c0 .49.246.98.738 1.224.246.123.492.245.861.245.246 0 .37 0 .615-.122L28.74 57.398l20.787 8.69c4.182 7.59 12.3 12.853 21.648 12.853 13.653 0 24.723-11.016 24.723-24.603 0-9.302-5.289-17.503-13.16-21.664zM56.538 13.702l23.124-9.67V31.45c-2.583-.98-5.535-1.47-8.487-1.47-5.535 0-10.578 1.837-14.76 4.897V13.702zM68.346 61.07c-.615-.244-1.23-.612-1.722-.979s-.984-.734-1.23-.979c.123-.98 0-2.203-.492-3.55-.86-2.447-1.23-4.161-1.107-6.364.37-3.305 3.567-6.243 7.134-6.243h.123c3.567 0 6.888 2.815 7.134 6.243.246 2.203-.246 3.916-1.107 6.364-.246.613-.369 1.225-.492 1.837s-.123 1.101 0 1.713c-1.845 1.714-3.813 2.448-5.78 2.448h-.247c-.492.122-1.353-.122-2.214-.49zm-13.653 7.1l-.123-.123c0-.122.123-.245.123-.245.37-.612.861-1.101 1.476-1.59.123-.123.246-.123.246-.246 1.23-.856 2.706-1.59 4.182-2.203l2.214-1.101c.37-.245.738-.49.984-.735.246.245.615.49.861.612.492.367.984.612 1.6.98a12.402 12.402 0 004.55 1.223h.246c2.46 0 4.92-.979 7.134-2.815.246.245.615.49.984.735l2.214 1.101c2.337 1.102 4.674 2.203 5.904 4.04.123.122.123.244.246.367-3.936 4.65-9.963 7.71-16.605 7.71-6.273 0-12.3-2.937-16.236-7.71 0 0 0 .122 0 0zm34.932-2.693c-1.722-2.203-4.305-3.427-6.765-4.529-.738-.367-1.476-.612-2.09-.98s-1.108-.734-.985-2.08c0-.367.123-.734.37-1.224.122-.245.122-.367.245-.612.37-.98.615-1.836.738-2.693.246-1.469.37-2.815.246-4.406 0-.49-.123-.857-.246-1.347-.246-1.224-.86-2.203-1.476-3.182-1.845-2.57-5.043-4.406-8.487-4.406h-.123a9.834 9.834 0 00-5.78 1.836c-.985.734-1.969 1.59-2.707 2.57-.984 1.346-1.599 2.938-1.845 4.651-.369 3.06.37 5.386 1.23 7.711s.123 2.938-.615 3.305c-.615.367-1.353.612-2.09.98-.862.49-1.846.856-2.83 1.346-.492.245-.984.612-1.476.98s-1.107.733-1.476 1.223c-.246.245-.492.49-.738.857-.369-.49-.615-1.102-.86-1.591-1.354-2.816-2.215-5.998-2.215-9.303 0-4.529 1.353-8.69 3.813-12.117.492-.735.984-1.347 1.476-1.959s.984-1.101 1.476-1.59a21.038 21.038 0 016.888-4.285c.984-.367 1.968-.734 2.952-.98 1.6-.366 3.198-.611 4.92-.611 2.952 0 5.904.612 8.487 1.713l1.476.735c.492.245.984.612 1.476.857C88.641 40.14 92.7 46.872 92.7 54.46c.123 4.04-.984 7.833-3.075 11.016zM30.216 54.706v-6.732c1.107-.49 2.214-1.102 3.444-1.836.738-.49.861-1.47.37-2.081-.493-.735-1.477-.857-2.092-.367-.615.367-1.107.734-1.599.979V3.909l23.124 9.67v9.792a11.81 11.81 0 00-3.444 1.836c-.738.49-.86 1.47-.369 2.081.246.49.738.612 1.23.612.246 0 .615-.122.861-.245.615-.367 1.107-.734 1.722-.979v10.649c-4.305 4.406-6.888 10.404-6.888 17.013 0 2.693.492 5.264 1.23 7.712zM4.017 13.702l23.124-9.67v50.796l-23.124 9.67z"/>
</svg>