<svg width="50" height="12" xmlns="http://www.w3.org/2000/svg" xmlns:xlink="http://www.w3.org/1999/xlink"><use xlink:href="#a" transform="translate(1 4)" fill="#FFF"/><use xlink:href="#b" transform="translate(.5 -.41)" fill="#FFF"/><use xlink:href="#b" transform="matrix(1 0 0 -1 .5 11.59)" fill="#FFF"/><defs><path id="a" d="M.5 1a.5.5 0 0 0 0 1V1zm47.01 1a.5.5 0 1 0 0-1v1zM.5 2h47.01V1H.5v1z"/><path id="b" d="M5.312 1.267a.5.5 0 1 0-.704-.71l.704.71zM-.352 5.48a.5.5 0 1 0 .704.71l-.704-.71zM4.608.557l-4.96 4.924.704.71 4.96-4.924-.704-.71z"/></defs></svg>