<?xml version="1.0" encoding="UTF-8"?>
<svg width="100%" height="100%" viewBox="0 0 168 168" version="1.1" xmlns="http://www.w3.org/2000/svg" xmlns:xlink="http://www.w3.org/1999/xlink">
    <!-- Generator: Sketch 50.2 (55047) - http://www.bohemiancoding.com/sketch -->
    <title>Group</title>
    <desc>Created with Sketch.</desc>
    <defs></defs>
    <g id="Page-1" stroke="none" stroke-width="1" fill="none" fill-rule="evenodd">
        <g id="Canvas-Copy-61" transform="translate(-12.000000, -12.000000)" stroke="#0B5FFF" stroke-width="8">
            <g id="Group" transform="translate(16.000000, 16.000000)">
                <rect id="Rectangle-7-Copy-14" fill="#E1EBFF" transform="translate(80.000000, 44.000000) scale(1, -1) translate(-80.000000, -44.000000) " x="0" y="16" width="160" height="56"></rect>
                <rect id="Rectangle-7-Copy-14" fill="#FFFFFF" transform="translate(40.000000, 8.000000) scale(1, -1) translate(-40.000000, -8.000000) " x="16" y="0" width="48" height="16"></rect>
                <rect id="Rectangle-7-Copy-14" fill="#53E6C1" transform="translate(120.000000, 8.000000) scale(1, -1) translate(-120.000000, -8.000000) " x="96" y="0" width="48" height="16"></rect>
                <rect id="Rectangle-7-Copy-14" fill="#E1EBFF" transform="translate(80.000000, 132.000000) scale(1, -1) translate(-80.000000, -132.000000) " x="0" y="104" width="160" height="56"></rect>
                <rect id="Rectangle-7-Copy-14" fill="#53E6C1" transform="translate(40.000000, 96.000000) scale(1, -1) translate(-40.000000, -96.000000) " x="16" y="88" width="48" height="16"></rect>
                <rect id="Rectangle-7-Copy-14" fill="#FFFFFF" transform="translate(120.000000, 96.000000) scale(1, -1) translate(-120.000000, -96.000000) " x="96" y="88" width="48" height="16"></rect>
                <path d="M40,55 L16,55" id="Line-Copy-4" fill="#FFFFFF" stroke-linecap="square"></path>
                <path d="M40,145 L16,145" id="Line-Copy-3" fill="#FFFFFF" stroke-linecap="square"></path>
            </g>
        </g>
    </g>
</svg>