<svg xmlns="http://www.w3.org/2000/svg" fill="none" viewBox="0 0 108 108">
	<path fill="#E8E8E7" fill-rule="evenodd" d="M32 94l18-24V32c0-9.941-8.059-18-18-18s-18 8.059-18 18v38l18 24z" clip-rule="evenodd"/>
	<circle cx="18" cy="18" r="18" fill="#C4CACB" transform="translate(14 14)"/>
	<path fill="#A2AEB3" d="M50 32v38H14V32h36z"/>
	<path fill="#0B63CE" fill-rule="evenodd" d="M24.5 84L32 94l7.5-10S36 82 32 82s-7.5 2-7.5 2z" clip-rule="evenodd"/>
	<path fill="#E8E8E7" fill-rule="evenodd" d="M58 90a4 4 0 004 4h28a4 4 0 004-4V18a4 4 0 00-4-4H62a4 4 0 00-4 4v72z" clip-rule="evenodd"/>
	<path fill="#C4CACB" d="M78 64a2 2 0 100-4v4zm0 16a2 2 0 100-4v4zm0-32a2 2 0 100-4v4zM58 64h20v-4H58v4zm0 16h20v-4H58v4zm0-32h20v-4H58v4z"/>
	<path fill="#0B63CE" d="M80 22a6 6 0 110 12 6 6 0 010-12z"/>
</svg>