<svg width="108" height="108" fill="none" xmlns="http://www.w3.org/2000/svg"><path fill-rule="evenodd" clip-rule="evenodd" d="M32 94l18-24V32c0-9.941-8.059-18-18-18s-18 8.059-18 18v38l18 24z" fill="#E8E8E7"/><circle cx="18" cy="18" r="18" transform="translate(14 14)" fill="#C4CACB"/><path d="M50 32v38H14V32h36z" fill="#A2AEB3"/><path fill-rule="evenodd" clip-rule="evenodd" d="M24.5 84L32 94l7.5-10S36 82 32 82s-7.5 2-7.5 2z" fill="#0B63CE"/><path fill-rule="evenodd" clip-rule="evenodd" d="M58 90a4 4 0 0 0 4 4h28a4 4 0 0 0 4-4V18a4 4 0 0 0-4-4H62a4 4 0 0 0-4 4v72z" fill="#E8E8E7"/><path d="M78 64a2 2 0 1 0 0-4v4zm0 16a2 2 0 1 0 0-4v4zm0-32a2 2 0 1 0 0-4v4zM58 64h20v-4H58v4zm0 16h20v-4H58v4zm0-32h20v-4H58v4z" fill="#C4CACB"/><path d="M80 22a6 6 0 1 1 0 12 6 6 0 0 1 0-12z" fill="#0B63CE"/></svg>