<svg viewBox="0 0 512 513" fill="none" xmlns="http://www.w3.org/2000/svg"><path d="M96 448.5c-17.673 0-32 14.327-32 32 0 17.673 14.327 32 32 32h320c17.673 0 32-14.327 32-32 0-17.673-14.327-32-32-32H96zM96 .5c-17.673 0-32 14.327-32 32 0 17.673 14.327 32 32 32h320c17.673 0 32-14.327 32-32 0-17.673-14.327-32-32-32H96z" /><path fill-rule="evenodd" clip-rule="evenodd" d="M64 128.5c0-17.673 14.327-32 32-32h320c17.673 0 32 14.327 32 32v256c0 17.673-14.327 32-32 32H96c-17.673 0-32-14.327-32-32v-256zm64 224v-192h256v192H128z"/></svg>