<svg xmlns="http://www.w3.org/2000/svg" fill="currentColor" viewBox="0 0 32 32">
	<path fill-rule="evenodd" d="M6.182 7.636c0-.803.651-1.454 1.454-1.454h16.728c.803 0 1.454.651 1.454 1.454v16.728c0 .803-.651 1.454-1.454 1.454H7.636a1.455 1.455 0 01-1.454-1.454V7.636zM9.09 9.455c0-.201.163-.364.364-.364h2.181c.201 0 .364.163.364.364v2.181c0 .201-.163.364-.364.364H9.455a.364.364 0 01-.364-.364V9.455zm4-.364c-.2 0-.364.163-.364.364v2.181c0 .201.163.364.364.364h2.182c.2 0 .363-.163.363-.364V9.455c0-.201-.162-.364-.363-.364H13.09zm3.273.364c0-.201.162-.364.363-.364h2.182c.201 0 .364.163.364.364v2.181c0 .201-.163.364-.364.364h-2.182a.364.364 0 01-.363-.364V9.455zm-6.91 3.272c-.2 0-.363.163-.363.364v2.182c0 .2.163.363.364.363h2.181c.201 0 .364-.162.364-.363V13.09c0-.2-.163-.364-.364-.364H9.455zm3.273.364c0-.2.163-.364.364-.364h2.182c.2 0 .363.163.363.364v2.182c0 .2-.162.363-.363.363H13.09a.364.364 0 01-.364-.363V13.09zm7.637-.364c-.201 0-.364.163-.364.364v2.182c0 .2.163.363.364.363h2.181c.201 0 .364-.162.364-.363V13.09c0-.2-.163-.364-.363-.364h-2.182zm-11.273 4c0-.2.163-.363.364-.363h2.181c.201 0 .364.162.364.363v2.182c0 .2-.163.364-.364.364H9.455a.364.364 0 01-.364-.364v-2.182zm7.636-.363c-.2 0-.363.162-.363.363v2.182c0 .2.162.364.363.364h2.182c.201 0 .364-.163.364-.364v-2.182c0-.2-.163-.363-.364-.363h-2.182zm3.273.363c0-.2.163-.363.364-.363h2.181c.201 0 .364.162.364.363v2.182c0 .2-.163.364-.363.364h-2.182a.364.364 0 01-.364-.364v-2.182zM13.091 20c-.2 0-.364.163-.364.364v2.181c0 .201.163.364.364.364h2.182c.2 0 .363-.163.363-.363v-2.182c0-.201-.162-.364-.363-.364H13.09zm3.273.364c0-.201.162-.364.363-.364h2.182c.201 0 .364.163.364.364v2.181c0 .201-.163.364-.364.364h-2.182a.364.364 0 01-.363-.363v-2.182zm4-.364c-.201 0-.364.163-.364.364v2.181c0 .201.163.364.364.364h2.181c.201 0 .364-.163.364-.363v-2.182c0-.201-.163-.364-.363-.364h-2.182z" clip-rule="evenodd"/>
</svg>