<svg xmlns="http://www.w3.org/2000/svg" fill="none" viewBox="0 0 108 108">
	<path fill="#F7F8F9" d="M54 10a8.003 8.003 0 00-7.468 5.126 8.003 8.003 0 00-14.036 6.052 8.003 8.003 0 00-10.58 11.626 8.003 8.003 0 00-6.875 13.761 8.003 8.003 0 00.358 15.003 8.003 8.003 0 005.373 14.416 8.003 8.003 0 0012.117 9.642 8.003 8.003 0 0013.551 6.998 8.003 8.003 0 0015.34-.749 8.003 8.003 0 0014.204-5.647 8.003 8.003 0 0010.778-10.005 8.003 8.003 0 004.991-14.416 8.003 8.003 0 00.39-15.517 8.003 8.003 0 00-6.32-13.794 8.003 8.003 0 00-9.498-11.724A8.003 8.003 0 0061.73 15.93 8.004 8.004 0 0054 10z"/>
	<path fill="#0B63CE" fill-rule="evenodd" d="M27 31a4 4 0 014-4h46a4 4 0 014 4v46a4 4 0 01-4 4H31a4 4 0 01-4-4V31zm8 5a1 1 0 011-1h6a1 1 0 011 1v6a1 1 0 01-1 1h-6a1 1 0 01-1-1v-6zm11-1a1 1 0 00-1 1v6a1 1 0 001 1h6a1 1 0 001-1v-6a1 1 0 00-1-1h-6zm9 1a1 1 0 011-1h6a1 1 0 011 1v6a1 1 0 01-1 1h-6a1 1 0 01-1-1v-6zm-19 9a1 1 0 00-1 1v6a1 1 0 001 1h6a1 1 0 001-1v-6a1 1 0 00-1-1h-6zm9 1a1 1 0 011-1h6a1 1 0 011 1v6a1 1 0 01-1 1h-6a1 1 0 01-1-1v-6zm21-1a1 1 0 00-1 1v6a1 1 0 001 1h6a1 1 0 001-1v-6a1 1 0 00-1-1h-6zM35 56a1 1 0 011-1h6a1 1 0 011 1v6a1 1 0 01-1 1h-6a1 1 0 01-1-1v-6zm21-1a1 1 0 00-1 1v6a1 1 0 001 1h6a1 1 0 001-1v-6a1 1 0 00-1-1h-6zm9 1a1 1 0 011-1h6a1 1 0 011 1v6a1 1 0 01-1 1h-6a1 1 0 01-1-1v-6zm-19 9a1 1 0 00-1 1v6a1 1 0 001 1h6a1 1 0 001-1v-6a1 1 0 00-1-1h-6zm9 1a1 1 0 011-1h6a1 1 0 011 1v6a1 1 0 01-1 1h-6a1 1 0 01-1-1v-6zm11-1a1 1 0 00-1 1v6a1 1 0 001 1h6a1 1 0 001-1v-6a1 1 0 00-1-1h-6z" clip-rule="evenodd"/>
</svg>