<svg width="108" height="108" fill="none" xmlns="http://www.w3.org/2000/svg"><path d="M54 10a8.003 8.003 0 0 0-7.468 5.126 8.003 8.003 0 0 0-14.036 6.052 8.003 8.003 0 0 0-10.58 11.626 8.003 8.003 0 0 0-6.875 13.761 8.003 8.003 0 0 0 .358 15.003 8.003 8.003 0 0 0 5.373 14.416 8.003 8.003 0 0 0 12.117 9.642 8.003 8.003 0 0 0 13.551 6.998 8.003 8.003 0 0 0 15.34-.749 8.003 8.003 0 0 0 14.204-5.647 8.003 8.003 0 0 0 10.778-10.005 8.003 8.003 0 0 0 4.991-14.416 8.003 8.003 0 0 0 .39-15.517 8.003 8.003 0 0 0-6.32-13.794 8.003 8.003 0 0 0-9.498-11.724A8.003 8.003 0 0 0 61.73 15.93 8.004 8.004 0 0 0 54 10z" fill="#F7F8F9"/><path fill-rule="evenodd" clip-rule="evenodd" d="M27 31a4 4 0 0 1 4-4h46a4 4 0 0 1 4 4v46a4 4 0 0 1-4 4H31a4 4 0 0 1-4-4V31zm8 5a1 1 0 0 1 1-1h6a1 1 0 0 1 1 1v6a1 1 0 0 1-1 1h-6a1 1 0 0 1-1-1v-6zm11-1a1 1 0 0 0-1 1v6a1 1 0 0 0 1 1h6a1 1 0 0 0 1-1v-6a1 1 0 0 0-1-1h-6zm9 1a1 1 0 0 1 1-1h6a1 1 0 0 1 1 1v6a1 1 0 0 1-1 1h-6a1 1 0 0 1-1-1v-6zm-19 9a1 1 0 0 0-1 1v6a1 1 0 0 0 1 1h6a1 1 0 0 0 1-1v-6a1 1 0 0 0-1-1h-6zm9 1a1 1 0 0 1 1-1h6a1 1 0 0 1 1 1v6a1 1 0 0 1-1 1h-6a1 1 0 0 1-1-1v-6zm21-1a1 1 0 0 0-1 1v6a1 1 0 0 0 1 1h6a1 1 0 0 0 1-1v-6a1 1 0 0 0-1-1h-6zM35 56a1 1 0 0 1 1-1h6a1 1 0 0 1 1 1v6a1 1 0 0 1-1 1h-6a1 1 0 0 1-1-1v-6zm21-1a1 1 0 0 0-1 1v6a1 1 0 0 0 1 1h6a1 1 0 0 0 1-1v-6a1 1 0 0 0-1-1h-6zm9 1a1 1 0 0 1 1-1h6a1 1 0 0 1 1 1v6a1 1 0 0 1-1 1h-6a1 1 0 0 1-1-1v-6zm-19 9a1 1 0 0 0-1 1v6a1 1 0 0 0 1 1h6a1 1 0 0 0 1-1v-6a1 1 0 0 0-1-1h-6zm9 1a1 1 0 0 1 1-1h6a1 1 0 0 1 1 1v6a1 1 0 0 1-1 1h-6a1 1 0 0 1-1-1v-6zm11-1a1 1 0 0 0-1 1v6a1 1 0 0 0 1 1h6a1 1 0 0 0 1-1v-6a1 1 0 0 0-1-1h-6z" fill="#0B63CE"/></svg>