<svg
	fill="none"
	height="108"
	viewBox="0 0 92 108"
	width="92"
	xmlns="http://www.w3.org/2000/svg"
>
	<path
		d="m19.6829 15.9952c-14.48517 14.5433-5.3031 39.5087 15.1381 41.1297 3.8124.294 7.3934-.2608 10.9543-1.7176l3.7627 3.7784c.6014.6169 1.407.9567 2.2679.9567.5612 0 1.0955-.1576 1.5749-.4285l9.8106 11.3865c3.0227 3.5163 8.4576 3.8151 11.8239.4336 3.3701-3.3836 3.0373-8.8305-.4326-11.8714l-11.3545-9.8374c.6717-1.2171.5116-2.7898-.5183-3.8471l-3.7737-3.7759c3.9215-9.6342 1.3195-21.1874-7.3459-28.0647v-3.9842h1.2949.0144c.6057.0166 1.1188-.49138 1.1188-1.10825 0-.34776-.1595-.65872-.4096-.86146l-5.9478-7.275512c-.1797-.279209-.4765-.464635-.8092-.499994-.3672-.037517-.7351.110392-.9715.398985l-6.1513 7.535241c-.1763.21664-.2512.48701-.2383.75621-7.2347-.851-14.5609 1.62868-19.8078 6.89668zm1.5608 1.567c5.4082-5.4299 13.2455-7.59742 20.634-5.7841v5.3043h-6.3863c-.6093 0-1.1038.4964-1.1038 1.1083v8.1708h-6.4013c-.6093 0-1.1037.4964-1.1037 1.1082v8.2005h-6.387c-.6093 0-1.1037.4964-1.1037 1.1082v9.6602c-6.5877-8.6028-5.9834-21.0097 1.8518-28.8764zm15.3515 37.4275v-35.6908h5.2825v35.0678c-1.6204.3731-3.2088.6347-5.2825.623zm-7.5051-1.3741v-16.8372-8.2004h5.2825v26.2917c-1.9903-.2146-3.6091-.6333-5.2825-1.2541zm-7.4907-4.6948v-11.0342h5.2832v14.776c-1.9184-.9648-3.6567-2.18-5.2832-3.7418zm51.3348 20.5238c-2.1453 2.1539-5.5973 1.9561-7.5158-.2763l-9.8621-11.4465 5.6884-5.7113 11.4093 9.8844c2.2535 1.974 2.3803 5.4411.2802 7.5497zm-12.3039-20.9968-.5001.5021c-.1742.1749-8.526 8.561-8.1088 8.1421-.2651.2633-.3514.0562-.3916.0151l-2.7623-2.7741c3.6722-2.1302 6.8182-5.2519 8.9883-9.0389l2.763 2.7641c.1128.1154.1171.2828.0115.3896zm-3.7955-6.9421c-.2985.1463-.5457.3868-.69.6961-1.1288 2.4157-2.6043 4.4833-4.5545 6.375v-31.5224c6.7738 6.3326 8.6857 16.1653 5.2445 24.4513zm-10.1044-38.24268 3.8208 4.67382h-.0647c-.6094 0-1.1038.49639-1.1038 1.10821v41.40355c-3.1208 2.3108-3.8087 1.8994-4.2823 2.8472-.3361.1406-.6718.2821-1.0152.4052 0-25.0668 0-19.5883 0-44.65595 0-.61182-.4944-1.10821-1.1038-1.10821h-.0668z"
		fill="currentColor"
	/>
</svg>
