<svg xmlns="http://www.w3.org/2000/svg" fill="currentColor" viewBox="0 0 92 108">
	<path d="M19.683 15.995C5.198 30.54 14.38 55.504 34.82 57.125c3.812.294 7.393-.26 10.954-1.718l3.763 3.779a3.143 3.143 0 002.268.956c.561 0 1.095-.157 1.575-.428L63.19 71.1c3.023 3.517 8.458 3.815 11.824.434 3.37-3.384 3.038-8.83-.432-11.871l-11.355-9.838a3.261 3.261 0 00-.518-3.847l-3.774-3.776c3.922-9.634 1.32-21.187-7.346-28.065v-3.984H52.9c.605.017 1.118-.491 1.118-1.108 0-.348-.16-.659-.41-.861L47.662.908a1.102 1.102 0 00-1.78-.1l-6.152 7.534a1.105 1.105 0 00-.238.757 24.002 24.002 0 00-19.808 6.896zm1.56 1.567a21.793 21.793 0 0120.635-5.784v5.304H35.49c-.609 0-1.103.497-1.103 1.109v8.17h-6.402c-.609 0-1.103.497-1.103 1.109v8.2h-6.387c-.61 0-1.104.497-1.104 1.108v9.66c-6.588-8.602-5.983-21.01 1.852-28.876zM36.596 54.99V19.299h5.283v35.068c-1.62.373-3.21.634-5.283.623zm-7.505-1.374V28.578h5.283V54.87a21.046 21.046 0 01-5.283-1.254zM21.6 48.92V37.887h5.283v14.776a21.42 21.42 0 01-5.284-3.742zm51.334 20.524c-2.145 2.154-5.597 1.956-7.516-.277l-9.862-11.446 5.689-5.711 11.409 9.884c2.254 1.974 2.38 5.441.28 7.55zM60.63 48.448l-.5.502-8.109 8.142c-.265.263-.351.056-.391.015l-2.762-2.774a24.67 24.67 0 008.988-9.039l2.763 2.764c.113.116.117.283.011.39zm-3.795-6.942a1.47 1.47 0 00-.69.696c-1.129 2.416-2.604 4.483-4.555 6.375V17.054c6.774 6.333 8.686 16.166 5.245 24.452zM46.73 3.263l3.821 4.674h-.064c-.61 0-1.104.496-1.104 1.108V50.45c-3.121 2.31-3.809 1.899-4.283 2.847-.336.14-.671.282-1.015.405V9.045c0-.612-.494-1.108-1.104-1.108h-.066z"/>
</svg>