<svg
	fill="none"
	height="80"
	viewBox="0 0 80 80"
	width="80"
	xmlns="http://www.w3.org/2000/svg"
>
	<path
		d="m10.4092 50.4097c5.4026 0 9.8543-4.1377 10.3595-9.4097h3.6833c.2266 3.5475 1.6374 6.7705 3.8497 9.2839l-2.6072 2.6078c-4.086-3.3711-10.1596-3.1482-13.9787.6713-4.05857 4.0586-4.05857 10.6626 0 14.7212 2.0293 2.0293 4.6953 3.0439 7.3604 3.0439 2.666 0 5.332-1.0146 7.3613-3.0439 3.819-3.82 4.041-9.8933.6711-13.9784l2.6072-2.6078c2.5134 2.2125 5.7365 3.6234 9.2842 3.85v3.6833c-5.2716.5053-9.4092 4.9569-9.4092 10.359 0 5.7398 4.6699 10.4097 10.4092 10.4097s10.4092-4.6699 10.4092-10.4097c0-5.4021-4.1376-9.8537-9.4092-10.359v-3.6833c3.5477-.2266 6.7708-1.6375 9.2842-3.85l2.6072 2.6078c-3.3699 4.0851-3.1479 10.1584.6711 13.9784 2.0293 2.0293 4.6953 3.0444 7.3604 3.0444 2.666 0 5.332-1.0151 7.3613-3.0444 4.0586-4.0586 4.0586-10.6626 0-14.7212-3.8199-3.8204-9.8935-4.0416-13.9787-.6713l-2.6072-2.6078c2.2123-2.5134 3.6231-5.7364 3.8497-9.2839h3.6833c.5052 5.272 4.9569 9.4097 10.3595 9.4097 5.7393 0 10.4092-4.67 10.4092-10.4097s-4.6699-10.4097-10.4092-10.4097c-5.4026 0-9.8543 4.1377-10.3595 9.4097h-3.6833c-.2266-3.5475-1.6374-6.7705-3.8497-9.2839l2.6071-2.6078c1.915 1.5801 4.2658 2.3731 6.6175 2.3731 2.666 0 5.332-1.0151 7.3613-3.0444 4.0586-4.0586 4.0586-10.6626 0-14.7212-4.0586-4.05906-10.6631-4.05809-14.7217 0-3.819 3.82-4.041 9.8933-.6711 13.9784l-2.6072 2.6078c-2.5134-2.2125-5.7365-3.6234-9.2842-3.85v-3.6833c5.2716-.5053 9.4092-4.9569 9.4092-10.359 0-5.73978-4.6699-10.4097-10.4092-10.4097s-10.4092 4.66992-10.4092 10.4097c0 5.4021 4.1376 9.8537 9.4092 10.359v3.6833c-3.5477.2266-6.7708 1.6375-9.2842 3.85l-2.6072-2.6078c3.3699-4.0851 3.1479-10.1584-.6711-13.9784-4.0596-4.05906-10.6641-4.05809-14.7217 0-4.05857 4.0586-4.05857 10.6626 0 14.7212 2.0293 2.0293 4.6953 3.044 7.3604 3.044 2.3524 0 4.7034-.7927 6.6184-2.3727l2.6071 2.6078c-2.2123 2.5134-3.6231 5.7364-3.8497 9.2839h-3.6833c-.5052-5.272-4.9569-9.4097-10.3595-9.4097-5.73928 0-10.4092 4.67-10.4092 10.4097s4.66992 10.4097 10.4092 10.4097zm14.6142 16.4604c-3.2802 3.2803-8.6152 3.2783-11.8935 0-3.27931-3.2788-3.27931-8.6142 0-11.893 1.6396-1.6397 3.793-2.459 5.9472-2.459 2.1534 0 4.3067.8198 5.9463 2.459 3.2784 3.2788 3.2784 8.6142 0 11.893zm23.3858 2.7202c0 4.6372-3.7725 8.4097-8.4092 8.4097s-8.4092-3.7725-8.4092-8.4097 3.7725-8.4096 8.4092-8.4096 8.4092 3.7724 8.4092 8.4096zm18.4609-14.6132c3.2793 3.2788 3.2793 8.6142 0 11.893-3.2783 3.2788-8.6133 3.2808-11.8935 0-3.2784-3.2788-3.2784-8.6142 0-11.893 3.2802-3.2803 8.6152-3.2784 11.8935 0zm2.7207-23.3868c4.6367 0 8.4092 3.7725 8.4092 8.4097s-3.7725 8.4097-8.4092 8.4097c-4.6377 0-8.4101-3.7725-8.4101-8.4097s3.7724-8.4097 8.4101-8.4097zm-14.6142-18.4604c1.6396-1.6397 3.7929-2.459 5.9463-2.459 2.1542 0 4.3076.8193 5.9472 2.459 3.2793 3.2788 3.2793 8.6142 0 11.893-3.2783 3.2793-8.6133 3.2793-11.8935 0-3.2784-3.2788-3.2784-8.6142 0-11.893zm-23.3858-2.7202c0-4.63724 3.7725-8.4097 8.4092-8.4097s8.4092 3.77246 8.4092 8.4097c0 4.6372-3.7725 8.4096-8.4092 8.4096s-8.4092-3.7724-8.4092-8.4096zm-18.4609 14.6132c-3.27931-3.2788-3.27931-8.6142 0-11.893 1.6396-1.6397 3.793-2.459 5.9472-2.459 2.1534 0 4.3067.8193 5.9463 2.459 3.2784 3.2788 3.2784 8.6142 0 11.893-3.2802 3.2798-8.6152 3.2789-11.8935 0zm26.8701 1.3785c7.498 0 13.5986 6.1001 13.5986 13.5986s-6.1006 13.5986-13.5986 13.5986-13.5986-6.1001-13.5986-13.5986 6.1006-13.5986 13.5986-13.5986zm-29.5908 5.1889c4.6377 0 8.4101 3.7725 8.4101 8.4097s-3.7724 8.4097-8.4101 8.4097c-4.63674 0-8.4092-3.7725-8.4092-8.4097s3.77246-8.4097 8.4092-8.4097z"
		fill="currentColor"
	/>
</svg>
