<svg xmlns="http://www.w3.org/2000/svg" fill="currentColor" viewBox="0 0 80 80">
	<path d="M10.41 50.41c5.402 0 9.854-4.138 10.359-9.41h3.683a15.512 15.512 0 003.85 9.284l-2.607 2.608c-4.087-3.371-10.16-3.149-13.98.671-4.058 4.059-4.058 10.663 0 14.721a10.378 10.378 0 007.361 3.044c2.666 0 5.332-1.014 7.361-3.044 3.82-3.82 4.041-9.893.672-13.978l2.607-2.608A15.511 15.511 0 0039 55.548v3.683c-5.272.506-9.41 4.957-9.41 10.36C29.59 75.33 34.26 80 40 80s10.41-4.67 10.41-10.41c0-5.402-4.138-9.853-9.41-10.359v-3.683a15.511 15.511 0 009.284-3.85l2.607 2.608c-3.37 4.085-3.148 10.158.672 13.978a10.378 10.378 0 007.36 3.045c2.666 0 5.332-1.015 7.361-3.045 4.059-4.058 4.059-10.662 0-14.721-3.82-3.82-9.893-4.042-13.979-.671l-2.607-2.608A15.512 15.512 0 0055.548 41h3.683c.505 5.272 4.957 9.41 10.36 9.41C75.33 50.41 80 45.74 80 40s-4.67-10.41-10.41-10.41c-5.402 0-9.854 4.138-10.359 9.41h-3.683a15.512 15.512 0 00-3.85-9.284l2.607-2.608a10.382 10.382 0 006.618 2.373c2.666 0 5.332-1.015 7.361-3.044 4.059-4.059 4.059-10.663 0-14.721-4.058-4.06-10.663-4.058-14.722 0-3.819 3.82-4.04 9.893-.67 13.978l-2.608 2.608A15.511 15.511 0 0041 24.452v-3.683c5.272-.506 9.41-4.957 9.41-10.36C50.41 4.67 45.74 0 40 0S29.59 4.67 29.59 10.41c0 5.402 4.138 9.853 9.41 10.359v3.683a15.511 15.511 0 00-9.284 3.85l-2.607-2.608c3.37-4.085 3.147-10.158-.672-13.978-4.06-4.06-10.664-4.058-14.721 0-4.059 4.058-4.059 10.662 0 14.721a10.378 10.378 0 007.36 3.044c2.353 0 4.704-.793 6.619-2.373l2.607 2.608A15.512 15.512 0 0024.452 39h-3.683c-.505-5.272-4.957-9.41-10.36-9.41C4.67 29.59 0 34.26 0 40s4.67 10.41 10.41 10.41zm14.613 16.46c-3.28 3.28-8.615 3.278-11.893 0-3.28-3.279-3.28-8.614 0-11.893a8.383 8.383 0 015.947-2.459c2.153 0 4.307.82 5.946 2.46 3.279 3.278 3.279 8.613 0 11.892zm23.386 2.72C48.41 74.228 44.637 78 40 78c-4.637 0-8.41-3.772-8.41-8.41 0-4.637 3.773-8.41 8.41-8.41 4.637 0 8.41 3.773 8.41 8.41zM66.87 54.977c3.28 3.279 3.28 8.614 0 11.893-3.278 3.279-8.613 3.28-11.893 0-3.279-3.279-3.279-8.614 0-11.893 3.28-3.28 8.615-3.278 11.893 0zm2.72-23.387c4.638 0 8.41 3.773 8.41 8.41 0 4.637-3.772 8.41-8.41 8.41-4.637 0-8.41-3.773-8.41-8.41 0-4.637 3.773-8.41 8.41-8.41zM54.978 13.13a8.382 8.382 0 015.946-2.46c2.154 0 4.308.82 5.947 2.46 3.28 3.279 3.28 8.614 0 11.893-3.278 3.28-8.613 3.28-11.893 0-3.279-3.279-3.279-8.614 0-11.893zM31.59 10.41C31.59 5.772 35.363 2 40 2c4.637 0 8.41 3.772 8.41 8.41 0 4.637-3.773 8.41-8.41 8.41-4.637 0-8.41-3.773-8.41-8.41zM13.13 25.023c-3.28-3.279-3.28-8.614 0-11.893a8.383 8.383 0 015.947-2.46c2.153 0 4.307.82 5.946 2.46 3.279 3.279 3.279 8.614 0 11.893-3.28 3.28-8.615 3.279-11.893 0zM40 26.4c7.498 0 13.599 6.1 13.599 13.599 0 7.498-6.101 13.599-13.599 13.599S26.401 47.499 26.401 40c0-7.498 6.101-13.599 13.599-13.599zm-29.59 5.19c4.637 0 8.41 3.772 8.41 8.409 0 4.637-3.773 8.41-8.41 8.41C5.771 48.41 2 44.637 2 40c0-4.637 3.772-8.41 8.41-8.41z"/>
</svg>