<svg xmlns="http://www.w3.org/2000/svg" viewBox="0 0 168 171">
	<g fill="none" fill-rule="evenodd" transform="translate(4 4)">
		<path fill="#FFF" d="M3 112l16 26 18-4 16 4 18-26z"/>
		<path fill="#53E6C1" d="M23 136l13 19 13-19z"/>
		<path stroke="#0B5FFF" stroke-linejoin="round" stroke-width="8" d="M53.044 138.278A35.84 35.84 0 0036.008 134a35.846 35.846 0 00-16.508 4"/>
		<path stroke="#0B5FFF" stroke-width="8" d="M36 160l36-48V36C72 16.118 55.882 0 36 0S0 16.118 0 36v76l36 48z"/>
		<path fill="#E1EBFF" stroke="#0B5FFF" stroke-width="8" d="M88 160h72V0H88z"/>
		<path stroke="#0B5FFF" stroke-linecap="square" stroke-width="8" d="M88 96h40M88 128h40M88 64h40"/>
		<circle cx="133.5" cy="29.5" r="13.5" fill="#53E6C1" stroke="#0B5FFF" stroke-width="8" transform="matrix(1 0 0 -1 0 59)"/>
		<path stroke="#0B5FFF" stroke-linecap="square" stroke-width="8" d="M24 44v64M48 44v64"/>
		<path stroke="#0B5FFF" stroke-width="8" d="M0 40h72M0 110h72"/>
	</g>
</svg>