<?xml version="1.0" encoding="UTF-8"?>
<svg width="100%" height="100%" viewBox="0 0 168 171" version="1.1" xmlns="http://www.w3.org/2000/svg" xmlns:xlink="http://www.w3.org/1999/xlink">
    <!-- Generator: Sketch 50.2 (55047) - http://www.bohemiancoding.com/sketch -->
    <title>Group</title>
    <desc>Created with Sketch.</desc>
    <defs></defs>
    <g id="Page-1" stroke="none" stroke-width="1" fill="none" fill-rule="evenodd">
        <g id="Canvas-Copy-65" transform="translate(-12.000000, -12.000000)">
            <g id="Group" transform="translate(16.000000, 16.000000)">
                <polygon id="Path-2" fill="#FFFFFF" points="3 112 19 138 37 134 53 138 71 112"></polygon>
                <polygon id="Path-46" fill="#CC6677" points="23 136 36 155 49 136"></polygon>
                <path d="M53.0442768,138.27835 C47.9725002,135.548771 42.1710245,134 36.0078139,134 C30.0576872,134 24.4447149,135.44353 19.5,137.999486" id="Combined-Shape-Copy-2" stroke="#414456" stroke-width="8" stroke-linejoin="round"></path>
                <path d="M36,160 L72,112 L72,36 C72,16.117749 55.882251,0 36,0 C16.117749,0 0,16.117749 0,36 L0,112 L36,160 Z" id="Path-47" stroke="#414456" stroke-width="8"></path>
                <rect id="Rectangle-7-Copy-13" stroke="#414456" stroke-width="8" fill="#DCDCDF" transform="translate(124.000000, 80.000000) scale(1, -1) translate(-124.000000, -80.000000) " x="88" y="0" width="72" height="160"></rect>
                <path d="M88,96 L128,96" id="Line-Copy-2" stroke="#414456" stroke-width="8" stroke-linecap="square"></path>
                <path d="M88,128 L128,128" id="Line-Copy-4" stroke="#414456" stroke-width="8" stroke-linecap="square"></path>
                <path d="M88,64 L128,64" id="Line-Copy-7" stroke="#414456" stroke-width="8" stroke-linecap="square"></path>
                <circle id="Oval-2-Copy-21" stroke="#414456" stroke-width="8" fill="#CC6677" transform="translate(133.500000, 29.500000) scale(1, -1) translate(-133.500000, -29.500000) " cx="133.5" cy="29.5" r="13.5"></circle>
                <path d="M24,44 L24,108" id="Line" stroke="#414456" stroke-width="8" stroke-linecap="square"></path>
                <path d="M48,44 L48,108" id="Line-Copy" stroke="#414456" stroke-width="8" stroke-linecap="square"></path>
                <path d="M0,40 L72,40" id="Line-Copy-3" stroke="#414456" stroke-width="8"></path>
                <path d="M0,110 L72,110" id="Line-Copy-6" stroke="#414456" stroke-width="8"></path>
            </g>
        </g>
    </g>
</svg>