<svg
	fill="none"
	height="100"
	viewBox="0 0 81 100"
	width="81"
	xmlns="http://www.w3.org/2000/svg"
>
	<g fill="currentColor">
		<path
			d="m49.9951 34.9795c-.0112-7.1582-5.8388-12.9795-13-12.9795-7.1685 0-13 5.8315-13 13 0 6.3716 4.5796 11.7432 10.7769 12.8062.3379 4.5796-3.4448 8.4473-3.4854 8.4878-.3198.3223-.3833.8193-.1538 1.2109.1826.312.5142.4951.8628.4951.0889 0 .1787-.0117.2671-.0366 18.1455-5.0401 17.7686-22.0537 17.7324-22.9839zm-15.2305 20.0239c1.2285-2.0098 2.4482-4.9619 1.8926-8.2466-.0742-.4409-.4321-.7788-.8765-.8276-5.5786-.6128-9.7856-5.3115-9.7856-10.9292 0-6.0654 4.9346-11 11-11s11 4.9346 11 11c0 .0195.0005.0391.002.0586.0088.1518.6631 14.2671-13.2325 19.9448z"
		/>
		<path
			d="m79.9951 34.9795c-.0112-7.1582-5.8388-12.9795-13-12.9795-7.1685 0-13 5.8315-13 13 0 6.3716 4.5796 11.7432 10.7769 12.8062.3379 4.5796-3.4448 8.4473-3.4854 8.4878-.3198.3223-.3833.8193-.1538 1.2109.1826.312.5142.4951.8628.4951.0889 0 .1787-.0117.2671-.0366 18.1455-5.0401 17.7686-22.0537 17.7324-22.9839zm-15.2305 20.0239c1.2285-2.0098 2.4482-4.9619 1.8926-8.2466-.0742-.4409-.4321-.7788-.8765-.8276-5.5786-.6128-9.7856-5.3115-9.7856-10.9292 0-6.0654 4.9346-11 11-11s11 4.9346 11 11c0 .0195.0005.0391.002.0586.0088.1518.6631 14.2671-13.2325 19.9448z"
		/>
	</g>
</svg>
