<svg xmlns="http://www.w3.org/2000/svg" fill="currentColor" viewBox="0 0 81 100">
	<path d="M49.995 34.98c-.011-7.159-5.839-12.98-13-12.98-7.168 0-13 5.832-13 13 0 6.372 4.58 11.743 10.777 12.806.338 4.58-3.445 8.448-3.485 8.488a1 1 0 00.976 1.67C50.408 52.923 50.03 35.91 49.995 34.98zm-15.23 20.023c1.228-2.01 2.448-4.962 1.892-8.246a1 1 0 00-.876-.828A10.977 10.977 0 0125.995 35c0-6.065 4.935-11 11-11s11 4.935 11 11c0 .02 0 .04.002.059.009.151.663 14.267-13.232 19.944zM79.995 34.98c-.011-7.159-5.839-12.98-13-12.98-7.168 0-13 5.832-13 13 0 6.372 4.58 11.743 10.777 12.806.338 4.58-3.445 8.448-3.485 8.488a1 1 0 00.976 1.67C80.408 52.923 80.03 35.91 79.995 34.98zm-15.23 20.023c1.228-2.01 2.448-4.962 1.892-8.246a1 1 0 00-.876-.828A10.977 10.977 0 0155.995 35c0-6.065 4.935-11 11-11s11 4.935 11 11c0 .02 0 .04.002.059.009.151.663 14.267-13.232 19.944z"/>
</svg>