<svg xmlns="http://www.w3.org/2000/svg" fill="none" viewBox="0 0 32 32">
    <path fill="currentColor" d="M23.43 4.17c-.34.34-.59.75-.74 1.17 0 0-.55 1.66-2.42-.2L15.14 0l-4.2 4.2c-1.87 1.87-.21 2.42-.21 2.42a3.14 3.14 0 011.17 5.18 3.15 3.15 0 01-5.19-1.17s-.54-1.66-2.42.21L0 15.14l5.13 5.12c1.88 1.88.21 2.43.21 2.43a3.14 3.14 0 00-1.17 5.19 3.14 3.14 0 005.19-1.18s.54-1.66 2.42.22L16.86 32l4.3-4.29c1.87-1.88.21-2.43.21-2.43a3.14 3.14 0 01-1.17-5.19 3.14 3.14 0 015.18 1.18s.55 1.66 2.43-.22L32 16.86l-5.09-5.08c-1.86-1.88-.2-2.42-.2-2.42a3.14 3.14 0 001.17-5.19 3.14 3.14 0 00-4.45 0z"/>
</svg>