<svg width="160" height="160" fill="none" xmlns="http://www.w3.org/2000/svg"><path fill-rule="evenodd" clip-rule="evenodd" d="M152 27.8V16a8 8 0 0 0-8-8H98.061a8 8 0 0 0-6.054 2.771L77.3 27.8H152z" fill="#C4CACB"/><path fill-rule="evenodd" clip-rule="evenodd" d="M8 35.8a8 8 0 0 1 8-8h136V148a4 4 0 0 1-4 4H16a8 8 0 0 1-8-8V35.8z" fill="#E8E8E7"/><path d="M87.2 51.7a4 4 0 1 0 0 8v-8zm43.2 8a4 4 0 0 0 0-8v8zm-43.2 9.1a4 4 0 0 0 0 8v-8zm28.8 8a4 4 0 0 0 0-8v8zM87.2 59.7h43.2v-8H87.2v8zm0 17.1H116v-8H87.2v8zM87.2 103.9a4 4 0 1 0 0 8v-8zm43.2 8a4 4 0 0 0 0-8v8zm-43.2 8.2a4 4 0 0 0 0 8v-8zm28.8 8a4 4 0 0 0 0-8v8zm-28.8-16.2h43.2v-8H87.2v8zm0 16.2H116v-8H87.2v8z" fill="#C4CACB"/><path fill-rule="evenodd" clip-rule="evenodd" d="M29.6 51.6a4 4 0 0 1 4-4H58a4 4 0 0 1 4 4V76a4 4 0 0 1-4 4H33.6a4 4 0 0 1-4-4V51.6zm0 52.2a4 4 0 0 1 4-4H58a4 4 0 0 1 4 4v24.4a4 4 0 0 1-4 4H33.6a4 4 0 0 1-4-4v-24.4z" fill="#C4CACB"/><path fill-rule="evenodd" clip-rule="evenodd" d="M39.392 60.366l3.442-3.33 8.85 8.56 18.682-18.072 3.442 3.33-22.125 21.4-12.291-11.888zm0 52.2l3.442-3.33 8.85 8.56 18.682-18.072 3.442 3.33-22.125 21.4-12.291-11.888z" fill="#0B63CE" stroke="#0B63CE" stroke-width="4" stroke-linecap="round" stroke-linejoin="round"/></svg>