<svg xmlns="http://www.w3.org/2000/svg" fill="currentColor" viewBox="0 0 78 81">
	<path d="M75.802 61.765h-8.275v-4.146c0-.746-.61-1.353-1.358-1.353h-6.602v-4.832h10.557c.75 0 1.359-.607 1.359-1.352V34.325c0-.745-.61-1.352-1.359-1.352H58.57v-4.146c0-.746-.61-1.353-1.358-1.353H40.415l-.044-4.832h14.446c.749 0 1.358-.607 1.358-1.352V2.11c0-.746-.61-1.353-1.358-1.353H23.183c-.749 0-1.358.607-1.358 1.352v19.18c0 .746.61 1.353 1.358 1.353h14.471l.045 4.832H20.784c-.748 0-1.358.607-1.358 1.353v4.146H7.872c-.748 0-1.358.607-1.358 1.352v15.757c0 .745.61 1.352 1.358 1.352h9.722v4.832h-5.767c-.748 0-1.358.607-1.358 1.353v4.146H2.198c-.749 0-1.358.607-1.358 1.352v16.374c0 .745.61 1.352 1.358 1.352H21.46c.749 0 1.358-.607 1.358-1.352V63.117c0-.745-.61-1.352-1.358-1.352h-8.275V58.97h24.457v2.794h-8.275c-.749 0-1.358.607-1.358 1.352v16.374c0 .745.61 1.352 1.358 1.352h19.262c.75 0 1.358-.607 1.358-1.352V63.117c0-.745-.609-1.352-1.358-1.352h-8.271V58.97h24.453v2.794H56.54c-.75 0-1.358.607-1.358 1.352v16.374c0 .745.61 1.352 1.358 1.352h19.262c.749 0 1.358-.607 1.358-1.352V63.117c0-.745-.61-1.352-1.358-1.352zM24.541 3.462h28.918v16.475H24.541zm-4.439 74.676H3.556V64.47h16.546v13.67zm27.17 0H30.724V64.47h16.546zM68.765 48.73H45.658V35.678h23.108V48.73zM9.23 35.678H32.34V48.73H9.23zm11.08 15.756h13.386c.75 0 1.359-.607 1.359-1.352V34.325c0-.745-.61-1.352-1.359-1.352H22.142v-2.794h33.711v2.794H44.3c-.749 0-1.358.607-1.358 1.352v15.757c0 .745.61 1.352 1.358 1.352H56.85v4.832h-36.54zm54.134 26.704H57.898V64.47h16.546z"/>
</svg>