<svg xmlns="http://www.w3.org/2000/svg" fill="currentColor" viewBox="0 0 74 80">
	<path d="M52.876 41.815c0 4.243 3.348 7.616 7.56 7.616s7.56-3.373 7.56-7.616-3.348-7.616-7.56-7.616c-4.104 0-7.56 3.372-7.56 7.616zm7.56 4.896c-2.7 0-4.86-2.176-4.86-4.896s2.16-4.896 4.86-4.896 4.86 2.176 4.86 4.896c0 2.61-2.16 4.896-4.86 4.896z"/>
	<path d="M61.84 51.933c-5.94 0-10.908 4.57-11.556 10.445-.54-1.088-1.08-2.176-1.404-2.938-.216-.544-.432-1.088-.648-1.523-.54-1.306-2.16-3.373-4.968-3.373l-.972-2.829h.108c.972-.326 1.728-1.088 2.16-1.958.432-.98.54-1.958.108-2.938l-1.188-3.481c-.54-1.523-2.052-2.611-3.672-2.611-.432 0-.864.108-1.296.217l-2.592.98c-.972.326-1.728 1.087-2.16 1.958-.432.979-.54 1.958-.108 2.937l1.296 3.482c.54 1.523 2.052 2.611 3.672 2.611.432 0 .864-.109 1.296-.217l.864 2.502c-.54.326-1.08.762-1.404 1.306-1.08 1.74-.648 3.808-.54 4.243.972 6.637 5.724 18.713 16.308 18.713h.864c.216 0 4.104-.435 8.208-2.393 2.16-1.088 4.428-2.611 6.156-4.787.216-.218.324-.544.54-.762v6.637c0 .761.648 1.305 1.296 1.305.756 0 1.296-.653 1.296-1.305v-14.47c0-6.42-5.292-11.751-11.664-11.751zm6.264 18.714c-2.808 3.59-7.452 5.113-10.26 5.766-1.296.326-2.268.435-2.268.435-1.08.109-2.16 0-3.132-.326-.864-.218-1.62-.544-2.376-.87-6.912-3.809-8.748-15.124-8.748-15.233v-.108c-.108-.327-.216-1.524.216-2.285.108-.218.324-.435.972-.653 2.268-.435 3.024 1.306 3.24 1.632v.109c.216.326.432.87.648 1.414 1.08 2.611 2.268 5.223 3.78 6.963.432.544.864.98 1.296 1.306s.864.544 1.296.762c.216.108.432.108.648.217.972.218 2.376 0 3.888-1.632 2.16-2.393 2.916-6.637 2.916-6.854v-.218c0-.653-.432-1.197-1.08-1.305-.756-.11-1.404.326-1.512 1.088-.216.979-.864 4.025-2.268 5.44-.864.87-1.296.761-1.512.761a2.873 2.873 0 01-1.08-.653v-2.72c0-5.004 3.996-9.03 8.964-9.03 3.888 0 7.236 2.611 8.424 6.093v.217c.648 3.808 0 7.072-2.052 9.684zM37.432 49.43l-1.296-3.482c-.108-.326-.108-.653 0-.87a.977.977 0 01.648-.653l2.592-.98c.108 0 .216-.108.432-.108.54 0 .972.326 1.08.761l1.296 3.482c.108.326.108.653 0 .87a.977.977 0 01-.648.653l-2.592.98c-.648.217-1.296-.11-1.512-.653zM13.24 48.56c4.212 0 7.56-3.373 7.56-7.616s-3.348-7.616-7.56-7.616-7.56 3.373-7.56 7.616 3.456 7.616 7.56 7.616zm0-12.512c2.7 0 4.86 2.176 4.86 4.896s-2.16 4.896-4.86 4.896-4.86-2.176-4.86-4.896 2.268-4.896 4.86-4.896zM31.6 59.549c.324-1.088.432-2.394-.216-3.7-.864-1.74-2.16-2.066-2.916-2.066-1.728-.11-3.24 1.196-3.996 2.393a5.806 5.806 0 01-1.62 1.632c-1.836-4.025-5.94-6.963-10.584-6.963-6.372 0-11.664 5.222-11.664 11.75v12.948c0 .761.648 1.305 1.296 1.305.756 0 1.296-.653 1.296-1.305v-9.466c1.512 3.155 3.996 6.093 6.588 7.834.54.326 1.08.652 1.728.979 1.944.979 4.104 1.414 6.156 1.414 1.512 0 3.024-.217 4.644-.653h.108c.324 0 .54-.108.756-.326 4.104-1.306 8.1-3.808 10.908-7.072 1.62-1.74 2.484-5.549 1.188-7.616-.324-.218-1.404-1.523-3.672-1.088zm-7.776 13.056c-.432.218-.864.326-1.296.435l-1.296.327c-3.456.761-6.912.435-9.828-1.415-3.888-2.72-7.668-8.704-6.804-13.056 0-.217.108-.435.108-.653v-.108-.327c1.62-2.393 4.32-4.025 7.452-4.025 3.78 0 6.912 2.284 8.316 5.657.216.435.324.87.432 1.306s.216.979.216 1.414v2.502c-1.836-.979-3.24-4.025-3.564-5.222-.216-.761-.972-1.088-1.728-.87-.54.217-.864.653-.864 1.088v.653c.216.652 2.16 6.201 6.156 7.18.216 0 .432.11.648.11h.756c.54 0 .972-.11 1.296-.218.756-.218 1.296-.653 1.728-.98.108-.108.216-.108.216-.217.432-.327.756-.653 1.296-.98.648-.326 1.188-.761 1.728-1.196.108-.109.324-.218.432-.327.864-.652 1.62-1.305 2.376-1.523 1.08-.326 1.296 0 1.404.109.54.87.108 3.373-.864 4.352-2.16 2.611-5.076 4.678-8.316 5.984zm4.536-16.102c.216 0 .432.326.648.652.324.653.216 1.415-.324 2.72-.432.87-.972 1.741-1.62 2.394-.324.326-.756.544-1.08.762-.648.435-1.188.761-1.62 1.088-.108.108-.216.108-.432.108v-1.632c0-.761-.108-1.414-.216-2.067 1.08-.761 2.16-1.632 3.024-2.937.432-.653 1.188-1.088 1.62-1.088zM40.888 28.759h7.668c5.508 0 9.936-4.461 9.936-10.119v-8.16c0-5.549-4.428-10.01-9.936-10.01h-25.38c-5.508 0-9.936 4.461-9.936 10.01v8.16c0 5.549 4.428 10.119 9.936 10.119h5.832c-.216 2.067-.648 5.548-.864 7.398-.108.435.108.762.324 1.088s.648.435.972.435c.108 0 8.208-.435 11.448-8.921zm-9.828 5.984c.432-2.938.756-6.964.756-7.181 0-.435-.108-.762-.324-1.088s-.648-.435-.972-.435h-7.344c-3.996 0-7.236-3.264-7.236-7.399v-8.16c0-4.026 3.24-7.398 7.236-7.398h25.38c3.996 0 7.344 3.264 7.344 7.398v8.16c0 4.026-3.24 7.399-7.344 7.399h-8.64c-.54 0-1.08.435-1.296.979-1.728 5.33-5.4 7.072-7.56 7.725z"/>
	<path d="M49.852 18.858c0-.762-.648-1.306-1.296-1.306H23.5c-.756 0-1.296.653-1.296 1.306s.648 1.305 1.296 1.305h24.948c.756 0 1.404-.544 1.404-1.305zM23.5 12.547h17.604c.756 0 1.296-.653 1.296-1.305 0-.762-.648-1.306-1.296-1.306H23.5c-.756 0-1.296.653-1.296 1.306-.108.652.54 1.305 1.296 1.305z"/>
</svg>