<svg fill="none" height="80" viewBox="0 0 74 80" width="74" xmlns="http://www.w3.org/2000/svg"><g fill="currentColor"><path d="m52.876 41.8145c0 4.2432 3.348 7.616 7.56 7.616s7.56-3.3728 7.56-7.616-3.348-7.616-7.56-7.616c-4.104 0-7.56 3.3728-7.56 7.616zm7.56 4.896c-2.7 0-4.86-2.176-4.86-4.896s2.16-4.896 4.86-4.896 4.86 2.176 4.86 4.896c0 2.6112-2.16 4.896-4.86 4.896z"/><path d="m61.84 51.933c-5.94 0-10.908 4.5696-11.556 10.4448-.54-1.088-1.08-2.176-1.404-2.9376-.216-.544-.432-1.088-.648-1.5232-.54-1.3056-2.16-3.3728-4.968-3.3728l-.972-2.8288h.108c.972-.3264 1.728-1.088 2.16-1.9584.432-.9792.54-1.9584.108-2.9376l-1.188-3.4816c-.54-1.5232-2.052-2.6112-3.672-2.6112-.432 0-.864.1088-1.296.2176l-2.592.9792c-.972.3264-1.728 1.088-2.16 1.9584-.432.9792-.54 1.9584-.108 2.9376l1.296 3.4816c.54 1.5232 2.052 2.6112 3.672 2.6112.432 0 .864-.1088 1.296-.2176l.864 2.5024c-.54.3264-1.08.7616-1.404 1.3056-1.08 1.7408-.648 3.808-.54 4.2432.972 6.6368 5.724 18.7136 16.308 18.7136h.864c.216 0 4.104-.4353 8.208-2.3936 2.16-1.088 4.428-2.6112 6.156-4.7872.216-.2176.324-.544.54-.7616v6.4192.2175c0 .7616.648 1.3057 1.296 1.3057.756 0 1.296-.6529 1.296-1.3057v-14.4703c0-6.4192-5.292-11.7504-11.664-11.7504zm6.264 18.7136c-2.808 3.5904-7.452 5.1136-10.26 5.7664-1.296.3264-2.268.4352-2.268.4352-1.08.1088-2.16 0-3.132-.3264-.864-.2176-1.62-.544-2.376-.8704-6.912-3.808-8.748-15.1232-8.748-15.232v-.1088c-.108-.3264-.216-1.5232.216-2.2848.108-.2176.324-.4352.972-.6528 2.268-.4352 3.024 1.3056 3.24 1.632v.1088c.216.3264.432.8704.648 1.4144 1.08 2.6112 2.268 5.2224 3.78 6.9632.432.544.864.9792 1.296 1.3056s.864.544 1.296.7616c.216.1088.432.1088.648.2176.972.2176 2.376 0 3.888-1.632 2.16-2.3936 2.916-6.6368 2.916-6.8544 0-.1088 0-.2176 0-.2176 0-.6528-.432-1.1968-1.08-1.3056-.756-.1088-1.404.3264-1.512 1.088-.216.9792-.864 4.0256-2.268 5.44-.864.8704-1.296.7616-1.512.7616-.324-.1088-.756-.3264-1.08-.6528v-2.72c0-5.0048 3.996-9.0304 8.964-9.0304 3.888 0 7.236 2.6112 8.424 6.0928v.1088.1088c.648 3.808 0 7.072-2.052 9.6832zm-30.672-21.216-1.296-3.4816c-.108-.3264-.108-.6528 0-.8704.108-.3264.324-.544.648-.6528l2.592-.9792c.108 0 .216-.1088.432-.1088.54 0 .972.3264 1.08.7616l1.296 3.4816c.108.3264.108.6528 0 .8704-.108.3264-.324.544-.648.6528l-2.592.9792c-.648.2176-1.296-.1088-1.512-.6528z"/><path d="m13.2402 48.5601c4.212 0 7.56-3.3728 7.56-7.616s-3.348-7.616-7.56-7.616c-4.21202 0-7.56002 3.3728-7.56002 7.616s3.456 7.616 7.56002 7.616zm0-12.512c2.7 0 4.86 2.176 4.86 4.896s-2.16 4.896-4.86 4.896-4.86002-2.176-4.86002-4.896 2.26802-4.896 4.86002-4.896z"/><path d="m31.6 59.549c.324-1.088.432-2.3936-.216-3.6992-.864-1.7408-2.16-2.0672-2.916-2.0672-1.728-.1088-3.24 1.1968-3.996 2.3936-.432.6528-.972 1.1968-1.62 1.632-1.836-4.0256-5.94-6.9632-10.584-6.9632-6.372 0-11.663996 5.2224-11.663996 11.7504v12.9472c0 .7616.647996 1.3056 1.295996 1.3056.756 0 1.296-.6528 1.296-1.3056v-.1088-9.3568c1.512 3.1552 3.996 6.0928 6.588 7.8336.54.3264 1.08.6528 1.728.9792 1.944.9792 4.104 1.4144 6.156 1.4144 1.512 0 3.024-.2176 4.644-.6528h.108c.324 0 .54-.1088.756-.3264 4.104-1.3056 8.1-3.808 10.908-7.072 1.62-1.7408 2.484-5.5488 1.188-7.616-.324-.2176-1.404-1.5232-3.672-1.088zm-7.776 13.056c-.432.2176-.864.3264-1.296.4352s-.864.2176-1.296.3264c-3.456.7616-6.912.4352-9.828-1.4144-3.888-2.72-7.668-8.704-6.804-13.056 0-.2176.108-.4352.108-.6528v-.1088c0-.1088 0-.2176 0-.3264 1.62-2.3936 4.32-4.0256 7.452-4.0256 3.78 0 6.912 2.2848 8.316 5.6576.216.4352.324.8704.432 1.3056s.216.9792.216 1.4144v.6528.1088 1.7408c-1.836-.9792-3.24-4.0256-3.564-5.2224-.216-.7616-.972-1.088-1.728-.8704-.54.2176-.864.6528-.864 1.088v.6528c.216.6528 2.16 6.2016 6.156 7.1808.216 0 .432.1088.648.1088h.756c.54 0 .972-.1088 1.296-.2176.756-.2176 1.296-.6528 1.728-.9792.108-.1088.216-.1088.216-.2176.432-.3264.756-.6528 1.296-.9792.648-.3264 1.188-.7616 1.728-1.1968.108-.1088.324-.2176.432-.3264.864-.6528 1.62-1.3056 2.376-1.5232 1.08-.3264 1.296 0 1.404.1088.54.8704.108 3.3728-.864 4.352-2.16 2.6112-5.076 4.6784-8.316 5.984zm4.536-16.1024c.216 0 .432.3264.648.6528.324.6528.216 1.4144-.324 2.72-.432.8704-.972 1.7408-1.62 2.3936-.324.3264-.756.544-1.08.7616-.648.4352-1.188.7616-1.62 1.088-.108.1088-.216.1088-.432.1088v-1.632c0-.7616-.108-1.4144-.216-2.0672 1.08-.7616 2.16-1.632 3.024-2.9376.432-.6528 1.188-1.088 1.62-1.088z"/><path d="m40.8882 28.7585h7.668c5.508 0 9.936-4.4608 9.936-10.1184v-8.16c0-5.54884-4.428-10.009641-9.936-10.009641h-25.38c-5.508 0-9.936 4.460801-9.936 10.009641v8.16c0 5.5488 4.428 10.1184 9.936 10.1184h5.832c-.216 2.0672-.648 5.5488-.864 7.3984-.108.4352.108.7616.324 1.088s.648.4352.972.4352c.108 0 8.208-.4352 11.448-8.9216zm-9.828 5.984c.432-2.9376.756-6.9632.756-7.1808 0-.4352-.108-.7616-.324-1.088s-.648-.4352-.972-.4352h-7.344c-3.996 0-7.236-3.264-7.236-7.3984v-8.16c0-4.02564 3.24-7.39844 7.236-7.39844h25.38c3.996 0 7.344 3.264 7.344 7.39844v8.16c0 4.0256-3.24 7.3984-7.344 7.3984h-8.64c-.54 0-1.08.4352-1.296.9792-1.728 5.3312-5.4 7.072-7.56 7.7248z"/><path d="m49.8521 18.8576c0-.7616-.648-1.3056-1.296-1.3056h-25.056c-.756 0-1.296.6528-1.296 1.3056s.648 1.3056 1.296 1.3056h24.948c.756 0 1.404-.544 1.404-1.3056z"/><path d="m23.5002 12.5472h17.604c.756 0 1.296-.6528 1.296-1.3056 0-.7616-.648-1.30556-1.296-1.30556h-17.604c-.756 0-1.296.65276-1.296 1.30556-.108.6528.54 1.3056 1.296 1.3056z"/></g></svg>