<svg xmlns="http://www.w3.org/2000/svg" fill="currentColor" viewBox="0 0 80 80">
	<path d="M21.314 26.958a.977.977 0 01-.977-.977v-4.614a1.456 1.456 0 00-1.454-1.454h-4.508a1.456 1.456 0 00-1.454 1.454v4.614a.977.977 0 01-1.953 0v-4.614a3.41 3.41 0 013.407-3.407h4.508a3.41 3.41 0 013.407 3.407v4.614a.977.977 0 01-.976.977z"/>
	<path d="M16.575 19.144a4.354 4.354 0 110-8.71 4.354 4.354 0 010 8.71zm0-6.758a2.402 2.402 0 100 4.803 2.402 2.402 0 000-4.802z"/>
	<path d="M16.575 4.153a12.275 12.275 0 1012.274 12.275A12.29 12.29 0 0016.575 4.153zm0 22.596a10.32 10.32 0 1110.321-10.321 10.333 10.333 0 01-10.321 10.321zM78.6.277H48.25a.976.976 0 00-.976.976v30.35a.977.977 0 00.977.976h13.624v10.039l-2.937-2.936a.977.977 0 00-1.38 1.38l4.603 4.604a.977.977 0 001.381 0l4.604-4.603a.977.977 0 00-1.381-1.381l-2.937 2.938V32.58H78.6a.977.977 0 00.977-.976V1.254A.977.977 0 0078.6.276zm-.977 30.349H49.227V2.23h28.396zM31.75 47.374H1.4a.976.976 0 00-.976.977V78.7a.977.977 0 00.976.977h30.35a.977.977 0 00.976-.977V48.35a.977.977 0 00-.977-.976zm-.977 30.35H2.377V49.327h28.396zM78.6 47.374H48.25a.977.977 0 00-.977.977v14.198h-10.04l2.936-2.936a.976.976 0 10-1.381-1.382l-4.604 4.604a.977.977 0 000 1.381l4.604 4.604a.977.977 0 001.381-1.381l-2.936-2.937h10.04V78.7a.977.977 0 00.977.977h30.35a.977.977 0 00.976-.977V48.35a.976.976 0 00-.977-.976zm-.977 30.35H49.227V49.327h28.396z"/>
	<path d="M42.767 17.404l-2.937 2.937a.975.975 0 001.065 1.593.977.977 0 00.316-.212l4.604-4.604a.977.977 0 000-1.38l-4.604-4.604a.976.976 0 00-1.381 1.38l2.936 2.937H32.727V1.253a.976.976 0 00-.976-.976H1.4a.977.977 0 00-.977.976v30.35a.977.977 0 00.976.976h30.35a.977.977 0 00.976-.977V17.404zM30.775 30.626H2.377V2.23h28.396zM16.575 74.843A11.319 11.319 0 105.258 63.525a11.33 11.33 0 0011.317 11.318zm0-20.682a9.364 9.364 0 11-9.364 9.364 9.375 9.375 0 019.364-9.364z"/>
	<path d="M15.599 67.197h-.049a.978.978 0 01-.707-.357l-2.723-3.328a.977.977 0 111.511-1.236l2.04 2.492L19.9 60.54a.979.979 0 011.606.308.977.977 0 01-.225 1.073l-4.992 4.99a.976.976 0 01-.69.286zM65.455 11.675h-9.114a.977.977 0 010-1.953h9.114a.977.977 0 010 1.953zM69.361 17.404h-13.02a.977.977 0 010-1.953h13.02a.977.977 0 010 1.953zM69.361 23.134h-13.02a.977.977 0 010-1.954h13.02a.977.977 0 010 1.954zM65.455 58.773h-9.114a.977.977 0 010-1.953h9.114a.977.977 0 010 1.953zM69.361 64.502h-13.02a.977.977 0 010-1.953h13.02a.976.976 0 110 1.953zM69.361 70.231h-13.02a.977.977 0 010-1.953h13.02a.976.976 0 110 1.953z"/>
</svg>