<svg
	fill="none"
	height="80"
	viewBox="0 0 80 80"
	width="80"
	xmlns="http://www.w3.org/2000/svg"
>
	<g fill="currentColor">
		<path
			d="m21.3136 26.9578c-.259 0-.5074-.1029-.6906-.286-.1831-.1832-.286-.4316-.286-.6906v-4.6144c-.0005-.3855-.1539-.7551-.4265-1.0276-.2727-.2726-.6423-.4259-1.0278-.4263h-4.5078c-.3854.0005-.7549.1539-1.0274.4264-.2724.2726-.4257.6421-.4261 1.0275v4.6144c0 .259-.1029.5074-.286.6906-.1832.1831-.4316.286-.6906.286s-.5074-.1029-.6905-.286c-.1832-.1832-.286-.4316-.286-.6906v-4.6144c.0009-.9033.3601-1.7693.9987-2.408.6387-.6387 1.5047-.998 2.4079-.999h4.5078c.9034.0009 1.7695.3601 2.4083.9989.6388.6387.9981 1.5047.9991 2.4081v4.6144c0 .259-.1028.5074-.286.6906-.1831.1831-.4315.286-.6905.286z"
		/>
		<path
			d="m16.5747 19.1437c-.8614 0-1.7033-.2555-2.4195-.7341-.7161-.4786-1.2743-1.1588-1.6038-1.9546-.3296-.7958-.4158-1.6714-.2477-2.5162s.5829-1.6207 1.192-2.2298c.6091-.609 1.3851-1.0237 2.2299-1.1918.8448-.168 1.7204-.0817 2.5162.2479.7957.3297 1.4759.8879 1.9544 1.6041.4785.7161.7339 1.5581.7339 2.4195-.0012 1.1547-.4605 2.2618-1.2771 3.0782-.8165.8165-1.9236 1.2757-3.0783 1.2768zm0-6.7578c-.4751.0001-.9394.141-1.3344.405-.3949.264-.7027.6392-.8845 1.0781-.1817.4389-.2292.9218-.1365 1.3877s.3215.8939.6575 1.2298c.3359.3358.7639.5646 1.2298.6572.4659.0927.9489.0451 1.3877-.1367.4389-.1818.814-.4897 1.0779-.8847s.4048-.8594.4048-1.3344c-.0008-.6368-.2542-1.2472-.7046-1.6974s-1.061-.7033-1.6977-.7038z"
		/>
		<path
			d="m16.5747 4.15313c-2.4277 0-4.8009.71989-6.81945 2.06864-2.01854 1.34876-3.59181 3.26579-4.52085 5.50863-.92903 2.2429-1.17211 4.711-.69849 7.092s1.64266 4.5682 3.35929 6.2848c1.71664 1.7166 3.9038 2.8857 6.2848 3.3593s4.8491.2305 7.092-.6985c2.2428-.929 4.1599-2.5023 5.5086-4.5209 1.3488-2.0185 2.0687-4.3917 2.0687-6.8194-.0038-3.2542-1.2982-6.3742-3.5993-8.67531-2.3011-2.30113-5.4211-3.59554-8.6753-3.59926zm0 22.59607c-2.0414 0-4.037-.6053-5.7343-1.7395-1.69741-1.1341-3.02034-2.7461-3.80154-4.6321-.78121-1.886-.98561-3.9613-.58736-5.9635.39826-2.0022 1.38129-3.8413 2.82477-5.28475 1.44353-1.44349 3.28263-2.42651 5.28473-2.82477 2.0022-.39826 4.0775-.19386 5.9635.58735s3.498 2.10414 4.6322 3.80147c1.1341 1.6974 1.7394 3.6929 1.7394 5.7343-.0031 2.7365-1.0915 5.36-3.0265 7.295s-4.5585 3.0234-7.2949 3.0265z"
		/>
		<path
			d="m78.5996.276551h-30.3489c-.259 0-.5074.102887-.6905.286028s-.286.431534-.286.690531v30.34919c0 .259.1029.5074.286.6906.1831.1831.4315.286.6905.286h13.6243v10.0391l-2.9368-2.9364c-.1842-.1779-.4308-.2763-.6869-.2741-.256.0023-.501.105-.682.286-.1811.1811-.2838.426-.286.6821-.0022.256.0962.5027.2741.6869l4.6035 4.6035c.0907.0907.1983.1627.3168.2118s.2455.0743.3738.0743.2553-.0252.3738-.0743.2262-.1211.3168-.2118l4.6036-4.6035c.1778-.1842.2763-.4309.2741-.6869-.0023-.2561-.105-.501-.286-.6821-.1811-.181-.426-.2837-.6821-.286-.256-.0022-.5027.0962-.6869.2741l-2.9367 2.9379v-10.039h14.7722c.259 0 .5074-.1029.6906-.2861.1831-.1831.286-.4315.286-.6905v-30.35079c0-.12831-.0253-.255359-.0744-.373892s-.1211-.226223-.2119-.316915c-.0908-.090693-.1985-.16261-.3171-.211641s-.2456-.074214-.3739-.074111zm-.9766 30.349249h-28.3957v-28.39612h28.3957z"
		/>
		<path
			d="m31.7492 47.3742h-30.34881c-.259 0-.507392.1029-.690533.2861-.183141.1831-.286029.4315-.286029.6905v30.3492c0 .259.102888.5074.286029.6906.183141.1831.431533.286.690533.286h30.34881c.259 0 .5074-.1029.6906-.286.1831-.1832.286-.4316.286-.6906v-30.3492c0-.259-.1029-.5074-.286-.6905-.1832-.1832-.4316-.2861-.6906-.2861zm-.9765 30.3493h-28.39575v-28.3961h28.39575z"
		/>
		<path
			d="m78.5998 47.3742h-30.3488c-.259 0-.5074.1029-.6906.2861-.1831.1831-.286.4315-.286.6905v14.198h-10.041l2.9367-2.9363c.1832-.1831.2861-.4316.2861-.6906s-.1029-.5075-.2861-.6906c-.1832-.1832-.4316-.2861-.6906-.2861-.2591 0-.5075.1029-.6906.2861l-4.6036 4.6039c-.183.1831-.2859.4315-.2859.6904 0 .259.1029.5073.2859.6904l4.6039 4.6035c.1834.1819.4314.2837.6896.2832.2583-.0006.5058-.1034.6885-.286.1826-.1826.2855-.4301.2861-.6883.0006-.2583-.1011-.5063-.2829-.6897l-2.9367-2.9367h10.041v14.198c0 .259.1029.5074.286.6906.1832.1831.4316.286.6906.286h30.3488c.259 0 .5074-.1029.6905-.286.1832-.1832.286-.4316.286-.6906v-30.3492c0-.1283-.0252-.2553-.0743-.3738s-.1211-.2262-.2118-.3169-.1984-.1626-.317-.2116c-.1185-.0491-.2455-.0743-.3738-.0743zm-.9766 30.3493h-28.3957v-28.3961h28.3957z"
		/>
		<path
			d="m42.7668 17.4043-2.9367 2.9363c-.0907.0907-.1627.1984-.2117.3169-.0491.1185-.0744.2455-.0744.3737 0 .1283.0253.2553.0744.3738.049.1185.121.2262.2117.3169s.1983.1626.3168.2117.2455.0743.3738.0743.2553-.0252.3738-.0743.2261-.121.3168-.2117l4.6035-4.6039c.1831-.1832.286-.4315.286-.6905 0-.2589-.1029-.5073-.286-.6904l-4.6039-4.6035c-.1833-.1819-.4313-.2837-.6896-.2831-.2582.0005-.5058.1033-.6884.2859s-.2855.4301-.2861.6884c-.0006.2582.1011.5062.2829.6896l2.9367 2.9368h-10.0391v-14.19809c0-.258998-.1028-.50739-.286-.690531-.1831-.183141-.4315-.286029-.6905-.286029h-30.35041c-.259 0-.507392.102888-.690533.286029s-.286029.431533-.286029.690531v30.34919c0 .259.102888.5074.286029.6906.183141.1831.431533.286.690533.286h30.34881c.259 0 .5074-.1029.6906-.286.1831-.1832.286-.4316.286-.6906v-14.198zm-11.9922 13.2215h-28.39765v-28.39612h28.39575z"
		/>
		<path
			d="m16.5748 74.843c2.2384 0 4.4266-.6637 6.2878-1.9072 1.8612-1.2436 3.3119-3.0111 4.1685-5.0791.8567-2.068 1.0809-4.3436.6442-6.539-.4366-2.1955-1.5145-4.2121-3.0973-5.7949s-3.5993-2.6608-5.7948-3.0975c-2.1954-.4367-4.471-.2126-6.539.644-2.0681.8566-3.83564 2.3072-5.07925 4.1683-1.24361 1.8612-1.90738 4.0494-1.90738 6.2878.00341 3.0005 1.19684 5.8771 3.31847 7.9988 2.12166 2.1217 4.99826 3.3152 7.99876 3.3188zm0-20.6817c1.8521-.0001 3.6627.5491 5.2027 1.5781 1.5401 1.0289 2.7404 2.4914 3.4492 4.2026.7088 1.7111.8943 3.594.533 5.4106s-1.2532 3.4852-2.5629 4.7948c-1.3096 1.3097-2.9783 2.2016-4.7948 2.5629-1.8166.3613-3.6995.1758-5.4107-.533-1.7111-.7088-3.17362-1.9091-4.20257-3.4492-1.02895-1.54-1.57811-3.3506-1.57804-5.2027.0029-2.4826.9904-4.8627 2.74587-6.6182 1.75544-1.7555 4.13554-2.743 6.61824-2.7459z"
		/>
		<path
			d="m15.5986 67.1973c-.016 0-.0324 0-.0484 0-.1362-.0069-.2696-.0422-.3913-.1037-.1218-.0614-.2294-.1478-.3157-.2534l-2.7231-3.3277c-.0838-.0989-.147-.2135-.1861-.3372-.039-.1236-.0531-.2538-.0413-.3829s.0492-.2546.11-.3691.1438-.2157.2441-.2978.216-.1435.3403-.1804.2546-.0487.3835-.0347.2537.0535.3672.1162c.1134.0628.2133.1475.2937.2492l2.0398 2.4922 4.2285-4.2282c.0901-.0932.1979-.1676.317-.2188s.2473-.0781.377-.0793c.1296-.0011.2582.0236.3782.0727s.2291.1216.3208.2133.1642.2008.2133.3208.0738.2486.0727.3782c-.0012.1297-.0281.2579-.0793.377s-.1256.2269-.2188.317l-4.9914 4.9902c-.0907.0908-.1984.1628-.3169.2119s-.2455.0744-.3738.0745z"
		/>
		<path
			d="m65.455 11.675h-9.1144c-.259 0-.5074-.1029-.6906-.286-.1831-.1832-.286-.4316-.286-.6906s.1029-.5073.286-.6905c.1832-.18313.4316-.28601.6906-.28601h9.1144c.259 0 .5074.10288.6906.28601.1831.1832.286.4315.286.6905s-.1029.5074-.286.6906c-.1832.1831-.4316.286-.6906.286z"
		/>
		<path
			d="m69.3613 17.4043h-13.0207c-.259 0-.5074-.1029-.6906-.286-.1831-.1832-.286-.4316-.286-.6906s.1029-.5073.286-.6905c.1832-.1831.4316-.286.6906-.286h13.0207c.259 0 .5074.1029.6905.286.1832.1832.286.4315.286.6905s-.1028.5074-.286.6906c-.1831.1831-.4315.286-.6905.286z"
		/>
		<path
			d="m69.3613 23.1336h-13.0207c-.259 0-.5074-.1029-.6906-.286-.1831-.1832-.286-.4316-.286-.6906s.1029-.5074.286-.6905c.1832-.1831.4316-.286.6906-.286h13.0207c.259 0 .5074.1029.6905.286.1832.1831.286.4315.286.6905s-.1028.5074-.286.6906c-.1831.1831-.4315.286-.6905.286z"
		/>
		<path
			d="m65.455 58.7727h-9.1144c-.259 0-.5074-.1029-.6906-.2861-.1831-.1831-.286-.4315-.286-.6905s.1029-.5074.286-.6905c.1832-.1832.4316-.2861.6906-.2861h9.1144c.259 0 .5074.1029.6906.2861.1831.1831.286.4315.286.6905s-.1029.5074-.286.6905c-.1832.1832-.4316.2861-.6906.2861z"
		/>
		<path
			d="m69.3613 64.502h-13.0207c-.259 0-.5074-.1029-.6906-.2861-.1831-.1831-.286-.4315-.286-.6905s.1029-.5074.286-.6905c.1832-.1832.4316-.2861.6906-.2861h13.0207c.259 0 .5074.1029.6905.2861.1832.1831.286.4315.286.6905s-.1028.5074-.286.6905c-.1831.1832-.4315.2861-.6905.2861z"
		/>
		<path
			d="m69.3613 70.2313h-13.0207c-.259 0-.5074-.1029-.6906-.2861-.1831-.1831-.286-.4315-.286-.6905s.1029-.5074.286-.6905c.1832-.1832.4316-.2861.6906-.2861h13.0207c.259 0 .5074.1029.6905.2861.1832.1831.286.4315.286.6905s-.1028.5074-.286.6905c-.1831.1832-.4315.2861-.6905.2861z"
		/>
	</g>
</svg>
