<svg height="24" width="24" viewBox="12 12 24 24" xmlns="http://www.w3.org/2000/svg"><path d="M38 15.716c-.94.408-2.015.68-3.224.815 1.075-.68 2.015-1.766 2.418-3.124-1.075.68-2.284 1.087-3.492 1.358-.94-1.086-2.418-1.765-4.03-1.765-3.09 0-5.508 2.444-5.508 5.568 0 .407 0 .815.134 1.222-4.567-.136-8.596-2.308-11.283-5.704-.537.815-.806 1.766-.806 2.852 0 1.902.94 3.667 2.418 4.618-.806 0-1.612-.272-2.418-.68v.136c0 2.716 1.88 4.89 4.433 5.432-.403.136-.94.136-1.478.136-.403 0-.671 0-1.074-.136.671 2.173 2.686 3.803 5.104 3.803-1.88 1.494-4.298 2.444-6.85 2.444-.404 0-.941 0-1.344-.135C13.418 34.186 16.373 35 19.463 35c10.074 0 15.716-8.556 15.716-15.889v-.679c1.21-.679 2.015-1.63 2.821-2.716z" /></svg>