<svg width="48" height="48" fill="none" xmlns="http://www.w3.org/2000/svg"><path fill="none" d="M0 0h48v48H0z"/><path d="M27.6 24.118a3.607 3.607 0 0 1-3.6 3.613c-1.95 0-3.6-1.58-3.6-3.613a3.607 3.607 0 0 1 3.6-3.613c2.025.076 3.6 1.656 3.6 3.613zm8.4-5.57v11.215C36 31.495 34.575 33 32.775 33h-17.55C13.425 33 12 31.57 12 29.763v-11.29c0-1.731 1.425-3.236 3.225-3.236H18l.6-1.732c.3-.828 1.275-1.505 2.175-1.505h6.45c.9 0 1.875.677 2.175 1.505l.6 1.807h2.775c1.8 0 3.225 1.43 3.225 3.236zm-6.45 5.646c0-3.086-2.475-5.646-5.625-5.646-3.075 0-5.625 2.56-5.625 5.646s2.475 5.645 5.625 5.645c3.15-.076 5.625-2.56 5.625-5.645z" fill="#fff"/></svg>