<svg
	fill="none"
	height="81"
	viewBox="0 0 89 81"
	width="89"
	xmlns="http://www.w3.org/2000/svg"
>
	<g fill="currentColor">
		<path
			d="m28.6617 53.2704h-18.4737c-.78489 0-1.42189-.6384-1.42189-1.425s.637-1.425 1.42189-1.425h18.4737c.7849 0 1.4219.6384 1.4219 1.425s-.6363 1.425-1.4219 1.425z"
		/>
		<path
			d="m28.6617 46.0612h-18.4737c-.78489 0-1.42189-.6384-1.42189-1.425s.637-1.425 1.42189-1.425h18.4737c.7849 0 1.4219.6384 1.4219 1.425s-.6363 1.425-1.4219 1.425z"
		/>
		<path
			d="m33.6624 60.1757h-7.0362c-.7849 0-1.4219-.6384-1.4219-1.425s.637-1.425 1.4219-1.425h7.0362c.7848 0 1.4218.6384 1.4218 1.425s-.637 1.425-1.4218 1.425z"
		/>
		<path
			d="m23.6688 39.1063h-13.4808c-.78489 0-1.42189-.6384-1.42189-1.425s.637-1.425 1.42189-1.425h13.4808c.7849 0 1.4219.6384 1.4219 1.425s-.6363 1.425-1.4219 1.425z"
		/>
		<path
			d="m17.6648 32.0932h-7.2295c-.78487 0-1.42187-.6384-1.42187-1.425v-7.1399c0-.7866.637-1.425 1.42187-1.425h7.2295c.7849 0 1.4219.6384 1.4219 1.425v7.1399c0 .7873-.6363 1.425-1.4219 1.425zm-5.8076-2.85h4.3858v-4.2899h-4.3858z"
		/>
		<path
			d="m32.4694 43.4399c-.3256 0-.6434-.1118-.8994-.3213-.3192-.2615-.5097-.6491-.5218-1.0624l-.1301-4.5236c-.01-.3392.1009-.6698.3128-.9341l11.2257-13.9928c.4877-.6071 1.3714-.7104 1.9842-.2294l4.7711 3.7392c.3008.2358.4941.5821.5368.9618.0427.3798-.0683.761-.3085 1.0581l-11.3082 13.9821c-.2169.2672-.5226.4475-.861.5066l-4.5585.7944c-.081.0143-.1628.0214-.2431.0214zm4.5578-2.2194h.0071zm-3.2518-3.2455.0675 2.3541 2.415-.421 10.0619-12.4403-2.5266-1.98z"
		/>
		<path
			d="m63.7275 75.6472h-8.1538c-.7848 0-1.4218-.6384-1.4218-1.425v-65.91341c0-.7866.637-1.425 1.4218-1.425h8.1538c.7849 0 1.4219.6384 1.4219 1.425s-.637 1.425-1.4219 1.425h-6.7319v63.06341h6.7319c.7849 0 1.4219.6384 1.4219 1.425s-.6363 1.425-1.4219 1.425z"
		/>
		<path
			d="m63.7273 42.025h-15.0903c-.7849 0-1.4219-.6384-1.4219-1.425s.637-1.425 1.4219-1.425h15.0903c.7849 0 1.4219.6384 1.4219 1.425s-.6363 1.425-1.4219 1.425z"
		/>
		<path
			d="m87.1562 14.6992h-16.0957c-.7848 0-1.4218-.6384-1.4218-1.425v-11.14925c0-.7866.637-1.424999 1.4218-1.424999h16.0957c.7848 0 1.4218.638399 1.4218 1.424999v11.14925c0 .7866-.637 1.425-1.4218 1.425zm-14.6738-2.85h13.2519v-8.29925h-13.2519z"
		/>
		<path
			d="m87.1562 48.2892h-16.0957c-.7848 0-1.4218-.6384-1.4218-1.425v-11.1492c0-.7866.637-1.425 1.4218-1.425h16.0957c.7848 0 1.4218.6384 1.4218 1.425v11.1492c0 .7866-.637 1.425-1.4218 1.425zm-14.6738-2.85h13.2519v-8.2992h-13.2519z"
		/>
		<path
			d="m87.1562 80.4999h-16.0957c-.7848 0-1.4218-.6384-1.4218-1.425v-11.1492c0-.7866.637-1.425 1.4218-1.425h16.0957c.7848 0 1.4218.6384 1.4218 1.425v11.1492c0 .7866-.637 1.425-1.4218 1.425zm-14.6738-2.85h13.2519v-8.2992h-13.2519z"
		/>
		<path
			d="m39.8626 67.385h-38.01885c-.78488 0-1.421875-.6384-1.421875-1.425v-49.29c0-.379.150719-.7424.418031-1.0096.267314-.2672.613544-.4467 1.008824-.4154 5.12586.02 12.05967.0399 18.99337.0599 6.9345.0199 13.869.0399 18.9963.0598.782.0029 1.4147.6384 1.4162 1.4222.0028 1.2996.0064 5.6914.0099 11.3501 0 .3256-.1102.6405-.3135.8942l-7.1755 8.944.0675 2.3541 2.4151-.4211 2.4854-3.073c.379-.4696 1.0117-.6477 1.579-.4461.5674.2017.947.7389.9477 1.3424l.0142 28.2278c0 .3784-.1493.741-.4159 1.0082s-.6284.4175-1.0059.4175zm-36.59698-2.85h35.17438l-.0114-22.7843-.2965.3669c-.2168.2672-.5225.4475-.8609.5066l-4.5585.7945c-.4067.0712-.8233-.0385-1.1432-.3-.3192-.2615-.5098-.6491-.5219-1.0623l-.1301-4.5237c-.0099-.3391.101-.6697.3128-.9341l7.1898-8.9618c-.0029-4.0933-.005-7.4755-.0079-9.4264-4.9495-.0185-11.2641-.0363-17.5793-.0548-6.3089-.0186-12.61915-.0371-17.56728-.0556zm33.76168-23.3144h.0071z"
		/>
	</g>
</svg>
