<svg
	fill="none"
	height="80"
	viewBox="0 0 93 80"
	width="93"
	xmlns="http://www.w3.org/2000/svg"
>
	<g fill="currentColor">
		<path
			d="m27.9 13.3999c-4.2 0-7.6 3.4-7.6 7.6 0 .8.7 1.5 1.5 1.5s1.5-.7 1.5-1.5c0-2.6 2.1-4.6 4.6-4.6s4.6 2.1 4.6 4.6-2.1 4.6-4.6 4.6c-.8 0-1.5.7-1.5 1.5v8.8c0 .8.7 1.5 1.5 1.5s1.5001-.7 1.5001-1.5v-7.5c3.5-.7 6.0999-3.8 6.0999-7.5.1-4.1-3.4-7.5-7.6-7.5z"
		/>
		<path
			d="m27.8999 39.3999c-.8 0-1.5.7-1.5 1.5s.7 1.5 1.5 1.5 1.5-.7 1.5-1.5-.6-1.5-1.5-1.5z"
		/>
		<path
			d="m85.8 70.2c4.6-5.1 7.2-11.7 7.2-18.7 0-15.4-12.5-27.9-27.9-27.9-3.3 0-6.4.6-9.3 1.6-1.4-14.1-13.3-25.2-27.8-25.2-15.5 0-28 12.5-28 27.9 0 7 2.5 13.5 7.2 18.7l-6.7 6.7c-.4.4-.6 1.1-.3 1.6s.8.9 1.4.9h26.4c3.3 0 6.4-.6 9.3-1.6 1.4 14.1 13.3 25.2 27.8 25.2h26.4c.6 0 1.2-.4 1.4-.9s.1-1.2-.3-1.6zm-80.7-17.4 5.2-5.2c.3-.3.4-.7.4-1.1s-.2-.8-.4-1.1c-4.7-4.7-7.3-11-7.3-17.6 0-13.8 11.2-24.9 24.9-24.9 13.2 0 24.1 10.4 24.9 23.4-9.2 4.5-15.5 13.9-15.7 24.7-2.8 1.1-5.9 1.8-9.2 1.8zm47.7-23c-.6 8.5-5.6 15.8-12.6 19.8.6-8.5 5.6-15.8 12.6-19.8zm12.3 46.6c-13.2 0-24.1-10.4-24.9-23.4 9.2-4.5 15.5-13.9 15.7-24.7 2.8-1.1 5.9-1.8 9.2-1.8 13.8 0 24.9 11.2 24.9 24.9 0 6.7-2.6 12.9-7.3 17.6-.3.3-.4.7-.4 1.1s.2.8.4 1.1l5.2 5.2z"
		/>
		<path
			d="m71.2 48.7c-.8 0-1.5.7-1.5 1.5s.7 1.5 1.5 1.5 1.5-.7 1.5-1.5-.6-1.5-1.5-1.5z"
		/>
		<path
			d="m65.2 48.7c-.8 0-1.5.7-1.5 1.5s.7 1.5 1.5 1.5 1.5-.7 1.5-1.5-.6-1.5-1.5-1.5z"
		/>
		<path
			d="m59.2 48.7c-.8 0-1.5.7-1.5 1.5s.7 1.5 1.5 1.5 1.4999-.7 1.4999-1.5-.5999-1.5-1.4999-1.5z"
		/>
	</g>
</svg>
