<svg xmlns="http://www.w3.org/2000/svg" fill="currentColor" viewBox="0 0 93 80">
	<path d="M27.9 13.4c-4.2 0-7.6 3.4-7.6 7.6 0 .8.7 1.5 1.5 1.5s1.5-.7 1.5-1.5c0-2.6 2.1-4.6 4.6-4.6s4.6 2.1 4.6 4.6-2.1 4.6-4.6 4.6c-.8 0-1.5.7-1.5 1.5v8.8c0 .8.7 1.5 1.5 1.5s1.5-.7 1.5-1.5v-7.5c3.5-.7 6.1-3.8 6.1-7.5.1-4.1-3.4-7.5-7.6-7.5zM27.9 39.4c-.8 0-1.5.7-1.5 1.5s.7 1.5 1.5 1.5 1.5-.7 1.5-1.5-.6-1.5-1.5-1.5z"/>
	<path d="M85.8 70.2c4.6-5.1 7.2-11.7 7.2-18.7 0-15.4-12.5-27.9-27.9-27.9-3.3 0-6.4.6-9.3 1.6C54.4 11.1 42.5 0 28 0 12.5 0 0 12.5 0 27.9c0 7 2.5 13.5 7.2 18.7L.5 53.3c-.4.4-.6 1.1-.3 1.6s.8.9 1.4.9H28c3.3 0 6.4-.6 9.3-1.6 1.4 14.1 13.3 25.2 27.8 25.2h26.4c.6 0 1.2-.4 1.4-.9s.1-1.2-.3-1.6zM5.1 52.8l5.2-5.2c.3-.3.4-.7.4-1.1s-.2-.8-.4-1.1C5.6 40.7 3 34.4 3 27.8 3 14 14.2 2.9 27.9 2.9c13.2 0 24.1 10.4 24.9 23.4A28.07 28.07 0 0037.1 51c-2.8 1.1-5.9 1.8-9.2 1.8zm47.7-23c-.6 8.5-5.6 15.8-12.6 19.8.6-8.5 5.6-15.8 12.6-19.8zm12.3 46.6C51.9 76.4 41 66 40.2 53c9.2-4.5 15.5-13.9 15.7-24.7 2.8-1.1 5.9-1.8 9.2-1.8C78.9 26.5 90 37.7 90 51.4c0 6.7-2.6 12.9-7.3 17.6-.3.3-.4.7-.4 1.1s.2.8.4 1.1l5.2 5.2z"/>
	<path d="M71.2 48.7c-.8 0-1.5.7-1.5 1.5s.7 1.5 1.5 1.5 1.5-.7 1.5-1.5-.6-1.5-1.5-1.5zM65.2 48.7c-.8 0-1.5.7-1.5 1.5s.7 1.5 1.5 1.5 1.5-.7 1.5-1.5-.6-1.5-1.5-1.5zM59.2 48.7c-.8 0-1.5.7-1.5 1.5s.7 1.5 1.5 1.5 1.5-.7 1.5-1.5-.6-1.5-1.5-1.5z"/>
</svg>