<svg
	fill="none"
	height="81"
	viewBox="0 0 101 81"
	width="101"
	xmlns="http://www.w3.org/2000/svg"
>
	<g fill="currentColor">
		<path
			d="m76.1094 46.4502h-6.9844c-.3087 0-.6048.1212-.8231.3368-.2183.2157-.341.5082-.341.8132v26.956h9.3125v-26.956c0-.305-.1226-.5975-.3409-.8132-.2183-.2156-.5144-.3368-.8231-.3368zm-1.1641 25.806h-4.6562v-17.526h4.6562zm0-19.826h-4.6562v-3.68h4.6562z"
		/>
		<path
			d="m63.3047 74.5562h1.1641v-26.956c0-.305-.1227-.5975-.341-.8132-.2183-.2156-.5144-.3368-.8231-.3368h-6.9844c-.3087 0-.6048.1212-.8231.3368-.2183.2157-.341.5082-.341.8132v26.956zm-5.8203-25.806h4.6562v15.456h-4.6562zm0 17.756h4.6562v5.75h-4.6562z"
		/>
		<path
			d="m88.9141 46.4502h-6.9844c-.3087 0-.6048.1212-.8231.3368-.2183.2157-.341.5082-.341.8132v11.753 15.203h9.3125v-1.035s0 0 0-.115v-25.806c0-.305-.1226-.5975-.3409-.8132-.2183-.2156-.5144-.3368-.8231-.3368zm-1.1641 25.806h-4.6562v-10.603h4.6562zm0-12.903h-4.6562v-10.603h4.6562z"
		/>
		<path
			d="m27.9638 41.3438c2.4404-.0091 4.8233-.7329 6.8473-2.08 2.024-1.347 3.5983-3.2567 4.5236-5.4876.9254-2.2309 1.1604-4.6828.6753-7.0456-.4852-2.3628-1.6686-4.5305-3.4008-6.2288-1.7321-1.6984-3.9351-2.8512-6.3304-3.3126-2.3954-.4614-4.8754-.2108-7.1265.7202-2.2511.9311-4.1723 2.5007-5.5204 4.5103-1.3482 2.0097-2.0629 4.3692-2.0537 6.7801.0185 3.2311 1.3323 6.3233 3.6537 8.5994 2.3214 2.2762 5.4613 3.5507 8.7319 3.5446zm0-22.08c1.976.0091 3.9051.5957 5.5442 1.6859 1.6392 1.0902 2.915 2.6353 3.667 4.4406.7519 1.8052.9462 3.79.5585 5.7041-.3878 1.9142-1.3403 3.6722-2.7375 5.0526-1.3973 1.3803-3.1768 2.3213-5.1144 2.7044-1.9375.3831-3.9465.1911-5.7739-.5517-1.8273-.7429-3.3913-2.0034-4.4948-3.6227-1.1036-1.6193-1.6974-3.5251-1.7066-5.4772-.003-1.3057.255-2.5991.7594-3.8059.5043-1.2069 1.245-2.3034 2.1796-3.2267.9345-.9232 2.0445-1.655 3.2661-2.1533 1.2216-.4982 2.5308-.7531 3.8524-.7501z"
		/>
		<path
			d="m9.2688 74.5102h37.25c.3087 0 .6048-.1212.8231-.3368.2183-.2157.341-.5082.341-.8132v-7.36c0-5.185-2.0849-10.1576-5.7961-13.8239-3.7112-3.6664-8.7446-5.7261-13.993-5.7261s-10.2818 2.0597-13.993 5.7261c-3.7111 3.6663-5.79606 8.6389-5.79606 13.8239v7.36c0 .305.12264.5975.34094.8132.21831.2156.51439.3368.82312.3368zm1.1641-8.51c0-4.575 1.8396-8.9626 5.1142-12.1976 3.2745-3.235 7.7158-5.0524 12.3467-5.0524s9.0722 1.8174 12.3468 5.0524c3.2745 3.235 5.1141 7.6226 5.1141 12.1976v6.21h-34.9218z"
		/>
		<path
			d="m99.3906.533203h-97.78122c-.30873 0-.60482.121162-.823122.336829-.218304.215668-.340946.508168-.340946.813168v77.28c0 .305.122642.5975.340946.8132.218302.2157.514392.3368.823122.3368h97.78122c.3088 0 .6048-.1211.8234-.3368.218-.2157.341-.5082.341-.8132v-77.28c0-.305-.123-.5975-.341-.813168-.2186-.215667-.5146-.336829-.8234-.336829zm-1.164 77.279997h-95.45316v-74.98h95.45316z"
		/>
		<path
			d="m58.6484 19.31h4.6563c.3087 0 .6048-.1211.8231-.3368s.341-.5082.341-.8132-.1227-.5975-.341-.8132c-.2183-.2156-.5144-.3368-.8231-.3368h-4.6563c-.3087 0-.6048.1212-.8231.3368-.2183.2157-.3409.5082-.3409.8132s.1226.5975.3409.8132.5144.3368.8231.3368z"
		/>
		<path
			d="m69.125 19.31h16.2969c.3087 0 .6048-.1211.8231-.3368s.3409-.5082.3409-.8132-.1226-.5975-.3409-.8132c-.2183-.2156-.5144-.3368-.8231-.3368h-16.2969c-.3087 0-.6048.1212-.8231.3368-.2183.2157-.341.5082-.341.8132s.1227.5975.341.8132.5144.3368.8231.3368z"
		/>
		<path
			d="m56.3203 26.187h32.5938c.3087 0 .6048-.1212.8231-.3369.2183-.2156.3409-.5081.3409-.8131s-.1226-.5975-.3409-.8132-.5144-.3368-.8231-.3368h-32.5938c-.3087 0-.6048.1211-.8231.3368s-.341.5082-.341.8132.1227.5975.341.8131c.2183.2157.5144.3369.8231.3369z"
		/>
		<path
			d="m56.3203 33.1101h30.2656c.3088 0 .6049-.1212.8232-.3369.2183-.2156.3409-.5081.3409-.8131s-.1226-.5976-.3409-.8132c-.2183-.2157-.5144-.3368-.8232-.3368h-30.2656c-.3087 0-.6048.1211-.8231.3368-.2183.2156-.341.5082-.341.8132s.1227.5975.341.8131c.2183.2157.5144.3369.8231.3369z"
		/>
		<path
			d="m56.3203 40.0099h23.2813c.3087 0 .6048-.1211.8231-.3368s.3409-.5082.3409-.8131c0-.305-.1226-.5976-.3409-.8132-.2183-.2157-.5144-.3368-.8231-.3368h-23.2813c-.3087 0-.6048.1211-.8231.3368-.2183.2156-.341.5082-.341.8132 0 .3049.1227.5974.341.8131s.5144.3368.8231.3368z"
		/>
	</g>
</svg>
