<svg xmlns="http://www.w3.org/2000/svg" fill="currentColor" viewBox="0 0 101 81">
	<path d="M76.11 46.45h-6.985c-.309 0-.605.121-.823.337a1.143 1.143 0 00-.341.813v26.956h9.312V47.6c0-.305-.122-.597-.34-.813a1.172 1.172 0 00-.824-.337zm-1.165 25.806H70.29V54.73h4.656zm0-19.826H70.29v-3.68h4.656zM63.305 74.556h1.164V47.6c0-.305-.123-.597-.341-.813a1.172 1.172 0 00-.823-.337H56.32c-.308 0-.604.121-.823.337a1.143 1.143 0 00-.34.813v26.956zm-5.82-25.806h4.656v15.456h-4.657zm0 17.756h4.656v5.75h-4.657zM88.914 46.45H81.93c-.309 0-.605.121-.823.337a1.143 1.143 0 00-.341.813v26.956h9.312v-1.035V47.6c0-.305-.122-.597-.34-.813a1.172 1.172 0 00-.824-.337zM87.75 72.256h-4.656V61.653h4.656zm0-12.903h-4.656V48.75h4.656zM27.964 41.344c2.44-.01 4.823-.733 6.847-2.08a12.22 12.22 0 004.524-5.488c.925-2.23 1.16-4.683.675-7.045a12.146 12.146 0 00-3.4-6.23 12.387 12.387 0 00-6.331-3.312 12.48 12.48 0 00-7.127.72 12.307 12.307 0 00-5.52 4.51 12.085 12.085 0 00-2.054 6.78 12.14 12.14 0 003.654 8.6 12.44 12.44 0 008.732 3.545zm0-22.08c1.976.009 3.905.596 5.544 1.686a9.916 9.916 0 013.667 4.44 9.78 9.78 0 01.558 5.704 9.855 9.855 0 01-2.737 5.053 10.05 10.05 0 01-5.114 2.704 10.125 10.125 0 01-5.774-.551 9.987 9.987 0 01-4.495-3.623 9.805 9.805 0 01-1.707-5.477 9.809 9.809 0 01.76-3.806 9.904 9.904 0 012.18-3.227 10.045 10.045 0 013.265-2.153 10.142 10.142 0 013.853-.75zM9.269 74.51h37.25c.309 0 .605-.121.823-.337.218-.215.34-.508.34-.813V66a19.43 19.43 0 00-5.795-13.824c-3.711-3.666-8.745-5.726-13.993-5.726S17.612 48.51 13.9 52.176A19.431 19.431 0 008.105 66v7.36c0 .305.122.598.34.813.219.216.515.337.824.337zM10.433 66c0-4.575 1.84-8.962 5.114-12.197 3.275-3.235 7.716-5.053 12.347-5.053s9.072 1.818 12.347 5.053A17.145 17.145 0 0145.355 66v6.21H10.433z"/>
	<path d="M99.39.533H1.61c-.31 0-.605.121-.824.337-.218.216-.34.508-.34.813v77.28c0 .305.122.598.34.813.219.216.515.337.823.337h97.782c.308 0 .604-.12.823-.337.218-.215.341-.508.341-.813V1.683c0-.305-.123-.597-.341-.813a1.172 1.172 0 00-.823-.337zm-1.163 77.28H2.773V2.833h95.454z"/>
	<path d="M58.648 19.31h4.657c.308 0 .605-.121.823-.337s.34-.508.34-.813-.122-.598-.34-.813a1.172 1.172 0 00-.823-.337h-4.657c-.308 0-.604.121-.823.337a1.143 1.143 0 000 1.626c.219.216.515.337.823.337zM69.125 19.31h16.297c.309 0 .605-.121.823-.337s.34-.508.34-.813-.122-.598-.34-.813a1.172 1.172 0 00-.823-.337H69.125c-.309 0-.605.121-.823.337a1.143 1.143 0 000 1.626c.218.216.514.337.823.337zM56.32 26.187h32.594c.309 0 .605-.121.823-.337a1.143 1.143 0 000-1.626 1.171 1.171 0 00-.823-.337H56.32c-.308 0-.604.121-.823.337a1.14 1.14 0 000 1.626c.219.216.515.337.823.337zM56.32 33.11h30.266c.309 0 .605-.121.823-.337a1.143 1.143 0 000-1.626 1.171 1.171 0 00-.823-.337H56.32c-.308 0-.604.121-.823.337a1.143 1.143 0 000 1.626c.219.216.515.337.823.337zM56.32 40.01h23.282c.308 0 .604-.121.823-.337a1.14 1.14 0 000-1.626 1.171 1.171 0 00-.823-.337H56.32c-.308 0-.604.121-.823.337a1.143 1.143 0 000 1.626c.219.216.515.337.823.337z"/>
</svg>