<svg xmlns="http://www.w3.org/2000/svg" viewbox="0 0 89 81" fill="currentColor">
	<path d="M28.662 53.27H10.188c-.785 0-1.422-.638-1.422-1.425s.637-1.425 1.422-1.425h18.474c.785 0 1.422.639 1.422 1.425s-.637 1.425-1.422 1.425zM28.662 46.061H10.188c-.785 0-1.422-.638-1.422-1.425s.637-1.425 1.422-1.425h18.474c.785 0 1.422.639 1.422 1.425s-.637 1.425-1.422 1.425zM33.662 60.176h-7.036a1.424 1.424 0 010-2.85h7.036c.785 0 1.422.638 1.422 1.425s-.637 1.425-1.422 1.425zM23.669 39.106H10.188c-.785 0-1.422-.638-1.422-1.425s.637-1.425 1.422-1.425h13.48a1.424 1.424 0 010 2.85zM17.665 32.093h-7.23a1.424 1.424 0 01-1.422-1.425v-7.14c0-.786.637-1.425 1.422-1.425h7.23c.785 0 1.422.639 1.422 1.425v7.14c0 .788-.637 1.425-1.422 1.425zm-5.808-2.85h4.386v-4.29h-4.386zM32.47 43.44a1.419 1.419 0 01-1.422-1.384l-.13-4.523c-.01-.34.101-.67.313-.934l11.226-13.993a1.42 1.42 0 011.984-.23l4.77 3.74a1.424 1.424 0 01.23 2.02L38.131 42.117a1.426 1.426 0 01-.861.506l-4.559.794a1.402 1.402 0 01-.243.022zm4.557-2.22h.007zm-3.252-3.245l.068 2.354 2.415-.42L46.32 27.467l-2.527-1.98zM63.727 75.647h-8.153a1.424 1.424 0 01-1.422-1.425V8.31c0-.787.637-1.425 1.422-1.425h8.154c.784 0 1.421.638 1.421 1.425s-.637 1.425-1.422 1.425h-6.731v63.063h6.731c.785 0 1.422.639 1.422 1.425s-.636 1.425-1.422 1.425z"/>
	<path d="M63.727 42.025h-15.09c-.785 0-1.422-.638-1.422-1.425s.637-1.425 1.422-1.425h15.09c.785 0 1.422.638 1.422 1.425s-.636 1.425-1.422 1.425zM87.156 14.7H71.06a1.424 1.424 0 01-1.421-1.426V2.124c0-.786.637-1.424 1.421-1.424h16.096c.785 0 1.422.638 1.422 1.425v11.15c0 .786-.637 1.424-1.422 1.424zm-14.674-2.85h13.252v-8.3H72.482zM87.156 48.29H71.06a1.424 1.424 0 01-1.421-1.426V35.715c0-.787.637-1.425 1.421-1.425h16.096c.785 0 1.422.638 1.422 1.425v11.15c0 .786-.637 1.424-1.422 1.424zm-14.674-2.85h13.252v-8.3H72.482zM87.156 80.5H71.06a1.424 1.424 0 01-1.421-1.425v-11.15c0-.786.637-1.424 1.421-1.424h16.096c.785 0 1.422.638 1.422 1.425v11.149c0 .787-.637 1.425-1.422 1.425zm-14.674-2.85h13.252v-8.3H72.482zM39.863 67.385H1.843A1.424 1.424 0 01.423 65.96V16.67c0-.379.15-.742.418-1.01.267-.267.613-.446 1.009-.415 5.126.02 12.06.04 18.993.06 6.935.02 13.87.04 18.996.06a1.423 1.423 0 011.417 1.422l.01 11.35c0 .326-.11.64-.314.894l-7.176 8.944.068 2.354 2.415-.42 2.486-3.074a1.418 1.418 0 011.579-.446c.567.202.947.739.947 1.343l.014 28.227a1.427 1.427 0 01-1.421 1.426zm-36.597-2.85H38.44l-.011-22.784-.297.367a1.425 1.425 0 01-.86.506l-4.56.795a1.419 1.419 0 01-1.143-.3c-.319-.262-.51-.65-.521-1.063l-.13-4.523c-.01-.34.1-.67.312-.934l7.19-8.962c-.003-4.093-.005-7.476-.008-9.427-4.95-.018-11.264-.036-17.58-.054-6.308-.019-12.618-.037-17.566-.056zm33.761-23.314h.007z"/>
</svg>