<svg xmlns="http://www.w3.org/2000/svg" fill="currentColor" viewBox="0 0 770 533">
	<path d="M571.141 156.113s-62.432 195.833-67.519 211.999C501.772 351.484 455.988 0 455.988 0 349.622 0 292.739 75.747 262.679 155.651c0 0-75.844 196.295-82.319 212.923-.462-15.242-11.561-210.614-11.561-210.614C162.324 60.043 72.607.462 0 .462L87.868 533c111.453-.462 171.573-75.747 203.021-155.651 0 0 67.057-173.202 69.832-181.053.462 7.389 48.096 336.704 48.096 336.704 111.916 0 172.036-70.666 204.408-147.799L770 .461c-110.529 0-168.799 75.286-198.859 155.652z" />
</svg>