<svg fill="none"
    xmlns="http://www.w3.org/2000/svg" viewBox="0 0 108 108">
    <path d="M54 14h16v16.998a7.008 7.008 0 004.306 6.467A6.97 6.97 0 0076.98 38H94v36a8 8 0 01-8 8H66V72h6.006a2 2 0 000-4H66v-8h18a2 2 0 000-4H66v-8h18a2 2 0 000-4H66V32c0-5.523-4.477-10-10-10H46a8 8 0 018-8z" fill="currentColor"/>
    <path d="M74 14.719a8 8 0 012.343 1.624l15.314 15.314A8 8 0 0193.281 34H76.982a2.973 2.973 0 01-2.104-.876l-.002-.002A3.008 3.008 0 0174 30.998v-16.28z" fill="currentColor"/>
    <path fill-rule="evenodd" clip-rule="evenodd" d="M16.343 91.657A8 8 0 0114 86V34a8 8 0 018-8h32a8 8 0 018 8v52a8 8 0 01-8 8H22a8 8 0 01-5.657-2.343zm24.243-47.071A2 2 0 0142 44h10a2 2 0 010 4H42a2 2 0 01-1.414-3.414zM24 68a2 2 0 000 4h28a2 2 0 000-4H24zm-2 14a2 2 0 012-2h16a2 2 0 110 4H24a2 2 0 01-2-2zm20-26a2 2 0 000 4h10a2 2 0 000-4H42zm-18.414 3.414A2 2 0 0123 58V46a2 2 0 012-2h3.965c3.466 0 6.27.837 6.27 3.988 0 1.378-.815 2.954-2.09 3.446v.098c1.581.443 2.855 1.625 2.855 3.742C36 58.572 33.043 60 29.475 60H25a2 2 0 01-1.414-.586zm3.798-12.164v3.002l1.479.001c1.427 0 2.09-.64 2.09-1.624 0-.985-.663-1.379-2.09-1.379h-1.479zm0 6.104v3.397h1.784c1.734 0 2.55-.591 2.55-1.773 0-1.181-.816-1.624-2.549-1.624h-1.785z" fill="currentColor"/>
</svg>