<svg width="108" height="108" fill="none" xmlns="http://www.w3.org/2000/svg"><path fill-rule="evenodd" clip-rule="evenodd" d="M46 74a8 8 0 0 0 8 8h32a8 8 0 0 0 8-8V37.314a8 8 0 0 0-2.343-5.657L76.343 16.343A8 8 0 0 0 70.686 14H54a8 8 0 0 0-8 8v52z" fill="#C4CACB"/><mask id="a" maskUnits="userSpaceOnUse" x="46" y="14" width="48" height="68"><path fill-rule="evenodd" clip-rule="evenodd" d="M0 60a8 8 0 0 0 8 8h32a8 8 0 0 0 8-8V23.314a8 8 0 0 0-2.343-5.657L30.343 2.343A8 8 0 0 0 24.686 0H8a8 8 0 0 0-8 8v52z" transform="translate(46 14)" fill="#F7F8F9"/></mask><g mask="url(#a)"><path fill-rule="evenodd" clip-rule="evenodd" d="M72 11v19.998c0 1.327.525 2.6 1.46 3.537A4.972 4.972 0 0 0 76.981 36H97L72 11z" fill="#E8E8E7"/></g><path d="M52 56a2 2 0 1 0 0 4v-4zm32 4a2 2 0 1 0 0-4v4zM52 44a2 2 0 1 0 0 4v-4zm32 4a2 2 0 1 0 0-4v4zM52 68a2 2 0 1 0 0 4v-4zm20.006 4a2 2 0 1 0 0-4v4zM52 60h32v-4H52v4zm0-12h32v-4H52v4zm0 24h20.006v-4H52v4z" fill="#F7F8F9"/><path fill-rule="evenodd" clip-rule="evenodd" d="M14 86a8 8 0 0 0 8 8h32a8 8 0 0 0 8-8V34a8 8 0 0 0-8-8H22a8 8 0 0 0-8 8v52z" fill="#E8E8E7"/><path d="M24 68a2 2 0 1 0 0 4v-4zm28 4a2 2 0 1 0 0-4v4zM42 56a2 2 0 1 0 0 4v-4zm10 4a2 2 0 1 0 0-4v4zM42 44a2 2 0 1 0 0 4v-4zm10 4a2 2 0 1 0 0-4v4zM24 72h28v-4H24v4zm18-12h10v-4H42v4zm0-12h10v-4H42v4z" fill="#C4CACB"/><path d="M24 82h16" stroke="#C4CACB" stroke-width="4" stroke-linecap="round"/><path d="M23 58a2 2 0 0 0 2 2h4.475C33.043 60 36 58.572 36 55.274c0-2.117-1.274-3.299-2.855-3.742v-.098c1.275-.492 2.09-2.068 2.09-3.446 0-3.151-2.804-3.988-6.27-3.988H25a2 2 0 0 0-2 2v12zm4.384-7.748V47.25h1.479c1.427 0 2.09.394 2.09 1.379 0 .984-.663 1.624-2.09 1.624h-1.479zm0 6.499v-3.397h1.785c1.733 0 2.549.443 2.549 1.624 0 1.182-.816 1.773-2.55 1.773h-1.784z" fill="#0B63CE"/></svg>