<svg width="48" height="48" fill="none" xmlns="http://www.w3.org/2000/svg"><path fill="none" d="M0 0h48v48H0z"/><path d="M36.74 18.857s-.26-1.8-1.04-2.571c-1.04-1.029-2.08-1.029-2.6-1.029C29.46 15 24 15 24 15s-5.46 0-9.1.257c-.52 0-1.56 0-2.6 1.029-.78.771-1.04 2.571-1.04 2.571S11 20.914 11 22.971V24.9c0 2.186.26 4.243.26 4.243s.26 1.8 1.04 2.571c1.04 1.029 2.34 1.029 2.86 1.157C17.24 33 24 33 24 33s5.46 0 9.1-.257c.52 0 1.56-.129 2.6-1.029.78-.771 1.04-2.571 1.04-2.571s.26-2.057.26-4.114V22.97c0-2.057-.26-4.114-.26-4.114zm-15.47 8.486v-7.2l7.02 3.6-7.02 3.6z" fill="#fff"/></svg>