<svg viewBox="0 0 1920 1080" xmlns="http://www.w3.org/2000/svg"><g fill="black" opacity="0.2"><path d="m664.45 739.33c-4.88-1.9-30.14-1.94-29.87-1.69-.21-.19 4.29-9 2.74-8.55-6.42 1.74-13 4.27-19.39 5.95.27.07 8.84-10.35 8.83-10.36 1.13-.17-18.12 5.12-18.14 6.67.12-9.44 17.38-19.35 24.51-24.35 20.27-14.09 40-5 55.24-27.13 16.21-23.5 40.28-43.53 49.63-70.87 5-14.42 16-39 17-53.5.66-10-4.54-12.55-15.43-10.72-8.17 1.38-17.65 5.19-23.8 6.66-5.25 1.26-6.83 3.44-11.44 5.16-.05 0-12.7 4.55-13.37 9-1.47-2.4.11-3.82-1.88-3.84-3.18 0-.22 6.62-2.88 6.61-.32-1.19-3.32-1.91-3.08-3.12-4.3-1-4.28 4.33-4.3 6.31 0-2-5.93-5.45-4.19-4.27 0 2.11 0 6.89-1.09 7.26-1.6.54-.37-5-2.9-4.17a22.39 22.39 0 0 1 -.4 4.55c-.94.22-3.67-3.15-4.13-3.49-.33.29 2 8 1.09 8-2.11 0-1.42-4.25-2.64-5.06-1.85-2.19-.56 7-1 7-1.63 0-4.44-5.14-3.83-3.71.11.26 1.55 5 1.81 5.58a5.59 5.59 0 0 1 -1 1.52 8.8 8.8 0 0 0 -2.41-2.64c-.58 0 1.3 4.4-.6 6.11-1.1 1-1.7-3.74-3.47-3.14-2.87 1 1.33 5.24-.48 7-.3-1.78-2.18-3.51-4.52-3.94.52 2 1.11 8.33-1.63 9.84-1 .54-1.44-2.19-1.92-2.6-2-.78-.66 6.83-4 6.79-2.27-2.55-.5-5.76-2.83.84a13.4 13.4 0 0 1 -.91-2.79 10.51 10.51 0 0 1 -2.27 3.81c.76-3.32-2.4-9.49-6.85-9.53-.89 0-9.43-5.49-13.2-5.61-8.73-.26-15.61 4.15-24.17 7.93-8.34 3.68-17.3 7.6-27 3.63-5.73-2.34-12.5-19.65-12.5-19.65 4.22 2.16 6.29 6.42 6.27-3 2.2 3.06 7.94 7.19 7.48 4.48-.78-4.65-4.14-3.82-1.64-9.63 1.28-3 11.56-9.28 8.07-13.67-2.84-1.6-17.11 8.53-19.87 10.22-7.65 4.68-4.48 5.18-2.69 7.58-1.79-2.4-40.88-10.81-36.37-17.31a4.09 4.09 0 0 1 1.35 1.2c-2.68.32 2.43-3.65 2.1-2.47-.39 1.37-10.58-1.89-11.08-3.94-2.12-8.63 3.52-5.43 8.35-11.58 9.07-11.55 21-21.33 29-33.61 4.75-7.22 6.34-13.76 6.39-19.26 0-2.92-5.14-3.59-4.74-7.59.62-6.28 8.55-16 11.68-21.36 3.37-5.79 8.13-11.08 11.45-16.34 6.14-9.74 3.57-8.16 6.54-17.64 5.28-16.84 5.84-25.31 23.38-19.22 18 6.27 15.55 4.77 26.65-8 16.67-19.22 18.23.41 31.79-1.2 7-.84 14.07-32.63 20.66-36.66 9.42-5.75 22.41-11 30.73-14.93 12.63-5.94 25.37-10.67 38.9-18.34 29.52-16.75 60.32-38.51 96.12-39.88 36.45-1.41 60.7 11.85 88.84 25.91 52.7 26.34 122.06 9.09 177.83 10.16 44.52.85 98.94 18.86 133.42 44.92 20.86 15.76 37.45 37 54 57.39 6.5 8 13.66 15.81 18.33 25.27 7.23 14.62 1.24 19.08 1.35 31.87.11 12.23 9.41 26.48 12.35 38.19a262.31 262.31 0 0 1 7 46.5c1.52 22.35 3 45.47 11.69 66.42 8.51 20.52 26.52 35.2 24.39 59.72-1.23 14.13-6.16 14-18.36 22-4.16 2.73-22.66 17.23-23.93 13.56.09 0-61.46-2-61.53-1.26-.15.2 6.49-4.27 5.39-6.17-.52-.91-10.22 3.52-10.25 3.66 1.16-5.43 4-7.38 5.79-9.82-4.4-.37-6.72 2.25-9.6 6.24-1.07-6.82 5.08-12.44 9.34-14.51 2.74-1.34 4.25-2.08 6-2.76 11.07-4.4 52.86-7.93 33.84-24.56-7.11-6.21-17.95-3.48-26.15-4.85-10.81-1.81-19-8.39-26.39-11.06-6.73-2.43-15.11-3.34-22.35-9.58-8.07-6.95-8.54-19.53-15.92-24.87-14.59-10.57-52.29 30.05-61.89 42.9-4.38 5.87-47.63 49.37-41.51 51.27 0 1.52-52.43 6.12-56.41 6.44-3.21.25-47.93-3.47-47.93-3.29a3.77 3.77 0 0 0 2.06-3.43c-2.35-1.75-4-1.9-8.22 2.3-2.08-4.26 3.19-4.47.06-6.36-2.12 0-4.51 1.72-8.51 4.15 0-4.23 2.24-4.67 4.3-6.31 0-2.11 0-2.11-4.22-2.16-4.25 2.08-4.78 4.83-6.41 6.29-6.23-12.77 16.52-18.92 18.13-19.77 12.18-6.43 19.1-7 33.19-7.83.37 0 31.17-5.73 20.84-11.68-4.88-2.81-4.83-38.08-5-46.11-.23-9-.74-15-.19-23 .31-4.6 3.46-12.93 3.52-19.15 0-4.45-12.24.25-11 3.29a24.32 24.32 0 0 0 .48-5.25c-.25.08-4.46 4.63-4.66 4.48 1.55 4.45-.93-9.69-2.64-4.41-.34 1.06.27 5.09-1.54 5.82-2.47 1 .52-4.31-.63-4.58a12 12 0 0 0 -3.66 4.31 5.43 5.43 0 0 1 .26-4.69c-16.17 1-36.09-5.34-56.62-5.54-2.23 0 16.14 48.23 17.55 51.7 8.35 20.55 1.8 27.07-6.7 44.86-8.2 17.18-15 26.44-32.69 27.82-14.18 1.11-54.89-5.72-61.73 5.05-2.1-2.67-1.31-4.39.11-7.07-1.09-1.64-8.38 4.89-8.56 4.34-2-6.38 7.45-10.7 7-10.19 0-2-8.2 3.87-8.74 3.24 5.72-10.54 15.47-19.93 26.67-24.28 9.27-3.6 26.81 1.3 23.47-11.9-3.12-12.32-30.33-29.78-39.73-39.4-4.36-4.45-13.07-8.09-17-12.4-2.68-3-5.56-16.51-12-16.16-4.71.26-12.26 15.31-15.06 19.07-2.37 3.17-13.4 13.26-14.84 16-6.93 13.13-22.93 23.59-36.88 34.44-7.7 6-43.49 34.54-44 32.76a85.49 85.49 0 0 1 -4 7.8c-6.1-2.07-7.71 3.82-12.44 6.91-2.46 1.61-15.38 7.53-21.39 9.93-16.32 6.52-36.05 4.03-53.77 8.08z"/><path d="m380.67 251.94h45.39l14-43.19a1.07 1.07 0 0 1 2 0l14 43.19h45.39a1.07 1.07 0 0 1 .63 1.93l-36.69 26.71 14 43.19a1.07 1.07 0 0 1 -1.64 1.19l-36.76-26.71-36.65 26.75a1.07 1.07 0 0 1 -1.64-1.19l14-43.19-36.68-26.71a1.07 1.07 0 0 1 .65-1.97z" /></g></svg>