<svg width="1440" height="900" viewBox="0 0 1440 900" fill="none" xmlns="http://www.w3.org/2000/svg">
<g clip-path="url(#clip0)">
<rect width="1440" height="900" fill="white"/>
<rect x="376.811" y="337.621" width="18.6067" height="18.6067" rx="1" transform="rotate(-148.181 376.811 337.621)" fill="#F8BA5E"/>
<rect x="376.811" y="337.621" width="18.6067" height="18.6067" rx="1" transform="rotate(-148.181 376.811 337.621)" fill="#00BF76"/>
<rect x="376.811" y="337.621" width="18.6067" height="18.6067" rx="1" transform="rotate(-148.181 376.811 337.621)" fill="#FFD7D8"/>
<path d="M154.462 579.614C157.166 578.141 160.45 580.148 160.374 583.226L160.114 593.615C160.038 596.693 156.657 598.534 154.03 596.929L145.162 591.51C142.535 589.904 142.631 586.056 145.335 584.584L154.462 579.614Z" fill="#1368DA"/>
<mask id="path-3-inside-1" fill="white">
<rect width="39.3266" height="39.3266" rx="8.48464" transform="matrix(0.698268 0.715837 0.715837 -0.698268 -28 114.46)"/>
</mask>
<rect width="39.3266" height="39.3266" rx="8.48464" transform="matrix(0.698268 0.715837 0.715837 -0.698268 -28 114.46)" stroke="#1368DA" stroke-width="33.82" mask="url(#path-3-inside-1)"/>
<rect width="39.3266" height="39.3266" rx="8.48464" transform="matrix(0.698268 0.715837 0.715837 -0.698268 -28 114.46)" stroke="#00BF76" stroke-width="33.82" mask="url(#path-3-inside-1)"/>
<rect width="39.3266" height="39.3266" rx="8.48464" transform="matrix(0.698268 0.715837 0.715837 -0.698268 -28 114.46)" stroke="#F8BA5E" stroke-width="33.82" mask="url(#path-3-inside-1)"/>
<rect width="39.3266" height="39.3266" rx="8.48464" transform="matrix(0.698268 0.715837 0.715837 -0.698268 -28 114.46)" stroke="#AE9CE7" stroke-width="33.82" mask="url(#path-3-inside-1)"/>
<circle cx="360.5" cy="116.5" r="10.5" fill="#00BF76"/>
<rect x="1113.81" y="115.621" width="18.6067" height="18.6067" rx="1" transform="rotate(-148.181 1113.81 115.621)" fill="#F8BA5E"/>
<rect x="1113.81" y="115.621" width="18.6067" height="18.6067" rx="1" transform="rotate(-148.181 1113.81 115.621)" fill="#00BF76"/>
<rect x="1113.81" y="115.621" width="18.6067" height="18.6067" rx="1" transform="rotate(-148.181 1113.81 115.621)" fill="#FFD7D8"/>
<path d="M1236.08 368.614C1234.85 365.792 1237.14 362.695 1240.2 363.04L1250.53 364.204C1253.59 364.549 1255.12 368.077 1253.3 370.554L1247.12 378.916C1245.3 381.393 1241.47 380.962 1240.24 378.14L1236.08 368.614Z" fill="#AE9CE7"/>
<mask id="path-7-inside-2" fill="white">
<rect width="39.3266" height="39.3266" rx="8.48464" transform="matrix(0.698268 0.715837 0.715837 -0.698268 799 289.46)"/>
</mask>
<rect width="39.3266" height="39.3266" rx="8.48464" transform="matrix(0.698268 0.715837 0.715837 -0.698268 799 289.46)" stroke="#1368DA" stroke-width="33.82" mask="url(#path-7-inside-2)"/>
<rect width="39.3266" height="39.3266" rx="8.48464" transform="matrix(0.698268 0.715837 0.715837 -0.698268 799 289.46)" stroke="#00BF76" stroke-width="33.82" mask="url(#path-7-inside-2)"/>
<rect width="39.3266" height="39.3266" rx="8.48464" transform="matrix(0.698268 0.715837 0.715837 -0.698268 799 289.46)" stroke="#F8BA5E" stroke-width="33.82" mask="url(#path-7-inside-2)"/>
</g>
<defs>
<clipPath id="clip0">
<rect width="1440" height="900" fill="white"/>
</clipPath>
</defs>
</svg>
