<svg width="2744" height="983" viewBox="0 0 2744 983" fill="none" xmlns="http://www.w3.org/2000/svg">
<rect x="1575.92" y="349" width="14" height="14" rx="1" transform="rotate(25 1575.92 349)" fill="#FFD7D8"/>
<rect x="1439" y="508" width="14" height="14" rx="1" transform="rotate(-30 1439 508)" fill="#00BF76"/>
<path d="M2386.19 379.076C2388.5 378.563 2390.5 380.743 2389.79 383L2386.78 392.557C2386.07 394.814 2383.18 395.456 2381.58 393.712L2374.81 386.328C2373.21 384.584 2374.1 381.762 2376.41 381.249L2386.19 379.076Z" fill="#AE9CE7"/>
<circle cx="2145" cy="492" r="9" fill="#00BF76"/>
<circle cx="1894" cy="363" r="8" fill="#FFD7D8"/>
<path d="M225.261 592.167C224.315 594.336 226.072 596.716 228.423 596.451L236.361 595.557C238.713 595.292 239.896 592.58 238.49 590.676L233.747 584.249C232.341 582.345 229.402 582.676 228.455 584.845L225.261 592.167Z" fill="#AE9CE7"/>
<rect width="24" height="24" rx="2" transform="matrix(0.707107 0.707107 0.707107 -0.707107 1231 458.97)" stroke="#1368DA" stroke-width="12.9972"/>
<rect width="14" height="14" rx="1" transform="matrix(0.34202 0.939693 0.939693 -0.34202 0 437.788)" fill="#FFD7D8"/>
<path d="M946.191 362.634C948.501 363.147 950.501 360.967 949.79 358.709L946.781 349.153C946.071 346.895 943.183 346.254 941.583 347.998L934.811 355.382C933.211 357.126 934.1 359.948 936.41 360.461L946.191 362.634Z" fill="#AE9CE7"/>
<circle r="8" transform="matrix(1 -8.74228e-08 -8.74228e-08 -1 427.001 347)" fill="#FFD7D8"/>
<rect width="16" height="16" rx="1" transform="matrix(0.866025 -0.5 -0.5 -0.866025 580 475.856)" stroke="#00BF76" stroke-width="12.9972"/>
</svg>
