<svg width="2930" height="983" viewBox="0 0 2930 983" fill="none" xmlns="http://www.w3.org/2000/svg">
<rect x="1624.36" y="315.059" width="14" height="14" rx="1" transform="rotate(25 1624.36 315.059)" fill="#FFD7D8"/>
<path d="M1720.26 604.305C1719.31 602.136 1721.07 599.755 1723.42 600.02L1731.36 600.915C1733.71 601.18 1734.9 603.891 1733.49 605.796L1728.75 612.222C1727.34 614.127 1724.4 613.795 1723.46 611.626L1720.26 604.305Z" fill="#AE9CE7"/>
<rect width="24" height="24" rx="2" transform="matrix(0.707107 0.707107 0.707107 -0.707107 1477 390.211)" stroke="#F8BA5E" stroke-width="12.9972"/>
<rect width="24" height="24" rx="2" transform="matrix(0.707107 0.707107 0.707107 -0.707107 2838 500)" stroke="#1368DA" stroke-width="12.9972"/>
<rect x="2258.77" y="344.545" width="14" height="14" rx="1" transform="rotate(-70 2258.77 344.545)" fill="#FFD7D8"/>
<rect width="16" height="16" rx="1" transform="matrix(0.866025 -0.5 -0.5 -0.866025 1940 350)" stroke="#00BF76" stroke-width="12.9972"/>
<rect x="2409.18" y="551.167" width="16" height="16" rx="1" transform="rotate(-20 2409.18 551.167)" fill="#FFD7D8"/>
<rect x="1537.2" y="548.893" width="14" height="14" rx="1" transform="rotate(-30 1537.2 548.893)" fill="#00BF76"/>
<path d="M2627.19 324.076C2629.5 323.563 2631.5 325.743 2630.79 328L2627.78 337.557C2627.07 339.814 2624.18 340.456 2622.58 338.712L2615.81 331.328C2614.21 329.584 2615.1 326.762 2617.41 326.249L2627.19 324.076Z" fill="#AE9CE7"/>
<circle cx="2349" cy="417" r="9" fill="#00BF76"/>
<circle cx="2080" cy="590" r="8" fill="#FFD7D8"/>
<rect x="2721.49" y="411.913" width="16" height="16" rx="1" transform="rotate(-60 2721.49 411.913)" fill="#FFD7D8"/>
<circle cx="2822" cy="615" r="7" fill="#00BF76"/>
<rect width="14" height="14" rx="1" transform="matrix(0.906308 -0.422618 -0.422618 -0.906308 158 622)" fill="#FFD7D8"/>
<path d="M253.262 332.695C252.316 334.864 254.073 337.245 256.425 336.98L264.362 336.085C266.714 335.82 267.897 333.109 266.491 331.204L261.748 324.778C260.343 322.873 257.403 323.205 256.456 325.374L253.262 332.695Z" fill="#AE9CE7"/>
<rect x="10" y="540" width="24" height="24" rx="2" transform="rotate(-45 10 540)" stroke="#F8BA5E" stroke-width="12.9972"/>
<rect width="14" height="14" rx="1" transform="matrix(0.34202 0.939693 0.939693 -0.34202 792 592)" fill="#FFD7D8"/>
<rect x="473.001" y="580" width="16" height="16" rx="1" transform="rotate(30 473.001 580)" stroke="#00BF76" stroke-width="12.9972"/>
<rect width="16" height="16" rx="1" transform="matrix(0.939693 0.34202 0.34202 -0.939693 950 396)" fill="#FFD7D8"/>
<rect width="14" height="14" rx="1" transform="matrix(0.866026 0.5 0.5 -0.866026 70 388)" fill="#00BF76"/>
<path d="M1160.19 599.924C1162.5 600.437 1164.5 598.257 1163.79 596L1160.78 586.443C1160.07 584.186 1157.18 583.544 1155.58 585.288L1148.81 592.672C1147.21 594.416 1148.1 597.238 1150.41 597.751L1160.19 599.924Z" fill="#AE9CE7"/>
<circle r="9" transform="matrix(1 -8.74228e-08 -8.74228e-08 -1 882.001 521)" fill="#00BF76"/>
<circle r="8" transform="matrix(1 -8.74228e-08 -8.74228e-08 -1 613.001 347)" fill="#FFD7D8"/>
<rect width="16" height="16" rx="1" transform="matrix(0.5 0.866025 0.866025 -0.5 1260 525)" fill="#FFD7D8"/>
<circle r="7" transform="matrix(1 -8.74228e-08 -8.74228e-08 -1 1355 323)" fill="#00BF76"/>
</svg>
