<svg xmlns="http://www.w3.org/2000/svg" xmlns:xlink="http://www.w3.org/1999/xlink" viewBox="0 0 2355.97 1602.83"><defs><style>.cls-1{opacity:0.27;fill:url(#linear-gradient);}.cls-2{fill:url(#linear-gradient-2);}.cls-3{fill:url(#linear-gradient-3);}.cls-4{fill:url(#linear-gradient-4);}.cls-5{fill:url(#linear-gradient-5);}.cls-6{fill:url(#linear-gradient-6);}.cls-7{fill:url(#linear-gradient-7);}.cls-8{fill:url(#linear-gradient-8);}.cls-9{fill:url(#linear-gradient-9);}.cls-10{opacity:0.35;fill:url(#linear-gradient-10);}.cls-11{fill:url(#linear-gradient-11);}.cls-12{fill:url(#linear-gradient-12);}.cls-13{fill:url(#linear-gradient-13);}.cls-14{opacity:0.65;fill:url(#linear-gradient-14);}.cls-15{fill:url(#linear-gradient-15);}.cls-16{fill:url(#linear-gradient-16);}.cls-17{fill:url(#linear-gradient-17);}.cls-18{fill:url(#linear-gradient-18);}.cls-19{fill:url(#linear-gradient-19);}.cls-20{fill:url(#linear-gradient-20);}.cls-21{fill:#fff;}.cls-22{fill:url(#linear-gradient-21);}.cls-23{fill:url(#linear-gradient-22);}.cls-24{fill:url(#linear-gradient-23);}.cls-25{fill:url(#linear-gradient-24);}.cls-26{fill:url(#linear-gradient-25);}.cls-27{opacity:0.59;fill:url(#linear-gradient-26);}.cls-28{fill:url(#linear-gradient-27);}.cls-29{fill:url(#linear-gradient-28);}.cls-30{fill:url(#linear-gradient-29);}.cls-31{fill:url(#linear-gradient-30);}.cls-32{fill:url(#linear-gradient-31);}.cls-33{fill:url(#linear-gradient-32);}.cls-34{fill:none;}.cls-35{fill:#24ceff;}.cls-36{fill:url(#linear-gradient-33);}.cls-37{fill:url(#linear-gradient-34);}.cls-38{fill:#b8e7ff;}.cls-39{fill:url(#linear-gradient-35);}.cls-40{fill:url(#linear-gradient-36);}.cls-41{fill:url(#linear-gradient-37);}.cls-42{fill:url(#linear-gradient-38);}.cls-43,.cls-44,.cls-45,.cls-46,.cls-47,.cls-48,.cls-49,.cls-50,.cls-51,.cls-52,.cls-53,.cls-54,.cls-55,.cls-56,.cls-57,.cls-58,.cls-59,.cls-60,.cls-61,.cls-62,.cls-63,.cls-64,.cls-65,.cls-66,.cls-67{opacity:0.48;}.cls-43{fill:url(#linear-gradient-39);}.cls-44{fill:url(#linear-gradient-40);}.cls-45{fill:url(#linear-gradient-41);}.cls-46{fill:url(#linear-gradient-42);}.cls-47{fill:url(#linear-gradient-43);}.cls-48{fill:url(#linear-gradient-44);}.cls-49{fill:url(#linear-gradient-45);}.cls-50{fill:url(#linear-gradient-46);}.cls-51{fill:url(#linear-gradient-47);}.cls-52{fill:url(#linear-gradient-48);}.cls-53{fill:url(#linear-gradient-49);}.cls-54{fill:url(#linear-gradient-50);}.cls-55{fill:url(#linear-gradient-51);}.cls-56{fill:url(#linear-gradient-52);}.cls-57{fill:url(#linear-gradient-53);}.cls-58{fill:url(#linear-gradient-54);}.cls-59{fill:url(#linear-gradient-55);}.cls-60{fill:url(#linear-gradient-56);}.cls-61{fill:url(#linear-gradient-57);}.cls-62{fill:url(#linear-gradient-58);}.cls-63{fill:url(#linear-gradient-59);}.cls-64{fill:url(#linear-gradient-60);}.cls-65{fill:url(#linear-gradient-61);}.cls-66{fill:url(#linear-gradient-62);}.cls-67{fill:url(#linear-gradient-63);}.cls-68{fill:url(#linear-gradient-64);}.cls-69{fill:url(#linear-gradient-65);}.cls-70{fill:url(#linear-gradient-66);}.cls-71{fill:url(#linear-gradient-67);}.cls-72{fill:url(#linear-gradient-68);}.cls-73{fill:url(#linear-gradient-69);}.cls-74{fill:url(#linear-gradient-70);}.cls-75{fill:url(#linear-gradient-71);}.cls-76{fill:url(#linear-gradient-72);}.cls-77{fill:url(#linear-gradient-73);}.cls-78{fill:url(#linear-gradient-74);}.cls-79{fill:url(#linear-gradient-75);}.cls-80{fill:url(#linear-gradient-76);}.cls-81{fill:url(#linear-gradient-77);}.cls-82{fill:url(#linear-gradient-78);}.cls-83{fill:url(#linear-gradient-79);}.cls-84{fill:url(#linear-gradient-80);}.cls-85{fill:url(#linear-gradient-81);}.cls-86{fill:url(#linear-gradient-82);}.cls-87{fill:url(#linear-gradient-83);}.cls-88{fill:url(#linear-gradient-84);}.cls-89{fill:url(#linear-gradient-85);}.cls-90{fill:url(#linear-gradient-86);}.cls-91{fill:url(#linear-gradient-87);}.cls-92{fill:url(#linear-gradient-88);}.cls-93{fill:url(#linear-gradient-89);}.cls-94{fill:url(#linear-gradient-90);}</style><linearGradient id="linear-gradient" x1="1177.98" y1="1200.52" x2="1177.98" gradientUnits="userSpaceOnUse"><stop offset="0" stop-color="#61c2ff"/><stop offset="1" stop-color="#247ca8"/></linearGradient><linearGradient id="linear-gradient-2" x1="861.58" y1="963.32" x2="861.58" y2="1218.51" gradientUnits="userSpaceOnUse"><stop offset="0" stop-color="#00066c"/><stop offset="1" stop-color="#00087f"/><stop offset="1" stop-color="#5fc0fc"/></linearGradient><linearGradient id="linear-gradient-3" x1="591.75" y1="952.02" x2="591.75" y2="1255.25" gradientUnits="userSpaceOnUse"><stop offset="0" stop-color="#141c6b"/><stop offset="1" stop-color="#337abd"/></linearGradient><linearGradient id="linear-gradient-4" x1="830.91" y1="1013.01" x2="830.91" y2="1342.97" xlink:href="#linear-gradient-3"/><linearGradient id="linear-gradient-5" x1="886.14" y1="1074.52" x2="822.12" y2="816.49" gradientUnits="userSpaceOnUse"><stop offset="0" stop-color="#00009e"/><stop offset="1" stop-color="#247ca8"/></linearGradient><linearGradient id="linear-gradient-6" x1="892.56" y1="1052.93" x2="829.27" y2="797.85" gradientUnits="userSpaceOnUse"><stop offset="0" stop-color="#61c2ff"/><stop offset="0" stop-color="#2d75ce"/><stop offset="1" stop-color="#007cc0"/></linearGradient><linearGradient id="linear-gradient-7" x1="860.52" y1="997.46" x2="784.76" y2="692.06" gradientTransform="translate(-45.02 -41.43) rotate(2.36)" gradientUnits="userSpaceOnUse"><stop offset="0" stop-color="#00009e"/><stop offset="1" stop-color="#24ceff"/></linearGradient><linearGradient id="linear-gradient-8" x1="759.78" y1="933.99" x2="696.99" y2="680.89" xlink:href="#linear-gradient-7"/><linearGradient id="linear-gradient-9" x1="873.26" y1="988.86" x2="843.59" y2="869.3" gradientTransform="translate(-45.02 -41.43) rotate(2.36)" gradientUnits="userSpaceOnUse"><stop offset="0" stop-color="#24ceff"/><stop offset="1" stop-color="#24ceff"/></linearGradient><linearGradient id="linear-gradient-10" x1="653.33" y1="912.79" x2="852.68" y2="912.79" gradientUnits="userSpaceOnUse"><stop offset="0.29" stop-color="#00009e"/><stop offset="1" stop-color="#24a1ff" stop-opacity="0"/></linearGradient><linearGradient id="linear-gradient-11" x1="1673.41" y1="744.07" x2="1927.14" y2="304.58" gradientUnits="userSpaceOnUse"><stop offset="0" stop-color="#006837"/><stop offset="0.33" stop-color="#00b949"/><stop offset="0.52" stop-color="#00b949"/><stop offset="1" stop-color="#006837"/></linearGradient><linearGradient id="linear-gradient-12" x1="1749.99" y1="1006.8" x2="1919.76" y2="712.75" gradientUnits="userSpaceOnUse"><stop offset="0" stop-color="#006837"/><stop offset="0.33" stop-color="#00b949"/></linearGradient><linearGradient id="linear-gradient-13" x1="1614.88" y1="1304.53" x2="1614.88" y2="1065.38" gradientUnits="userSpaceOnUse"><stop offset="0" stop-color="#00a0e7"/><stop offset="1" stop-color="#61c2ff"/></linearGradient><linearGradient id="linear-gradient-14" x1="1514.89" y1="1184.96" x2="1714.86" y2="1184.96" gradientUnits="userSpaceOnUse"><stop offset="0" stop-color="#05129f"/><stop offset="0.59" stop-color="#61c2ff"/><stop offset="1" stop-color="#4be8e5"/></linearGradient><linearGradient id="linear-gradient-15" x1="1631.16" y1="1135.69" x2="1604.37" y2="1027.71" gradientUnits="userSpaceOnUse"><stop offset="0" stop-color="#002389"/><stop offset="0.8" stop-color="#0095eb"/></linearGradient><linearGradient id="linear-gradient-16" x1="3297.56" y1="882.98" x2="3072.28" y2="492.77" gradientTransform="translate(-1733.4)" xlink:href="#linear-gradient-12"/><linearGradient id="linear-gradient-17" x1="3364.87" y1="819.75" x2="3557.48" y2="819.75" gradientTransform="translate(-1733.4)" gradientUnits="userSpaceOnUse"><stop offset="0" stop-color="#2b4a96"/><stop offset="0.98" stop-color="#5d92c4"/></linearGradient><linearGradient id="linear-gradient-18" x1="3245.96" y1="1112.64" x2="3245.96" y2="728.43" xlink:href="#linear-gradient-17"/><linearGradient id="linear-gradient-19" x1="3403.64" y1="999.94" x2="3568.63" y2="999.94" xlink:href="#linear-gradient-17"/><linearGradient id="linear-gradient-20" x1="1308.5" y1="963.96" x2="1308.5" y2="473.37" gradientUnits="userSpaceOnUse"><stop offset="0.77" stop-color="#24ceff"/><stop offset="1" stop-color="#071db0"/></linearGradient><linearGradient id="linear-gradient-21" x1="1048.51" y1="693.07" x2="1048.51" y2="708.35" gradientUnits="userSpaceOnUse"><stop offset="1" stop-color="#07ccf6"/><stop offset="1" stop-color="#247ca8"/></linearGradient><linearGradient id="linear-gradient-22" x1="984.54" y1="764.07" x2="984.54" y2="649.94" gradientUnits="userSpaceOnUse"><stop offset="0" stop-color="#00009e"/><stop offset="0.02" stop-color="#0209a3"/><stop offset="0.12" stop-color="#0b31bc"/><stop offset="0.23" stop-color="#1354d0"/><stop offset="0.35" stop-color="#1970e1"/><stop offset="0.48" stop-color="#1e86ef"/><stop offset="0.61" stop-color="#2195f8"/><stop offset="0.77" stop-color="#239efd"/><stop offset="1" stop-color="#24a1ff"/></linearGradient><linearGradient id="linear-gradient-23" x1="984.54" y1="677.56" x2="984.54" y2="622.31" gradientUnits="userSpaceOnUse"><stop offset="0" stop-color="#00009e"/><stop offset="1" stop-color="#24a1ff"/></linearGradient><linearGradient id="linear-gradient-24" x1="1014.07" y1="1438.26" x2="1573.21" y2="469.82" xlink:href="#linear-gradient-5"/><linearGradient id="linear-gradient-25" x1="1494.05" y1="1025.07" x2="1358.18" y2="477.44" gradientUnits="userSpaceOnUse"><stop offset="0" stop-color="#00066c"/><stop offset="1" stop-color="#5fc0fc"/></linearGradient><linearGradient id="linear-gradient-26" x1="1519.22" y1="910.06" x2="1421.59" y2="516.56" xlink:href="#linear-gradient-10"/><linearGradient id="linear-gradient-27" x1="1203.28" y1="1500.88" x2="1260.97" y2="1400.97" gradientUnits="userSpaceOnUse"><stop offset="0" stop-color="#247ca8"/><stop offset="1" stop-color="#0613a0"/></linearGradient><linearGradient id="linear-gradient-28" x1="923.4" y1="1360.44" x2="977.11" y2="1267.42" xlink:href="#linear-gradient-27"/><linearGradient id="linear-gradient-29" x1="892.26" y1="1392.87" x2="1091.5" y2="1047.78" xlink:href="#linear-gradient-5"/><linearGradient id="linear-gradient-30" x1="932.41" y1="1365.86" x2="1003.1" y2="1243.43" xlink:href="#linear-gradient-27"/><linearGradient id="linear-gradient-31" x1="856.64" y1="1095.63" x2="1420.88" y2="1095.63" xlink:href="#linear-gradient-2"/><linearGradient id="linear-gradient-32" x1="830.37" y1="1204.58" x2="1419.14" y2="1204.58" gradientUnits="userSpaceOnUse"><stop offset="0" stop-color="#61c2ff"/><stop offset="0" stop-color="#39d8fc"/><stop offset="1" stop-color="#007cc0"/></linearGradient><linearGradient id="linear-gradient-33" x1="1279.48" y1="1327.11" x2="1213.65" y2="1289.11" gradientUnits="userSpaceOnUse"><stop offset="0.2" stop-color="#247ca8"/><stop offset="1" stop-color="#0b22a0"/></linearGradient><linearGradient id="linear-gradient-34" x1="980.96" y1="1559.12" x2="1078.68" y2="1559.12" xlink:href="#linear-gradient-33"/><linearGradient id="linear-gradient-35" x1="917" y1="1010.98" x2="1236.17" y2="1010.98" xlink:href="#linear-gradient-5"/><linearGradient id="linear-gradient-36" x1="1065.41" y1="1268.26" x2="1065.41" y2="1168.77" gradientUnits="userSpaceOnUse"><stop offset="0" stop-color="#247ca8"/><stop offset="1" stop-color="#00009e"/></linearGradient><linearGradient id="linear-gradient-37" x1="1166.7" y1="1193.64" x2="1336.3" y2="899.9" gradientUnits="userSpaceOnUse"><stop offset="0" stop-color="#2452a8"/><stop offset="1" stop-color="#0613a0"/></linearGradient><linearGradient id="linear-gradient-38" x1="1463.78" y1="738.26" x2="1095.36" y2="738.26" gradientUnits="userSpaceOnUse"><stop offset="0.73" stop-color="#61c2ff"/><stop offset="1" stop-color="#245ba8"/></linearGradient><linearGradient id="linear-gradient-39" x1="1342.92" y1="591.33" x2="1342.92" y2="592.33" gradientUnits="userSpaceOnUse"><stop offset="0" stop-color="#00066c"/><stop offset="1" stop-color="#35fcff"/><stop offset="1" stop-color="#5fc0fc"/></linearGradient><linearGradient id="linear-gradient-40" x1="1216.64" y1="591.33" x2="1216.64" y2="592.33" xlink:href="#linear-gradient-39"/><linearGradient id="linear-gradient-41" x1="1348.87" y1="564.34" x2="1348.87" y2="565.34" xlink:href="#linear-gradient-39"/><linearGradient id="linear-gradient-42" x1="1303.65" y1="644.5" x2="1303.65" y2="645.5" xlink:href="#linear-gradient-39"/><linearGradient id="linear-gradient-43" x1="1338.59" y1="617.51" x2="1338.59" y2="618.51" xlink:href="#linear-gradient-39"/><linearGradient id="linear-gradient-44" x1="1213.47" y1="617.51" x2="1213.47" y2="618.51" xlink:href="#linear-gradient-39"/><linearGradient id="linear-gradient-45" x1="1300.06" y1="698.78" x2="1300.06" y2="699.78" xlink:href="#linear-gradient-39"/><linearGradient id="linear-gradient-46" x1="1302.06" y1="671.79" x2="1302.06" y2="672.79" xlink:href="#linear-gradient-39"/><linearGradient id="linear-gradient-47" x1="1328.36" y1="751.94" x2="1328.36" y2="752.94" xlink:href="#linear-gradient-39"/><linearGradient id="linear-gradient-48" x1="1125.45" y1="751.94" x2="1125.45" y2="752.94" xlink:href="#linear-gradient-39"/><linearGradient id="linear-gradient-49" x1="1032.74" y1="751.94" x2="1032.74" y2="752.94" xlink:href="#linear-gradient-39"/><linearGradient id="linear-gradient-50" x1="1305.77" y1="724.96" x2="1305.77" y2="725.96" xlink:href="#linear-gradient-39"/><linearGradient id="linear-gradient-51" x1="1332.79" y1="806.36" x2="1332.79" y2="807.36" xlink:href="#linear-gradient-39"/><linearGradient id="linear-gradient-52" x1="1076.45" y1="806.36" x2="1076.45" y2="807.36" xlink:href="#linear-gradient-39"/><linearGradient id="linear-gradient-53" x1="1125.99" y1="779.38" x2="1125.99" y2="780.38" xlink:href="#linear-gradient-39"/><linearGradient id="linear-gradient-54" x1="1036.42" y1="779.38" x2="1036.42" y2="780.38" xlink:href="#linear-gradient-39"/><linearGradient id="linear-gradient-55" x1="1324.74" y1="779.38" x2="1324.74" y2="780.38" xlink:href="#linear-gradient-39"/><linearGradient id="linear-gradient-56" x1="1333.96" y1="859.53" x2="1333.96" y2="860.53" xlink:href="#linear-gradient-39"/><linearGradient id="linear-gradient-57" x1="1052.14" y1="859.53" x2="1052.14" y2="860.53" xlink:href="#linear-gradient-39"/><linearGradient id="linear-gradient-58" x1="1333.16" y1="832.54" x2="1333.16" y2="833.54" xlink:href="#linear-gradient-39"/><linearGradient id="linear-gradient-59" x1="1063.82" y1="832.54" x2="1063.82" y2="833.54" xlink:href="#linear-gradient-39"/><linearGradient id="linear-gradient-60" x1="1391.85" y1="913.81" x2="1391.85" y2="914.81" xlink:href="#linear-gradient-39"/><linearGradient id="linear-gradient-61" x1="1336.56" y1="886.82" x2="1336.56" y2="887.82" xlink:href="#linear-gradient-39"/><linearGradient id="linear-gradient-62" x1="1043.13" y1="886.82" x2="1043.13" y2="887.82" xlink:href="#linear-gradient-39"/><linearGradient id="linear-gradient-63" x1="1418.73" y1="939.99" x2="1418.73" y2="940.99" xlink:href="#linear-gradient-39"/><linearGradient id="linear-gradient-64" x1="999.75" y1="728.43" x2="1108.1" y2="728.43" gradientUnits="userSpaceOnUse"><stop offset="0.17" stop-color="#24ceff"/><stop offset="1" stop-color="#007bd7"/></linearGradient><linearGradient id="linear-gradient-65" x1="1220.68" y1="719.65" x2="1381.28" y2="719.65" gradientTransform="matrix(1, 0, 0, 1, 0, 0)" xlink:href="#linear-gradient-7"/><linearGradient id="linear-gradient-66" x1="1232.25" y1="880.69" x2="1319.07" y2="880.69" gradientTransform="matrix(1, 0, 0, 1, 0, 0)" xlink:href="#linear-gradient-7"/><linearGradient id="linear-gradient-67" x1="944.34" y1="693.29" x2="938.75" y2="670.77" gradientUnits="userSpaceOnUse"><stop offset="0.17" stop-color="#24ceff"/><stop offset="1" stop-color="#00acd7"/></linearGradient><linearGradient id="linear-gradient-68" x1="946.18" y1="707.8" x2="940.59" y2="685.28" xlink:href="#linear-gradient-67"/><linearGradient id="linear-gradient-69" x1="945.45" y1="718.72" x2="940.48" y2="698.67" xlink:href="#linear-gradient-67"/><linearGradient id="linear-gradient-70" x1="943.96" y1="726.84" x2="940.42" y2="712.55" xlink:href="#linear-gradient-67"/><linearGradient id="linear-gradient-71" x1="1120.86" y1="454.34" x2="1284.51" y2="454.34" gradientUnits="userSpaceOnUse"><stop offset="0.96" stop-color="#61d9ff"/><stop offset="1" stop-color="#247ca8"/></linearGradient><linearGradient id="linear-gradient-72" x1="1167.31" y1="527.93" x2="1161.89" y2="506.06" gradientUnits="userSpaceOnUse"><stop offset="0" stop-color="#0d40c5"/><stop offset="0.49" stop-color="#1149c9"/><stop offset="1" stop-color="#61c2ff"/></linearGradient><linearGradient id="linear-gradient-73" x1="1417.3" y1="491.82" x2="1417.3" y2="452.76" gradientTransform="translate(-163.8 -173) rotate(6.67)" gradientUnits="userSpaceOnUse"><stop offset="0" stop-color="#61c2ff" stop-opacity="0"/><stop offset="0.96" stop-color="#fff"/><stop offset="1" stop-color="#adcde0"/></linearGradient><linearGradient id="linear-gradient-74" x1="1351.64" y1="491.62" x2="1351.64" y2="460.51" xlink:href="#linear-gradient-73"/><linearGradient id="linear-gradient-75" x1="1100.25" y1="460.08" x2="1133.53" y2="460.08" gradientUnits="userSpaceOnUse"><stop offset="0.22" stop-color="#fff"/><stop offset="1" stop-color="#fff"/></linearGradient><linearGradient id="linear-gradient-76" x1="1326.12" y1="479.92" x2="1364.01" y2="479.92" gradientTransform="translate(-163.8 -173) rotate(6.67)" gradientUnits="userSpaceOnUse"><stop offset="0.48" stop-color="#000264"/><stop offset="1" stop-color="#247ca8"/></linearGradient><linearGradient id="linear-gradient-77" x1="1245.54" y1="682.34" x2="1245.54" y2="603.18" gradientTransform="matrix(1, 0.05, -0.05, 0.93, -68.83, -183.67)" gradientUnits="userSpaceOnUse"><stop offset="0" stop-color="#1d80ea"/><stop offset="1" stop-color="#61c2ff"/></linearGradient><linearGradient id="linear-gradient-78" x1="1153.75" y1="463.63" x2="1205.39" y2="463.63" xlink:href="#linear-gradient-75"/><linearGradient id="linear-gradient-79" x1="1151.28" y1="463.61" x2="1207.83" y2="463.61" gradientTransform="matrix(1, 0, 0, 1, 0, 0)" xlink:href="#linear-gradient-76"/><linearGradient id="linear-gradient-80" x1="1131.4" y1="415.53" x2="1318.04" y2="415.53" gradientUnits="userSpaceOnUse"><stop offset="0" stop-color="#24a1ff"/><stop offset="1" stop-color="#001962"/></linearGradient><linearGradient id="linear-gradient-81" x1="1222.34" y1="453.87" x2="1222.34" y2="443.66" gradientUnits="userSpaceOnUse"><stop offset="0.22" stop-color="#73eeff"/><stop offset="1" stop-color="#fff"/></linearGradient><linearGradient id="linear-gradient-82" x1="1203.36" y1="446.54" x2="1241.33" y2="450.98" gradientTransform="translate(1325.48 -849.27) rotate(74.38)" xlink:href="#linear-gradient-76"/><linearGradient id="linear-gradient-83" x1="1132.97" y1="442.83" x2="1158.16" y2="442.83" xlink:href="#linear-gradient-75"/><linearGradient id="linear-gradient-84" x1="1132.88" y1="441" x2="1158.55" y2="444.01" gradientTransform="matrix(1, 0, 0, 1, 0, 0)" xlink:href="#linear-gradient-76"/><linearGradient id="linear-gradient-85" x1="2124.12" y1="396.15" x2="2111.22" y2="344.13" gradientTransform="translate(1625.51 -1657.07) rotate(90)" gradientUnits="userSpaceOnUse"><stop offset="0" stop-color="#61c2ff"/><stop offset="1" stop-color="#247ca8"/></linearGradient><linearGradient id="linear-gradient-86" x1="1166.78" y1="535.9" x2="1166.78" y2="521.81" gradientUnits="userSpaceOnUse"><stop offset="0" stop-color="#24a1ff"/><stop offset="1" stop-color="#00009e"/></linearGradient><linearGradient id="linear-gradient-87" x1="1210.41" y1="564.6" x2="1186.28" y2="467.34" gradientUnits="userSpaceOnUse"><stop offset="0.16" stop-color="#1149c9"/><stop offset="1" stop-color="#0d40c5"/><stop offset="1" stop-color="#61c2ff"/></linearGradient><linearGradient id="linear-gradient-88" x1="1201.36" y1="463.07" x2="1171.99" y2="463.07" gradientUnits="userSpaceOnUse"><stop offset="0" stop-color="#61d9ff" stop-opacity="0"/><stop offset="1" stop-color="#94d1ff"/></linearGradient><linearGradient id="linear-gradient-89" x1="1128.87" y1="460.6" x2="1112.14" y2="460.6" xlink:href="#linear-gradient-88"/><linearGradient id="linear-gradient-90" x1="1356.34" y1="1414.6" x2="1356.34" y2="1078.68" gradientUnits="userSpaceOnUse"><stop offset="0" stop-color="#021a98"/><stop offset="1" stop-color="#00023d"/></linearGradient></defs><title>Asset 81</title><g id="Layer_2" data-name="Layer 2"><g id="Layer_122" data-name="Layer 122"><path id="bg" class="cls-1" d="M260.24,1200.52l2089.27-13.25S2407.1,1037,2178.3,1031c-196.56-5.18-242.14-158.27-267.45-281.88C1884.92,622.53,1628.67-115.55,1244,15.53,912.05,128.65,986.52,404.37,744,425.22c-155,13.32-385.47,105-385.47,415.95,0,205.7-12.68,205.7-161.68,225.7,0,0-133.43-18.54-196.84,133.65Z"/><polygon class="cls-2" points="591.75 1142.14 830.37 1218.51 1131.4 1029.63 916.99 963.32 591.75 1142.14"/><path class="cls-3" d="M570.05,964l13.41,286.11s5.84,4.9,13.34,5.17,16.66-4.09,16.66-5.17V986.42S591.86,927.42,570.05,964Z"/><path class="cls-4" d="M808.66,1025l13.41,311.11s25.89,15.54,30,0c2.44-9.22,0-288.65,0-288.65S830.47,988.41,808.66,1025Z"/><path class="cls-5" d="M865.53,1077l248.18-126.62s140.84-71.44-20.36-80.84C1032,866,856,822.62,856,822.62s-31.84-6.54-58.6,0c-38.67,9.44-249.33,135.64-249.33,135.64s-47,35.62,35,55.47c60.4,14.61,216,63.28,216,63.28S838.9,1094.69,865.53,1077Z"/><path class="cls-6" d="M865.53,1057l248.18-126.62s146.48-70.94,11-91C1064,830.34,917,790.62,917,790.62s-31.84-6.54-58.6,0c-38.67,9.44-310.33,147.64-310.33,147.64s-47,35.62,35,55.47c60.4,14.61,216,63.28,216,63.28S838.9,1074.69,865.53,1057Z"/><path class="cls-7" d="M538.26,717.66l-2.77,4.82L604.55,941,794.3,986.42l140.14-82.34,3.45-6.37L830.75,899s-102.43-22.1-104.1-22.17-55.58-115.16-55.58-115.16Z"/><polygon class="cls-8" points="538.26 717.66 608.82 936.76 758.52 862.49 698.49 652.21 538.26 717.66"/><polygon class="cls-9" points="608.82 936.76 758.35 862.65 937.89 897.71 793.28 981.23 608.82 936.76"/><polygon class="cls-10" points="653.33 931.51 744.07 952.29 852.68 891.96 763.04 873.28 653.33 931.51"/><path class="cls-11" d="M1957.48,362.41c-47.85-163.27-197.09.75-197.09.75-48.5,60.89-58.64,70.58-45.39,137.28l12.78,5.79h-11.6c.81,3.86,1.68,7.9,2.62,12.15.64,2.88,1.23,5.66,1.79,8.36l7.19,2.08-6.16,3.08c1.56,8,2.72,15.2,3.51,21.77l41.31,11.17s-24.71,2.85-40.07,5c1,38.79-15.32,55.3-43.64,110.15-38.22,74,60.35,99.38,60.35,99.38,69.62,12,88.6-70.91,108.93-119.81,20.71-49.8,55.36-94.51,55.36-94.51,14-31.25,24.84-57.12,33-78.92l-27.69-18.78,33.28,3.29c2.68-7.74,5-14.9,6.94-21.57l-44.69-22.92,49.4,5C1964.8,399.85,1962.91,380.92,1957.48,362.41Z"/><path class="cls-12" d="M1944.72,727.4c-27.19-3.29-47.78,2.24-63.25,11.43l6.64,20.94-15.44-14.95c-27.16,21.1-34.7,52.83-34.7,52.83-28.11,64.35-92.69,77.09-92.69,77.09-74,34.26-23.48,110.71-23.48,110.71,76.55,67,118.5,32.46,138.74-.9l-48.34-32.26,57,15.53a139.24,139.24,0,0,0,7.19-20.16l-26.21-15.37,28.2,3.53c11.07-45.35,61.24-107.62,61.24-107.62C1988.83,742.74,1944.72,727.4,1944.72,727.4Z"/><g id="leaves_left" data-name="leaves left"><path class="cls-13" d="M1517.83,1089l-2.94,145.24s.74,23.12,18.3,32.49,77.25,32.59,77.25,32.59,34,15.25,52.68-6.42,35.93-46.88,35.93-46.88,5.28-2.7,6.69-42.89l9.12-135.61-28.33-2.13Z"/><path class="cls-14" d="M1517.83,1089l-2.94,145.24s.74,23.12,18.3,32.49,77.25,32.59,77.25,32.59,34,15.25,52.68-6.42,35.93-46.88,35.93-46.88,5.28-2.7,6.69-42.89l9.12-135.61-28.33-2.13Z"/><path class="cls-15" d="M1520.9,1096,1621,1130.51s21.6,7.75,39.16-4.61,51.45-47.73,51.45-47.73,8-14.39-.78-24.36-79.39-30.07-120.81-22.52c-13.35,2.44-52.77,31.75-52.77,31.75S1508.61,1082.06,1520.9,1096Z"/><path class="cls-16" d="M1586.86,837.4s53.38-71.65-.75-127.21-90.42-19.08-93-115.68-70.36-140.63-116.3-123.61c0,0-31.8,21-26.94,68.65s16.37,113.49,19.33,175C1372.65,786.86,1482,1029.49,1586.86,837.4Z"/><path class="cls-17" d="M1632.77,1132.14a1.29,1.29,0,0,0,1.29-1.21c.1-1.73,10.77-189.34,72.8-320.73,68.54-145.17,108-246.56,117.21-301.34a1.29,1.29,0,1,0-2.55-.43c-9.2,54.55-48.56,155.71-117,300.66-62.25,131.86-72.94,319.95-73,321.69a1.29,1.29,0,0,0,1.21,1.36Z"/><path class="cls-18" d="M1568.38,1112.64a1.28,1.28,0,0,0,1.29-1.28c0-.49.23-49.1-13.4-120.18-12.58-65.6-39.86-164.32-98.41-262.12a1.29,1.29,0,1,0-2.22,1.33c58.35,97.48,85.55,195.89,98.09,261.27,13.58,70.84,13.36,119.2,13.36,119.68a1.29,1.29,0,0,0,1.28,1.3Z"/><path class="cls-19" d="M1671.54,1117.07c.57,0,2.09-2.38,2.24-3,.08-.27,6.55-25.17,30.17-66.91,21.79-38.53,62.19-97.94,130.87-162.16a1.29,1.29,0,1,0-1.77-1.89c-69,64.49-109.53,124.17-131.42,162.88-23.74,42-31.27,69.13-31.34,69.4a1.31,1.31,0,0,0,1.25,1.63Z"/></g><path class="cls-20" d="M1259.58,474.33S1277.44,548,1331,548s91.53,154,91.53,154V963.26s-147.35,10-204.28-45.77,6.33-207.07,4.1-238.32-.75-106.61-.75-106.61-20.12-48-15.63-77S1259.58,474.33,1259.58,474.33Z"/><path class="cls-21" d="M1221.62,572.56s-45.22,37.32-62.51,106.61-94.84,118.39-94.84,118.39l-38-94.39s-55,301.54,63.36,157.39l137.84-151.95S1228.38,591.21,1221.62,572.56Z"/><path class="cls-22" d="M1082.62,693.33s-45.53.89-65.62-.14,5.82,4.94,11.72,8.19l27.07,7S1102.47,699.24,1082.62,693.33Z"/><path class="cls-23" d="M984.54,668.08l-57.25-18.14,11.16,85.11s6.22,29,46.09,29,46.09-29,46.09-29l11.16-85.11Z"/><ellipse class="cls-24" cx="984.54" cy="649.94" rx="57.25" ry="27.63"/><path class="cls-25" d="M1643,511.73c-41.86-38.36-242.79-70.89-274-38.36s-61.4,197.43-61.4,197.43l-115,309.2L865.53,1144.1l269,100.46c-17.1,20-20.09,113.86-9.8,225.49s128.13,0,208.5-64.74,71.44-120.56,98.23-238.89,145.12-446.51,185.3-526.88S1664.67,531.56,1643,511.73Zm-318.7,833.92-152.93,122.17s-10.38-141.27,16.41-180.59c0,0,18.19-40.44,51.68-61.65l147.16-109.39-31.06,152.07S1356.8,1313.86,1324.32,1345.65Z"/><path class="cls-26" d="M1308.5,569.21s38.88-96.24,78.14-98.35,177.84,9,221.21,49.18c0,0,42.42-4.51-80.37,221l-88.23,261.26s-8.88,46.32-46.28,46.6-11.8-75.6-17.3-76.74c-96.1-19.9-158.51-80.58-158.51-80.58"/><path class="cls-27" d="M1369.16,714.53s-23.47-95.2-18.27-124.33c12.5-69.93,185.17-136.73,181.62-21-3.91,127.26-74.5,341.58-74.5,341.58l-28.39,21.5Z"/><path class="cls-21" d="M1221.62,572.56s-1.49,75.35.75,106.61-61,182.51-4.1,238.32,204.28,23.06,204.28,23.06V702.05s-38-154-91.53-154l-86.72,75.91-22.68-51.35"/><path class="cls-28" d="M1171.39,1467.82s-7.53,71.76,127.81-44.77l-46.6-17.19Z"/><path class="cls-29" d="M888,1330.21s-5.49,56.12,128.84-39.88l-37.21-15.26Z"/><path class="cls-30" d="M1112.23,1076c-72,20.1-246.7,68.1-246.7,68.1s-45.54,10-16.86,212.58c0,0,12.39,39.14,52.58,17.37s283.54-184.19,283.54-184.19S1184.23,1055.91,1112.23,1076Zm-62,156.56-162.41,98.79c-6.7-85.39,5.86-167.44,5.86-167.44l58.6-21.77,97.95,21.77Z"/><path class="cls-31" d="M888,1332.69s4.09,61.45,162.32-60.78L1017.9,1252Z"/><path class="cls-32" d="M1419.14,1039s-26.83,51.87-246.86,188.93c0,0-118.87-24.06-306.75-95,0,0-42.93-13.39,59.92-48,0,0,202-105.09,273.35-121.55C1198.8,963.32,1443.8,1010.9,1419.14,1039Z"/><path class="cls-33" d="M1217.16,891.61s-381.77,112.45-386.23,161.57,17.86,58,64.74,78.14,314.79,89.3,337.12,116.09c0,0-205.4-163-272.38-189.77l224.38-24.55-153.21,109.39s-42.14,44.65-24.28,89.3,75.9,232.19,67,285.77c0,0,27.92-194.23,14-281.3,0,0,79.81-69.21,164.65-120.56S1465,1051,1402.46,914.76Z"/><path class="cls-34" d="M1217.16,891.61s-381.77,112.45-386.23,161.57,17.86,58,64.74,78.14,314.79,89.3,337.12,116.09c0,0-205.4-163-272.38-189.77l224.38-24.55-153.21,109.39s-42.14,44.65-24.28,89.3,75.9,232.19,67,285.77c0,0,27.92-194.23,14-281.3,0,0,79.81-69.21,164.65-120.56S1455,1051,1392.46,914.76Z"/><polygon class="cls-35" points="1236.17 1263.87 1203.18 1243.26 1217.16 1227.95 1245.28 1246.77 1236.17 1263.87"/><polygon class="cls-35" points="1066.02 1516.23 1065.41 1489.67 1082.02 1489.67 1073.71 1524.91 1066.02 1516.23"/><path class="cls-36" d="M1235.91,1250.55s-1.87,67.56-16,91-5.63,41.29,27.21,26.28,45-93.83,45-93.83S1291.27,1225.22,1235.91,1250.55Z"/><path class="cls-37" d="M1066,1516.24s-74.22,45.21-83.61,66.54,29,23,49.48,17.06S1101.85,1506,1066,1516.24Z"/><path class="cls-38" d="M1231.22,1351.89c-17.51,21-11.42,27.21,16,15.95,33.4-13.74,45-93.83,45-93.83s-2.34-19.71-4.46-12.2c-6.11,21.73-32.84,69-38.47,73.42S1237.09,1344.85,1231.22,1351.89Z"/><path class="cls-39" d="M1184.79,1033.09s53-43.32,51.34-62.57-65.3,4.74-107.16,18.28-37.67-18.56-78.7,0-26,32-69.48,37.81S920.51,1030,917.16,1040s46.25,18.64,46.25,18.64Z"/><path class="cls-40" d="M1015.75,1169.43l111.94,34.45-39.46,32.37,1.4,32s-19.26-67.51-39.36-35.7-39,9.66-39,9.66-15.31-31.2-3.91-58.94l6.21-14.51Z"/><path class="cls-41" d="M1074.3,1112s67.23,52.77,106.58,26.81.43-22.6,63.42-59.44,64-23.24,101.51-51.9c19-14.52,4.92,2.23,40.83-31s27.14-51.84,27.14-51.84l7.21,24.31s17.54,64.2-67.37,100.65L1300,1091.41l-39.77,20.92-108.27,72.77-89.09-64.93,25.4-18.14"/><path class="cls-42" d="M1427,610.53s-4.42-81.71-62-53.8c-24.44,11.85-53.37,39.85-29.35,96.91s40.84,169.65,40.84,169.65L1096.32,697.52s-5,17.33,8,29.05c64.68,58,269.07,222.44,341,196.22C1445.36,922.79,1497.2,864.33,1427,610.53Z"/><path class="cls-21" d="M1221.62,572.56l22.68,51.35s45.42-84.28,82.25-84.84c0,0,89.73,5,92.59,42.42,0,0,12.9,45.77,24.62,97.68,0,0,4.84,26.9,18,92.2,0,0,33.2,170.54-9.31,172.35,0,0-127.12,13.1-181.39-60.27,0,0-52-61.55-91.45-89l23.5-52.63,170.37,67.92-53.59-130.6s-100-26.2-100.43-55.26A427.22,427.22,0,0,1,1221.62,572.56Z"/><rect class="cls-43" x="1264.29" y="591.33" width="157.27" height="1"/><rect class="cls-44" x="1203.18" y="591.33" width="26.9" height="1"/><rect class="cls-45" x="1286.18" y="564.34" width="125.37" height="1"/><rect class="cls-46" x="1170.75" y="644.5" width="265.8" height="1"/><rect class="cls-47" x="1247.64" y="617.51" width="181.92" height="1"/><rect class="cls-48" x="1184.75" y="617.51" width="57.43" height="1"/><rect class="cls-49" x="1152.27" y="698.78" width="295.58" height="1"/><rect class="cls-50" x="1161.27" y="671.79" width="281.58" height="1"/><rect class="cls-51" x="1198.87" y="751.94" width="258.97" height="1"/><rect class="cls-52" x="1116.7" y="751.94" width="17.51" height="1"/><rect class="cls-53" x="1018.97" y="751.94" width="27.54" height="1"/><rect class="cls-54" x="1158.7" y="724.96" width="294.14" height="1"/><rect class="cls-55" x="1197.1" y="806.36" width="271.38" height="1"/><rect class="cls-56" x="1014.55" y="806.36" width="123.8" height="1"/><rect class="cls-57" x="1088.72" y="779.38" width="74.55" height="1"/><rect class="cls-58" x="1015.65" y="779.38" width="41.55" height="1"/><rect class="cls-59" x="1185.99" y="779.38" width="277.48" height="1"/><rect class="cls-60" x="1194.45" y="859.53" width="279.03" height="1"/><rect class="cls-61" x="1014.65" y="859.53" width="74.99" height="1"/><rect class="cls-62" x="1194.84" y="832.54" width="276.63" height="1"/><rect class="cls-63" x="1012.95" y="832.54" width="101.75" height="1"/><rect class="cls-64" x="1310.67" y="913.81" width="162.34" height="1"/><rect class="cls-65" x="1199.1" y="886.82" width="274.92" height="1"/><rect class="cls-66" x="1022.24" y="886.82" width="41.78" height="1"/><rect class="cls-67" x="1376.44" y="939.99" width="84.58" height="1"/><path class="cls-68" d="M1096.32,697.52s-18.53-11.81-39.23,3.59-53.39,14.11-53.39,14.11-8.45,8.74,2.18,9.38,44.67-3.23,51.21-7.44c0,0-45.76,13.92-53.12,13.59s-4.36,13.92,3.27,10.68,53.66-8.41,53.66-10.68-49,17.48-51.21,17.48-6.81,9.71,6.54,6.15,47.67-13.92,47.67-13.92l-45.76,19.43s-2.46,5.5,6.81,3.23,42.4-17.41,47.4-17.36c10,.1,26.51-8.1,26.51-8.1S1121.24,707.88,1096.32,697.52Z"/><path class="cls-69" d="M1381.28,817.75l-160.6-64,3.33-8.36,141.62,56.45c-13.81-36.91-56.81-154.86-52.52-180.25l8.87,1.5c-3.73,22.05,38.92,141.1,55.66,185.11Z"/><path class="cls-70" d="M1317,924.92c-42.52-10-83-81-84.75-84l7.84-4.43c.4.71,40.28,70.58,79,79.7Z"/><path class="cls-71" d="M929.37,673.1s10.26,10,23.66,10.79c0,0,10.24,8.21-4.09,7.07S922.87,683.47,929.37,673.1Z"/><path class="cls-72" d="M931.21,687.61s10.26,10,23.66,10.79c0,0,10.24,8.21-4.1,7.07S924.71,698,931.21,687.61Z"/><path class="cls-73" d="M932.12,700.74s9.14,8.94,21.07,9.61c0,0,9.12,7.31-3.64,6.29S926.34,710,932.12,700.74Z"/><path class="cls-74" d="M934.46,714s6.52,6.37,15,6.85c0,0,6.5,5.21-2.6,4.48S930.34,720.61,934.46,714Z"/><path class="cls-75" d="M1284.51,435.26c0-54.25-37.49-98.23-83.72-98.23s-69.77,13.49-75.4,67.53c-1.19,11.34-6.66,53.05-3.62,63.23h0s28.85,110,56.76,103.59A131.45,131.45,0,0,0,1233.9,543c10.4-9.49,7.27-1.85,15.32-11.16,19.29-22.33,5.92-42.66,10.36-57.49C1262.62,464.15,1284.51,446.66,1284.51,435.26Z"/><path class="cls-76" d="M1139,513.25c-5.54,2.56-8,15.7-.6,11.23s19.91-1,32-3.53,34.51,4.23,24.79-4.74c-7-6.45-9.91-7.26-9.91-7.26S1166.54,500.56,1139,513.25Z"/><path class="cls-77" d="M1194.31,441.77l-20.75,28.29s-5.24,8,5.48,9.26,22.77-9.08,22.77-9.08S1210.37,455.09,1194.31,441.77Z"/><path class="cls-78" d="M1127.57,441.77l-16.51,22.53s-4.18,6.37,4.36,7.37,18.13-7.23,18.13-7.23S1140.36,452.37,1127.57,441.77Z"/><path class="cls-79" d="M1103.54,442.49s14.54-9.83,29.43-.08c0,0,4.75,31-13.59,38.48S1096.18,458.3,1103.54,442.49Z"/><path class="cls-80" d="M1114,484.55a12.79,12.79,0,0,1-9.49-4.17c-8.2-8.6-8.44-27.65-3.19-38.95l.29-.63.58-.39c.65-.43,16.11-10.63,32.2-.09l.94.61.17,1.1a68.56,68.56,0,0,1,.08,17.13c-1.56,12.31-6.82,20.63-15.21,24A16.85,16.85,0,0,1,1114,484.55Zm-8.45-40.34c-4.54,10.54-3.33,26.52,2.58,32.72,2.7,2.84,6.09,3.38,10.36,1.64,14.45-5.89,12.79-29.27,12.2-34.67C1119.2,437.11,1108.1,442.7,1105.5,444.21Z"/><path class="cls-81" d="M1138.31,444.32s-19.53,44.54-10.89,66.46c0,0,8.84,8.71,27.72-8.46l5.67-9-1.22-20.81S1148.12,425.69,1138.31,444.32Z"/><path class="cls-82" d="M1158.16,442.4s22.25-10.87,45.93,1.26c0,0,8.83,36.62-19.45,44.55S1147.41,460.62,1158.16,442.4Z"/><path class="cls-83" d="M1176.89,491.84a22.78,22.78,0,0,1-18.64-9.26c-8.33-10.83-9.34-29.43-2.25-41.45l.39-.65.67-.33c1-.46,23.66-11.27,48.17,1.29l1,.52.27,1.11c.09.39,9,39.06-21.2,47.54A31.21,31.21,0,0,1,1176.89,491.84Zm-17-47.49c-5.62,10.27-4.63,26.18,2.28,35.18,3.57,4.64,10.25,9.5,21.76,6.27,10.63-3,16.86-10.73,18.5-23a57.4,57.4,0,0,0-.58-17.4C1182.2,435.85,1163.64,442.77,1159.93,444.35Z"/><path class="cls-84" d="M1225.72,470.61s-8-32,1.75-46.14,3.22-40.19-4.85-40.56-30.58-4.46-30.58-4.46l-14-7.82s-8.47,1.31-11.44,1.68-4.77.83-8.49-1.4-18,6-15.94.84c5-12.28-10.75,2.26-10.82-7.41s3.75-12.91,2.13-24.59C1131.25,324.38,1143,327,1143,327c12.28-1.11,7.73,3.3,82-3.18,21.24-1.86,64.86,17.32,78.7,43.37,19,35.72,15.66,26.76,9.73,65.86-1.73,11.4-7.5,20.84-25.92,46.29-4,5.61-15,19.31-15,27.12s-28.18-35.83-28.18-35.83S1239.48,450.15,1225.72,470.61Z"/><line class="cls-85" x1="1204.09" y1="443.66" x2="1240.6" y2="453.87"/><rect class="cls-86" x="1219.85" y="429.81" width="5" height="37.91" transform="matrix(0.27, -0.96, 0.96, 0.27, 461.09, 1505.17)"/><path class="cls-87" d="M1133,442.41s8.61,1.92,25.19,0"/><path class="cls-88" d="M1144.2,445.76a59.69,59.69,0,0,1-11.77-.91l1.09-4.88-.55,2.44.54-2.44c.09,0,8.5,1.79,24.36-.05l.58,5A123.23,123.23,0,0,1,1144.2,445.76Z"/><ellipse class="cls-89" cx="1255.38" cy="460.6" rx="27.35" ry="15.21" transform="translate(300.33 1396.55) rotate(-64.57)"/><path class="cls-90" d="M1155.54,535.9a16.88,16.88,0,0,1-4.78-.63c-4.32-1.29-5.6-4-5.65-4.15l.91-.41-.45.21.45-.21s1.18,2.48,5.08,3.61c5.45,1.59,16.26.71,36.81-12.51l.55.84C1172.31,533,1162,535.9,1155.54,535.9Z"/><path class="cls-91" d="M1180,539.07s8.16,11.72,20.82.74,29-18.23,28.65-30.14-4.65-45.8-4.65-45.8l15.81-10s-6.33,29.85,0,39.53,17,22.7,14.51,32.7c-2,7.93-25.26,23.16-25.26,23.16s-54.31,37.25-68.23,16.74-14.38-23.59-14.38-23.59A33.41,33.41,0,0,0,1180,539.07Z"/><path class="cls-92" d="M1185.75,441.77s-19.47,13.54-12.09,18.27,7.56,16.83-1.38,24.2c0,0,26.69,3.22,29.08-24.2l-1.15-13.55Z"/><path class="cls-93" d="M1120,442.57S1108.89,454,1113.09,458s4.31,14.24-.78,20.49c0,0,15.2,2.72,16.56-20.49l-.66-11.48Z"/><path class="cls-21" d="M1130.76,508.7a1.5,1.5,0,0,1-1.5-1.46,149.87,149.87,0,0,1,.65-21.33,1.5,1.5,0,0,1,3,.38,149.7,149.7,0,0,0-.63,20.86,1.5,1.5,0,0,1-1.45,1.55Z"/><path class="cls-94" d="M1386.64,1116.19l49.52-37.51-44.52,222.85s-6.34,50.49-55.08,90.82-57,13.51-57,13.51l-3-18s58-35.35,71.7-77.1C1361.55,1270,1386.64,1116.19,1386.64,1116.19Z"/></g></g></svg>