<svg version="1" xmlns="http://www.w3.org/2000/svg" width="744" height="744" viewBox="0 0 558 558"><circle cx="279" cy="279" r="279" fill="#fff" /><path fill="#0b5fff" d="M257 46c-54.6 5.7-101.7 27.5-140.4 65-37.7 36.6-61 81.9-69.3 135-2.4 15.8-2.4 49.9 0 66 4 26.3 10.2 46 21.7 69.5 12.6 25.8 26.5 45 46.6 64.5 19.4 18.8 37.7 31.7 60.9 43.1 33.8 16.4 64 23.3 102.5 23.3 39.3 0 68.2-6.6 102.5-23.4 26.1-12.8 45.1-26.6 65.3-47.4C481.3 405.9 503 362 510.7 312c2.4-15.9 2.4-50 0-66-4.1-26.4-10.2-46-21.7-69.5-12.6-25.8-26.5-45-46.6-64.5-19.4-18.8-37.7-31.7-60.9-43.1-22.2-10.8-44.1-17.6-68.5-21.4-12.4-1.9-43.9-2.7-56-1.5zm39 93c54.1 6.7 99.3 43.7 116.5 95.3 5.8 17.6 7 25.1 6.9 45.2 0 19-1.5 28.9-6.4 43.6-18.3 54.4-67.3 92.5-124.3 96.5l-9.7.7V138h4.3c2.3 0 8.1.5 12.7 1z"/></svg>