<svg id="pixel-perfect" xmlns="http://www.w3.org/2000/svg" xmlns:xlink="http://www.w3.org/1999/xlink" viewBox="0 0 1000 1000">
    <defs>
        <style>
            .cls-1 {
                fill: #44beeb;
            }

            .cls-2 {
                fill: #e6f9ff;
            }

            .cls-3 {
                fill: #ccdee2;
            }

            .cls-4 {
                fill: #fdcc4a;
            }

            .cls-5 {
                fill: #168cca;
            }

            .cls-6 {
                fill: #d33a2f;
            }

            .cls-7 {
                fill: url(#device-shine);
            }

            .cls-8 {
                fill: #e5eaea;
                opacity: 0.56;
            }

            .cls-9 {
                fill: #c7d9e8;
            }

            .cls-10,
            .cls-15 {
                fill: #1d5577;
            }

            .cls-11,
            .cls-16 {
                fill: #12435b;
            }

            .cls-12 {
                fill: #1f9ce8;
            }

            .cls-13 {
                fill: #382b03;
            }

            .cls-13,
            .cls-15 {
                opacity: 0.23;
            }

            .cls-14 {
                fill: #0a628e;
            }

            .cls-16 {
                opacity: 0.21;
            }

            .cls-17 {
                fill: #19ab4f;
            }

            .cls-18 {
                fill: #0b86d1;
            }

            .cls-19 {
                fill: none;
                stroke: #77c3fc;
                stroke-linecap: round;
                stroke-linejoin: round;
                stroke-width: 0.69px;
                stroke-dasharray: 5.5 5.5;
                animation: loading-line 2s infinite;
            }

            .cls-20 {
                fill: #fff;
            }

            .cls-21 {
                fill: #e06e31;
            }

            .cls-22 {
                opacity: 0.27;
                fill: url(#device-shadow);
            }

            .cls-23 {
                fill: #abdfff;
            }

            .cls-24 {
                fill: #1386bf;
                opacity: 0.08;
            }

            .cls-25 {
                fill: #77c3fc;
            }

            .cls-26 {
                fill: #2a6dc2;
            }

            .cls-27 {
                fill: #245da6;
            }

            .cards {
                animation: card-appear 4s infinite;
                transform-origin: center;
            }

            #doc-icon {
                animation: doc-grow 4s 2s infinite;
                transform-origin: center;
            }

            .placeholders {
                animation: lines-disappear 4s infinite;
                transform: translate(-24px, 16px) scale(0.7);
                transform-origin: center;
            }

            #card-bottom {
                animation-delay: .2s;
            }

            #loading-mask {
                transform: rotate(-29deg);
                transform-origin: 40% 22%;
            }

            .lm {
                animation: 8s infinite;
                transform-origin: 41% 22%;
                stroke-width: 3;
                stroke: white;
                fill: white;
            }

            #lm-1 {
                animation-name: unmask-270;
                animation-delay: 0.0s;
            }
            
            #lm-2 {
                animation-delay: 0.25s;
                animation-name: unmask-180;
            }

            #lm-3 {
                animation-delay: 0.5s;
                animation-name: unmask-90;
            }
            
            @keyframes card-appear {
                0% { transform: translateY(0px); opacity:1; }
                25% { transform: translateY(-24px); opacity:0; }
                50% { transform: translate(-24px, 16px) scale(0.7); opacity:0; }
                70% { opacity: 0.4; }
                75% { transform: translate(-24px, 0px) scale(0.7); opacity:1; }
            }
            
            @keyframes lines-disappear {
                  0% { opacity: 0; }
                 38% { opacity: 0.4; }
                 50% { opacity: 0.3; }
                 68% { opacity: 0; }
                100% { opacity: 0; }
            }

            @keyframes loading-line {
                to { stroke-dashoffset: 55; }
            }

            @keyframes doc-grow {
                25% { transform: translate(-2px, -16px); opacity: 0; }
                50% { transform: translate(2px, 16px); opacity: 0; }
                75% { transform: translateY(0); opacity: 1; }
            }

            @keyframes unmask-270 {
                0% { transform: rotate(0); opacity: 1.0; }
                75% {  transform: rotate(270deg); opacity: 1.0; }    
                100% { transform: rotate(0); opacity: 1.0; }
            }
            @keyframes unmask-180 {
                0% { transform: rotate(0); opacity: 1.0; }
                60% {  transform: rotate(180deg); opacity: 1.0; }    
                100% { transform: rotate(0); opacity: 1.0; }
            }
            @keyframes unmask-90 {
                0% { transform: rotate(0); opacity: 1.0; }
                65% {  transform: rotate(90deg); opacity: 1.0; }    
                100% { transform: rotate(0); opacity: 1.0; }
            }
        </style>
        <linearGradient id="device-shine" x1="842.5" y1="552.09" x2="596.5" y2="410.07" gradientUnits="userSpaceOnUse">
            <stop offset="0.31" stop-color="#fff" stop-opacity="0" />
            <stop offset="1" stop-color="#fff" stop-opacity="0.8" />
        </linearGradient>
        <linearGradient id="device-shadow" x1="547.64" y1="705.53" x2="518.14" y2="786.59" gradientUnits="userSpaceOnUse">
            <stop offset="0.22" stop-color="#fff" stop-opacity="0" />
            <stop offset="1" stop-color="#00004c" stop-opacity="0.6" />
        </linearGradient>
    </defs>
    <title>Analytics Cloud Loading</title>
    <g id="display-lightblue">
        <path id="frame" class="cls-1" d="M803.58,359.29,664.73,279.14C661.15,277.06,657,276,654,279c1.88-.49,6.29-.49,8.93,1L801.77,360.2c6,3.44,10.83,11.13,11.23,17.09V621.42c-.4,2.37-1.18,4.11-2.48,5.15,2.37-.63,3.89-2.73,4.48-6.05V376.38C814.41,370.43,809.53,362.73,803.58,359.29Z" />
        <path id="background" class="cls-2" d="M802.13,626.53,662.87,546.12C656.89,542.67,652,535,652,529V284.1c0-6,4.89-8,10.87-4.59l139.26,80.4c6,3.45,10.87,11.17,10.87,17.15V621.94C813,627.91,808.11,630,802.13,626.53Z" />
        <g id="text-right">
            <polygon class="cls-3" points="786 522.28 740 495.73 740 490.23 786 516.79 786 522.28" />
            <polygon class="cls-3" points="769 552.63 739 533.98 739 528.35 769 547 769 552.63" />
            <polygon class="cls-3" points="769 542.71 739 524.07 739 518.44 769 537.09 769 542.71" />
            <polygon class="cls-3" points="769 532.6 739 513.96 739 508.33 769 526.98 769 532.6" />
        </g>
        <g id="text-left">
            <polygon class="cls-3" points="703 515.53 666 494.17 666 488.68 703 510.04 703 515.53" />
            <polygon class="cls-3" points="712 502.02 666 475.46 666 469.97 712 496.53 712 502.02" />
            <polygon class="cls-3" points="696 472.99 666 455.67 666 450.06 696 467.38 696 472.99" />
        </g>
        <g id="graph">
            <polygon id="bar-yellow" class="cls-4" points="709 435.4 688 423.28 688 371.2 709 383.32 709 435.4" >
                <animate id="s1" attributeName="points" attributeType="XML" from="709 435.4 688 423.28 688 420 709 430 709 435.4" to="709 435.4 688 423.28 688 331.2 709 343.32 709 435.4" dur="1.6s" begin="0s;s2.end" />
                <animate id="s2" attributeName="points" attributeType="XML" from="709 435.4 688 423.28 688 331.2 709 343.32 709 435.4" to="709 435.4 688 423.28 688 420 709 430 709 435.4" dur="1.6s" begin="s1.end" />
            </polygon>
            <polygon id="bar-blue" class="cls-5" points="740 453.72 719 441.6 719 348.06 740 360.19 740 453.72">
                <animate id="s3" attributeName="points" attributeType="XML" from="740 453.72 719 441.6 719 348.06 740 360.19 740 453.72" to="740 453.72 719 441.6 719 440 740 451 740 453.72" dur="1.6s" begin="0.1s;s4.end" />
                <animate id="s4" attributeName="points" attributeType="XML" from="740 453.72 719 441.6 719 440 740 451 740 453.72" to="740 453.72 719 441.6 719 348.06 740 360.19 740 453.72" dur="1.6s" begin="s3.end" />
            </polygon>
            <polygon id="bar-red" class="cls-6" points="771 471.64 750 459.52 750 386.27 771 398.39 771 471.64" >
                <animate id="s5" attributeName="points" attributeType="XML" from="771 471.64 750 459.52 750 386.27 771 398.39 771 471.64" to="771 471.64 750 459.52 750 364 771 376 771 471.64" dur="0.6s" begin="0.2s;s7.end" />
                <animate id="s6" attributeName="points" attributeType="XML" from="771 471.64 750 459.52 750 364 771 376 771 471.64" to="771 471.64 750 459.52 750 455 771 467 771 471.64" dur="1.6s" begin="s5.end;" />
                <animate id="s7" attributeName="points" attributeType="XML" from="771 471.64 750 459.52 750 455 771 467 771 471.64" to="771 471.64 750 459.52 750 386.27 771 398.39 771 471.64" dur="1.0s" begin="s6.end" />
            </polygon>
        </g>
        <polygon id="shine" class="cls-7" points="655 423.32 784 653.41 784 543.58 655 308.75 655 423.32" />
    </g>
    <g id="people">
        <g id="yellow-woman">
            <path class="cls-8" d="M293.93,615.92s-36.18-4.7-68.48,18.46-19.31,33-5.29,33c46.33,0,21.58-22.5,38.3-22.5C280.48,644.85,317,621.63,293.93,615.92Z" />
            <path class="cls-9" d="M218.79,451c-.81-1-19.51-22.53,7.2-29.11,20.32-5,22.09,27.05,15.17,30.5-15.1,7.52,2.49,8.83,2.49,8.83l17.07,16.47s31.24,12,35.65-22c0,0,11.37,47.52-35.65,36.4l-8.36,4.9a143.63,143.63,0,0,1-1.43,32.1s8.31,76.43,7.31,87.35l-21.38-67.37L222,633.39s-8.81-54.68-7.42-82c-.46-4.16,1.79-14.22,4.57-28.76,0,0-8.27-44.91-7.76-54.89,0,0,1.56-8.62,7.67-6.58C219.1,461.16,223.24,456.62,218.79,451Z" />
            <path class="cls-10" d="M216.38,529.1s-17.1,20,5.39,109l19.15-67.22s15.14,37.38,17.32,45.6c0,0,3.58-68.47-5-93.82Z" />
            <path class="cls-11" d="M212.65,535.73s27.17,4.78,43.8,1.71c0,0,1.38-3.81-3.65-12.93Z" />
            <path class="cls-4" d="M219.1,461.16s10.4,12.43,18.13,14.18c0,0,11.13-11.36,5-14.76,0,0,17.28,13.34,34.32,16.59l-.49,23.32s-14.94,1.65-23.74-3.49l4.57,25.63s-15.64,12.08-44.28,13.1c0,0,2.32-6.5,1-17.3-.88-7.43-10.4-16.2-10.55-24.64C202.79,474.26,205.86,456.5,219.1,461.16Z" />
            <path class="cls-10" d="M234.4,419S216,408.87,209.88,427.7l-4.68,24.73,20.8-1.57V431.31a25.09,25.09,0,0,1,6.43,1.52c1.29.58,11.15-6,11.15-6S242.87,416,234.4,419Z" />
            <path class="cls-11" d="M240.92,570.85c2.28-1.79,4.84-15.9,7.91-21.4a46.52,46.52,0,0,0,4,21.8s4,17.39,0,29.78Z" />
            <polygon class="cls-12" points="222 641.44 222 649.9 230.75 657.47 222 641.44" />
            <polygon class="cls-12" points="258 618.25 258 626.71 266.75 634.28 258 618.25" />
            <path class="cls-13" d="M246.16,484.68s-5.3-17.66,22.81-2.2C269,482.48,266.75,483.3,246.16,484.68Z" />
            <path class="cls-13" d="M230.21,489.61c-2.41-.3-15-10.87-5.76-15.21s3.46-16.92,3.46-16.92.32-5.84,13.25-5.06c0,0-15.64,6.75,1.11,8.16C242.27,460.58,248.84,491.94,230.21,489.61Z" />
            <path class="cls-13" d="M206.33,481.77s4,24.07,19.73,34.12,2.48-3.08,6.47-6.36,10.93,3.13,15.54-.95,0-25.61,0-25.61S199.67,473.09,206.33,481.77Z" />
            <path class="cls-4" d="M216.67,465.69s24.78,18.59,40.94,15l4,19.37s-26.71,6.57-45.22,2C216.38,502.05,187,481,216.67,465.69Z" />
        </g>
        <g id="blue-man">
            <path class="cls-8" d="M611.33,692.63s15.53,13.17,34.27,16.91c8.83,1.77,2.79,15.59,13.77,18.75,32.23,9.25,30.17-3.32,24.59-13.75S597.65,662.52,611.33,692.63Z" />
            <path class="cls-10" d="M614.82,575S599.86,564,616,549.3C620.16,545.57,629,574.63,614.82,575Z" />
            <path class="cls-1" d="M616,549.3s14.5-7.71,16.5-15.81c.74-3,16.91-5.49,19.26-3.15l17,5.21Z" />
            <path class="cls-9" d="M653.83,518.18s10.55-18.45-10.54-21.09-17.15,34.54-9.23,33.77c4.63-.45,4.78,3.94,2.8,5.71a62.54,62.54,0,0,1-6.32,5C615.17,551.67,578,564.32,578,564.32s38.92,5,53.42-.22c0,0-7.9,78-2.63,117.53l20.34-44.56L671,708s10.54-64.59,11.86-94.9-2.25-68.18-16.75-72.13C666.08,541,646.31,533.71,653.83,518.18Z" />
            <path class="cls-14" d="M630.3,503.75s-3.44-1.06-4.45-6.79c-1.38-7.9,12.42,1.75,13.45-.89l6.11-3.69,7.71,1.35,3.29,2.19,3.3,5.93s-2.89,14.78-7.55,24.11c0,0,2.49-17.54-2.87-14l-1.59,3.3s-2.88,12.53-5.35-9.12A28.18,28.18,0,0,0,630.3,503.75Z" />
            <path class="cls-12" d="M627.38,686.84s-5.69,0-7.22,2.63S624.34,695.62,627.38,686.84Z" />
            <path class="cls-12" d="M671.35,711.44s-7,7-2.2,8.79S675.74,717.59,671.35,711.44Z" />
            <path class="cls-10" d="M628.11,602.46s-3.22,51.11.68,79.17l20.5-44s12.78,46.07,21.37,69.41c0,0,13.37-62.3,12.42-100.72C683.08,606.28,632,613.51,628.11,602.46Z" />
            <path class="cls-10" d="M645.41,565.13S656.22,578.61,655,584l7-4.35S652.43,562.93,645.41,565.13Z" />
            <path class="cls-10" d="M616.76,550.52s2.19,13.29-1.59,19l5-1.6S620.71,557.44,616.76,550.52Z" />
            <path class="cls-11" d="M630.54,606.65s14.58,23.4,51,23.67c0,0,1.74-12.33,1.56-15.83Z" />
            <path class="cls-1" d="M614.82,575c4.68-.19,15.72-4.39,15.72-4.39l-2.43,31.81c3.77,15.36,55,17.3,55,17.3,4.43-45.7-7.85-76.75-7.85-76.75-.51-8.16-17-8.36-17-8.36L640,543l-3.15-6.44L616,549.3S626.09,574.71,614.82,575Z" />
            <path class="cls-15" d="M652.9,556.56c-.22.66-10.46,42.4-10.46,42.4s43.16-.66,31.95-53Z" />
            <path class="cls-10" d="M643.09,563.65s10.24,40.86,19.91,24.76C663,588.41,671.07,581.06,643.09,563.65Z" />
            <path class="cls-15" d="M655,549.89s-9.25-1-11.68,4.55-6.07,11.71-8.06,12.59-5.07,8.2-5.49,13.76l13.55-10.26S659.74,559.38,655,549.89Z" />
            <path class="cls-9" d="M659.41,539.5s-25.19,39.83-39.25,51.55c0,0,37.42-1.22,49.73-25.63C669.89,565.42,685.19,536,659.41,539.5Z" />
            <path class="cls-1" d="M658.27,534.65l-15.18,29s21.23,15.54,19.91,24.76c0,0,19.63-23.14,12.23-45.4C675.23,543,675.51,533.18,658.27,534.65Z" />
            <path class="cls-11" d="M649.29,637.59s-10.45-19.88-11.33-9.05,1.75,20.72-3.23,23.25c0,0-4.68.57-4.19,12.78,0,0,.46,9.93-1.75,17.06Z" />
            <path class="cls-11" d="M653.58,652.71S670,683.17,676.25,673L671,708Z" />
            <path class="cls-16" d="M635.26,530.86c0-1.11,8.74.55,12-6.1,0,0,5.87-6.76,3.57,4.66s-9,23.25-11.81,19.88S635.78,544.78,635.26,530.86Z" />
            <path class="cls-16" d="M620.16,591.05s27.65-13.22,31.22-20.52l7,7.38S648.69,589,620.16,591.05Z" />
            <polygon class="cls-16" points="591.95 563.65 618 560.02 618 568.72 585.66 565.13 591.95 563.65" />
        </g>
        <g id="green-woman">
            <path class="cls-8" d="M559.87,511.39s12.48,14.72,33.36,17.14,18.32-5.14,13.8-11S548.32,494.17,559.87,511.39Z" />
            <path class="cls-9" d="M591.2,361.66s-9.09,9.06-8.24,20.93l6.63,5-11,8.48s3,14.5,0,35.84-.27,72.86-.27,72.86l12.26-44.36,9.26,8s4.14,12.08,7-18.05c1.32-13.94-16.46-14.88-2.75-30,1.69-1.86,6.18-13.05,5.87-14.67-3.71-18.95-4.26-18.11-7-17.92S629.53,359.62,591.2,361.66Z" />
            <path class="cls-16" d="M605.71,375.16c-.88-1.7-6-2.17-9.33,4.63s-13.42,2.8-13.42,2.8l6.63,5-.9,14.85,10.72-8.81S609,381.46,605.71,375.16Z" />
            <path class="cls-9" d="M578.59,396.07a343.25,343.25,0,0,0-16.16,44.37l23.07-21.58S596.11,371.6,578.59,396.07Z" />
            <polygon class="cls-16" points="562.43 440.44 579.53 413.46 576.8 427 562.43 440.44" />
            <path class="cls-17" d="M600.59,388.43s-11.9,13.31-13.91,13.47l2.91-14.31S565.05,400,579.35,408.06l-.44,24.56,26.67.78s-3.05-9.86,7.12-21.58C612.7,411.82,620.12,385.14,600.59,388.43Z" />
            <path class="cls-10" d="M577.71,429.9s-7.86,16.74.59,74.87l12.26-44.36,6,49.6s20.41-61.22,9-76.61Z" />
            <path class="cls-10" d="M576.47,507.2a8.52,8.52,0,0,1-4.73,7.36l8.39-2.53S581.2,499.85,576.47,507.2Z" />
            <path class="cls-10" d="M596.38,512.14s-2.17,9.2-7.43,10.31l5.26-1.11S605.65,523.14,596.38,512.14Z" />
            <path class="cls-10" d="M611.91,366.47s3.33,10.74-3.69,13.82c0,0-8.58,7.2-4.36-6l-1.43-5.81-2.61.84L597.16,368l-1.08-1.57-2.08,1L588.69,364h-1.75s6.81-8.29,15.65-4.8l5.06,4" />
            <path class="cls-10" d="M604.89,381.87a35.57,35.57,0,0,0-10.37,18.56s5.32-3.92,6.85-4.39c-1.52,3-5.46,5.89-4.83,10.55,0,0,6.07-5.6,9.85-9,0,0,2.13-9.37,2.83-12.16.7-2.25,5.86-8.34,2.11-13.26l-3.59,5.34Z" />
            <path class="cls-16" d="M586.5,402.44s4,7.25,16,8.78C601.42,412,593.71,421.48,586.5,402.44Z" />
            <path class="cls-9" d="M609.37,393.68c-4.66-1-27.64,48.75-27.64,48.75s29.09-25,31-30.61C614.08,407.67,614.81,394.9,609.37,393.68Z" />
            <path class="cls-16" d="M581.73,442.43l31.73-42s3,13-10.93,23.11Z" />
            <path class="cls-11" d="M590.56,460.41s-1.22-14.28-6.43-7.6-6.94,14.34-5.83,22.65c1.23,9.13,0,29.31,0,29.31Z" />
            <path class="cls-10" d="M587.88,386.3s-4.89,1.08-5.13,9.63c0,0-.41,4.57-1,5.27a5.93,5.93,0,0,0,3.48-4.8l1.47,1.52s.36-5.65,2.32-7.39l.59-2.94Z" />
        </g>
    </g>
    <g id="marker">
        <g id="loading">
            <path class="cls-6" d="M410,169.39c-27.06-15.21-49-6.19-49,20.16,0,11.81,4.41,25.1,11.71,37.54l11.39-1.21c-5.83-9.4-9.4-19.61-9.4-28.63,0-19,15.8-25.48,35.3-14.52s35.3,35.23,35.3,54.21c0,9-3.57,15.21-9.4,18.06l11.39,14c7.3-4.23,11.71-12.55,11.71-24.36C459,218.29,437.06,184.6,410,169.39Z" />
            <path class="cls-21" d="M445,232l13.51,5.37c-3.48-25-23.85-54.11-48.47-68-27.06-15.21-49-6.19-49,20.16,0,11.81,4.41,25.1,11.71,37.54l11.39-1.21c-5.83-9.4-9.4-19.61-9.4-28.63,0-19,15.81-25.95,35.3-14.52A72.6,72.6,0,0,1,445,232Z" />
            <path class="cls-4" d="M439,213.83c3.56.15,8.28.44,12.24.7-8.72-18.1-23.94-35.41-41.26-45.14-27.06-15.21-49-6.19-49,20.16,0,11.81,4.41,25.1,11.71,37.54l11.39-1.21c-5.83-9.4-9.4-19.61-9.4-28.63,0-19,15.8-25.48,35.3-14.52C422,189.49,432.64,201.31,439,213.83Z" />
            <path class="cls-17" d="M437.6,193.19a99,99,0,0,0-27.6-23.8c-27.06-15.21-49-6.19-49,20.16,0,11.81,4.41,25.1,11.71,37.54l11.39-1.21c-5.83-9.4-9.4-19.61-9.4-28.63,0-19,15.8-25.48,35.3-14.52a71.67,71.67,0,0,1,20.34,17.71Z" />
            <path class="cls-5" d="M398.72,178.18l-5.13-15.27c-19-4.1-32.59,5.9-32.59,26.64,0,11.81,4.41,25.1,11.71,37.54l11.39-1.21c-5.83-9.4-9.4-19.61-9.4-28.63C374.7,182.11,384.76,174.91,398.72,178.18Z" />
            <path class="cls-1" d="M374.74,195.64c-5.41-3.56-10.3-6.78-13.65-9q-.09,1.41-.09,2.88c0,11.81,4.41,25.1,11.71,37.54l11.39-1.21c-5.83-9.4-9.4-19.61-9.4-28.63C374.7,196.7,374.71,196.17,374.74,195.64Z" />
        </g>
        <g id="loading-mask">
            <rect class="lm" id="lm-1" x="310" y="120" width="100" height="100" />
            <rect class="lm" id="lm-2" x="410" y="120" width="100" height="100" />
            <rect class="lm" id="lm-3" x="410" y="220" width="100" height="100" />
        </g>
        <g id="marker-2" data-name="marker">
            <path class="cls-18" d="M439.21,234.6c0-14.61-11.85-33.3-26.46-41.73S387,187,383,204c-1.7,7.23,44,47,44,47C436,246,439.21,242,439.21,234.6Z" />
            <path class="cls-1" d="M434.74,236.39c0-14.61-11.84-33.3-26.45-41.74s-26.46-3.43-26.46,11.19c0,7.43,3.07,15.91,8,23.56l-.22-.12,18.65,30.6L427,251C432,248,434.74,243.82,434.74,236.39Z" />
        </g>
        <line id="dotted-line" class="cls-19" x1="408.5" y1="273.5" x2="408.5" y2="324.5" />
        <g id="doc-icon">
            <path class="cls-20" d="M418,238.2l-21-12.13V209.61l4.5-1.32,3.42-1.14L418,214.7Zm-20-12.78,18,10.4V215.28l-11-6.34-3,1-4,1.19Z" />
            <polygon class="cls-20" points="406 216.01 398 211.39 398 209.54 405 213.58 405 207.71 406 208.67 406 216.01" />
            <polygon class="cls-20" points="412 224.05 402 218.28 402 216.58 412 222.35 412 224.05" />
            <polygon class="cls-20" points="412 227.24 402 221.46 402 219.76 412 225.53 412 227.24" />
            <polygon class="cls-20" points="412 230.56 402 224.78 402 223.08 412 228.86 412 230.56" />
        </g>
    </g>
    <g id="display-darkblue">
        <polygon class="cls-22" points="544 796 617 751 471.79 677.92 544 796" />
        <g id="paper">
            <path class="cls-10" d="M575.27,607.54,536,591l13-8S575,608,575.27,607.54Z" />
            <path class="cls-23" d="M510,542l119.77,38.79s-28.89,87.38-122.45-34.62C507.32,546.17,510.37,542.42,510,542Z" />
            <path class="cls-24" d="M562.64,594.38,526,571l62.08,31.17S578.22,601,562.64,594.38Z" />
            <polygon class="cls-24" points="540.91 561.46 614.82 591.05 618.12 587.89 528.4 553.93 540.91 561.46" />
            <path class="cls-24" d="M540.91,572.49l61.62,28.79s4.58.23,6-1.54l-80.11-38.28Z" />
        </g>
        <g id="device">
            <path id="frame-2" data-name="frame" class="cls-25" d="M545,426.84c0-3-2.46-6.87-5.46-8.6L301.46,280.62a4.57,4.57,0,0,0-4.65-.07L285,285,532,803l12-7a2.68,2.68,0,0,0,1-2.21Z" />
            <path id="body" class="cls-26" d="M528.54,802.19,288.46,663.57c-3-1.73-5.46-5.6-5.46-8.6V288c0-3,2.46-4,5.46-2.3L528.54,424.32c3,1.74,5.46,5.61,5.46,8.61v367C534,802.88,531.54,803.92,528.54,802.19Z" />
            <path id="screen" class="cls-27" d="M506.44,757.23l-200.88-116c-2.51-1.45-4.56-4.69-4.56-7.2v-307c0-2.51,2.05-3.38,4.56-1.93l200.88,116c2.51,1.45,4.56,4.69,4.56,7.2v307C511,757.82,509,758.68,506.44,757.23Z" />
        </g>
        <g id="info-top">
            <polygon class="cls-26" points="377 391.28 325 361.26 325 389.75 377 419.77 377 391.28" />
            <polygon class="cls-26" points="383 394.24 383 423.01 479 478.43 479 449.67 383 394.24" />
            <polygon class="cls-26" points="356 421.39 326 404.07 326 432.26 356 449.59 356 421.39" />
            <polygon class="cls-26" points="424 460.93 361 424.55 361 453.08 424 489.45 424 460.93" />
            <polygon class="cls-26" points="430 463.94 430 492.71 479 521 479 492.23 430 463.94" />
        </g>
        <g class="placeholders" id="lines-top">
            <polygon class="cls-12" points="322 472.48 283 449.96 283 467.63 322 490.14 322 472.48" />
            <polygon class="cls-12" points="326 474.5 326 492.11 356 509.43 356 491.82 326 474.5" />
            <polygon class="cls-12" points="336 504.93 283 474.33 283 492.1 336 522.7 336 504.93" />
        </g>
        <g class="placeholders" id="lines-bottom">
            <polygon class="cls-12" points="296.17 540.9 283 533.3 283 551.01 296.9 559.04 296.17 540.9" />
            <polygon class="cls-12" points="303 542.98 303 560.59 333 577.91 333 560.29 303 542.98" />
            <polygon class="cls-12" points="359 601.65 284 558.35 284 576.09 359 619.39 359 601.65" />
        </g>
        <g class="cards" id="card-top">
            <path class="cls-1" d="M362.8,550.47l-86.6-50c-4-2.28-7.2-7.39-7.2-11.36V435c0-4,3.24-5.34,7.2-3l86.6,50c4,2.28,7.2,7.4,7.2,11.36v54.16C370,551.39,366.76,552.76,362.8,550.47Z" />
            <polygon class="cls-12" points="322 472.48 283 449.96 283 467.63 322 490.14 322 472.48" />
            <polygon class="cls-12" points="326 474.5 326 492.11 356 509.43 356 491.82 326 474.5" />
            <polygon class="cls-12" points="336 504.93 283 474.33 283 492.1 336 522.7 336 504.93" />
        </g>
        <g class="cards" id="card-bottom">
            <path class="cls-1" d="M362.78,634.26l-86.56-50c-4-2.29-7.22-7.42-7.22-11.39V518.78c0-4,3.25-5.35,7.22-3l86.56,50c4,2.29,7.22,7.42,7.22,11.39v54.12C370,635.18,366.75,636.56,362.78,634.26Z" />
            <polygon class="cls-12" points="296.17 540.9 283 533.3 283 551.01 296.9 559.04 296.17 540.9" />
            <polygon class="cls-12" points="303 542.98 303 560.59 333 577.91 333 560.29 303 542.98" />
            <polygon class="cls-12" points="359 601.65 284 558.35 284 576.09 359 619.39 359 601.65" />
        </g>
        <g id="info-right">
            <ellipse id="bullet-1" class="cls-26" cx="398.5" cy="549.5" rx="4.17" ry="7.42" transform="translate(-245.89 336.15) rotate(-35.73)" />
            <path id="line-1" class="cls-26" d="M491,606.28V596l-78-45v9.72C429.74,569.68,468.48,592.77,491,606.28Z" />
            <path id="line-top" class="cls-26" d="M474,563V553l-78-45v10C412.74,527,451.48,549.49,474,563Z" />
            <ellipse id="bullet-2" class="cls-26" cx="398.5" cy="574.5" rx="4.17" ry="7.42" transform="translate(-260.49 340.86) rotate(-35.73)" />
            <ellipse id="bullet-3" class="cls-26" cx="398.5" cy="599.5" rx="4.17" ry="7.42" transform="translate(-275.09 345.56) rotate(-35.73)" />
            <ellipse id="bullet-4" class="cls-26" cx="398.5" cy="624.5" rx="4.17" ry="7.42" transform="translate(-289.69 350.27) rotate(-35.73)" />
            <path id="line-4" class="cls-26" d="M491,681.33V671l-78-45v9.72C429.74,644.73,468.48,667.82,491,681.33Z" />
            <path id="line-2" class="cls-26" d="M462,603.94l-49-28.29v9.75c10.69,5.76,30.32,17.24,49,28.32Z" />
            <path id="line-3" class="cls-26" d="M477,638.18l-64-36.95V611c13.63,7.35,41.84,24,64,37.26Z" />
        </g>
        <path id="yellow-woman-hand" class="cls-9" d="M258.21,483.65c3.79.35,11.93-.94,18.38-3a30.13,30.13,0,0,1-16.21,13.46C260,494.29,257.81,483.62,258.21,483.65Z" />
    </g>
</svg>