<svg width="50" height="12" xmlns="http://www.w3.org/2000/svg" xmlns:xlink="http://www.w3.org/1999/xlink"><use xlink:href="#path0_stroke" transform="translate(1 4)" fill="#FFF"/><use xlink:href="#path1_stroke" transform="translate(.5 -.41)" fill="#FFF"/><use xlink:href="#path1_stroke" transform="matrix(1 0 0 -1 .5 11.59)" fill="#FFF"/><defs><path id="path0_stroke" d="M.5 1c-.276142 0-.5.22386-.5.5s.223858.5.5.5V1zm47.0106 1c.2762 0 .5-.22386.5-.5s-.2238-.5-.5-.5v1zM.5 2h47.0106V1H.5v1z"/><path id="path1_stroke" d="M5.31243 1.26695c.19598-.19454.19713-.511125.00259-.707099-.19455-.195975-.51113-.197132-.7071-.002585l.70451.709684zM-.352259 5.48131c-.195974.19454-.197131.51112-.002584.7071.194547.19597.511127.19713.707102.00258l-.704518-.70968zM4.60792.557266L-.352259 5.48131l.704518.70968L5.31243 1.26695 4.60792.557266z"/></defs></svg>
