<svg viewBox="0 0 128 105" xmlns="http://www.w3.org/2000/svg" fill-rule="evenodd" clip-rule="evenodd" stroke-linejoin="round" stroke-miterlimit="1.414" width="24" height="24"><path d="M127.992 12.3a52.574 52.574 0 0 1-15.08 4.14c5.42-3.252 9.584-8.4 11.544-14.532a52.573 52.573 0 0 1-16.676 6.374A26.219 26.219 0 0 0 88.613 0c-14.5 0-26.26 11.76-26.26 26.26 0 2.06.23 4.064.68 5.986-21.828-1.1-41.18-11.56-54.13-27.44a26.14 26.14 0 0 0-3.555 13.2c0 9.11 4.636 17.147 11.68 21.86a26.17 26.17 0 0 1-11.892-3.29v.33c0 12.73 9.06 23.34 21.06 25.755-2.2.6-4.52.92-6.906.92-1.692 0-3.34-.16-4.94-.47 3.34 10.436 13.04 18.028 24.53 18.24a52.717 52.717 0 0 1-32.62 11.24c-2.12 0-4.206-.12-6.26-.366 11.62 7.452 25.426 11.8 40.255 11.8 48.3 0 74.715-40.02 74.715-74.72 0-1.14-.026-2.27-.076-3.4A53.266 53.266 0 0 0 128 12.305"/></svg>