<svg width="200" height="2000" viewBox="0 0 200 2000" fill="none"
    xmlns="http://www.w3.org/2000/svg">
    <circle opacity="0.3" cx="107.604" cy="988.5" r="4.5" stroke="white" stroke-width="2"/>
    <path opacity="0.3" d="M141.434 1004.61L157.723 1002.28L151.596 1017.55L141.434 1004.61Z" stroke="white" stroke-width="2"/>
    <path opacity="0.3" d="M71.5044 913.976L70.548 904.115L79.5662 908.217L71.5044 913.976Z" stroke="white" stroke-width="2"/>
    <line opacity="0.3" x1="47.7315" y1="979.638" x2="64.078" y2="987.174" stroke="white" stroke-width="3"/>
    <line opacity="0.6" x1="133.362" y1="922.17" x2="141.235" y2="917.696" stroke="white" stroke-width="3"/>
    <circle opacity="0.6" cx="115.5" cy="1444.5" r="7.5" stroke="white" stroke-width="2"/>
    <circle opacity="0.6" cx="58.6035" cy="195.5" r="7.5" stroke="white" stroke-width="2"/>
    <circle opacity="0.6" cx="173.5" cy="46.5" r="7.5" stroke="white" stroke-width="2"/>
    <circle opacity="0.3" cx="110.604" cy="150.5" r="4.5" stroke="white" stroke-width="2"/>
    <circle opacity="0.3" cx="80.5" cy="26.5" r="4.5" stroke="white" stroke-width="2"/>
    <path opacity="0.3" d="M28.3303 51.6098L44.619 49.28L38.4923 64.5513L28.3303 51.6098Z" stroke="white" stroke-width="2"/>
    <path opacity="0.3" d="M128.504 183.976L127.548 174.115L136.566 178.217L128.504 183.976Z" stroke="white" stroke-width="2"/>
    <path opacity="0.3" d="M98.4009 59.976L97.4445 50.1149L106.463 54.2172L98.4009 59.976Z" stroke="white" stroke-width="2"/>
    <path opacity="0.3" d="M93.4009 1856.98L92.4445 1847.11L101.463 1851.22L93.4009 1856.98Z" stroke="white" stroke-width="2"/>
    <line opacity="0.3" x1="75.7315" y1="222.638" x2="92.078" y2="230.174" stroke="white" stroke-width="3"/>
    <line opacity="0.3" x1="105.628" y1="81.6378" x2="121.974" y2="89.1739" stroke="white" stroke-width="3"/>
    <line opacity="0.3" x1="40.628" y1="1895.64" x2="56.9745" y2="1903.17" stroke="white" stroke-width="3"/>
    <line opacity="0.3" x1="103.628" y1="1512.64" x2="119.974" y2="1520.17" stroke="white" stroke-width="3"/>
    <line opacity="0.6" x1="137.362" y1="138.17" x2="145.235" y2="133.696" stroke="white" stroke-width="3"/>
    <circle opacity="0.6" cx="57.6035" cy="326.5" r="7.5" stroke="white" stroke-width="2"/>
    <circle opacity="0.6" cx="54.6035" cy="1260.5" r="7.5" stroke="white" stroke-width="2"/>
    <circle opacity="0.3" cx="173.604" cy="248.5" r="4.5" stroke="white" stroke-width="2"/>
    <circle opacity="0.3" cx="138.5" cy="1921.5" r="4.5" stroke="white" stroke-width="2"/>
    <path opacity="0.3" d="M138.434 191.61L154.723 189.28L148.596 204.551L138.434 191.61Z" stroke="white" stroke-width="2"/>
    <path opacity="0.3" d="M39.6288 148.971L37.2643 132.688L52.5486 138.782L39.6288 148.971Z" stroke="white" stroke-width="2"/>
    <path opacity="0.3" d="M103.33 1864.61L119.619 1862.28L113.492 1877.55L103.33 1864.61Z" stroke="white" stroke-width="2"/>
    <path opacity="0.3" d="M166.33 1481.61L182.619 1479.28L176.492 1494.55L166.33 1481.61Z" stroke="white" stroke-width="2"/>
    <path opacity="0.3" d="M151.504 284.976L150.548 275.115L159.566 279.217L151.504 284.976Z" stroke="white" stroke-width="2"/>
    <path opacity="0.3" d="M116.401 1957.98L115.444 1948.11L124.463 1952.22L116.401 1957.98Z" stroke="white" stroke-width="2"/>
    <line opacity="0.3" x1="90.7315" y1="292.638" x2="107.078" y2="300.174" stroke="white" stroke-width="3"/>
    <line opacity="0.3" x1="55.628" y1="1965.64" x2="71.9745" y2="1973.17" stroke="white" stroke-width="3"/>
    <line opacity="0.6" x1="122.362" y1="232.17" x2="130.235" y2="227.696" stroke="white" stroke-width="3"/>
    <line opacity="0.6" x1="92.2588" y1="108.17" x2="100.132" y2="103.696" stroke="white" stroke-width="3"/>
    <line opacity="0.6" x1="87.2588" y1="1905.17" x2="95.1315" y2="1900.7" stroke="white" stroke-width="3"/>
    <line opacity="0.6" x1="150.259" y1="1522.17" x2="158.132" y2="1517.7" stroke="white" stroke-width="3"/>
    <circle opacity="0.6" cx="98.6035" cy="517.5" r="7.5" stroke="white" stroke-width="2"/>
    <circle opacity="0.6" cx="34.5" cy="1040.5" r="7.5" stroke="white" stroke-width="2"/>
    <circle opacity="0.3" cx="65.6035" cy="389.5" r="4.5" stroke="white" stroke-width="2"/>
    <circle opacity="0.3" cx="62.6035" cy="1323.5" r="4.5" stroke="white" stroke-width="2"/>
    <circle opacity="0.3" cx="45.5" cy="1637.5" r="4.5" stroke="white" stroke-width="2"/>
    <circle opacity="0.3" cx="107.5" cy="807.5" r="4.5" stroke="white" stroke-width="2"/>
    <path opacity="0.3" d="M109.434 402.61L125.723 400.28L119.596 415.551L109.434 402.61Z" stroke="white" stroke-width="2"/>
    <path opacity="0.3" d="M89.3303 1093.61L105.619 1091.28L99.4923 1106.55L89.3303 1093.61Z" stroke="white" stroke-width="2"/>
    <path opacity="0.3" d="M89.3303 1650.61L105.619 1648.28L99.4923 1663.55L89.3303 1650.61Z" stroke="white" stroke-width="2"/>
    <path opacity="0.3" d="M151.33 820.61L167.619 818.28L161.492 833.551L151.33 820.61Z" stroke="white" stroke-width="2"/>
    <path opacity="0.3" d="M52.3303 580.61L68.619 578.28L62.4923 593.551L52.3303 580.61Z" stroke="white" stroke-width="2"/>
    <path opacity="0.3" d="M49.3303 1514.61L65.619 1512.28L59.4923 1527.55L49.3303 1514.61Z" stroke="white" stroke-width="2"/>
    <path opacity="0.3" d="M133.504 460.976L132.548 451.115L141.566 455.217L133.504 460.976Z" stroke="white" stroke-width="2"/>
    <path opacity="0.3" d="M113.401 1151.98L112.444 1142.11L121.463 1146.22L113.401 1151.98Z" stroke="white" stroke-width="2"/>
    <path opacity="0.3" d="M24.4009 1549.98L23.4445 1540.11L32.4627 1544.22L24.4009 1549.98Z" stroke="white" stroke-width="2"/>
    <path opacity="0.3" d="M76.4009 638.976L75.4445 629.115L84.4627 633.217L76.4009 638.976Z" stroke="white" stroke-width="2"/>
    <path opacity="0.3" d="M73.4009 1572.98L72.4445 1563.11L81.4627 1567.22L73.4009 1572.98Z" stroke="white" stroke-width="2"/>
    <line opacity="0.3" x1="50.7315" y1="485.638" x2="67.078" y2="493.174" stroke="white" stroke-width="3"/>
    <line opacity="0.3" x1="47.7315" y1="1419.64" x2="64.078" y2="1427.17" stroke="white" stroke-width="3"/>
    <line opacity="0.3" x1="30.628" y1="1176.64" x2="46.9745" y2="1184.17" stroke="white" stroke-width="3"/>
    <line opacity="0.6" x1="78.3623" y1="429.171" x2="86.235" y2="424.696" stroke="white" stroke-width="3"/>
    <line opacity="0.6" x1="58.2588" y1="1120.17" x2="66.1315" y2="1115.7" stroke="white" stroke-width="3"/>
    <line opacity="0.6" x1="58.2588" y1="1677.17" x2="66.1315" y2="1672.7" stroke="white" stroke-width="3"/>
    <line opacity="0.6" x1="120.259" y1="847.171" x2="128.132" y2="842.696" stroke="white" stroke-width="3"/>
    <line opacity="0.6" x1="21.2588" y1="607.171" x2="29.1315" y2="602.696" stroke="white" stroke-width="3"/>
    <circle opacity="0.6" cx="31.4103" cy="1820.76" r="7.5" transform="rotate(-75 31.4103 1820.76)" stroke="white" stroke-width="2"/>
    <circle opacity="0.3" cx="154.971" cy="1757.59" r="4.5" transform="rotate(-75 154.971 1757.59)" stroke="white" stroke-width="2"/>
    <path opacity="0.3" d="M127.128 1715.11L129.093 1698.77L142.258 1708.64L127.128 1715.11Z" stroke="white" stroke-width="2"/>
    <path opacity="0.3" d="M90.1277 645.108L92.0932 628.771L105.258 638.642L90.1277 645.108Z" stroke="white" stroke-width="2"/>
    <path opacity="0.3" d="M73.643 1773.17L63.8703 1771.54L70.1669 1763.9L73.643 1773.17Z" stroke="white" stroke-width="2"/>
    <path opacity="0.3" d="M135.643 943.173L125.87 941.545L132.167 933.895L135.643 943.173Z" stroke="white" stroke-width="2"/>
    <line opacity="0.3" x1="130.915" y1="1813.13" x2="142.425" y2="1799.29" stroke="white" stroke-width="3"/>
    <line opacity="0.6" x1="103.415" y1="1728.5" x2="101.13" y2="1719.74" stroke="white" stroke-width="3"/>
    <line opacity="0.6" x1="165.415" y1="898.498" x2="163.13" y2="889.736" stroke="white" stroke-width="3"/>
    <line opacity="0.6" x1="66.4147" y1="658.498" x2="64.1303" y2="649.736" stroke="white" stroke-width="3"/>
    <line opacity="0.6" x1="63.4147" y1="1592.5" x2="61.1303" y2="1583.74" stroke="white" stroke-width="3"/>
    <circle opacity="0.6" cx="103.604" cy="742.5" r="7.5" stroke="white" stroke-width="2"/>
    <circle opacity="0.3" cx="53.6035" cy="697.5" r="4.5" stroke="white" stroke-width="2"/>
    <circle opacity="0.3" cx="142.5" cy="1597.5" r="4.5" stroke="white" stroke-width="2"/>
    <circle opacity="0.3" cx="63.5" cy="808.5" r="4.5" stroke="white" stroke-width="2"/>
    <path opacity="0.3" d="M103.434 661.61L119.723 659.28L113.596 674.551L103.434 661.61Z" stroke="white" stroke-width="2"/>
    <path opacity="0.3" d="M88.5044 793.976L87.548 784.115L96.5662 788.217L88.5044 793.976Z" stroke="white" stroke-width="2"/>
    <line opacity="0.3" x1="131.732" y1="706.638" x2="148.078" y2="714.174" stroke="white" stroke-width="3"/>
    <line opacity="0.6" x1="65.3623" y1="754.17" x2="73.235" y2="749.696" stroke="white" stroke-width="3"/>
    <circle opacity="0.6" cx="164.604" cy="1393.5" r="7.5" stroke="white" stroke-width="2"/>
    <circle opacity="0.3" cx="122.604" cy="1267.5" r="4.5" stroke="white" stroke-width="2"/>
    <path opacity="0.3" d="M138.434 1289.61L154.723 1287.28L148.596 1302.55L138.434 1289.61Z" stroke="white" stroke-width="2"/>
    <path opacity="0.3" d="M93.5044 1358.98L92.548 1349.11L101.566 1353.22L93.5044 1358.98Z" stroke="white" stroke-width="2"/>
    <line opacity="0.3" x1="160.628" y1="1168.64" x2="176.974" y2="1176.17" stroke="white" stroke-width="3"/>
    <line opacity="0.6" x1="147.362" y1="1345.17" x2="155.235" y2="1340.7" stroke="white" stroke-width="3"/>
</svg>
