<svg width="238" height="238" viewBox="0 0 238 238" fill="none" xmlns="http://www.w3.org/2000/svg">
<path fill-rule="evenodd" clip-rule="evenodd" d="M45.9775 56.7955C45.9775 50.8208 50.821 45.9773 56.7957 45.9773H181.205C187.18 45.9773 192.023 50.8208 192.023 56.7955V181.205C192.023 187.179 187.18 192.023 181.205 192.023H56.7957C50.821 192.023 45.9775 187.179 45.9775 181.205V56.7955ZM67.6139 70.3182C67.6139 68.8245 68.8248 67.6137 70.3184 67.6137H86.5457C88.0394 67.6137 89.2503 68.8245 89.2503 70.3182V86.5455C89.2503 88.0392 88.0394 89.25 86.5457 89.25H70.3184C68.8248 89.25 67.6139 88.0392 67.6139 86.5455V70.3182ZM97.3639 67.6137C95.8702 67.6137 94.6594 68.8245 94.6594 70.3182V86.5455C94.6594 88.0392 95.8702 89.25 97.3639 89.25H113.591C115.085 89.25 116.296 88.0392 116.296 86.5455V70.3182C116.296 68.8245 115.085 67.6137 113.591 67.6137H97.3639ZM121.705 70.3182C121.705 68.8245 122.916 67.6137 124.409 67.6137H140.637C142.13 67.6137 143.341 68.8245 143.341 70.3182V86.5455C143.341 88.0392 142.13 89.25 140.637 89.25H124.409C122.916 89.25 121.705 88.0392 121.705 86.5455V70.3182ZM70.3184 94.6591C68.8248 94.6591 67.6139 95.87 67.6139 97.3637V113.591C67.6139 115.085 68.8248 116.295 70.3184 116.295H86.5457C88.0394 116.295 89.2503 115.085 89.2503 113.591V97.3637C89.2503 95.87 88.0394 94.6591 86.5457 94.6591H70.3184ZM94.6594 97.3637C94.6594 95.87 95.8702 94.6591 97.3639 94.6591H113.591C115.085 94.6591 116.296 95.87 116.296 97.3637V113.591C116.296 115.085 115.085 116.295 113.591 116.295H97.3639C95.8702 116.295 94.6594 115.085 94.6594 113.591V97.3637ZM151.455 94.6591C149.961 94.6591 148.75 95.87 148.75 97.3637V113.591C148.75 115.085 149.961 116.295 151.455 116.295H167.682C169.176 116.295 170.387 115.085 170.387 113.591V97.3637C170.387 95.87 169.176 94.6591 167.682 94.6591H151.455ZM67.6139 124.409C67.6139 122.915 68.8248 121.705 70.3184 121.705H86.5457C88.0394 121.705 89.2503 122.915 89.2503 124.409V140.636C89.2503 142.13 88.0394 143.341 86.5457 143.341H70.3184C68.8248 143.341 67.6139 142.13 67.6139 140.636V124.409ZM124.409 121.705C122.916 121.705 121.705 122.915 121.705 124.409V140.636C121.705 142.13 122.916 143.341 124.409 143.341H140.637C142.13 143.341 143.341 142.13 143.341 140.636V124.409C143.341 122.915 142.13 121.705 140.637 121.705H124.409ZM148.75 124.409C148.75 122.915 149.961 121.705 151.455 121.705H167.682C169.176 121.705 170.387 122.915 170.387 124.409V140.636C170.387 142.13 169.176 143.341 167.682 143.341H151.455C149.961 143.341 148.75 142.13 148.75 140.636V124.409ZM97.3639 148.75C95.8702 148.75 94.6594 149.961 94.6594 151.455V167.682C94.6594 169.176 95.8702 170.386 97.3639 170.386H113.591C115.085 170.386 116.296 169.176 116.296 167.682V151.455C116.296 149.961 115.085 148.75 113.591 148.75H97.3639ZM121.705 151.455C121.705 149.961 122.916 148.75 124.409 148.75H140.637C142.13 148.75 143.341 149.961 143.341 151.455V167.682C143.341 169.176 142.13 170.386 140.637 170.386H124.409C122.916 170.386 121.705 169.176 121.705 167.682V151.455ZM151.455 148.75C149.961 148.75 148.75 149.961 148.75 151.455V167.682C148.75 169.176 149.961 170.386 151.455 170.386H167.682C169.176 170.386 170.387 169.176 170.387 167.682V151.455C170.387 149.961 169.176 148.75 167.682 148.75H151.455Z" fill="white"/>
</svg>
