<svg width="663" height="455" fill="none" xmlns="http://www.w3.org/2000/svg">
  <path d="M135.821 88c58.5 115 58.5 282.5-13.5 305-22 5-75-59.5-61-94.5 8.5-20 33-66 160-103.5 5-.5-7.5 10-6.5-4.5s-12.5 69 13.5 34.5c6.4-7.2 8.333-20.667 8.5-26.5-.167 15.167 3 39.2 17 14m0 0c17.5-31.5 25-20 24-5.5m-24 5.5c-4.5 17.5 23 9 24-5.5m0 0c-.333 10.167 2.6 24.4 17 0 5-8.5 1.5 10.5 7 10.5s10.5-16 18.5-10.5 9.5 18 55 18M515.321 185c-11.5 9.5-22 71 0 48.5s14-48.5 0-48.5zm0 0c25.6-18.8 70.667-52.167 90-66.5M442.321 195.499c-8.5-17.5-27.5 29-9.5 14.5 4.4-4 8.167-11.334 9.5-14.5zm0 0c-2 4.666-5.4 15.1-3 19.5 3 5.5 43.5-107.5 39-138.5s-46 72-23 144.5c2.806 8.137 9.233-11.436 17.956-25.5m24.044-6.999c-8.996-11.629-17.222-4-24.044 6.999m0 0c-4.497 17.721-7.026 33.107-7.919 44.501m0 0c-1.881 23.969 3.474 30.273 12.963 3.5 4.4-12.8 6.833-34 7.5-43 21.5 65.5-9.5 200-46.5 145-13-19.5-18.5-25.5-17.5-35.5 4.5-36.5 23.073-68.5 43.537-70z" stroke="#fff" stroke-width="12" stroke-linecap="round" stroke-linejoin="round"/>
  <path d="M368.321 193.489c-6.5 23.5-1 66.5 11.5 47 3.525-5.499 5.699-10.522 7.406-15m18.594-22.5c-12.923 3.231-14.249 11.101-18.594 22.5m0 0c-2.406 24 3.594 14.5 18.594-6.5 15-21 19-163.989 5.5-96.996-6.315 31.34-7 134.997 4.5 135.497M322.321 174.5c9.5 11 21.5-7.5 74.5-15" stroke="#fff" stroke-width="12" stroke-linecap="round" stroke-linejoin="round"/>
  <path d="M349.321 62c-6.5 31-11 168-5.5 220 4.4 41.6 5.5 60.667 5.5 65M278.321 67c7.5 12.5 7 43.5 0 206-2.673 62.06.5 86.833 4 77.5" stroke="#fff" stroke-width="12" stroke-linecap="round" stroke-linejoin="round"/>
</svg>
