<svg width="1043" height="1043" fill="none" xmlns="http://www.w3.org/2000/svg">
  <g opacity="1" stroke="#1152FA" stroke-width="24">
    <path d="M497.795 497.795h-213.34V23.704h213.34v474.091z"/>
    <path d="M293.344 308.158h126.424M293.344 402.977h126.424M293.344 213.342h126.424" stroke-linecap="square"/>
    <path d="M414.83 70.126c20.183 0 36.544 16.361 36.544 36.544 0 20.183-16.361 36.545-36.544 36.545-20.183 0-36.545-16.362-36.545-36.545 0-20.183 16.362-36.544 36.545-36.544z"/>
    <path d="M173.833 437.767c-13.141-7.072-28.173-11.085-44.143-11.085-15.417 0-29.961 3.74-42.773 10.363" stroke-linejoin="round"/>
    <path clip-rule="evenodd" d="M130.375 491.134L237.046 363.13V125.635c0-56.184-47.653-101.93-106.671-101.93-59.018 0-106.67 45.746-106.67 101.93V363.13l106.67 128.004z"/>
    <path d="M94.818 148.154v202.279M165.932 148.154v202.279" stroke-linecap="square"/>
    <path d="M19.754 130.375H241.49M23.702 355.568h215.321M1019.3 1019.29H805.955V545.204H1019.3v474.086z"/>
    <path d="M814.844 829.658h126.424M814.844 924.477h126.424M814.844 734.84h126.424" stroke-linecap="square"/>
    <path d="M936.33 591.626c20.182 0 36.544 16.361 36.544 36.544 0 20.183-16.362 36.545-36.544 36.545-20.183 0-36.545-16.362-36.545-36.545 0-20.183 16.362-36.544 36.545-36.544z"/>
    <path d="M695.333 959.267c-13.141-7.072-28.173-11.085-44.143-11.085-15.417 0-29.961 3.74-42.773 10.363" stroke-linejoin="round"/>
    <path clip-rule="evenodd" d="M651.875 1012.63l106.671-128V647.135c0-56.184-47.653-101.93-106.671-101.93-59.018 0-106.67 45.746-106.67 101.93V884.63l106.67 128z"/>
    <path d="M616.318 669.654v202.279M687.432 669.654v202.279" stroke-linecap="square"/>
    <path d="M541.254 651.875H762.99M545.202 877.068h215.321M533.352 331.863h237.046M687.432 284.455c26.183 0 47.409 21.226 47.409 47.409 0 26.184-21.226 47.409-47.409 47.409-26.184 0-47.409-21.225-47.409-47.409 0-26.183 21.225-47.409 47.409-47.409zM533.352 451.375h237.046M616.318 402.977c26.184 0 47.409 21.226 47.409 47.409s-21.225 47.409-47.409 47.409c-26.183 0-47.409-21.226-47.409-47.409s21.226-47.409 47.409-47.409zM912.625 23.704c58.913 0 106.675 47.758 106.675 106.67 0 58.913-47.762 106.671-106.675 106.671-58.912 0-106.67-47.758-106.67-106.671 0-58.912 47.758-106.67 106.67-106.67z"/>
    <path d="M912.625 88.891c22.91 0 41.483 18.573 41.483 41.483 0 22.911-18.573 41.483-41.483 41.483-22.91 0-41.483-18.572-41.483-41.483 0-22.91 18.573-41.483 41.483-41.483z"/>
    <path clip-rule="evenodd" d="M758.545 177.785h-106.67v48.183l-67.967-48.183h-38.704V23.705h213.341v154.08z"/>
    <path d="M1019.3 497.795H805.955V284.454H1019.3v213.341z"/>
    <path d="M847.438 390.113l44.16 42.495 86.214-82.965M11.852 853.363h237.046M165.932 805.955c26.183 0 47.409 21.226 47.409 47.409 0 26.184-21.226 47.409-47.409 47.409-26.184 0-47.409-21.225-47.409-47.409 0-26.183 21.225-47.409 47.409-47.409zM11.852 972.875h237.046M94.818 924.477c26.184 0 47.409 21.225 47.409 47.409 0 26.183-21.225 47.404-47.409 47.404-26.183 0-47.409-21.221-47.409-47.404 0-26.184 21.226-47.409 47.41-47.409zM391.125 545.204c58.912 0 106.67 47.758 106.67 106.67 0 58.913-47.758 106.671-106.67 106.671s-106.67-47.758-106.67-106.671c0-58.912 47.758-106.67 106.67-106.67z"/>
    <path d="M391.125 610.391c22.91 0 41.483 18.573 41.483 41.483 0 22.911-18.573 41.483-41.483 41.483-22.91 0-41.483-18.572-41.483-41.483 0-22.91 18.573-41.483 41.483-41.483z"/>
    <path clip-rule="evenodd" d="M237.045 699.285h-106.67v48.183l-67.967-48.183H23.704v-154.08h213.341v154.08z"/>
    <path d="M497.795 1019.29h-213.34V805.954h213.34v213.336z"/>
    <path d="M325.938 911.613l44.16 42.496 86.214-82.966"/>
  </g>
</svg>
