<svg width="26" height="12" xmlns="http://www.w3.org/2000/svg" xmlns:xlink="http://www.w3.org/1999/xlink"><g opacity=".411" fill="#FFF"><use xlink:href="#a" transform="matrix(-1 0 0 1 25 4)"/><use xlink:href="#b" transform="matrix(-1 0 0 1 25.5 -.41)"/><use xlink:href="#b" transform="rotate(180 12.75 5.795)"/></g><defs><path id="a" d="M.5 1a.5.5 0 0 0 0 1V1zm24 1a.5.5 0 0 0 0-1v1zM.5 2h24V1H.5v1z"/><path id="b" d="M5.312 1.267a.5.5 0 1 0-.704-.71l.704.71zM-.352 5.48a.5.5 0 1 0 .704.71l-.704-.71zM4.608.557l-4.96 4.924.704.71 4.96-4.924-.704-.71z"/></defs></svg>