<svg xmlns="http://www.w3.org/2000/svg" viewBox="0 0 1920 1080"><title>ux-guild</title><g fill="black" opacity="0.2" id="UX"><path d="M686.78,825.64c-60-20.68-96.07-62.41-108.33-124.21a253.92,253.92,0,0,1-3.17-37.9L573.16,207.6l-.06-12c.93-15,5.88-24,20.84-25,20.95-1.1,40.9-1.19,60.86-.28,17,.91,23,9.87,23.07,27.82l1,207.52L680.05,665c.11,23.94,8.18,44.86,30.19,56.73,29,15.82,77.87,11.61,97.72-10.44,8.93-12,14.86-24,14.78-40-.48-102.76,0-205.52-.43-308.28l-.7-150.65c0-7-.07-14,.9-20,2.92-17,8.87-23,25.83-23.06a484.22,484.22,0,0,1,53.88-.26c17,.92,22,6.89,24,23.84,0,8,1.07,16,1.11,23.94l1.06,228.46h-1l1,216.49c1.18,38.9-7.63,74.86-31.43,105.9-26.77,36-62.58,58.16-107.44,65.35C753.68,838.29,719.76,837.45,686.78,825.64Z" /><path d="M1027,828c-19-.91-25-8.86-18.09-27.85,10.84-29,22.67-59,33.51-88,23.66-62,47.31-123.93,72-184.91,7.89-20,6.81-37.94-.26-56.86-36.34-90.62-71.68-181.25-109-270.87-12.12-31.87-2.18-38.9,26.75-39a321.58,321.58,0,0,0,43.9-.21c18-.08,30,6.85,37,24.78,17.17,43.81,34.32,86.63,52.49,130.45,3,8,9,14.92,13.07,22.88,12-5,14.9-14,17.85-23,15.78-41,32.54-83,48.31-123.93,10.85-27,16.82-32,46.75-32.15l41.9-.19c25.94.87,32,8.83,23.1,33.81-22.68,58-44.36,115.94-67,173.91-13.81,35-26.61,71-41.41,106-6.9,18-6.83,34,.24,51.88,36.33,87.62,70.66,176.26,106,264.89a93.71,93.71,0,0,1,5.07,17.93q1.58,18-14.88,18-35.91,1.66-71.83.33c-13,.06-20-8.88-25-20.83-10.1-25.89-21.2-52.78-32.3-79.67-6-14.93-11.11-29.87-17.17-44.81-4-8-6.06-16.93-18.05-20.87-5,7-9.91,15-12.86,23-14.8,37-28.59,74-43.39,110.94a87.81,87.81,0,0,1-7.9,17c-4.94,11-13.89,17-25.86,17.08Z" /></g></svg>