<svg width="1440" height="582" viewBox="0 0 1440 582" fill="none" xmlns="http://www.w3.org/2000/svg">
<path opacity="0.6" d="M-108.435 287.406C-103.935 275.073 -89.9872 251.113 -70.1901 253.932C-45.4436 257.456 -40.9443 340.257 -0.450127 340.257C31.9452 340.257 41.5438 295.626 42.2937 273.31C43.0436 259.803 50.3926 232.79 73.7892 232.79C103.035 232.79 103.035 260.978 107.534 276.834C112.034 292.689 123.282 326.163 143.529 326.163C163.776 326.163 172.775 310.307 181.774 260.978C190.772 211.649 195.272 174.652 220.018 174.652C244.765 174.652 247.014 216.934 256.013 260.978C265.012 305.022 267.261 350.827 292.008 350.827C316.754 350.827 323.503 320.877 328.003 301.498C332.502 282.119 339.251 250.407 363.997 250.407C388.744 250.407 390.993 283.881 395.493 305.022C399.992 326.163 406.741 408.965 435.987 408.965C465.233 408.965 465.233 364.921 471.982 320.878C478.731 276.834 478.731 192.269 512.476 192.269C546.221 192.269 547.5 250.407 552.97 280.357C561.55 327.333 571.252 337 587 337C602.748 337 615.961 327.925 624.96 273.31C632.159 229.619 648.081 229.931 656.455 232.79C660 234 673.37 239.837 683.451 276.834C695.273 320.217 690.2 410.727 728.445 412.489C759.04 413.898 766.689 312.069 766.689 260.978C766.689 212.823 773.888 116.514 802.684 116.514C831.48 116.514 838.679 230.442 838.679 287.406C840.179 357.288 849.927 497.053 876.924 497.053C903.92 497.053 912.251 316.174 912.918 239.837C913.586 163.5 916.518 2 948.913 2C981.309 2 984.908 185.5 984.908 287.406C984.908 389.311 1001.56 579.855 1023.15 579.855C1044.75 579.855 1065.9 337 1065.9 292.689C1065.9 248.379 1070.4 194.736 1097.39 197.555C1124.39 200.374 1131.14 298 1131.14 333.21C1131.14 368.42 1144 437.153 1167.13 437.153C1198.53 437.153 1205.38 327.337 1205.38 268.025C1206.88 217.521 1216.17 116.514 1241.37 116.514C1266.57 116.514 1275.87 217.521 1277.37 268.025C1278.87 310.894 1288.61 396.633 1315.61 396.633C1342.61 396.633 1352.36 327.337 1353.85 292.689C1354.6 272.723 1361.95 232.79 1385.35 232.79C1414.6 232.79 1421 271.5 1425.84 287.406C1429.94 300.853 1437.09 327.925 1459.59 327.925C1482.09 327.925 1491.09 297.975 1497.83 260.978C1504.58 223.981 1509.08 204.602 1529.33 204.602C1549.58 204.602 1563.07 248.644 1563.07 268.025C1563.07 287.406 1565.32 393.109 1605.82 396.633C1638.21 399.452 1649.31 324.989 1650.81 287.406C1651.56 275.073 1658.46 250.407 1680.06 250.407C1701.65 250.407 1711.55 280.944 1713.8 296.213C1716.05 309.72 1726.85 336.733 1752.05 336.733C1777.24 336.733 1791.04 307.371 1794.79 292.689C1802.29 275.66 1825.84 250.762 1860.03 287.406" stroke="#8FA5FD" stroke-width="4"/>
<path opacity="0.2" d="M-110 291.282C-104.751 300.104 -87.0533 317.748 -58.2574 317.748C-29.4616 317.748 -24.5 299.387 -6.51489 282.461C11.4702 265.534 25.4305 261.288 45.2277 261.288C65.0248 261.288 81.5 271.5 94.7206 291.282C107.941 311.065 117.667 340.685 146.463 340.685C175.259 340.685 195.956 307.75 202.705 291.282C209.454 277.756 229.251 250.702 254.448 250.702C279.644 250.702 293.442 277.756 297.191 291.282C305.44 315.984 328.687 365.386 355.683 365.386C382.679 365.386 402.926 315.984 409.675 291.282C415.674 267.169 434.872 218.944 463.667 218.944C492.463 218.944 510.161 267.169 515.41 291.282C520.659 313.631 537.007 358.328 560.404 358.328C589.649 358.328 612.146 331.863 621.145 291.282C630.143 250.702 634.643 183.656 675.137 183.656C707.532 183.656 726.13 255.407 731.379 291.282C739.557 321.465 757.025 340.685 778.622 340.685C800.219 340.685 816.528 314.065 825.865 291.282C835.202 268.5 851.062 227.765 879.857 227.765C908.653 227.765 916.313 273.5 920.352 300.104C927.851 349.506 951.397 448.311 985.592 448.311C1019.79 448.311 1040.33 343.625 1046.33 291.282C1049.33 270.11 1061.63 227.765 1086.83 227.765C1112.02 227.765 1128.82 270.11 1134.07 291.282C1141.57 322.453 1163.77 384.794 1192.56 384.794C1221.36 384.794 1246.55 322.453 1255.55 291.282C1260.05 281.284 1274 261.288 1293.8 261.288C1318.54 261.288 1327.54 271.874 1345.54 291.282C1363.54 310.69 1365.79 331.863 1404.03 331.863C1434.63 331.863 1449.78 304.809 1453.53 291.282C1458.77 277.756 1476.02 250.702 1503.02 250.702C1530.01 250.702 1553.26 277.756 1561.51 291.282C1564.51 304.809 1578.61 331.863 1611 331.863C1643.4 331.863 1662 304.809 1667.24 291.282C1671.74 281.284 1687.04 261.288 1712.24 261.288C1737.43 261.288 1761.73 281.284 1770.73 291.282C1774.48 300.104 1789.18 317.748 1817.97 317.748C1846.77 317.748 1856.97 300.104 1858.47 291.282" stroke="#8FA5FD" stroke-width="3"/>
</svg>
