<svg width="49" height="20" viewBox="0 0 49 20" fill="none" xmlns="http://www.w3.org/2000/svg">
<path d="M2 17.4412C1.43147 17.4412 0.970588 17.9021 0.970588 18.4706C0.970588 19.0391 1.43147 19.5 2 19.5L2 17.4412ZM45.9216 18.4706L45.9216 19.5L48.4068 19.5L46.6495 17.7427L45.9216 18.4706ZM30.1789 1.27209C29.7769 0.870077 29.1251 0.870077 28.7231 1.27209C28.3211 1.6741 28.3211 2.32588 28.7231 2.7279L30.1789 1.27209ZM2 19.5L45.9216 19.5L45.9216 17.4412L2 17.4412L2 19.5ZM46.6495 17.7427L30.1789 1.27209L28.7231 2.7279L45.1937 19.1985L46.6495 17.7427Z" fill="#0B63CE"/>
</svg>
