<svg width="232" height="304" xmlns="http://www.w3.org/2000/svg"><g fill="#FFF" fill-rule="evenodd"><path d="M231.986 90.398c0-18.227-12.917-40.608-28.698-49.725l-58.59-33.835c-15.788-9.117-41.615-9.117-57.403 0l-58.59 33.835C12.917 49.79 0 72.171 0 90.398v135.027C0 234.576 7.421 242 16.57 242c9.154-.007 16.569-7.424 16.576-16.575V92.969c0-9.117 6.455-20.311 14.349-24.87l54.149-31.264c7.9-4.559 20.811-4.559 28.705 0l54.15 31.271c7.893 4.552 14.348 15.746 14.348 24.863l.007 76.85c0 9.158 7.415 16.581 16.563 16.588 6.441-.007 12.012-3.68 14.753-9.048a16.507 16.507 0 0 0 1.83-7.534l-.014-79.427zM232 228.526c0 9.095-7.39 16.467-16.507 16.474-9.11 0-16.493-7.379-16.493-16.474v-12.045c0-9.102 7.383-16.481 16.493-16.481 9.117 0 16.507 7.379 16.507 16.474v12.052z"/><path d="M115.5 108c-9.11.007-16.5 7.397-16.5 16.523l.007 103.96c0 9.12 7.383 16.517 16.493 16.517 9.117 0 16.5-7.397 16.5-16.516v-103.96c0-9.127-7.39-16.517-16.5-16.524"/><path d="M165.375 152.286c9.172 0 16.611-7.413 16.625-16.562v-32.718c0-9.121-6.477-20.313-14.397-24.874L129.904 56.42c-7.92-4.56-20.88-4.56-28.801 0L63.397 78.132C55.484 82.692 49 93.885 49 103.006v150.988c0 9.121 6.484 20.306 14.397 24.867l37.706 21.719c7.92 4.56 20.88 4.56 28.801 0l37.699-21.72c7.92-4.56 14.397-15.745 14.397-24.866V182.33c-.014-9.148-7.453-16.562-16.625-16.562-9.179 0-16.625 7.427-16.625 16.583v60.787c0 4.554-3.238 10.15-7.199 12.434L122.7 266.428c-3.96 2.283-10.437 2.283-14.398 0l-18.845-10.856c-3.96-2.284-7.2-7.88-7.2-12.434V113.862c0-4.56 3.24-10.15 7.2-12.44L108.3 90.564c3.96-2.283 10.437-2.283 14.398 0l18.852 10.856c3.96 2.29 7.199 7.88 7.199 12.44v21.843c0 9.155 7.446 16.582 16.625 16.582"/></g></svg>