<svg width="720" height="720" xmlns="http://www.w3.org/2000/svg"><g fill="none" fill-rule="evenodd"><path fill="#272833" d="M0 0H720V720H0z"/><ellipse fill="#4887FF" cx="223" cy="437.172" rx="132" ry="131.172"/><path fill="#6B6C7E" d="M390 318.007H630V558.0070000000001H390z"/><path fill="#FFF" d="M222.5 23.2373441L364 264.026119 81 264.026119z"/><g transform="translate(414 126)" fill="#4887FF"><path d="M46 7H66V16H46z"/><path d="M86 7H106V16H86z"/><path d="M126 7H146V16H126z"/><path d="M166 7H186V16H166z"/><path d="M0 11L22 0 22 22z"/></g><g transform="translate(8 503)"><path d="M0 0c0 81.738 66.262 148 148 148" stroke="#FFF" stroke-width="8" stroke-dasharray="19,20"/><path fill="#FFF" transform="rotate(-177 161.56 152.56)" d="M150.56062 152.56062L172.56062 141.56062 172.56062 163.56062z"/></g></g></svg>