<svg width="720" height="720" xmlns="http://www.w3.org/2000/svg"><g fill="none" fill-rule="evenodd"><path fill="#272833" d="M0 0H720V720H0z"/><ellipse fill="#6B6C7E" cx="261" cy="538.172" rx="132" ry="131.172"/><path fill="#FFF" d="M140 126H380V366H140z"/><path fill="#4887FF" d="M559.5 124L701 364.788775 418 364.788775z"/><g transform="translate(468 530)" fill="#FFF"><path d="M46 7H66V16H46z"/><path d="M86 7H106V16H86z"/><path d="M126 7H146V16H126z"/><path d="M166 7H186V16H166z"/><path d="M0 11L22 0 22 22z"/></g><g transform="matrix(1 0 0 -1 31 166)"><path d="M0 0c0 82.29 66.71 149 149 149" stroke="#4887FF" stroke-width="8" stroke-dasharray="19,20"/><path fill="#4887FF" transform="rotate(-177 162 153)" d="M151 153L173 142 173 164z"/></g></g></svg>